<svg version="1.1" xmlns="http://www.w3.org/2000/svg" xmlns:xlink="http://www.w3.org/1999/xlink" width="772" height="316"><defs/><g><text fill="#eeeeee" stroke="none" font-family="Arial" font-size="24px" font-style="normal" font-weight="normal" text-decoration="none" x="0" y="0">UNREGISTERED</text><text fill="#eeeeee" stroke="none" font-family="Arial" font-size="24px" font-style="normal" font-weight="normal" text-decoration="none" x="0" y="30">UNREGISTERED</text><text fill="#eeeeee" stroke="none" font-family="Arial" font-size="24px" font-style="normal" font-weight="normal" text-decoration="none" x="0" y="60">UNREGISTERED</text><text fill="#eeeeee" stroke="none" font-family="Arial" font-size="24px" font-style="normal" font-weight="normal" text-decoration="none" x="0" y="90">UNREGISTERED</text><text fill="#eeeeee" stroke="none" font-family="Arial" font-size="24px" font-style="normal" font-weight="normal" text-decoration="none" x="0" y="120">UNREGISTERED</text><text fill="#eeeeee" stroke="none" font-family="Arial" font-size="24px" font-style="normal" font-weight="normal" text-decoration="none" x="0" y="150">UNREGISTERED</text><text fill="#eeeeee" stroke="none" font-family="Arial" font-size="24px" font-style="normal" font-weight="normal" text-decoration="none" x="0" y="180">UNREGISTERED</text><text fill="#eeeeee" stroke="none" font-family="Arial" font-size="24px" font-style="normal" font-weight="normal" text-decoration="none" x="0" y="210">UNREGISTERED</text><text fill="#eeeeee" stroke="none" font-family="Arial" font-size="24px" font-style="normal" font-weight="normal" text-decoration="none" x="0" y="240">UNREGISTERED</text><text fill="#eeeeee" stroke="none" font-family="Arial" font-size="24px" font-style="normal" font-weight="normal" text-decoration="none" x="0" y="270">UNREGISTERED</text><text fill="#eeeeee" stroke="none" font-family="Arial" font-size="24px" font-style="normal" font-weight="normal" text-decoration="none" x="0" y="300">UNREGISTERED</text><text fill="#eeeeee" stroke="none" font-family="Arial" font-size="24px" font-style="normal" font-weight="normal" text-decoration="none" x="200" y="0">UNREGISTERED</text><text fill="#eeeeee" stroke="none" font-family="Arial" font-size="24px" font-style="normal" font-weight="normal" text-decoration="none" x="200" y="30">UNREGISTERED</text><text fill="#eeeeee" stroke="none" font-family="Arial" font-size="24px" font-style="normal" font-weight="normal" text-decoration="none" x="200" y="60">UNREGISTERED</text><text fill="#eeeeee" stroke="none" font-family="Arial" font-size="24px" font-style="normal" font-weight="normal" text-decoration="none" x="200" y="90">UNREGISTERED</text><text fill="#eeeeee" stroke="none" font-family="Arial" font-size="24px" font-style="normal" font-weight="normal" text-decoration="none" x="200" y="120">UNREGISTERED</text><text fill="#eeeeee" stroke="none" font-family="Arial" font-size="24px" font-style="normal" font-weight="normal" text-decoration="none" x="200" y="150">UNREGISTERED</text><text fill="#eeeeee" stroke="none" font-family="Arial" font-size="24px" font-style="normal" font-weight="normal" text-decoration="none" x="200" y="180">UNREGISTERED</text><text fill="#eeeeee" stroke="none" font-family="Arial" font-size="24px" font-style="normal" font-weight="normal" text-decoration="none" x="200" y="210">UNREGISTERED</text><text fill="#eeeeee" stroke="none" font-family="Arial" font-size="24px" font-style="normal" font-weight="normal" text-decoration="none" x="200" y="240">UNREGISTERED</text><text fill="#eeeeee" stroke="none" font-family="Arial" font-size="24px" font-style="normal" font-weight="normal" text-decoration="none" x="200" y="270">UNREGISTERED</text><text fill="#eeeeee" stroke="none" font-family="Arial" font-size="24px" font-style="normal" font-weight="normal" text-decoration="none" x="200" y="300">UNREGISTERED</text><text fill="#eeeeee" stroke="none" font-family="Arial" font-size="24px" font-style="normal" font-weight="normal" text-decoration="none" x="400" y="0">UNREGISTERED</text><text fill="#eeeeee" stroke="none" font-family="Arial" font-size="24px" font-style="normal" font-weight="normal" text-decoration="none" x="400" y="30">UNREGISTERED</text><text fill="#eeeeee" stroke="none" font-family="Arial" font-size="24px" font-style="normal" font-weight="normal" text-decoration="none" x="400" y="60">UNREGISTERED</text><text fill="#eeeeee" stroke="none" font-family="Arial" font-size="24px" font-style="normal" font-weight="normal" text-decoration="none" x="400" y="90">UNREGISTERED</text><text fill="#eeeeee" stroke="none" font-family="Arial" font-size="24px" font-style="normal" font-weight="normal" text-decoration="none" x="400" y="120">UNREGISTERED</text><text fill="#eeeeee" stroke="none" font-family="Arial" font-size="24px" font-style="normal" font-weight="normal" text-decoration="none" x="400" y="150">UNREGISTERED</text><text fill="#eeeeee" stroke="none" font-family="Arial" font-size="24px" font-style="normal" font-weight="normal" text-decoration="none" x="400" y="180">UNREGISTERED</text><text fill="#eeeeee" stroke="none" font-family="Arial" font-size="24px" font-style="normal" font-weight="normal" text-decoration="none" x="400" y="210">UNREGISTERED</text><text fill="#eeeeee" stroke="none" font-family="Arial" font-size="24px" font-style="normal" font-weight="normal" text-decoration="none" x="400" y="240">UNREGISTERED</text><text fill="#eeeeee" stroke="none" font-family="Arial" font-size="24px" font-style="normal" font-weight="normal" text-decoration="none" x="400" y="270">UNREGISTERED</text><text fill="#eeeeee" stroke="none" font-family="Arial" font-size="24px" font-style="normal" font-weight="normal" text-decoration="none" x="400" y="300">UNREGISTERED</text><text fill="#eeeeee" stroke="none" font-family="Arial" font-size="24px" font-style="normal" font-weight="normal" text-decoration="none" x="600" y="0">UNREGISTERED</text><text fill="#eeeeee" stroke="none" font-family="Arial" font-size="24px" font-style="normal" font-weight="normal" text-decoration="none" x="600" y="30">UNREGISTERED</text><text fill="#eeeeee" stroke="none" font-family="Arial" font-size="24px" font-style="normal" font-weight="normal" text-decoration="none" x="600" y="60">UNREGISTERED</text><text fill="#eeeeee" stroke="none" font-family="Arial" font-size="24px" font-style="normal" font-weight="normal" text-decoration="none" x="600" y="90">UNREGISTERED</text><text fill="#eeeeee" stroke="none" font-family="Arial" font-size="24px" font-style="normal" font-weight="normal" text-decoration="none" x="600" y="120">UNREGISTERED</text><text fill="#eeeeee" stroke="none" font-family="Arial" font-size="24px" font-style="normal" font-weight="normal" text-decoration="none" x="600" y="150">UNREGISTERED</text><text fill="#eeeeee" stroke="none" font-family="Arial" font-size="24px" font-style="normal" font-weight="normal" text-decoration="none" x="600" y="180">UNREGISTERED</text><text fill="#eeeeee" stroke="none" font-family="Arial" font-size="24px" font-style="normal" font-weight="normal" text-decoration="none" x="600" y="210">UNREGISTERED</text><text fill="#eeeeee" stroke="none" font-family="Arial" font-size="24px" font-style="normal" font-weight="normal" text-decoration="none" x="600" y="240">UNREGISTERED</text><text fill="#eeeeee" stroke="none" font-family="Arial" font-size="24px" font-style="normal" font-weight="normal" text-decoration="none" x="600" y="270">UNREGISTERED</text><text fill="#eeeeee" stroke="none" font-family="Arial" font-size="24px" font-style="normal" font-weight="normal" text-decoration="none" x="600" y="300">UNREGISTERED</text><g transform="translate(-126,-22) scale(1,1)"><path fill="none" stroke="#000000" d="M 136 32 L 888 32 L 888 328 L 136 328 L 136 32" stroke-miterlimit="10"/></g><g transform="translate(-126,-22) scale(1,1)"><path fill="#ffffff" stroke="none" d="M 136 32 L 136 54 L 298.6689453125 54 L 309.6689453125 43 L 309.6689453125 32 L 136 32"/></g><g transform="translate(-126,-22) scale(1,1)"><path fill="none" stroke="#000000" d="M 136 32 L 136 54 L 298.6689453125 54 L 309.6689453125 43 L 309.6689453125 32 L 136 32 L 136 32" stroke-miterlimit="10"/></g><g transform="translate(-126,-22) scale(1,1)"><g><path fill="none" stroke="none"/><text fill="#000000" stroke="none" font-family="Arial" font-size="13px" font-style="normal" font-weight="normal" text-decoration="none" x="160.72998046875" y="48">showProductsByFlavor</text></g></g><g transform="translate(-126,-22) scale(1,1)"><g><path fill="none" stroke="none"/><text fill="#000000" stroke="none" font-family="Arial" font-size="13px" font-style="normal" font-weight="bold" text-decoration="none" x="140.279541015625" y="48">sd</text></g></g><g transform="translate(-126,-22) scale(1,1)"><rect fill="#C0C0C0" stroke="none" x="447" y="47" width="76.052734375" height="39" opacity="0.2"/></g><g transform="translate(-126,-22) scale(1,1)"><rect fill="#ffffff" stroke="none" x="440" y="40" width="76.052734375" height="39"/></g><g transform="translate(-126,-22) scale(1,1)"><path fill="none" stroke="#000000" d="M 440 40 L 516.052734375 40 L 516.052734375 79 L 440 79 L 440 40 Z Z" stroke-miterlimit="10"/></g><g transform="translate(-126,-22) scale(1,1)"><g><path fill="none" stroke="none"/><text fill="#000000" stroke="none" font-family="Arial" font-size="13px" font-style="normal" font-weight="bold" text-decoration="none" x="449.5" y="58">: Product</text></g></g><g transform="translate(-126,-22) scale(1,1)"><path fill="none" stroke="#000000" d="M 479.5 80 L 479.5 312" stroke-miterlimit="10" stroke-dasharray="3"/></g><g transform="translate(-126,-22) scale(1,1)"><rect fill="#C0C0C0" stroke="none" x="775" y="47" width="83.2890625" height="39" opacity="0.2"/></g><g transform="translate(-126,-22) scale(1,1)"><rect fill="#ffffff" stroke="none" x="768" y="40" width="83.2890625" height="39"/></g><g transform="translate(-126,-22) scale(1,1)"><path fill="none" stroke="#000000" d="M 768 40 L 851.2890625 40 L 851.2890625 79 L 768 79 L 768 40 Z Z" stroke-miterlimit="10"/></g><g transform="translate(-126,-22) scale(1,1)"><g><path fill="none" stroke="none"/><text fill="#000000" stroke="none" font-family="Arial" font-size="13px" font-style="normal" font-weight="bold" text-decoration="none" x="786.167724609375" y="58">: Flavor</text></g></g><g transform="translate(-126,-22) scale(1,1)"><path fill="none" stroke="#000000" d="M 810.5 80 L 810.5 312" stroke-miterlimit="10" stroke-dasharray="3"/></g><g transform="translate(-126,-22) scale(1,1)"><path fill="#000000" stroke="none" d="M 232 119.5 C 232 115.6340064 235.1340064 112.5 239 112.5 C 242.8659936 112.5 246 115.6340064 246 119.5 C 246 123.3659936 242.8659936 126.5 239 126.5 C 235.1340064 126.5 232 123.3659936 232 119.5 Z"/></g><g transform="translate(-126,-22) scale(1,1)"><path fill="none" stroke="#000000" d="M 246 120 L 472 120" stroke-miterlimit="10"/></g><g transform="translate(-126,-22) scale(1,1)"><path fill="#000000" stroke="none" d="M 461.83732514237585 124.20951775601598 L 472 120 L 461.83732514237585 115.79048224398402"/></g><g transform="translate(-126,-22) scale(1,1)"><path fill="none" stroke="#000000" d="M 461.83732514237585 124.20951775601598 L 472 120 L 461.83732514237585 115.79048224398402 L 461.83732514237585 124.20951775601598" stroke-miterlimit="10"/></g><g transform="translate(-126,-22) scale(1,1)"><g><path fill="none" stroke="none"/><text fill="#000000" stroke="none" font-family="Arial" font-size="13px" font-style="normal" font-weight="normal" text-decoration="none" x="159.5" y="114">showProductsByCategory(flavorId, sortType, page)</text></g></g><g transform="translate(-126,-22) scale(1,1)"><rect fill="#ffffff" stroke="none" x="472" y="120" width="13" height="160"/></g><g transform="translate(-126,-22) scale(1,1)"><path fill="none" stroke="#000000" d="M 472 120 L 485 120 L 485 280 L 472 280 L 472 120 Z Z" stroke-miterlimit="10"/></g><g transform="translate(-126,-22) scale(1,1)"><path fill="none" stroke="#000000" d="M 485 152 L 515 152 L 515 172 L 492 172" stroke-miterlimit="10"/></g><g transform="translate(-126,-22) scale(1,1)"><path fill="#000000" stroke="none" d="M 502.16267485762415 167.790482243984 L 492 172 L 502.16267485762415 176.209517756016"/></g><g transform="translate(-126,-22) scale(1,1)"><path fill="none" stroke="#000000" d="M 502.16267485762415 167.790482243984 L 492 172 L 502.16267485762415 176.209517756016 L 502.16267485762415 167.790482243984" stroke-miterlimit="10"/></g><g transform="translate(-126,-22) scale(1,1)"><g><path fill="none" stroke="none"/><text fill="#000000" stroke="none" font-family="Arial" font-size="13px" font-style="normal" font-weight="normal" text-decoration="none" x="519.5" y="166">getProductsByFlavorId(flavorId, pageable)</text></g></g><g transform="translate(-126,-22) scale(1,1)"><rect fill="#ffffff" stroke="none" x="479" y="172" width="13" height="28"/></g><g transform="translate(-126,-22) scale(1,1)"><path fill="none" stroke="#000000" d="M 479 172 L 492 172 L 492 200 L 479 200 L 479 172 Z Z" stroke-miterlimit="10"/></g><g transform="translate(-126,-22) scale(1,1)"><path fill="none" stroke="#000000" d="M 485 224 L 803 224" stroke-miterlimit="10"/></g><g transform="translate(-126,-22) scale(1,1)"><path fill="#000000" stroke="none" d="M 792.8373251423759 228.209517756016 L 803 224 L 792.8373251423758 219.790482243984"/></g><g transform="translate(-126,-22) scale(1,1)"><path fill="none" stroke="#000000" d="M 792.8373251423759 228.209517756016 L 803 224 L 792.8373251423758 219.790482243984 L 792.8373251423759 228.209517756016" stroke-miterlimit="10"/></g><g transform="translate(-126,-22) scale(1,1)"><g><path fill="none" stroke="none"/><text fill="#000000" stroke="none" font-family="Arial" font-size="13px" font-style="normal" font-weight="normal" text-decoration="none" x="577.884033203125" y="219">getFlavorById(flavorId)</text></g></g><g transform="translate(-126,-22) scale(1,1)"><rect fill="#ffffff" stroke="none" x="803" y="224" width="13" height="28"/></g><g transform="translate(-126,-22) scale(1,1)"><path fill="none" stroke="#000000" d="M 803 224 L 816 224 L 816 252 L 803 252 L 803 224 Z Z" stroke-miterlimit="10"/></g><g transform="translate(-126,-22) scale(1,1)"><path fill="none" stroke="#000000" d="M 803 248 L 485 248" stroke-miterlimit="10" stroke-dasharray="3"/></g><g transform="translate(-126,-22) scale(1,1)"><path fill="none" stroke="#000000" d="M 495.16267485762415 243.790482243984 L 485 248 L 495.16267485762415 252.209517756016" stroke-miterlimit="10"/></g><g transform="translate(-126,-22) scale(1,1)"><g><path fill="none" stroke="none"/><text fill="#000000" stroke="none" font-family="Arial" font-size="13px" font-style="normal" font-weight="normal" text-decoration="none" x="624.84814453125" y="263">Flavor</text></g></g></g></svg>