<svg version="1.1" xmlns="http://www.w3.org/2000/svg" xmlns:xlink="http://www.w3.org/1999/xlink" width="500" height="252"><defs/><g><text fill="#eeeeee" stroke="none" font-family="Arial" font-size="24px" font-style="normal" font-weight="normal" text-decoration="none" x="0" y="0">UNREGISTERED</text><text fill="#eeeeee" stroke="none" font-family="Arial" font-size="24px" font-style="normal" font-weight="normal" text-decoration="none" x="0" y="30">UNREGISTERED</text><text fill="#eeeeee" stroke="none" font-family="Arial" font-size="24px" font-style="normal" font-weight="normal" text-decoration="none" x="0" y="60">UNREGISTERED</text><text fill="#eeeeee" stroke="none" font-family="Arial" font-size="24px" font-style="normal" font-weight="normal" text-decoration="none" x="0" y="90">UNREGISTERED</text><text fill="#eeeeee" stroke="none" font-family="Arial" font-size="24px" font-style="normal" font-weight="normal" text-decoration="none" x="0" y="120">UNREGISTERED</text><text fill="#eeeeee" stroke="none" font-family="Arial" font-size="24px" font-style="normal" font-weight="normal" text-decoration="none" x="0" y="150">UNREGISTERED</text><text fill="#eeeeee" stroke="none" font-family="Arial" font-size="24px" font-style="normal" font-weight="normal" text-decoration="none" x="0" y="180">UNREGISTERED</text><text fill="#eeeeee" stroke="none" font-family="Arial" font-size="24px" font-style="normal" font-weight="normal" text-decoration="none" x="0" y="210">UNREGISTERED</text><text fill="#eeeeee" stroke="none" font-family="Arial" font-size="24px" font-style="normal" font-weight="normal" text-decoration="none" x="0" y="240">UNREGISTERED</text><text fill="#eeeeee" stroke="none" font-family="Arial" font-size="24px" font-style="normal" font-weight="normal" text-decoration="none" x="200" y="0">UNREGISTERED</text><text fill="#eeeeee" stroke="none" font-family="Arial" font-size="24px" font-style="normal" font-weight="normal" text-decoration="none" x="200" y="30">UNREGISTERED</text><text fill="#eeeeee" stroke="none" font-family="Arial" font-size="24px" font-style="normal" font-weight="normal" text-decoration="none" x="200" y="60">UNREGISTERED</text><text fill="#eeeeee" stroke="none" font-family="Arial" font-size="24px" font-style="normal" font-weight="normal" text-decoration="none" x="200" y="90">UNREGISTERED</text><text fill="#eeeeee" stroke="none" font-family="Arial" font-size="24px" font-style="normal" font-weight="normal" text-decoration="none" x="200" y="120">UNREGISTERED</text><text fill="#eeeeee" stroke="none" font-family="Arial" font-size="24px" font-style="normal" font-weight="normal" text-decoration="none" x="200" y="150">UNREGISTERED</text><text fill="#eeeeee" stroke="none" font-family="Arial" font-size="24px" font-style="normal" font-weight="normal" text-decoration="none" x="200" y="180">UNREGISTERED</text><text fill="#eeeeee" stroke="none" font-family="Arial" font-size="24px" font-style="normal" font-weight="normal" text-decoration="none" x="200" y="210">UNREGISTERED</text><text fill="#eeeeee" stroke="none" font-family="Arial" font-size="24px" font-style="normal" font-weight="normal" text-decoration="none" x="200" y="240">UNREGISTERED</text><text fill="#eeeeee" stroke="none" font-family="Arial" font-size="24px" font-style="normal" font-weight="normal" text-decoration="none" x="400" y="0">UNREGISTERED</text><text fill="#eeeeee" stroke="none" font-family="Arial" font-size="24px" font-style="normal" font-weight="normal" text-decoration="none" x="400" y="30">UNREGISTERED</text><text fill="#eeeeee" stroke="none" font-family="Arial" font-size="24px" font-style="normal" font-weight="normal" text-decoration="none" x="400" y="60">UNREGISTERED</text><text fill="#eeeeee" stroke="none" font-family="Arial" font-size="24px" font-style="normal" font-weight="normal" text-decoration="none" x="400" y="90">UNREGISTERED</text><text fill="#eeeeee" stroke="none" font-family="Arial" font-size="24px" font-style="normal" font-weight="normal" text-decoration="none" x="400" y="120">UNREGISTERED</text><text fill="#eeeeee" stroke="none" font-family="Arial" font-size="24px" font-style="normal" font-weight="normal" text-decoration="none" x="400" y="150">UNREGISTERED</text><text fill="#eeeeee" stroke="none" font-family="Arial" font-size="24px" font-style="normal" font-weight="normal" text-decoration="none" x="400" y="180">UNREGISTERED</text><text fill="#eeeeee" stroke="none" font-family="Arial" font-size="24px" font-style="normal" font-weight="normal" text-decoration="none" x="400" y="210">UNREGISTERED</text><text fill="#eeeeee" stroke="none" font-family="Arial" font-size="24px" font-style="normal" font-weight="normal" text-decoration="none" x="400" y="240">UNREGISTERED</text><g transform="translate(-110,-14) scale(1,1)"><path fill="none" stroke="#000000" d="M 120 24 L 600 24 L 600 256 L 120 256 L 120 24" stroke-miterlimit="10"/></g><g transform="translate(-110,-14) scale(1,1)"><path fill="#ffffff" stroke="none" d="M 120 24 L 120 46 L 187.30810546875 46 L 198.30810546875 35 L 198.30810546875 24 L 120 24"/></g><g transform="translate(-110,-14) scale(1,1)"><path fill="none" stroke="#000000" d="M 120 24 L 120 46 L 187.30810546875 46 L 198.30810546875 35 L 198.30810546875 24 L 120 24 L 120 24" stroke-miterlimit="10"/></g><g transform="translate(-110,-14) scale(1,1)"><g><path fill="none" stroke="none"/><text fill="#000000" stroke="none" font-family="Arial" font-size="13px" font-style="normal" font-weight="normal" text-decoration="none" x="144.72998046875" y="40">cancel</text></g></g><g transform="translate(-110,-14) scale(1,1)"><g><path fill="none" stroke="none"/><text fill="#000000" stroke="none" font-family="Arial" font-size="13px" font-style="normal" font-weight="bold" text-decoration="none" x="124.279541015625" y="40">sd</text></g></g><g transform="translate(-110,-14) scale(1,1)"><rect fill="#C0C0C0" stroke="none" x="335" y="47" width="71.736328125" height="39" opacity="0.2"/></g><g transform="translate(-110,-14) scale(1,1)"><rect fill="#ffffff" stroke="none" x="328" y="40" width="71.736328125" height="39"/></g><g transform="translate(-110,-14) scale(1,1)"><path fill="none" stroke="#000000" d="M 328 40 L 399.736328125 40 L 399.736328125 79 L 328 79 L 328 40 Z Z" stroke-miterlimit="10"/></g><g transform="translate(-110,-14) scale(1,1)"><g><path fill="none" stroke="none"/><text fill="#000000" stroke="none" font-family="Arial" font-size="13px" font-style="normal" font-weight="bold" text-decoration="none" x="342.197265625" y="58">: Order</text></g></g><g transform="translate(-110,-14) scale(1,1)"><path fill="none" stroke="#000000" d="M 364.5 80 L 364.5 239" stroke-miterlimit="10" stroke-dasharray="3"/></g><g transform="translate(-110,-14) scale(1,1)"><path fill="#000000" stroke="none" d="M 152 119.5 C 152 115.6340064 155.1340064 112.5 159 112.5 C 162.8659936 112.5 166 115.6340064 166 119.5 C 166 123.3659936 162.8659936 126.5 159 126.5 C 155.1340064 126.5 152 123.3659936 152 119.5 Z"/></g><g transform="translate(-110,-14) scale(1,1)"><path fill="none" stroke="#000000" d="M 166 120 L 357 120" stroke-miterlimit="10"/></g><g transform="translate(-110,-14) scale(1,1)"><path fill="#000000" stroke="none" d="M 346.83732514237585 124.20951775601598 L 357 120 L 346.83732514237585 115.79048224398402"/></g><g transform="translate(-110,-14) scale(1,1)"><path fill="none" stroke="#000000" d="M 346.83732514237585 124.20951775601598 L 357 120 L 346.83732514237585 115.79048224398402 L 346.83732514237585 124.20951775601598" stroke-miterlimit="10"/></g><g transform="translate(-110,-14) scale(1,1)"><g><path fill="none" stroke="none"/><text fill="#000000" stroke="none" font-family="Arial" font-size="13px" font-style="normal" font-weight="normal" text-decoration="none" x="232.344970703125" y="115">cancel(id)</text></g></g><g transform="translate(-110,-14) scale(1,1)"><rect fill="#ffffff" stroke="none" x="357" y="120" width="13" height="104"/></g><g transform="translate(-110,-14) scale(1,1)"><path fill="none" stroke="#000000" d="M 357 120 L 370 120 L 370 224 L 357 224 L 357 120 Z Z" stroke-miterlimit="10"/></g><g transform="translate(-110,-14) scale(1,1)"><path fill="none" stroke="#000000" d="M 370 136 L 400 136 L 400 156 L 377 156" stroke-miterlimit="10"/></g><g transform="translate(-110,-14) scale(1,1)"><path fill="#000000" stroke="none" d="M 387.16267485762415 151.790482243984 L 377 156 L 387.16267485762415 160.209517756016"/></g><g transform="translate(-110,-14) scale(1,1)"><path fill="none" stroke="#000000" d="M 387.16267485762415 151.790482243984 L 377 156 L 387.16267485762415 160.209517756016 L 387.16267485762415 151.790482243984" stroke-miterlimit="10"/></g><g transform="translate(-110,-14) scale(1,1)"><g><path fill="none" stroke="none"/><text fill="#000000" stroke="none" font-family="Arial" font-size="13px" font-style="normal" font-weight="normal" text-decoration="none" x="408.53271484375" y="150">updateCancelOrder(orderId)</text></g></g><g transform="translate(-110,-14) scale(1,1)"><rect fill="#ffffff" stroke="none" x="364" y="156" width="13" height="28"/></g><g transform="translate(-110,-14) scale(1,1)"><path fill="none" stroke="#000000" d="M 364 156 L 377 156 L 377 184 L 364 184 L 364 156 Z Z" stroke-miterlimit="10"/></g></g></svg>