<svg version="1.1" xmlns="http://www.w3.org/2000/svg" xmlns:xlink="http://www.w3.org/1999/xlink" width="652" height="420"><defs/><g><text fill="#eeeeee" stroke="none" font-family="Arial" font-size="24px" font-style="normal" font-weight="normal" text-decoration="none" x="0" y="0">UNREGISTERED</text><text fill="#eeeeee" stroke="none" font-family="Arial" font-size="24px" font-style="normal" font-weight="normal" text-decoration="none" x="0" y="30">UNREGISTERED</text><text fill="#eeeeee" stroke="none" font-family="Arial" font-size="24px" font-style="normal" font-weight="normal" text-decoration="none" x="0" y="60">UNREGISTERED</text><text fill="#eeeeee" stroke="none" font-family="Arial" font-size="24px" font-style="normal" font-weight="normal" text-decoration="none" x="0" y="90">UNREGISTERED</text><text fill="#eeeeee" stroke="none" font-family="Arial" font-size="24px" font-style="normal" font-weight="normal" text-decoration="none" x="0" y="120">UNREGISTERED</text><text fill="#eeeeee" stroke="none" font-family="Arial" font-size="24px" font-style="normal" font-weight="normal" text-decoration="none" x="0" y="150">UNREGISTERED</text><text fill="#eeeeee" stroke="none" font-family="Arial" font-size="24px" font-style="normal" font-weight="normal" text-decoration="none" x="0" y="180">UNREGISTERED</text><text fill="#eeeeee" stroke="none" font-family="Arial" font-size="24px" font-style="normal" font-weight="normal" text-decoration="none" x="0" y="210">UNREGISTERED</text><text fill="#eeeeee" stroke="none" font-family="Arial" font-size="24px" font-style="normal" font-weight="normal" text-decoration="none" x="0" y="240">UNREGISTERED</text><text fill="#eeeeee" stroke="none" font-family="Arial" font-size="24px" font-style="normal" font-weight="normal" text-decoration="none" x="0" y="270">UNREGISTERED</text><text fill="#eeeeee" stroke="none" font-family="Arial" font-size="24px" font-style="normal" font-weight="normal" text-decoration="none" x="0" y="300">UNREGISTERED</text><text fill="#eeeeee" stroke="none" font-family="Arial" font-size="24px" font-style="normal" font-weight="normal" text-decoration="none" x="0" y="330">UNREGISTERED</text><text fill="#eeeeee" stroke="none" font-family="Arial" font-size="24px" font-style="normal" font-weight="normal" text-decoration="none" x="0" y="360">UNREGISTERED</text><text fill="#eeeeee" stroke="none" font-family="Arial" font-size="24px" font-style="normal" font-weight="normal" text-decoration="none" x="0" y="390">UNREGISTERED</text><text fill="#eeeeee" stroke="none" font-family="Arial" font-size="24px" font-style="normal" font-weight="normal" text-decoration="none" x="200" y="0">UNREGISTERED</text><text fill="#eeeeee" stroke="none" font-family="Arial" font-size="24px" font-style="normal" font-weight="normal" text-decoration="none" x="200" y="30">UNREGISTERED</text><text fill="#eeeeee" stroke="none" font-family="Arial" font-size="24px" font-style="normal" font-weight="normal" text-decoration="none" x="200" y="60">UNREGISTERED</text><text fill="#eeeeee" stroke="none" font-family="Arial" font-size="24px" font-style="normal" font-weight="normal" text-decoration="none" x="200" y="90">UNREGISTERED</text><text fill="#eeeeee" stroke="none" font-family="Arial" font-size="24px" font-style="normal" font-weight="normal" text-decoration="none" x="200" y="120">UNREGISTERED</text><text fill="#eeeeee" stroke="none" font-family="Arial" font-size="24px" font-style="normal" font-weight="normal" text-decoration="none" x="200" y="150">UNREGISTERED</text><text fill="#eeeeee" stroke="none" font-family="Arial" font-size="24px" font-style="normal" font-weight="normal" text-decoration="none" x="200" y="180">UNREGISTERED</text><text fill="#eeeeee" stroke="none" font-family="Arial" font-size="24px" font-style="normal" font-weight="normal" text-decoration="none" x="200" y="210">UNREGISTERED</text><text fill="#eeeeee" stroke="none" font-family="Arial" font-size="24px" font-style="normal" font-weight="normal" text-decoration="none" x="200" y="240">UNREGISTERED</text><text fill="#eeeeee" stroke="none" font-family="Arial" font-size="24px" font-style="normal" font-weight="normal" text-decoration="none" x="200" y="270">UNREGISTERED</text><text fill="#eeeeee" stroke="none" font-family="Arial" font-size="24px" font-style="normal" font-weight="normal" text-decoration="none" x="200" y="300">UNREGISTERED</text><text fill="#eeeeee" stroke="none" font-family="Arial" font-size="24px" font-style="normal" font-weight="normal" text-decoration="none" x="200" y="330">UNREGISTERED</text><text fill="#eeeeee" stroke="none" font-family="Arial" font-size="24px" font-style="normal" font-weight="normal" text-decoration="none" x="200" y="360">UNREGISTERED</text><text fill="#eeeeee" stroke="none" font-family="Arial" font-size="24px" font-style="normal" font-weight="normal" text-decoration="none" x="200" y="390">UNREGISTERED</text><text fill="#eeeeee" stroke="none" font-family="Arial" font-size="24px" font-style="normal" font-weight="normal" text-decoration="none" x="400" y="0">UNREGISTERED</text><text fill="#eeeeee" stroke="none" font-family="Arial" font-size="24px" font-style="normal" font-weight="normal" text-decoration="none" x="400" y="30">UNREGISTERED</text><text fill="#eeeeee" stroke="none" font-family="Arial" font-size="24px" font-style="normal" font-weight="normal" text-decoration="none" x="400" y="60">UNREGISTERED</text><text fill="#eeeeee" stroke="none" font-family="Arial" font-size="24px" font-style="normal" font-weight="normal" text-decoration="none" x="400" y="90">UNREGISTERED</text><text fill="#eeeeee" stroke="none" font-family="Arial" font-size="24px" font-style="normal" font-weight="normal" text-decoration="none" x="400" y="120">UNREGISTERED</text><text fill="#eeeeee" stroke="none" font-family="Arial" font-size="24px" font-style="normal" font-weight="normal" text-decoration="none" x="400" y="150">UNREGISTERED</text><text fill="#eeeeee" stroke="none" font-family="Arial" font-size="24px" font-style="normal" font-weight="normal" text-decoration="none" x="400" y="180">UNREGISTERED</text><text fill="#eeeeee" stroke="none" font-family="Arial" font-size="24px" font-style="normal" font-weight="normal" text-decoration="none" x="400" y="210">UNREGISTERED</text><text fill="#eeeeee" stroke="none" font-family="Arial" font-size="24px" font-style="normal" font-weight="normal" text-decoration="none" x="400" y="240">UNREGISTERED</text><text fill="#eeeeee" stroke="none" font-family="Arial" font-size="24px" font-style="normal" font-weight="normal" text-decoration="none" x="400" y="270">UNREGISTERED</text><text fill="#eeeeee" stroke="none" font-family="Arial" font-size="24px" font-style="normal" font-weight="normal" text-decoration="none" x="400" y="300">UNREGISTERED</text><text fill="#eeeeee" stroke="none" font-family="Arial" font-size="24px" font-style="normal" font-weight="normal" text-decoration="none" x="400" y="330">UNREGISTERED</text><text fill="#eeeeee" stroke="none" font-family="Arial" font-size="24px" font-style="normal" font-weight="normal" text-decoration="none" x="400" y="360">UNREGISTERED</text><text fill="#eeeeee" stroke="none" font-family="Arial" font-size="24px" font-style="normal" font-weight="normal" text-decoration="none" x="400" y="390">UNREGISTERED</text><text fill="#eeeeee" stroke="none" font-family="Arial" font-size="24px" font-style="normal" font-weight="normal" text-decoration="none" x="600" y="0">UNREGISTERED</text><text fill="#eeeeee" stroke="none" font-family="Arial" font-size="24px" font-style="normal" font-weight="normal" text-decoration="none" x="600" y="30">UNREGISTERED</text><text fill="#eeeeee" stroke="none" font-family="Arial" font-size="24px" font-style="normal" font-weight="normal" text-decoration="none" x="600" y="60">UNREGISTERED</text><text fill="#eeeeee" stroke="none" font-family="Arial" font-size="24px" font-style="normal" font-weight="normal" text-decoration="none" x="600" y="90">UNREGISTERED</text><text fill="#eeeeee" stroke="none" font-family="Arial" font-size="24px" font-style="normal" font-weight="normal" text-decoration="none" x="600" y="120">UNREGISTERED</text><text fill="#eeeeee" stroke="none" font-family="Arial" font-size="24px" font-style="normal" font-weight="normal" text-decoration="none" x="600" y="150">UNREGISTERED</text><text fill="#eeeeee" stroke="none" font-family="Arial" font-size="24px" font-style="normal" font-weight="normal" text-decoration="none" x="600" y="180">UNREGISTERED</text><text fill="#eeeeee" stroke="none" font-family="Arial" font-size="24px" font-style="normal" font-weight="normal" text-decoration="none" x="600" y="210">UNREGISTERED</text><text fill="#eeeeee" stroke="none" font-family="Arial" font-size="24px" font-style="normal" font-weight="normal" text-decoration="none" x="600" y="240">UNREGISTERED</text><text fill="#eeeeee" stroke="none" font-family="Arial" font-size="24px" font-style="normal" font-weight="normal" text-decoration="none" x="600" y="270">UNREGISTERED</text><text fill="#eeeeee" stroke="none" font-family="Arial" font-size="24px" font-style="normal" font-weight="normal" text-decoration="none" x="600" y="300">UNREGISTERED</text><text fill="#eeeeee" stroke="none" font-family="Arial" font-size="24px" font-style="normal" font-weight="normal" text-decoration="none" x="600" y="330">UNREGISTERED</text><text fill="#eeeeee" stroke="none" font-family="Arial" font-size="24px" font-style="normal" font-weight="normal" text-decoration="none" x="600" y="360">UNREGISTERED</text><text fill="#eeeeee" stroke="none" font-family="Arial" font-size="24px" font-style="normal" font-weight="normal" text-decoration="none" x="600" y="390">UNREGISTERED</text><g transform="translate(-118,-78) scale(1,1)"><path fill="none" stroke="#000000" d="M 128 88 L 760 88 L 760 488 L 128 488 L 128 88" stroke-miterlimit="10"/></g><g transform="translate(-118,-78) scale(1,1)"><path fill="#ffffff" stroke="none" d="M 128 88 L 128 110 L 188.078125 110 L 199.078125 99 L 199.078125 88 L 128 88"/></g><g transform="translate(-118,-78) scale(1,1)"><path fill="none" stroke="#000000" d="M 128 88 L 128 110 L 188.078125 110 L 199.078125 99 L 199.078125 88 L 128 88 L 128 88" stroke-miterlimit="10"/></g><g transform="translate(-118,-78) scale(1,1)"><g><path fill="none" stroke="none"/><text fill="#000000" stroke="none" font-family="Arial" font-size="13px" font-style="normal" font-weight="normal" text-decoration="none" x="152.72998046875" y="104">show</text></g></g><g transform="translate(-118,-78) scale(1,1)"><g><path fill="none" stroke="none"/><text fill="#000000" stroke="none" font-family="Arial" font-size="13px" font-style="normal" font-weight="bold" text-decoration="none" x="132.279541015625" y="104">sd</text></g></g><g transform="translate(-118,-78) scale(1,1)"><rect fill="#C0C0C0" stroke="none" x="295" y="239" width="99" height="29" opacity="0.2"/></g><g transform="translate(-118,-78) scale(1,1)"><rect fill="#ffffff" stroke="none" x="288" y="232" width="99" height="29"/></g><g transform="translate(-118,-78) scale(1,1)"><path fill="none" stroke="#000000" d="M 288 232 L 387 232 L 387 261 L 288 261 L 288 232 Z Z" stroke-miterlimit="10"/></g><g transform="translate(-118,-78) scale(1,1)"><rect fill="#ffffff" stroke="none" x="288" y="232" width="99" height="29"/></g><g transform="translate(-118,-78) scale(1,1)"><path fill="none" stroke="#000000" d="M 288 232 L 387 232 L 387 261 L 288 261 L 288 232 Z Z" stroke-miterlimit="10"/></g><g transform="translate(-118,-78) scale(1,1)"><g><path fill="none" stroke="none"/><text fill="#000000" stroke="none" font-family="Arial" font-size="13px" font-style="normal" font-weight="bold" text-decoration="none" x="307.529541015625" y="250">: Account</text></g></g><g transform="translate(-118,-78) scale(1,1)"><rect fill="#C0C0C0" stroke="none" x="583" y="239" width="99" height="29" opacity="0.2"/></g><g transform="translate(-118,-78) scale(1,1)"><rect fill="#ffffff" stroke="none" x="576" y="232" width="99" height="29"/></g><g transform="translate(-118,-78) scale(1,1)"><path fill="none" stroke="#000000" d="M 576 232 L 675 232 L 675 261 L 576 261 L 576 232 Z Z" stroke-miterlimit="10"/></g><g transform="translate(-118,-78) scale(1,1)"><rect fill="#ffffff" stroke="none" x="576" y="232" width="99" height="29"/></g><g transform="translate(-118,-78) scale(1,1)"><path fill="none" stroke="#000000" d="M 576 232 L 675 232 L 675 261 L 576 261 L 576 232 Z Z" stroke-miterlimit="10"/></g><g transform="translate(-118,-78) scale(1,1)"><g><path fill="none" stroke="none"/><text fill="#000000" stroke="none" font-family="Arial" font-size="13px" font-style="normal" font-weight="bold" text-decoration="none" x="593.35546875" y="250">: Category</text></g></g><g transform="translate(-118,-78) scale(1,1)"><rect fill="#C0C0C0" stroke="none" x="295" y="447" width="99" height="29" opacity="0.2"/></g><g transform="translate(-118,-78) scale(1,1)"><rect fill="#ffffff" stroke="none" x="288" y="440" width="99" height="29"/></g><g transform="translate(-118,-78) scale(1,1)"><path fill="none" stroke="#000000" d="M 288 440 L 387 440 L 387 469 L 288 469 L 288 440 Z Z" stroke-miterlimit="10"/></g><g transform="translate(-118,-78) scale(1,1)"><rect fill="#ffffff" stroke="none" x="288" y="440" width="99" height="29"/></g><g transform="translate(-118,-78) scale(1,1)"><path fill="none" stroke="#000000" d="M 288 440 L 387 440 L 387 469 L 288 469 L 288 440 Z Z" stroke-miterlimit="10"/></g><g transform="translate(-118,-78) scale(1,1)"><g><path fill="none" stroke="none"/><text fill="#000000" stroke="none" font-family="Arial" font-size="13px" font-style="normal" font-weight="bold" text-decoration="none" x="314.023193359375" y="458">: Flavor</text></g></g><g transform="translate(-118,-78) scale(1,1)"><path fill="none" stroke="#000000" d="M 388 246 L 575 246" stroke-miterlimit="10"/></g><g transform="translate(-118,-78) scale(1,1)"><path fill="none" stroke="#000000" d="M 223 247 L 183 247" stroke-miterlimit="10"/></g><g transform="translate(-118,-78) scale(1,1)"><path fill="#000000" stroke="none" d="M 211 251 L 223 247 L 211 242"/></g><g transform="translate(-118,-78) scale(1,1)"><g><path fill="none" stroke="none"/><text fill="#000000" stroke="none" font-family="Arial" font-size="13px" font-style="normal" font-weight="normal" text-decoration="none" x="139.497802734375" y="241">show(sortType, page)</text></g></g><g transform="translate(-118,-78) scale(1,1)"><path fill="none" stroke="#000000" d="M 144 256 L 288 255" stroke-miterlimit="10"/></g><g transform="translate(-118,-78) scale(1,1)"><path fill="none" stroke="#000000" d="M 337 232 L 337 211 L 416 211 L 416 246 L 387 246" stroke-miterlimit="10"/></g><g transform="translate(-118,-78) scale(1,1)"><path fill="none" stroke="#000000" d="M 359 198 L 359 158" stroke-miterlimit="10"/></g><g transform="translate(-118,-78) scale(1,1)"><path fill="#000000" stroke="none" d="M 354 186 L 359 198 L 363 186"/></g><g transform="translate(-118,-78) scale(1,1)"><g><path fill="none" stroke="none"/><text fill="#000000" stroke="none" font-family="Arial" font-size="13px" font-style="normal" font-weight="normal" text-decoration="none" x="366.702392578125" y="171">1: getAdminFromAttribute(attributeAdmin)</text></g></g><g transform="translate(-118,-78) scale(1,1)"><path fill="none" stroke="#000000" d="M 388 246 L 575 246" stroke-miterlimit="10"/></g><g transform="translate(-118,-78) scale(1,1)"><path fill="none" stroke="#000000" d="M 501 236 L 461 236" stroke-miterlimit="10"/></g><g transform="translate(-118,-78) scale(1,1)"><path fill="#000000" stroke="none" d="M 489 240 L 501 236 L 489 231"/></g><g transform="translate(-118,-78) scale(1,1)"><g><path fill="none" stroke="none"/><text fill="#000000" stroke="none" font-family="Arial" font-size="13px" font-style="normal" font-weight="normal" text-decoration="none" x="452.1845703125" y="230">2: getAll()</text></g></g><g transform="translate(-118,-78) scale(1,1)"><path fill="none" stroke="#000000" d="M 337 262 L 337 439" stroke-miterlimit="10"/></g><g transform="translate(-118,-78) scale(1,1)"><path fill="none" stroke="#000000" d="M 346 369 L 346 329" stroke-miterlimit="10"/></g><g transform="translate(-118,-78) scale(1,1)"><path fill="#000000" stroke="none" d="M 341 357 L 346 369 L 350 357"/></g><g transform="translate(-118,-78) scale(1,1)"><g><path fill="none" stroke="none"/><text fill="#000000" stroke="none" font-family="Arial" font-size="13px" font-style="normal" font-weight="normal" text-decoration="none" x="353.1845703125" y="343">3: getAll()</text></g></g><g transform="translate(-118,-78) scale(1,1)"><path fill="none" stroke="#000000" d="M 337 232 L 337 211 L 416 211 L 416 246 L 387 246" stroke-miterlimit="10"/></g><g transform="translate(-118,-78) scale(1,1)"><path fill="none" stroke="#000000" d="M 383 149 L 383 109" stroke-miterlimit="10"/></g><g transform="translate(-118,-78) scale(1,1)"><path fill="#000000" stroke="none" d="M 378 137 L 383 149 L 387 137"/></g><g transform="translate(-118,-78) scale(1,1)"><g><path fill="none" stroke="none"/><text fill="#000000" stroke="none" font-family="Arial" font-size="13px" font-style="normal" font-weight="normal" text-decoration="none" x="391.435546875" y="123">4: getAll(pageable)</text></g></g></g></svg>