<svg version="1.1" xmlns="http://www.w3.org/2000/svg" xmlns:xlink="http://www.w3.org/1999/xlink" width="606.5673828125" height="324"><defs/><g><text fill="#eeeeee" stroke="none" font-family="Arial" font-size="24px" font-style="normal" font-weight="normal" text-decoration="none" x="0" y="0">UNREGISTERED</text><text fill="#eeeeee" stroke="none" font-family="Arial" font-size="24px" font-style="normal" font-weight="normal" text-decoration="none" x="0" y="30">UNREGISTERED</text><text fill="#eeeeee" stroke="none" font-family="Arial" font-size="24px" font-style="normal" font-weight="normal" text-decoration="none" x="0" y="60">UNREGISTERED</text><text fill="#eeeeee" stroke="none" font-family="Arial" font-size="24px" font-style="normal" font-weight="normal" text-decoration="none" x="0" y="90">UNREGISTERED</text><text fill="#eeeeee" stroke="none" font-family="Arial" font-size="24px" font-style="normal" font-weight="normal" text-decoration="none" x="0" y="120">UNREGISTERED</text><text fill="#eeeeee" stroke="none" font-family="Arial" font-size="24px" font-style="normal" font-weight="normal" text-decoration="none" x="0" y="150">UNREGISTERED</text><text fill="#eeeeee" stroke="none" font-family="Arial" font-size="24px" font-style="normal" font-weight="normal" text-decoration="none" x="0" y="180">UNREGISTERED</text><text fill="#eeeeee" stroke="none" font-family="Arial" font-size="24px" font-style="normal" font-weight="normal" text-decoration="none" x="0" y="210">UNREGISTERED</text><text fill="#eeeeee" stroke="none" font-family="Arial" font-size="24px" font-style="normal" font-weight="normal" text-decoration="none" x="0" y="240">UNREGISTERED</text><text fill="#eeeeee" stroke="none" font-family="Arial" font-size="24px" font-style="normal" font-weight="normal" text-decoration="none" x="0" y="270">UNREGISTERED</text><text fill="#eeeeee" stroke="none" font-family="Arial" font-size="24px" font-style="normal" font-weight="normal" text-decoration="none" x="0" y="300">UNREGISTERED</text><text fill="#eeeeee" stroke="none" font-family="Arial" font-size="24px" font-style="normal" font-weight="normal" text-decoration="none" x="200" y="0">UNREGISTERED</text><text fill="#eeeeee" stroke="none" font-family="Arial" font-size="24px" font-style="normal" font-weight="normal" text-decoration="none" x="200" y="30">UNREGISTERED</text><text fill="#eeeeee" stroke="none" font-family="Arial" font-size="24px" font-style="normal" font-weight="normal" text-decoration="none" x="200" y="60">UNREGISTERED</text><text fill="#eeeeee" stroke="none" font-family="Arial" font-size="24px" font-style="normal" font-weight="normal" text-decoration="none" x="200" y="90">UNREGISTERED</text><text fill="#eeeeee" stroke="none" font-family="Arial" font-size="24px" font-style="normal" font-weight="normal" text-decoration="none" x="200" y="120">UNREGISTERED</text><text fill="#eeeeee" stroke="none" font-family="Arial" font-size="24px" font-style="normal" font-weight="normal" text-decoration="none" x="200" y="150">UNREGISTERED</text><text fill="#eeeeee" stroke="none" font-family="Arial" font-size="24px" font-style="normal" font-weight="normal" text-decoration="none" x="200" y="180">UNREGISTERED</text><text fill="#eeeeee" stroke="none" font-family="Arial" font-size="24px" font-style="normal" font-weight="normal" text-decoration="none" x="200" y="210">UNREGISTERED</text><text fill="#eeeeee" stroke="none" font-family="Arial" font-size="24px" font-style="normal" font-weight="normal" text-decoration="none" x="200" y="240">UNREGISTERED</text><text fill="#eeeeee" stroke="none" font-family="Arial" font-size="24px" font-style="normal" font-weight="normal" text-decoration="none" x="200" y="270">UNREGISTERED</text><text fill="#eeeeee" stroke="none" font-family="Arial" font-size="24px" font-style="normal" font-weight="normal" text-decoration="none" x="200" y="300">UNREGISTERED</text><text fill="#eeeeee" stroke="none" font-family="Arial" font-size="24px" font-style="normal" font-weight="normal" text-decoration="none" x="400" y="0">UNREGISTERED</text><text fill="#eeeeee" stroke="none" font-family="Arial" font-size="24px" font-style="normal" font-weight="normal" text-decoration="none" x="400" y="30">UNREGISTERED</text><text fill="#eeeeee" stroke="none" font-family="Arial" font-size="24px" font-style="normal" font-weight="normal" text-decoration="none" x="400" y="60">UNREGISTERED</text><text fill="#eeeeee" stroke="none" font-family="Arial" font-size="24px" font-style="normal" font-weight="normal" text-decoration="none" x="400" y="90">UNREGISTERED</text><text fill="#eeeeee" stroke="none" font-family="Arial" font-size="24px" font-style="normal" font-weight="normal" text-decoration="none" x="400" y="120">UNREGISTERED</text><text fill="#eeeeee" stroke="none" font-family="Arial" font-size="24px" font-style="normal" font-weight="normal" text-decoration="none" x="400" y="150">UNREGISTERED</text><text fill="#eeeeee" stroke="none" font-family="Arial" font-size="24px" font-style="normal" font-weight="normal" text-decoration="none" x="400" y="180">UNREGISTERED</text><text fill="#eeeeee" stroke="none" font-family="Arial" font-size="24px" font-style="normal" font-weight="normal" text-decoration="none" x="400" y="210">UNREGISTERED</text><text fill="#eeeeee" stroke="none" font-family="Arial" font-size="24px" font-style="normal" font-weight="normal" text-decoration="none" x="400" y="240">UNREGISTERED</text><text fill="#eeeeee" stroke="none" font-family="Arial" font-size="24px" font-style="normal" font-weight="normal" text-decoration="none" x="400" y="270">UNREGISTERED</text><text fill="#eeeeee" stroke="none" font-family="Arial" font-size="24px" font-style="normal" font-weight="normal" text-decoration="none" x="400" y="300">UNREGISTERED</text><text fill="#eeeeee" stroke="none" font-family="Arial" font-size="24px" font-style="normal" font-weight="normal" text-decoration="none" x="600" y="0">UNREGISTERED</text><text fill="#eeeeee" stroke="none" font-family="Arial" font-size="24px" font-style="normal" font-weight="normal" text-decoration="none" x="600" y="30">UNREGISTERED</text><text fill="#eeeeee" stroke="none" font-family="Arial" font-size="24px" font-style="normal" font-weight="normal" text-decoration="none" x="600" y="60">UNREGISTERED</text><text fill="#eeeeee" stroke="none" font-family="Arial" font-size="24px" font-style="normal" font-weight="normal" text-decoration="none" x="600" y="90">UNREGISTERED</text><text fill="#eeeeee" stroke="none" font-family="Arial" font-size="24px" font-style="normal" font-weight="normal" text-decoration="none" x="600" y="120">UNREGISTERED</text><text fill="#eeeeee" stroke="none" font-family="Arial" font-size="24px" font-style="normal" font-weight="normal" text-decoration="none" x="600" y="150">UNREGISTERED</text><text fill="#eeeeee" stroke="none" font-family="Arial" font-size="24px" font-style="normal" font-weight="normal" text-decoration="none" x="600" y="180">UNREGISTERED</text><text fill="#eeeeee" stroke="none" font-family="Arial" font-size="24px" font-style="normal" font-weight="normal" text-decoration="none" x="600" y="210">UNREGISTERED</text><text fill="#eeeeee" stroke="none" font-family="Arial" font-size="24px" font-style="normal" font-weight="normal" text-decoration="none" x="600" y="240">UNREGISTERED</text><text fill="#eeeeee" stroke="none" font-family="Arial" font-size="24px" font-style="normal" font-weight="normal" text-decoration="none" x="600" y="270">UNREGISTERED</text><text fill="#eeeeee" stroke="none" font-family="Arial" font-size="24px" font-style="normal" font-weight="normal" text-decoration="none" x="600" y="300">UNREGISTERED</text><g transform="translate(-206,-6) scale(1,1)"><path fill="none" stroke="#000000" d="M 216 16 L 696 16 L 696 320 L 216 320 L 216 16" stroke-miterlimit="10"/></g><g transform="translate(-206,-6) scale(1,1)"><path fill="#ffffff" stroke="none" d="M 216 16 L 216 38 L 276.078125 38 L 287.078125 27 L 287.078125 16 L 216 16"/></g><g transform="translate(-206,-6) scale(1,1)"><path fill="none" stroke="#000000" d="M 216 16 L 216 38 L 276.078125 38 L 287.078125 27 L 287.078125 16 L 216 16 L 216 16" stroke-miterlimit="10"/></g><g transform="translate(-206,-6) scale(1,1)"><g><path fill="none" stroke="none"/><text fill="#000000" stroke="none" font-family="Arial" font-size="13px" font-style="normal" font-weight="normal" text-decoration="none" x="240.72998046875" y="32">show</text></g></g><g transform="translate(-206,-6) scale(1,1)"><g><path fill="none" stroke="none"/><text fill="#000000" stroke="none" font-family="Arial" font-size="13px" font-style="normal" font-weight="bold" text-decoration="none" x="220.279541015625" y="32">sd</text></g></g><g transform="translate(-206,-6) scale(1,1)"><rect fill="#C0C0C0" stroke="none" x="359" y="47" width="78.94091796875" height="39" opacity="0.2"/></g><g transform="translate(-206,-6) scale(1,1)"><rect fill="#ffffff" stroke="none" x="352" y="40" width="78.94091796875" height="39"/></g><g transform="translate(-206,-6) scale(1,1)"><path fill="none" stroke="#000000" d="M 352 40 L 430.94091796875 40 L 430.94091796875 79 L 352 79 L 352 40 Z Z" stroke-miterlimit="10"/></g><g transform="translate(-206,-6) scale(1,1)"><g><path fill="none" stroke="none"/><text fill="#000000" stroke="none" font-family="Arial" font-size="13px" font-style="normal" font-weight="bold" text-decoration="none" x="361.5" y="58">: Account</text></g></g><g transform="translate(-206,-6) scale(1,1)"><path fill="none" stroke="#000000" d="M 392.5 80 L 392.5 313" stroke-miterlimit="10" stroke-dasharray="3"/></g><g transform="translate(-206,-6) scale(1,1)"><path fill="#000000" stroke="none" d="M 232 111.5 C 232 107.6340064 235.1340064 104.5 239 104.5 C 242.8659936 104.5 246 107.6340064 246 111.5 C 246 115.3659936 242.8659936 118.5 239 118.5 C 235.1340064 118.5 232 115.3659936 232 111.5 Z"/></g><g transform="translate(-206,-6) scale(1,1)"><path fill="none" stroke="#000000" d="M 246 112 L 385 112" stroke-miterlimit="10"/></g><g transform="translate(-206,-6) scale(1,1)"><path fill="#000000" stroke="none" d="M 374.83732514237585 116.20951775601598 L 385 112 L 374.83732514237585 107.79048224398402"/></g><g transform="translate(-206,-6) scale(1,1)"><path fill="none" stroke="#000000" d="M 374.83732514237585 116.20951775601598 L 385 112 L 374.83732514237585 107.79048224398402 L 374.83732514237585 116.20951775601598" stroke-miterlimit="10"/></g><g transform="translate(-206,-6) scale(1,1)"><g><path fill="none" stroke="none"/><text fill="#000000" stroke="none" font-family="Arial" font-size="13px" font-style="normal" font-weight="normal" text-decoration="none" x="252.53271484375" y="107">show(sortType, page)</text></g></g><g transform="translate(-206,-6) scale(1,1)"><rect fill="#ffffff" stroke="none" x="385" y="112" width="13" height="187"/></g><g transform="translate(-206,-6) scale(1,1)"><path fill="none" stroke="#000000" d="M 385 112 L 398 112 L 398 299 L 385 299 L 385 112 Z Z" stroke-miterlimit="10"/></g><g transform="translate(-206,-6) scale(1,1)"><path fill="none" stroke="#000000" d="M 398 136 L 428 136 L 428 156 L 405 156" stroke-miterlimit="10"/></g><g transform="translate(-206,-6) scale(1,1)"><path fill="#000000" stroke="none" d="M 415.16267485762415 151.790482243984 L 405 156 L 415.16267485762415 160.209517756016"/></g><g transform="translate(-206,-6) scale(1,1)"><path fill="none" stroke="#000000" d="M 415.16267485762415 151.790482243984 L 405 156 L 415.16267485762415 160.209517756016 L 415.16267485762415 151.790482243984" stroke-miterlimit="10"/></g><g transform="translate(-206,-6) scale(1,1)"><g><path fill="none" stroke="none"/><text fill="#000000" stroke="none" font-family="Arial" font-size="13px" font-style="normal" font-weight="normal" text-decoration="none" x="437.61376953125" y="147">getUserFromAttribute(attributeUser)</text></g></g><g transform="translate(-206,-6) scale(1,1)"><rect fill="#ffffff" stroke="none" x="392" y="156" width="13" height="28"/></g><g transform="translate(-206,-6) scale(1,1)"><path fill="none" stroke="#000000" d="M 392 156 L 405 156 L 405 184 L 392 184 L 392 156 Z Z" stroke-miterlimit="10"/></g><g transform="translate(-206,-6) scale(1,1)"><path fill="none" stroke="#000000" d="M 398 240 L 428 240 L 428 260 L 405 260" stroke-miterlimit="10"/></g><g transform="translate(-206,-6) scale(1,1)"><path fill="#000000" stroke="none" d="M 415.16267485762415 255.790482243984 L 405 260 L 415.16267485762415 264.209517756016"/></g><g transform="translate(-206,-6) scale(1,1)"><path fill="none" stroke="#000000" d="M 415.16267485762415 255.790482243984 L 405 260 L 415.16267485762415 264.209517756016 L 415.16267485762415 255.790482243984" stroke-miterlimit="10"/></g><g transform="translate(-206,-6) scale(1,1)"><g><path fill="none" stroke="none"/><text fill="#000000" stroke="none" font-family="Arial" font-size="13px" font-style="normal" font-weight="normal" text-decoration="none" x="432.53271484375" y="251">getAllPaging(pageable)</text></g></g><g transform="translate(-206,-6) scale(1,1)"><rect fill="#ffffff" stroke="none" x="392" y="260" width="13" height="28"/></g><g transform="translate(-206,-6) scale(1,1)"><path fill="none" stroke="#000000" d="M 392 260 L 405 260 L 405 288 L 392 288 L 392 260 Z Z" stroke-miterlimit="10"/></g></g></svg>