<svg version="1.1" xmlns="http://www.w3.org/2000/svg" xmlns:xlink="http://www.w3.org/1999/xlink" width="516" height="324"><defs/><g><text fill="#eeeeee" stroke="none" font-family="Arial" font-size="24px" font-style="normal" font-weight="normal" text-decoration="none" x="0" y="0">UNREGISTERED</text><text fill="#eeeeee" stroke="none" font-family="Arial" font-size="24px" font-style="normal" font-weight="normal" text-decoration="none" x="0" y="30">UNREGISTERED</text><text fill="#eeeeee" stroke="none" font-family="Arial" font-size="24px" font-style="normal" font-weight="normal" text-decoration="none" x="0" y="60">UNREGISTERED</text><text fill="#eeeeee" stroke="none" font-family="Arial" font-size="24px" font-style="normal" font-weight="normal" text-decoration="none" x="0" y="90">UNREGISTERED</text><text fill="#eeeeee" stroke="none" font-family="Arial" font-size="24px" font-style="normal" font-weight="normal" text-decoration="none" x="0" y="120">UNREGISTERED</text><text fill="#eeeeee" stroke="none" font-family="Arial" font-size="24px" font-style="normal" font-weight="normal" text-decoration="none" x="0" y="150">UNREGISTERED</text><text fill="#eeeeee" stroke="none" font-family="Arial" font-size="24px" font-style="normal" font-weight="normal" text-decoration="none" x="0" y="180">UNREGISTERED</text><text fill="#eeeeee" stroke="none" font-family="Arial" font-size="24px" font-style="normal" font-weight="normal" text-decoration="none" x="0" y="210">UNREGISTERED</text><text fill="#eeeeee" stroke="none" font-family="Arial" font-size="24px" font-style="normal" font-weight="normal" text-decoration="none" x="0" y="240">UNREGISTERED</text><text fill="#eeeeee" stroke="none" font-family="Arial" font-size="24px" font-style="normal" font-weight="normal" text-decoration="none" x="0" y="270">UNREGISTERED</text><text fill="#eeeeee" stroke="none" font-family="Arial" font-size="24px" font-style="normal" font-weight="normal" text-decoration="none" x="0" y="300">UNREGISTERED</text><text fill="#eeeeee" stroke="none" font-family="Arial" font-size="24px" font-style="normal" font-weight="normal" text-decoration="none" x="200" y="0">UNREGISTERED</text><text fill="#eeeeee" stroke="none" font-family="Arial" font-size="24px" font-style="normal" font-weight="normal" text-decoration="none" x="200" y="30">UNREGISTERED</text><text fill="#eeeeee" stroke="none" font-family="Arial" font-size="24px" font-style="normal" font-weight="normal" text-decoration="none" x="200" y="60">UNREGISTERED</text><text fill="#eeeeee" stroke="none" font-family="Arial" font-size="24px" font-style="normal" font-weight="normal" text-decoration="none" x="200" y="90">UNREGISTERED</text><text fill="#eeeeee" stroke="none" font-family="Arial" font-size="24px" font-style="normal" font-weight="normal" text-decoration="none" x="200" y="120">UNREGISTERED</text><text fill="#eeeeee" stroke="none" font-family="Arial" font-size="24px" font-style="normal" font-weight="normal" text-decoration="none" x="200" y="150">UNREGISTERED</text><text fill="#eeeeee" stroke="none" font-family="Arial" font-size="24px" font-style="normal" font-weight="normal" text-decoration="none" x="200" y="180">UNREGISTERED</text><text fill="#eeeeee" stroke="none" font-family="Arial" font-size="24px" font-style="normal" font-weight="normal" text-decoration="none" x="200" y="210">UNREGISTERED</text><text fill="#eeeeee" stroke="none" font-family="Arial" font-size="24px" font-style="normal" font-weight="normal" text-decoration="none" x="200" y="240">UNREGISTERED</text><text fill="#eeeeee" stroke="none" font-family="Arial" font-size="24px" font-style="normal" font-weight="normal" text-decoration="none" x="200" y="270">UNREGISTERED</text><text fill="#eeeeee" stroke="none" font-family="Arial" font-size="24px" font-style="normal" font-weight="normal" text-decoration="none" x="200" y="300">UNREGISTERED</text><text fill="#eeeeee" stroke="none" font-family="Arial" font-size="24px" font-style="normal" font-weight="normal" text-decoration="none" x="400" y="0">UNREGISTERED</text><text fill="#eeeeee" stroke="none" font-family="Arial" font-size="24px" font-style="normal" font-weight="normal" text-decoration="none" x="400" y="30">UNREGISTERED</text><text fill="#eeeeee" stroke="none" font-family="Arial" font-size="24px" font-style="normal" font-weight="normal" text-decoration="none" x="400" y="60">UNREGISTERED</text><text fill="#eeeeee" stroke="none" font-family="Arial" font-size="24px" font-style="normal" font-weight="normal" text-decoration="none" x="400" y="90">UNREGISTERED</text><text fill="#eeeeee" stroke="none" font-family="Arial" font-size="24px" font-style="normal" font-weight="normal" text-decoration="none" x="400" y="120">UNREGISTERED</text><text fill="#eeeeee" stroke="none" font-family="Arial" font-size="24px" font-style="normal" font-weight="normal" text-decoration="none" x="400" y="150">UNREGISTERED</text><text fill="#eeeeee" stroke="none" font-family="Arial" font-size="24px" font-style="normal" font-weight="normal" text-decoration="none" x="400" y="180">UNREGISTERED</text><text fill="#eeeeee" stroke="none" font-family="Arial" font-size="24px" font-style="normal" font-weight="normal" text-decoration="none" x="400" y="210">UNREGISTERED</text><text fill="#eeeeee" stroke="none" font-family="Arial" font-size="24px" font-style="normal" font-weight="normal" text-decoration="none" x="400" y="240">UNREGISTERED</text><text fill="#eeeeee" stroke="none" font-family="Arial" font-size="24px" font-style="normal" font-weight="normal" text-decoration="none" x="400" y="270">UNREGISTERED</text><text fill="#eeeeee" stroke="none" font-family="Arial" font-size="24px" font-style="normal" font-weight="normal" text-decoration="none" x="400" y="300">UNREGISTERED</text><g transform="translate(-214,-22) scale(1,1)"><path fill="none" stroke="#000000" d="M 224 32 L 720 32 L 720 336 L 224 336 L 224 32" stroke-miterlimit="10"/></g><g transform="translate(-214,-22) scale(1,1)"><path fill="#ffffff" stroke="none" d="M 224 32 L 224 54 L 320.9326171875 54 L 331.9326171875 43 L 331.9326171875 32 L 224 32"/></g><g transform="translate(-214,-22) scale(1,1)"><path fill="none" stroke="#000000" d="M 224 32 L 224 54 L 320.9326171875 54 L 331.9326171875 43 L 331.9326171875 32 L 224 32 L 224 32" stroke-miterlimit="10"/></g><g transform="translate(-214,-22) scale(1,1)"><g><path fill="none" stroke="none"/><text fill="#000000" stroke="none" font-family="Arial" font-size="13px" font-style="normal" font-weight="normal" text-decoration="none" x="248.72998046875" y="48">ShowBilling</text></g></g><g transform="translate(-214,-22) scale(1,1)"><g><path fill="none" stroke="none"/><text fill="#000000" stroke="none" font-family="Arial" font-size="13px" font-style="normal" font-weight="bold" text-decoration="none" x="228.279541015625" y="48">sd</text></g></g><g transform="translate(-214,-22) scale(1,1)"><rect fill="#C0C0C0" stroke="none" x="375" y="47" width="72.447265625" height="39" opacity="0.2"/></g><g transform="translate(-214,-22) scale(1,1)"><rect fill="#ffffff" stroke="none" x="368" y="40" width="72.447265625" height="39"/></g><g transform="translate(-214,-22) scale(1,1)"><path fill="none" stroke="#000000" d="M 368 40 L 440.447265625 40 L 440.447265625 79 L 368 79 L 368 40 Z Z" stroke-miterlimit="10"/></g><g transform="translate(-214,-22) scale(1,1)"><g><path fill="none" stroke="none"/><text fill="#000000" stroke="none" font-family="Arial" font-size="13px" font-style="normal" font-weight="bold" text-decoration="none" x="385.799560546875" y="58">: User</text></g></g><g transform="translate(-214,-22) scale(1,1)"><path fill="none" stroke="#000000" d="M 405.5 80 L 405.5 320" stroke-miterlimit="10" stroke-dasharray="3"/></g><g transform="translate(-214,-22) scale(1,1)"><path fill="#000000" stroke="none" d="M 232 122.5 C 232 118.6340064 235.1340064 115.5 239 115.5 C 242.8659936 115.5 246 118.6340064 246 122.5 C 246 126.3659936 242.8659936 129.5 239 129.5 C 235.1340064 129.5 232 126.3659936 232 122.5 Z"/></g><g transform="translate(-214,-22) scale(1,1)"><path fill="none" stroke="#000000" d="M 246 123 L 398 123" stroke-miterlimit="10"/></g><g transform="translate(-214,-22) scale(1,1)"><path fill="#000000" stroke="none" d="M 387.83732514237585 127.20951775601598 L 398 123 L 387.83732514237585 118.79048224398402"/></g><g transform="translate(-214,-22) scale(1,1)"><path fill="none" stroke="#000000" d="M 387.83732514237585 127.20951775601598 L 398 123 L 387.83732514237585 118.79048224398402 L 387.83732514237585 127.20951775601598" stroke-miterlimit="10"/></g><g transform="translate(-214,-22) scale(1,1)"><g><path fill="none" stroke="none"/><text fill="#000000" stroke="none" font-family="Arial" font-size="13px" font-style="normal" font-weight="normal" text-decoration="none" x="285.53271484375" y="118">showBilling()</text></g></g><g transform="translate(-214,-22) scale(1,1)"><rect fill="#ffffff" stroke="none" x="398" y="123" width="13" height="173"/></g><g transform="translate(-214,-22) scale(1,1)"><path fill="none" stroke="#000000" d="M 398 123 L 411 123 L 411 296 L 398 296 L 398 123 Z Z" stroke-miterlimit="10"/></g><g transform="translate(-214,-22) scale(1,1)"><path fill="none" stroke="#000000" d="M 411 144 L 441 144 L 441 164 L 418 164" stroke-miterlimit="10"/></g><g transform="translate(-214,-22) scale(1,1)"><path fill="#000000" stroke="none" d="M 428.16267485762415 159.790482243984 L 418 164 L 428.16267485762415 168.209517756016"/></g><g transform="translate(-214,-22) scale(1,1)"><path fill="none" stroke="#000000" d="M 428.16267485762415 159.790482243984 L 418 164 L 428.16267485762415 168.209517756016 L 428.16267485762415 159.790482243984" stroke-miterlimit="10"/></g><g transform="translate(-214,-22) scale(1,1)"><g><path fill="none" stroke="none"/><text fill="#000000" stroke="none" font-family="Arial" font-size="13px" font-style="normal" font-weight="normal" text-decoration="none" x="464.53271484375" y="158">getUserFromAttribute(attributeUser)</text></g></g><g transform="translate(-214,-22) scale(1,1)"><rect fill="#ffffff" stroke="none" x="405" y="164" width="13" height="28"/></g><g transform="translate(-214,-22) scale(1,1)"><path fill="none" stroke="#000000" d="M 405 164 L 418 164 L 418 192 L 405 192 L 405 164 Z Z" stroke-miterlimit="10"/></g><g transform="translate(-214,-22) scale(1,1)"><path fill="none" stroke="#000000" d="M 411 224 L 441 224 L 441 244 L 418 244" stroke-miterlimit="10"/></g><g transform="translate(-214,-22) scale(1,1)"><path fill="#000000" stroke="none" d="M 428.16267485762415 239.790482243984 L 418 244 L 428.16267485762415 248.209517756016"/></g><g transform="translate(-214,-22) scale(1,1)"><path fill="none" stroke="#000000" d="M 428.16267485762415 239.790482243984 L 418 244 L 428.16267485762415 248.209517756016 L 428.16267485762415 239.790482243984" stroke-miterlimit="10"/></g><g transform="translate(-214,-22) scale(1,1)"><g><path fill="none" stroke="none"/><text fill="#000000" stroke="none" font-family="Arial" font-size="13px" font-style="normal" font-weight="normal" text-decoration="none" x="455.53271484375" y="238">orderList  = getOrderByUserId(userId)</text></g></g><g transform="translate(-214,-22) scale(1,1)"><rect fill="#ffffff" stroke="none" x="405" y="244" width="13" height="28"/></g><g transform="translate(-214,-22) scale(1,1)"><path fill="none" stroke="#000000" d="M 405 244 L 418 244 L 418 272 L 405 272 L 405 244 Z Z" stroke-miterlimit="10"/></g></g></svg>