<svg version="1.1" xmlns="http://www.w3.org/2000/svg" xmlns:xlink="http://www.w3.org/1999/xlink" width="724" height="276"><defs/><g><text fill="#eeeeee" stroke="none" font-family="Arial" font-size="24px" font-style="normal" font-weight="normal" text-decoration="none" x="0" y="0">UNREGISTERED</text><text fill="#eeeeee" stroke="none" font-family="Arial" font-size="24px" font-style="normal" font-weight="normal" text-decoration="none" x="0" y="30">UNREGISTERED</text><text fill="#eeeeee" stroke="none" font-family="Arial" font-size="24px" font-style="normal" font-weight="normal" text-decoration="none" x="0" y="60">UNREGISTERED</text><text fill="#eeeeee" stroke="none" font-family="Arial" font-size="24px" font-style="normal" font-weight="normal" text-decoration="none" x="0" y="90">UNREGISTERED</text><text fill="#eeeeee" stroke="none" font-family="Arial" font-size="24px" font-style="normal" font-weight="normal" text-decoration="none" x="0" y="120">UNREGISTERED</text><text fill="#eeeeee" stroke="none" font-family="Arial" font-size="24px" font-style="normal" font-weight="normal" text-decoration="none" x="0" y="150">UNREGISTERED</text><text fill="#eeeeee" stroke="none" font-family="Arial" font-size="24px" font-style="normal" font-weight="normal" text-decoration="none" x="0" y="180">UNREGISTERED</text><text fill="#eeeeee" stroke="none" font-family="Arial" font-size="24px" font-style="normal" font-weight="normal" text-decoration="none" x="0" y="210">UNREGISTERED</text><text fill="#eeeeee" stroke="none" font-family="Arial" font-size="24px" font-style="normal" font-weight="normal" text-decoration="none" x="0" y="240">UNREGISTERED</text><text fill="#eeeeee" stroke="none" font-family="Arial" font-size="24px" font-style="normal" font-weight="normal" text-decoration="none" x="0" y="270">UNREGISTERED</text><text fill="#eeeeee" stroke="none" font-family="Arial" font-size="24px" font-style="normal" font-weight="normal" text-decoration="none" x="200" y="0">UNREGISTERED</text><text fill="#eeeeee" stroke="none" font-family="Arial" font-size="24px" font-style="normal" font-weight="normal" text-decoration="none" x="200" y="30">UNREGISTERED</text><text fill="#eeeeee" stroke="none" font-family="Arial" font-size="24px" font-style="normal" font-weight="normal" text-decoration="none" x="200" y="60">UNREGISTERED</text><text fill="#eeeeee" stroke="none" font-family="Arial" font-size="24px" font-style="normal" font-weight="normal" text-decoration="none" x="200" y="90">UNREGISTERED</text><text fill="#eeeeee" stroke="none" font-family="Arial" font-size="24px" font-style="normal" font-weight="normal" text-decoration="none" x="200" y="120">UNREGISTERED</text><text fill="#eeeeee" stroke="none" font-family="Arial" font-size="24px" font-style="normal" font-weight="normal" text-decoration="none" x="200" y="150">UNREGISTERED</text><text fill="#eeeeee" stroke="none" font-family="Arial" font-size="24px" font-style="normal" font-weight="normal" text-decoration="none" x="200" y="180">UNREGISTERED</text><text fill="#eeeeee" stroke="none" font-family="Arial" font-size="24px" font-style="normal" font-weight="normal" text-decoration="none" x="200" y="210">UNREGISTERED</text><text fill="#eeeeee" stroke="none" font-family="Arial" font-size="24px" font-style="normal" font-weight="normal" text-decoration="none" x="200" y="240">UNREGISTERED</text><text fill="#eeeeee" stroke="none" font-family="Arial" font-size="24px" font-style="normal" font-weight="normal" text-decoration="none" x="200" y="270">UNREGISTERED</text><text fill="#eeeeee" stroke="none" font-family="Arial" font-size="24px" font-style="normal" font-weight="normal" text-decoration="none" x="400" y="0">UNREGISTERED</text><text fill="#eeeeee" stroke="none" font-family="Arial" font-size="24px" font-style="normal" font-weight="normal" text-decoration="none" x="400" y="30">UNREGISTERED</text><text fill="#eeeeee" stroke="none" font-family="Arial" font-size="24px" font-style="normal" font-weight="normal" text-decoration="none" x="400" y="60">UNREGISTERED</text><text fill="#eeeeee" stroke="none" font-family="Arial" font-size="24px" font-style="normal" font-weight="normal" text-decoration="none" x="400" y="90">UNREGISTERED</text><text fill="#eeeeee" stroke="none" font-family="Arial" font-size="24px" font-style="normal" font-weight="normal" text-decoration="none" x="400" y="120">UNREGISTERED</text><text fill="#eeeeee" stroke="none" font-family="Arial" font-size="24px" font-style="normal" font-weight="normal" text-decoration="none" x="400" y="150">UNREGISTERED</text><text fill="#eeeeee" stroke="none" font-family="Arial" font-size="24px" font-style="normal" font-weight="normal" text-decoration="none" x="400" y="180">UNREGISTERED</text><text fill="#eeeeee" stroke="none" font-family="Arial" font-size="24px" font-style="normal" font-weight="normal" text-decoration="none" x="400" y="210">UNREGISTERED</text><text fill="#eeeeee" stroke="none" font-family="Arial" font-size="24px" font-style="normal" font-weight="normal" text-decoration="none" x="400" y="240">UNREGISTERED</text><text fill="#eeeeee" stroke="none" font-family="Arial" font-size="24px" font-style="normal" font-weight="normal" text-decoration="none" x="400" y="270">UNREGISTERED</text><text fill="#eeeeee" stroke="none" font-family="Arial" font-size="24px" font-style="normal" font-weight="normal" text-decoration="none" x="600" y="0">UNREGISTERED</text><text fill="#eeeeee" stroke="none" font-family="Arial" font-size="24px" font-style="normal" font-weight="normal" text-decoration="none" x="600" y="30">UNREGISTERED</text><text fill="#eeeeee" stroke="none" font-family="Arial" font-size="24px" font-style="normal" font-weight="normal" text-decoration="none" x="600" y="60">UNREGISTERED</text><text fill="#eeeeee" stroke="none" font-family="Arial" font-size="24px" font-style="normal" font-weight="normal" text-decoration="none" x="600" y="90">UNREGISTERED</text><text fill="#eeeeee" stroke="none" font-family="Arial" font-size="24px" font-style="normal" font-weight="normal" text-decoration="none" x="600" y="120">UNREGISTERED</text><text fill="#eeeeee" stroke="none" font-family="Arial" font-size="24px" font-style="normal" font-weight="normal" text-decoration="none" x="600" y="150">UNREGISTERED</text><text fill="#eeeeee" stroke="none" font-family="Arial" font-size="24px" font-style="normal" font-weight="normal" text-decoration="none" x="600" y="180">UNREGISTERED</text><text fill="#eeeeee" stroke="none" font-family="Arial" font-size="24px" font-style="normal" font-weight="normal" text-decoration="none" x="600" y="210">UNREGISTERED</text><text fill="#eeeeee" stroke="none" font-family="Arial" font-size="24px" font-style="normal" font-weight="normal" text-decoration="none" x="600" y="240">UNREGISTERED</text><text fill="#eeeeee" stroke="none" font-family="Arial" font-size="24px" font-style="normal" font-weight="normal" text-decoration="none" x="600" y="270">UNREGISTERED</text><g transform="translate(-94,-14) scale(1,1)"><path fill="none" stroke="#000000" d="M 104 24 L 808 24 L 808 280 L 104 280 L 104 24" stroke-miterlimit="10"/></g><g transform="translate(-94,-14) scale(1,1)"><path fill="#ffffff" stroke="none" d="M 104 24 L 104 46 L 203.09716796875 46 L 214.09716796875 35 L 214.09716796875 24 L 104 24"/></g><g transform="translate(-94,-14) scale(1,1)"><path fill="none" stroke="#000000" d="M 104 24 L 104 46 L 203.09716796875 46 L 214.09716796875 35 L 214.09716796875 24 L 104 24 L 104 24" stroke-miterlimit="10"/></g><g transform="translate(-94,-14) scale(1,1)"><g><path fill="none" stroke="none"/><text fill="#000000" stroke="none" font-family="Arial" font-size="13px" font-style="normal" font-weight="normal" text-decoration="none" x="128.72998046875" y="40">ShowProfile</text></g></g><g transform="translate(-94,-14) scale(1,1)"><g><path fill="none" stroke="none"/><text fill="#000000" stroke="none" font-family="Arial" font-size="13px" font-style="normal" font-weight="bold" text-decoration="none" x="108.279541015625" y="40">sd</text></g></g><g transform="translate(-94,-14) scale(1,1)"><rect fill="#ffffff" stroke="none" x="112" y="120" width="679" height="120"/></g><g transform="translate(-94,-14) scale(1,1)"><path fill="none" stroke="#000000" d="M 112 120 L 791 120 L 791 240 L 112 240 L 112 120 Z Z" stroke-miterlimit="10"/></g><g transform="translate(-94,-14) scale(1,1)"><path fill="#ffffff" stroke="none" d="M 408.9981551846591 47.3 C 408.9981551846591 43.82060576 411.8765569068409 41 415.42724609375 41 C 418.9779352806591 41 421.856337002841 43.82060576 421.856337002841 47.3 C 421.856337002841 50.779394239999995 418.9779352806591 53.6 415.42724609375 53.6 C 411.8765569068409 53.6 408.9981551846591 50.779394239999995 408.9981551846591 47.3 Z"/></g><g transform="translate(-94,-14) scale(1,1)"><path fill="none" stroke="#000000" d="M 408.9981551846591 47.3 C 408.9981551846591 43.82060576 411.8765569068409 41 415.42724609375 41 C 418.9779352806591 41 421.856337002841 43.82060576 421.856337002841 47.3 C 421.856337002841 50.779394239999995 418.9779352806591 53.6 415.42724609375 53.6 C 411.8765569068409 53.6 408.9981551846591 50.779394239999995 408.9981551846591 47.3 Z" stroke-miterlimit="10"/></g><g transform="translate(-94,-14) scale(1,1)"><path fill="none" stroke="#000000" d="M 415.42724609375 53.6 L 415.42724609375 66.4" stroke-miterlimit="10"/></g><g transform="translate(-94,-14) scale(1,1)"><path fill="none" stroke="#000000" d="M 408.61997336647727 58.4 L 422.2345188210228 58.4" stroke-miterlimit="10"/></g><g transform="translate(-94,-14) scale(1,1)"><path fill="none" stroke="#000000" d="M 415.42724609375 66.4 L 405.97270063920456 79" stroke-miterlimit="10"/></g><g transform="translate(-94,-14) scale(1,1)"><path fill="none" stroke="#000000" d="M 415.42724609375 66.4 L 424.8817915482955 79" stroke-miterlimit="10"/></g><g transform="translate(-94,-14) scale(1,1)"><g><path fill="none" stroke="none"/><text fill="#000000" stroke="none" font-family="Arial" font-size="13px" font-style="normal" font-weight="bold" text-decoration="none" x="397.003173828125" y="98">: User</text></g></g><g transform="translate(-94,-14) scale(1,1)"><path fill="none" stroke="#000000" d="M 416.5 105 L 416.5 264" stroke-miterlimit="10" stroke-dasharray="3"/></g><g transform="translate(-94,-14) scale(1,1)"><rect fill="#C0C0C0" stroke="none" x="679" y="47" width="73.18994140625" height="39" opacity="0.2"/></g><g transform="translate(-94,-14) scale(1,1)"><rect fill="#ffffff" stroke="none" x="672" y="40" width="73.18994140625" height="39"/></g><g transform="translate(-94,-14) scale(1,1)"><path fill="none" stroke="#000000" d="M 672 40 L 745.18994140625 40 L 745.18994140625 79 L 672 79 L 672 40 Z Z" stroke-miterlimit="10"/></g><g transform="translate(-94,-14) scale(1,1)"><g><path fill="none" stroke="none"/><text fill="#000000" stroke="none" font-family="Arial" font-size="13px" font-style="normal" font-weight="bold" text-decoration="none" x="681.5" y="58">: System</text></g></g><g transform="translate(-94,-14) scale(1,1)"><path fill="none" stroke="#000000" d="M 709.5 80 L 709.5 272" stroke-miterlimit="10" stroke-dasharray="3"/></g><g transform="translate(-94,-14) scale(1,1)"><g><path fill="none" stroke="none"/><text fill="#000000" stroke="none" font-family="Arial" font-size="13px" font-style="normal" font-weight="normal" text-decoration="none" x="141" y="143">1. Người dùng chọn "Tài khoản" trong</text><text fill="#000000" stroke="none" font-family="Arial" font-size="13px" font-style="normal" font-weight="normal" text-decoration="none" x="141" y="156">navigation bar</text></g></g><g transform="translate(-94,-14) scale(1,1)"><g><path fill="none" stroke="none"/><text fill="#000000" stroke="none" font-family="Arial" font-size="13px" font-style="normal" font-weight="normal" text-decoration="none" x="141" y="184">2. Hệ thống hiển thị hồ sơ người dùng</text></g></g><g transform="translate(-94,-14) scale(1,1)"><g><path fill="none" stroke="none"/><text fill="#000000" stroke="none" font-family="Arial" font-size="13px" font-style="normal" font-weight="normal" text-decoration="none" x="141" y="216">3. Kết thúc việc xem hồ sơ người dùng</text></g></g><g transform="translate(-94,-14) scale(1,1)"><path fill="none" stroke="#000000" d="M 416 144 L 709 144" stroke-miterlimit="10"/></g><g transform="translate(-94,-14) scale(1,1)"><path fill="none" stroke="#000000" d="M 698.8373251423759 148.209517756016 L 709 144 L 698.8373251423758 139.790482243984" stroke-miterlimit="10"/></g><g transform="translate(-94,-14) scale(1,1)"><g><path fill="none" stroke="none"/><text fill="#000000" stroke="none" font-family="Arial" font-size="13px" font-style="normal" font-weight="normal" text-decoration="none" x="524.404052734375" y="139">showProfile()</text></g></g><g transform="translate(-94,-14) scale(1,1)"><path fill="none" stroke="#000000" d="M 709 176 L 416 176" stroke-miterlimit="10" stroke-dasharray="3"/></g><g transform="translate(-94,-14) scale(1,1)"><path fill="none" stroke="#000000" d="M 426.16267485762415 171.790482243984 L 416 176 L 426.16267485762415 180.209517756016" stroke-miterlimit="10"/></g><g transform="translate(-94,-14) scale(1,1)"><g><path fill="none" stroke="none"/><text fill="#000000" stroke="none" font-family="Arial" font-size="13px" font-style="normal" font-weight="normal" text-decoration="none" x="522.14990234375" y="191">ProfileOfUser</text></g></g></g></svg>