<svg version="1.1" xmlns="http://www.w3.org/2000/svg" xmlns:xlink="http://www.w3.org/1999/xlink" width="932" height="628"><defs/><g><text fill="#eeeeee" stroke="none" font-family="Arial" font-size="24px" font-style="normal" font-weight="normal" text-decoration="none" x="0" y="0">UNREGISTERED</text><text fill="#eeeeee" stroke="none" font-family="Arial" font-size="24px" font-style="normal" font-weight="normal" text-decoration="none" x="0" y="30">UNREGISTERED</text><text fill="#eeeeee" stroke="none" font-family="Arial" font-size="24px" font-style="normal" font-weight="normal" text-decoration="none" x="0" y="60">UNREGISTERED</text><text fill="#eeeeee" stroke="none" font-family="Arial" font-size="24px" font-style="normal" font-weight="normal" text-decoration="none" x="0" y="90">UNREGISTERED</text><text fill="#eeeeee" stroke="none" font-family="Arial" font-size="24px" font-style="normal" font-weight="normal" text-decoration="none" x="0" y="120">UNREGISTERED</text><text fill="#eeeeee" stroke="none" font-family="Arial" font-size="24px" font-style="normal" font-weight="normal" text-decoration="none" x="0" y="150">UNREGISTERED</text><text fill="#eeeeee" stroke="none" font-family="Arial" font-size="24px" font-style="normal" font-weight="normal" text-decoration="none" x="0" y="180">UNREGISTERED</text><text fill="#eeeeee" stroke="none" font-family="Arial" font-size="24px" font-style="normal" font-weight="normal" text-decoration="none" x="0" y="210">UNREGISTERED</text><text fill="#eeeeee" stroke="none" font-family="Arial" font-size="24px" font-style="normal" font-weight="normal" text-decoration="none" x="0" y="240">UNREGISTERED</text><text fill="#eeeeee" stroke="none" font-family="Arial" font-size="24px" font-style="normal" font-weight="normal" text-decoration="none" x="0" y="270">UNREGISTERED</text><text fill="#eeeeee" stroke="none" font-family="Arial" font-size="24px" font-style="normal" font-weight="normal" text-decoration="none" x="0" y="300">UNREGISTERED</text><text fill="#eeeeee" stroke="none" font-family="Arial" font-size="24px" font-style="normal" font-weight="normal" text-decoration="none" x="0" y="330">UNREGISTERED</text><text fill="#eeeeee" stroke="none" font-family="Arial" font-size="24px" font-style="normal" font-weight="normal" text-decoration="none" x="0" y="360">UNREGISTERED</text><text fill="#eeeeee" stroke="none" font-family="Arial" font-size="24px" font-style="normal" font-weight="normal" text-decoration="none" x="0" y="390">UNREGISTERED</text><text fill="#eeeeee" stroke="none" font-family="Arial" font-size="24px" font-style="normal" font-weight="normal" text-decoration="none" x="0" y="420">UNREGISTERED</text><text fill="#eeeeee" stroke="none" font-family="Arial" font-size="24px" font-style="normal" font-weight="normal" text-decoration="none" x="0" y="450">UNREGISTERED</text><text fill="#eeeeee" stroke="none" font-family="Arial" font-size="24px" font-style="normal" font-weight="normal" text-decoration="none" x="0" y="480">UNREGISTERED</text><text fill="#eeeeee" stroke="none" font-family="Arial" font-size="24px" font-style="normal" font-weight="normal" text-decoration="none" x="0" y="510">UNREGISTERED</text><text fill="#eeeeee" stroke="none" font-family="Arial" font-size="24px" font-style="normal" font-weight="normal" text-decoration="none" x="0" y="540">UNREGISTERED</text><text fill="#eeeeee" stroke="none" font-family="Arial" font-size="24px" font-style="normal" font-weight="normal" text-decoration="none" x="0" y="570">UNREGISTERED</text><text fill="#eeeeee" stroke="none" font-family="Arial" font-size="24px" font-style="normal" font-weight="normal" text-decoration="none" x="0" y="600">UNREGISTERED</text><text fill="#eeeeee" stroke="none" font-family="Arial" font-size="24px" font-style="normal" font-weight="normal" text-decoration="none" x="200" y="0">UNREGISTERED</text><text fill="#eeeeee" stroke="none" font-family="Arial" font-size="24px" font-style="normal" font-weight="normal" text-decoration="none" x="200" y="30">UNREGISTERED</text><text fill="#eeeeee" stroke="none" font-family="Arial" font-size="24px" font-style="normal" font-weight="normal" text-decoration="none" x="200" y="60">UNREGISTERED</text><text fill="#eeeeee" stroke="none" font-family="Arial" font-size="24px" font-style="normal" font-weight="normal" text-decoration="none" x="200" y="90">UNREGISTERED</text><text fill="#eeeeee" stroke="none" font-family="Arial" font-size="24px" font-style="normal" font-weight="normal" text-decoration="none" x="200" y="120">UNREGISTERED</text><text fill="#eeeeee" stroke="none" font-family="Arial" font-size="24px" font-style="normal" font-weight="normal" text-decoration="none" x="200" y="150">UNREGISTERED</text><text fill="#eeeeee" stroke="none" font-family="Arial" font-size="24px" font-style="normal" font-weight="normal" text-decoration="none" x="200" y="180">UNREGISTERED</text><text fill="#eeeeee" stroke="none" font-family="Arial" font-size="24px" font-style="normal" font-weight="normal" text-decoration="none" x="200" y="210">UNREGISTERED</text><text fill="#eeeeee" stroke="none" font-family="Arial" font-size="24px" font-style="normal" font-weight="normal" text-decoration="none" x="200" y="240">UNREGISTERED</text><text fill="#eeeeee" stroke="none" font-family="Arial" font-size="24px" font-style="normal" font-weight="normal" text-decoration="none" x="200" y="270">UNREGISTERED</text><text fill="#eeeeee" stroke="none" font-family="Arial" font-size="24px" font-style="normal" font-weight="normal" text-decoration="none" x="200" y="300">UNREGISTERED</text><text fill="#eeeeee" stroke="none" font-family="Arial" font-size="24px" font-style="normal" font-weight="normal" text-decoration="none" x="200" y="330">UNREGISTERED</text><text fill="#eeeeee" stroke="none" font-family="Arial" font-size="24px" font-style="normal" font-weight="normal" text-decoration="none" x="200" y="360">UNREGISTERED</text><text fill="#eeeeee" stroke="none" font-family="Arial" font-size="24px" font-style="normal" font-weight="normal" text-decoration="none" x="200" y="390">UNREGISTERED</text><text fill="#eeeeee" stroke="none" font-family="Arial" font-size="24px" font-style="normal" font-weight="normal" text-decoration="none" x="200" y="420">UNREGISTERED</text><text fill="#eeeeee" stroke="none" font-family="Arial" font-size="24px" font-style="normal" font-weight="normal" text-decoration="none" x="200" y="450">UNREGISTERED</text><text fill="#eeeeee" stroke="none" font-family="Arial" font-size="24px" font-style="normal" font-weight="normal" text-decoration="none" x="200" y="480">UNREGISTERED</text><text fill="#eeeeee" stroke="none" font-family="Arial" font-size="24px" font-style="normal" font-weight="normal" text-decoration="none" x="200" y="510">UNREGISTERED</text><text fill="#eeeeee" stroke="none" font-family="Arial" font-size="24px" font-style="normal" font-weight="normal" text-decoration="none" x="200" y="540">UNREGISTERED</text><text fill="#eeeeee" stroke="none" font-family="Arial" font-size="24px" font-style="normal" font-weight="normal" text-decoration="none" x="200" y="570">UNREGISTERED</text><text fill="#eeeeee" stroke="none" font-family="Arial" font-size="24px" font-style="normal" font-weight="normal" text-decoration="none" x="200" y="600">UNREGISTERED</text><text fill="#eeeeee" stroke="none" font-family="Arial" font-size="24px" font-style="normal" font-weight="normal" text-decoration="none" x="400" y="0">UNREGISTERED</text><text fill="#eeeeee" stroke="none" font-family="Arial" font-size="24px" font-style="normal" font-weight="normal" text-decoration="none" x="400" y="30">UNREGISTERED</text><text fill="#eeeeee" stroke="none" font-family="Arial" font-size="24px" font-style="normal" font-weight="normal" text-decoration="none" x="400" y="60">UNREGISTERED</text><text fill="#eeeeee" stroke="none" font-family="Arial" font-size="24px" font-style="normal" font-weight="normal" text-decoration="none" x="400" y="90">UNREGISTERED</text><text fill="#eeeeee" stroke="none" font-family="Arial" font-size="24px" font-style="normal" font-weight="normal" text-decoration="none" x="400" y="120">UNREGISTERED</text><text fill="#eeeeee" stroke="none" font-family="Arial" font-size="24px" font-style="normal" font-weight="normal" text-decoration="none" x="400" y="150">UNREGISTERED</text><text fill="#eeeeee" stroke="none" font-family="Arial" font-size="24px" font-style="normal" font-weight="normal" text-decoration="none" x="400" y="180">UNREGISTERED</text><text fill="#eeeeee" stroke="none" font-family="Arial" font-size="24px" font-style="normal" font-weight="normal" text-decoration="none" x="400" y="210">UNREGISTERED</text><text fill="#eeeeee" stroke="none" font-family="Arial" font-size="24px" font-style="normal" font-weight="normal" text-decoration="none" x="400" y="240">UNREGISTERED</text><text fill="#eeeeee" stroke="none" font-family="Arial" font-size="24px" font-style="normal" font-weight="normal" text-decoration="none" x="400" y="270">UNREGISTERED</text><text fill="#eeeeee" stroke="none" font-family="Arial" font-size="24px" font-style="normal" font-weight="normal" text-decoration="none" x="400" y="300">UNREGISTERED</text><text fill="#eeeeee" stroke="none" font-family="Arial" font-size="24px" font-style="normal" font-weight="normal" text-decoration="none" x="400" y="330">UNREGISTERED</text><text fill="#eeeeee" stroke="none" font-family="Arial" font-size="24px" font-style="normal" font-weight="normal" text-decoration="none" x="400" y="360">UNREGISTERED</text><text fill="#eeeeee" stroke="none" font-family="Arial" font-size="24px" font-style="normal" font-weight="normal" text-decoration="none" x="400" y="390">UNREGISTERED</text><text fill="#eeeeee" stroke="none" font-family="Arial" font-size="24px" font-style="normal" font-weight="normal" text-decoration="none" x="400" y="420">UNREGISTERED</text><text fill="#eeeeee" stroke="none" font-family="Arial" font-size="24px" font-style="normal" font-weight="normal" text-decoration="none" x="400" y="450">UNREGISTERED</text><text fill="#eeeeee" stroke="none" font-family="Arial" font-size="24px" font-style="normal" font-weight="normal" text-decoration="none" x="400" y="480">UNREGISTERED</text><text fill="#eeeeee" stroke="none" font-family="Arial" font-size="24px" font-style="normal" font-weight="normal" text-decoration="none" x="400" y="510">UNREGISTERED</text><text fill="#eeeeee" stroke="none" font-family="Arial" font-size="24px" font-style="normal" font-weight="normal" text-decoration="none" x="400" y="540">UNREGISTERED</text><text fill="#eeeeee" stroke="none" font-family="Arial" font-size="24px" font-style="normal" font-weight="normal" text-decoration="none" x="400" y="570">UNREGISTERED</text><text fill="#eeeeee" stroke="none" font-family="Arial" font-size="24px" font-style="normal" font-weight="normal" text-decoration="none" x="400" y="600">UNREGISTERED</text><text fill="#eeeeee" stroke="none" font-family="Arial" font-size="24px" font-style="normal" font-weight="normal" text-decoration="none" x="600" y="0">UNREGISTERED</text><text fill="#eeeeee" stroke="none" font-family="Arial" font-size="24px" font-style="normal" font-weight="normal" text-decoration="none" x="600" y="30">UNREGISTERED</text><text fill="#eeeeee" stroke="none" font-family="Arial" font-size="24px" font-style="normal" font-weight="normal" text-decoration="none" x="600" y="60">UNREGISTERED</text><text fill="#eeeeee" stroke="none" font-family="Arial" font-size="24px" font-style="normal" font-weight="normal" text-decoration="none" x="600" y="90">UNREGISTERED</text><text fill="#eeeeee" stroke="none" font-family="Arial" font-size="24px" font-style="normal" font-weight="normal" text-decoration="none" x="600" y="120">UNREGISTERED</text><text fill="#eeeeee" stroke="none" font-family="Arial" font-size="24px" font-style="normal" font-weight="normal" text-decoration="none" x="600" y="150">UNREGISTERED</text><text fill="#eeeeee" stroke="none" font-family="Arial" font-size="24px" font-style="normal" font-weight="normal" text-decoration="none" x="600" y="180">UNREGISTERED</text><text fill="#eeeeee" stroke="none" font-family="Arial" font-size="24px" font-style="normal" font-weight="normal" text-decoration="none" x="600" y="210">UNREGISTERED</text><text fill="#eeeeee" stroke="none" font-family="Arial" font-size="24px" font-style="normal" font-weight="normal" text-decoration="none" x="600" y="240">UNREGISTERED</text><text fill="#eeeeee" stroke="none" font-family="Arial" font-size="24px" font-style="normal" font-weight="normal" text-decoration="none" x="600" y="270">UNREGISTERED</text><text fill="#eeeeee" stroke="none" font-family="Arial" font-size="24px" font-style="normal" font-weight="normal" text-decoration="none" x="600" y="300">UNREGISTERED</text><text fill="#eeeeee" stroke="none" font-family="Arial" font-size="24px" font-style="normal" font-weight="normal" text-decoration="none" x="600" y="330">UNREGISTERED</text><text fill="#eeeeee" stroke="none" font-family="Arial" font-size="24px" font-style="normal" font-weight="normal" text-decoration="none" x="600" y="360">UNREGISTERED</text><text fill="#eeeeee" stroke="none" font-family="Arial" font-size="24px" font-style="normal" font-weight="normal" text-decoration="none" x="600" y="390">UNREGISTERED</text><text fill="#eeeeee" stroke="none" font-family="Arial" font-size="24px" font-style="normal" font-weight="normal" text-decoration="none" x="600" y="420">UNREGISTERED</text><text fill="#eeeeee" stroke="none" font-family="Arial" font-size="24px" font-style="normal" font-weight="normal" text-decoration="none" x="600" y="450">UNREGISTERED</text><text fill="#eeeeee" stroke="none" font-family="Arial" font-size="24px" font-style="normal" font-weight="normal" text-decoration="none" x="600" y="480">UNREGISTERED</text><text fill="#eeeeee" stroke="none" font-family="Arial" font-size="24px" font-style="normal" font-weight="normal" text-decoration="none" x="600" y="510">UNREGISTERED</text><text fill="#eeeeee" stroke="none" font-family="Arial" font-size="24px" font-style="normal" font-weight="normal" text-decoration="none" x="600" y="540">UNREGISTERED</text><text fill="#eeeeee" stroke="none" font-family="Arial" font-size="24px" font-style="normal" font-weight="normal" text-decoration="none" x="600" y="570">UNREGISTERED</text><text fill="#eeeeee" stroke="none" font-family="Arial" font-size="24px" font-style="normal" font-weight="normal" text-decoration="none" x="600" y="600">UNREGISTERED</text><text fill="#eeeeee" stroke="none" font-family="Arial" font-size="24px" font-style="normal" font-weight="normal" text-decoration="none" x="800" y="0">UNREGISTERED</text><text fill="#eeeeee" stroke="none" font-family="Arial" font-size="24px" font-style="normal" font-weight="normal" text-decoration="none" x="800" y="30">UNREGISTERED</text><text fill="#eeeeee" stroke="none" font-family="Arial" font-size="24px" font-style="normal" font-weight="normal" text-decoration="none" x="800" y="60">UNREGISTERED</text><text fill="#eeeeee" stroke="none" font-family="Arial" font-size="24px" font-style="normal" font-weight="normal" text-decoration="none" x="800" y="90">UNREGISTERED</text><text fill="#eeeeee" stroke="none" font-family="Arial" font-size="24px" font-style="normal" font-weight="normal" text-decoration="none" x="800" y="120">UNREGISTERED</text><text fill="#eeeeee" stroke="none" font-family="Arial" font-size="24px" font-style="normal" font-weight="normal" text-decoration="none" x="800" y="150">UNREGISTERED</text><text fill="#eeeeee" stroke="none" font-family="Arial" font-size="24px" font-style="normal" font-weight="normal" text-decoration="none" x="800" y="180">UNREGISTERED</text><text fill="#eeeeee" stroke="none" font-family="Arial" font-size="24px" font-style="normal" font-weight="normal" text-decoration="none" x="800" y="210">UNREGISTERED</text><text fill="#eeeeee" stroke="none" font-family="Arial" font-size="24px" font-style="normal" font-weight="normal" text-decoration="none" x="800" y="240">UNREGISTERED</text><text fill="#eeeeee" stroke="none" font-family="Arial" font-size="24px" font-style="normal" font-weight="normal" text-decoration="none" x="800" y="270">UNREGISTERED</text><text fill="#eeeeee" stroke="none" font-family="Arial" font-size="24px" font-style="normal" font-weight="normal" text-decoration="none" x="800" y="300">UNREGISTERED</text><text fill="#eeeeee" stroke="none" font-family="Arial" font-size="24px" font-style="normal" font-weight="normal" text-decoration="none" x="800" y="330">UNREGISTERED</text><text fill="#eeeeee" stroke="none" font-family="Arial" font-size="24px" font-style="normal" font-weight="normal" text-decoration="none" x="800" y="360">UNREGISTERED</text><text fill="#eeeeee" stroke="none" font-family="Arial" font-size="24px" font-style="normal" font-weight="normal" text-decoration="none" x="800" y="390">UNREGISTERED</text><text fill="#eeeeee" stroke="none" font-family="Arial" font-size="24px" font-style="normal" font-weight="normal" text-decoration="none" x="800" y="420">UNREGISTERED</text><text fill="#eeeeee" stroke="none" font-family="Arial" font-size="24px" font-style="normal" font-weight="normal" text-decoration="none" x="800" y="450">UNREGISTERED</text><text fill="#eeeeee" stroke="none" font-family="Arial" font-size="24px" font-style="normal" font-weight="normal" text-decoration="none" x="800" y="480">UNREGISTERED</text><text fill="#eeeeee" stroke="none" font-family="Arial" font-size="24px" font-style="normal" font-weight="normal" text-decoration="none" x="800" y="510">UNREGISTERED</text><text fill="#eeeeee" stroke="none" font-family="Arial" font-size="24px" font-style="normal" font-weight="normal" text-decoration="none" x="800" y="540">UNREGISTERED</text><text fill="#eeeeee" stroke="none" font-family="Arial" font-size="24px" font-style="normal" font-weight="normal" text-decoration="none" x="800" y="570">UNREGISTERED</text><text fill="#eeeeee" stroke="none" font-family="Arial" font-size="24px" font-style="normal" font-weight="normal" text-decoration="none" x="800" y="600">UNREGISTERED</text><g transform="translate(-102,-14) scale(1,1)"><path fill="none" stroke="#000000" d="M 112 24 L 1024 24 L 1024 632 L 112 632 L 112 24" stroke-miterlimit="10"/></g><g transform="translate(-102,-14) scale(1,1)"><path fill="#ffffff" stroke="none" d="M 112 24 L 112 46 L 196.63720703125 46 L 207.63720703125 35 L 207.63720703125 24 L 112 24"/></g><g transform="translate(-102,-14) scale(1,1)"><path fill="none" stroke="#000000" d="M 112 24 L 112 46 L 196.63720703125 46 L 207.63720703125 35 L 207.63720703125 24 L 112 24 L 112 24" stroke-miterlimit="10"/></g><g transform="translate(-102,-14) scale(1,1)"><g><path fill="none" stroke="none"/><text fill="#000000" stroke="none" font-family="Arial" font-size="13px" font-style="normal" font-weight="normal" text-decoration="none" x="136.72998046875" y="40">showCart</text></g></g><g transform="translate(-102,-14) scale(1,1)"><g><path fill="none" stroke="none"/><text fill="#000000" stroke="none" font-family="Arial" font-size="13px" font-style="normal" font-weight="bold" text-decoration="none" x="116.279541015625" y="40">sd</text></g></g><g transform="translate(-102,-14) scale(1,1)"><rect fill="#C0C0C0" stroke="none" x="351" y="47" width="71.736328125" height="39" opacity="0.2"/></g><g transform="translate(-102,-14) scale(1,1)"><rect fill="#ffffff" stroke="none" x="344" y="40" width="71.736328125" height="39"/></g><g transform="translate(-102,-14) scale(1,1)"><path fill="none" stroke="#000000" d="M 344 40 L 415.736328125 40 L 415.736328125 79 L 344 79 L 344 40 Z Z" stroke-miterlimit="10"/></g><g transform="translate(-102,-14) scale(1,1)"><g><path fill="none" stroke="none"/><text fill="#000000" stroke="none" font-family="Arial" font-size="13px" font-style="normal" font-weight="bold" text-decoration="none" x="362.89453125" y="58">: Cart</text></g></g><g transform="translate(-102,-14) scale(1,1)"><path fill="none" stroke="#000000" d="M 380.5 80 L 380.5 616" stroke-miterlimit="10" stroke-dasharray="3"/></g><g transform="translate(-102,-14) scale(1,1)"><path fill="#000000" stroke="none" d="M 168 119.5 C 168 115.6340064 171.1340064 112.5 175 112.5 C 178.8659936 112.5 182 115.6340064 182 119.5 C 182 123.3659936 178.8659936 126.5 175 126.5 C 171.1340064 126.5 168 123.3659936 168 119.5 Z"/></g><g transform="translate(-102,-14) scale(1,1)"><rect fill="#C0C0C0" stroke="none" x="599" y="47" width="71.736328125" height="39" opacity="0.2"/></g><g transform="translate(-102,-14) scale(1,1)"><rect fill="#ffffff" stroke="none" x="592" y="40" width="71.736328125" height="39"/></g><g transform="translate(-102,-14) scale(1,1)"><path fill="none" stroke="#000000" d="M 592 40 L 663.736328125 40 L 663.736328125 79 L 592 79 L 592 40 Z Z" stroke-miterlimit="10"/></g><g transform="translate(-102,-14) scale(1,1)"><g><path fill="none" stroke="none"/><text fill="#000000" stroke="none" font-family="Arial" font-size="13px" font-style="normal" font-weight="bold" text-decoration="none" x="609.444091796875" y="58">: User</text></g></g><g transform="translate(-102,-14) scale(1,1)"><path fill="none" stroke="#000000" d="M 628.5 80 L 628.5 608" stroke-miterlimit="10" stroke-dasharray="3"/></g><g transform="translate(-102,-14) scale(1,1)"><rect fill="#C0C0C0" stroke="none" x="751" y="47" width="89.7890625" height="39" opacity="0.2"/></g><g transform="translate(-102,-14) scale(1,1)"><rect fill="#ffffff" stroke="none" x="744" y="40" width="89.7890625" height="39"/></g><g transform="translate(-102,-14) scale(1,1)"><path fill="none" stroke="#000000" d="M 744 40 L 833.7890625 40 L 833.7890625 79 L 744 79 L 744 40 Z Z" stroke-miterlimit="10"/></g><g transform="translate(-102,-14) scale(1,1)"><g><path fill="none" stroke="none"/><text fill="#000000" stroke="none" font-family="Arial" font-size="13px" font-style="normal" font-weight="bold" text-decoration="none" x="753.5" y="58">: GuestCart</text></g></g><g transform="translate(-102,-14) scale(1,1)"><path fill="none" stroke="#000000" d="M 789.5 80 L 789.5 600" stroke-miterlimit="10" stroke-dasharray="3"/></g><g transform="translate(-102,-14) scale(1,1)"><rect fill="#C0C0C0" stroke="none" x="903" y="483" width="79.67724609375" height="39" opacity="0.2"/></g><g transform="translate(-102,-14) scale(1,1)"><rect fill="#ffffff" stroke="none" x="896" y="476" width="79.67724609375" height="39"/></g><g transform="translate(-102,-14) scale(1,1)"><path fill="none" stroke="#000000" d="M 896 476 L 975.67724609375 476 L 975.67724609375 515 L 896 515 L 896 476 Z Z" stroke-miterlimit="10"/></g><g transform="translate(-102,-14) scale(1,1)"><g><path fill="none" stroke="none"/><text fill="#000000" stroke="none" font-family="Arial" font-size="13px" font-style="normal" font-weight="bold" text-decoration="none" x="905.5" y="494">: CartItem</text></g></g><g transform="translate(-102,-14) scale(1,1)"><path fill="none" stroke="#000000" d="M 936.5 516 L 936.5 600" stroke-miterlimit="10" stroke-dasharray="3"/></g><g transform="translate(-102,-14) scale(1,1)"><path fill="none" stroke="#000000" d="M 182 120 L 373 120" stroke-miterlimit="10"/></g><g transform="translate(-102,-14) scale(1,1)"><path fill="#000000" stroke="none" d="M 362.83732514237585 124.20951775601598 L 373 120 L 362.83732514237585 115.79048224398402"/></g><g transform="translate(-102,-14) scale(1,1)"><path fill="none" stroke="#000000" d="M 362.83732514237585 124.20951775601598 L 373 120 L 362.83732514237585 115.79048224398402 L 362.83732514237585 124.20951775601598" stroke-miterlimit="10"/></g><g transform="translate(-102,-14) scale(1,1)"><g><path fill="none" stroke="none"/><text fill="#000000" stroke="none" font-family="Arial" font-size="13px" font-style="normal" font-weight="normal" text-decoration="none" x="245.53271484375" y="115">showCart()</text></g></g><g transform="translate(-102,-14) scale(1,1)"><rect fill="#ffffff" stroke="none" x="373" y="120" width="13" height="472"/></g><g transform="translate(-102,-14) scale(1,1)"><path fill="none" stroke="#000000" d="M 373 120 L 386 120 L 386 592 L 373 592 L 373 120 Z Z" stroke-miterlimit="10"/></g><g transform="translate(-102,-14) scale(1,1)"><path fill="none" stroke="#000000" d="M 386 144 L 621 144" stroke-miterlimit="10"/></g><g transform="translate(-102,-14) scale(1,1)"><path fill="#000000" stroke="none" d="M 610.8373251423759 148.209517756016 L 621 144 L 610.8373251423758 139.790482243984"/></g><g transform="translate(-102,-14) scale(1,1)"><path fill="none" stroke="#000000" d="M 610.8373251423759 148.209517756016 L 621 144 L 610.8373251423758 139.790482243984 L 610.8373251423759 148.209517756016" stroke-miterlimit="10"/></g><g transform="translate(-102,-14) scale(1,1)"><g><path fill="none" stroke="none"/><text fill="#000000" stroke="none" font-family="Arial" font-size="13px" font-style="normal" font-weight="normal" text-decoration="none" x="399.53271484375" y="139">getUserFromAttribute(attributeUser)</text></g></g><g transform="translate(-102,-14) scale(1,1)"><rect fill="#ffffff" stroke="none" x="621" y="144" width="13" height="28"/></g><g transform="translate(-102,-14) scale(1,1)"><path fill="none" stroke="#000000" d="M 621 144 L 634 144 L 634 172 L 621 172 L 621 144 Z Z" stroke-miterlimit="10"/></g><g transform="translate(-102,-14) scale(1,1)"><path fill="none" stroke="#000000" d="M 621 161 L 386 161" stroke-miterlimit="10" stroke-dasharray="3"/></g><g transform="translate(-102,-14) scale(1,1)"><path fill="none" stroke="#000000" d="M 396.16267485762415 156.790482243984 L 386 161 L 396.16267485762415 165.209517756016" stroke-miterlimit="10"/></g><g transform="translate(-102,-14) scale(1,1)"><g><path fill="none" stroke="none"/><text fill="#000000" stroke="none" font-family="Arial" font-size="13px" font-style="normal" font-weight="normal" text-decoration="none" x="488.53271484375" y="176">User</text></g></g><g transform="translate(-102,-14) scale(1,1)"><path fill="none" stroke="#000000" d="M 386 200 L 782 200" stroke-miterlimit="10"/></g><g transform="translate(-102,-14) scale(1,1)"><path fill="#000000" stroke="none" d="M 771.8373251423759 204.209517756016 L 782 200 L 771.8373251423758 195.790482243984"/></g><g transform="translate(-102,-14) scale(1,1)"><path fill="none" stroke="#000000" d="M 771.8373251423759 204.209517756016 L 782 200 L 771.8373251423758 195.790482243984 L 771.8373251423759 204.209517756016" stroke-miterlimit="10"/></g><g transform="translate(-102,-14) scale(1,1)"><g><path fill="none" stroke="none"/><text fill="#000000" stroke="none" font-family="Arial" font-size="13px" font-style="normal" font-weight="normal" text-decoration="none" x="448.86181640625" y="195">getGuestCartFromAttribute(attributeGuestCart)</text></g></g><g transform="translate(-102,-14) scale(1,1)"><rect fill="#ffffff" stroke="none" x="782" y="200" width="13" height="28"/></g><g transform="translate(-102,-14) scale(1,1)"><path fill="none" stroke="#000000" d="M 782 200 L 795 200 L 795 228 L 782 228 L 782 200 Z Z" stroke-miterlimit="10"/></g><g transform="translate(-102,-14) scale(1,1)"><path fill="none" stroke="#000000" d="M 782 224 L 386 224" stroke-miterlimit="10" stroke-dasharray="3"/></g><g transform="translate(-102,-14) scale(1,1)"><path fill="none" stroke="#000000" d="M 396.16267485762415 219.790482243984 L 386 224 L 396.16267485762415 228.209517756016" stroke-miterlimit="10"/></g><g transform="translate(-102,-14) scale(1,1)"><g><path fill="none" stroke="none"/><text fill="#000000" stroke="none" font-family="Arial" font-size="13px" font-style="normal" font-weight="normal" text-decoration="none" x="553.53271484375" y="239">GuestCart</text></g></g><g transform="translate(-102,-14) scale(1,1)"><path fill="none" stroke="#000000" d="M 386 264 L 416 264 L 416 284 L 393 284" stroke-miterlimit="10"/></g><g transform="translate(-102,-14) scale(1,1)"><path fill="#000000" stroke="none" d="M 403.16267485762415 279.790482243984 L 393 284 L 403.16267485762415 288.209517756016"/></g><g transform="translate(-102,-14) scale(1,1)"><path fill="none" stroke="#000000" d="M 403.16267485762415 279.790482243984 L 393 284 L 403.16267485762415 288.209517756016 L 403.16267485762415 279.790482243984" stroke-miterlimit="10"/></g><g transform="translate(-102,-14) scale(1,1)"><g><path fill="none" stroke="none"/><text fill="#000000" stroke="none" font-family="Arial" font-size="13px" font-style="normal" font-weight="normal" text-decoration="none" x="431.53271484375" y="278">getCurrentCartByUserId(userId)</text></g></g><g transform="translate(-102,-14) scale(1,1)"><rect fill="#ffffff" stroke="none" x="380" y="284" width="13" height="28"/></g><g transform="translate(-102,-14) scale(1,1)"><path fill="none" stroke="#000000" d="M 380 284 L 393 284 L 393 312 L 380 312 L 380 284 Z Z" stroke-miterlimit="10"/></g><g transform="translate(-102,-14) scale(1,1)"><path fill="none" stroke="#000000" d="M 386 328 L 416 328 L 416 348 L 393 348" stroke-miterlimit="10"/></g><g transform="translate(-102,-14) scale(1,1)"><path fill="#000000" stroke="none" d="M 403.16267485762415 343.790482243984 L 393 348 L 403.16267485762415 352.209517756016"/></g><g transform="translate(-102,-14) scale(1,1)"><path fill="none" stroke="#000000" d="M 403.16267485762415 343.790482243984 L 393 348 L 403.16267485762415 352.209517756016 L 403.16267485762415 343.790482243984" stroke-miterlimit="10"/></g><g transform="translate(-102,-14) scale(1,1)"><g><path fill="none" stroke="none"/><text fill="#000000" stroke="none" font-family="Arial" font-size="13px" font-style="normal" font-weight="normal" text-decoration="none" x="431.53271484375" y="342">getCartItemList()</text></g></g><g transform="translate(-102,-14) scale(1,1)"><rect fill="#ffffff" stroke="none" x="380" y="348" width="13" height="28"/></g><g transform="translate(-102,-14) scale(1,1)"><path fill="none" stroke="#000000" d="M 380 348 L 393 348 L 393 376 L 380 376 L 380 348 Z Z" stroke-miterlimit="10"/></g><g transform="translate(-102,-14) scale(1,1)"><path fill="none" stroke="#000000" d="M 386 408 L 782 408" stroke-miterlimit="10"/></g><g transform="translate(-102,-14) scale(1,1)"><path fill="#000000" stroke="none" d="M 771.8373251423759 412.209517756016 L 782 408 L 771.8373251423758 403.790482243984"/></g><g transform="translate(-102,-14) scale(1,1)"><path fill="none" stroke="#000000" d="M 771.8373251423759 412.209517756016 L 782 408 L 771.8373251423758 403.790482243984 L 771.8373251423759 412.209517756016" stroke-miterlimit="10"/></g><g transform="translate(-102,-14) scale(1,1)"><g><path fill="none" stroke="none"/><text fill="#000000" stroke="none" font-family="Arial" font-size="13px" font-style="normal" font-weight="normal" text-decoration="none" x="535.53271484375" y="403">getCartItemList()</text></g></g><g transform="translate(-102,-14) scale(1,1)"><rect fill="#ffffff" stroke="none" x="782" y="408" width="13" height="28"/></g><g transform="translate(-102,-14) scale(1,1)"><path fill="none" stroke="#000000" d="M 782 408 L 795 408 L 795 436 L 782 436 L 782 408 Z Z" stroke-miterlimit="10"/></g><g transform="translate(-102,-14) scale(1,1)"><path fill="none" stroke="#000000" d="M 782 424 L 386 424" stroke-miterlimit="10" stroke-dasharray="3"/></g><g transform="translate(-102,-14) scale(1,1)"><path fill="none" stroke="#000000" d="M 396.16267485762415 419.790482243984 L 386 424 L 396.16267485762415 428.209517756016" stroke-miterlimit="10"/></g><g transform="translate(-102,-14) scale(1,1)"><g><path fill="none" stroke="none"/><text fill="#000000" stroke="none" font-family="Arial" font-size="13px" font-style="normal" font-weight="normal" text-decoration="none" x="549.53271484375" y="439">cartItemList</text></g></g><g transform="translate(-102,-14) scale(1,1)"><path fill="none" stroke="#000000" d="M 386 496 L 896 496" stroke-miterlimit="10" stroke-dasharray="3"/></g><g transform="translate(-102,-14) scale(1,1)"><path fill="none" stroke="#000000" d="M 885.8373251423759 500.209517756016 L 896 496 L 885.8373251423758 491.790482243984" stroke-miterlimit="10"/></g><g transform="translate(-102,-14) scale(1,1)"><g><path fill="none" stroke="none"/><text fill="#000000" stroke="none" font-family="Arial" font-size="13px" font-style="normal" font-weight="normal" text-decoration="none" x="565.147705078125" y="491">new ArrayList&lt;CartItem&gt;()</text></g></g><g transform="translate(-102,-14) scale(1,1)"><g><path fill="none" stroke="none"/><text fill="#000000" stroke="none" font-family="Arial" font-size="13px" font-style="normal" font-weight="normal" text-decoration="none" x="615.5" y="475.5">«create»</text></g></g><g transform="translate(-102,-14) scale(1,1)"><path fill="none" stroke="#000000" d="M 128 384 L 839 384 L 839 449 L 128 449 L 128 384" stroke-miterlimit="10"/></g><g transform="translate(-102,-14) scale(1,1)"><path fill="#ffffff" stroke="none" d="M 128 384 L 128 406 L 342.00244140625 406 L 353.00244140625 395 L 353.00244140625 384 L 128 384"/></g><g transform="translate(-102,-14) scale(1,1)"><path fill="none" stroke="#000000" d="M 128 384 L 128 406 L 342.00244140625 406 L 353.00244140625 395 L 353.00244140625 384 L 128 384 L 128 384" stroke-miterlimit="10"/></g><g transform="translate(-102,-14) scale(1,1)"><g><path fill="none" stroke="none"/><text fill="#000000" stroke="none" font-family="Arial" font-size="13px" font-style="normal" font-weight="normal" text-decoration="none" x="157.07177734375" y="400">user = null &amp;&amp; guestCart != null</text></g></g><g transform="translate(-102,-14) scale(1,1)"><g><path fill="none" stroke="none"/><text fill="#000000" stroke="none" font-family="Arial" font-size="13px" font-style="normal" font-weight="bold" text-decoration="none" x="131.930419921875" y="399.5">opt</text></g></g><g transform="translate(-102,-14) scale(1,1)"><path fill="none" stroke="#000000" d="M 128 456 L 1007 456 L 1007 575 L 128 575 L 128 456" stroke-miterlimit="10"/></g><g transform="translate(-102,-14) scale(1,1)"><path fill="#ffffff" stroke="none" d="M 128 456 L 128 478 L 338.390625 478 L 349.390625 467 L 349.390625 456 L 128 456"/></g><g transform="translate(-102,-14) scale(1,1)"><path fill="none" stroke="#000000" d="M 128 456 L 128 478 L 338.390625 478 L 349.390625 467 L 349.390625 456 L 128 456 L 128 456" stroke-miterlimit="10"/></g><g transform="translate(-102,-14) scale(1,1)"><g><path fill="none" stroke="none"/><text fill="#000000" stroke="none" font-family="Arial" font-size="13px" font-style="normal" font-weight="normal" text-decoration="none" x="157.07177734375" y="472">user = null &amp;&amp; guestCart = null</text></g></g><g transform="translate(-102,-14) scale(1,1)"><g><path fill="none" stroke="none"/><text fill="#000000" stroke="none" font-family="Arial" font-size="13px" font-style="normal" font-weight="bold" text-decoration="none" x="131.930419921875" y="471.5">opt</text></g></g></g></svg>