<svg version="1.1" xmlns="http://www.w3.org/2000/svg" xmlns:xlink="http://www.w3.org/1999/xlink" width="844" height="468"><defs/><g><text fill="#eeeeee" stroke="none" font-family="Arial" font-size="24px" font-style="normal" font-weight="normal" text-decoration="none" x="0" y="0">UNREGISTERED</text><text fill="#eeeeee" stroke="none" font-family="Arial" font-size="24px" font-style="normal" font-weight="normal" text-decoration="none" x="0" y="30">UNREGISTERED</text><text fill="#eeeeee" stroke="none" font-family="Arial" font-size="24px" font-style="normal" font-weight="normal" text-decoration="none" x="0" y="60">UNREGISTERED</text><text fill="#eeeeee" stroke="none" font-family="Arial" font-size="24px" font-style="normal" font-weight="normal" text-decoration="none" x="0" y="90">UNREGISTERED</text><text fill="#eeeeee" stroke="none" font-family="Arial" font-size="24px" font-style="normal" font-weight="normal" text-decoration="none" x="0" y="120">UNREGISTERED</text><text fill="#eeeeee" stroke="none" font-family="Arial" font-size="24px" font-style="normal" font-weight="normal" text-decoration="none" x="0" y="150">UNREGISTERED</text><text fill="#eeeeee" stroke="none" font-family="Arial" font-size="24px" font-style="normal" font-weight="normal" text-decoration="none" x="0" y="180">UNREGISTERED</text><text fill="#eeeeee" stroke="none" font-family="Arial" font-size="24px" font-style="normal" font-weight="normal" text-decoration="none" x="0" y="210">UNREGISTERED</text><text fill="#eeeeee" stroke="none" font-family="Arial" font-size="24px" font-style="normal" font-weight="normal" text-decoration="none" x="0" y="240">UNREGISTERED</text><text fill="#eeeeee" stroke="none" font-family="Arial" font-size="24px" font-style="normal" font-weight="normal" text-decoration="none" x="0" y="270">UNREGISTERED</text><text fill="#eeeeee" stroke="none" font-family="Arial" font-size="24px" font-style="normal" font-weight="normal" text-decoration="none" x="0" y="300">UNREGISTERED</text><text fill="#eeeeee" stroke="none" font-family="Arial" font-size="24px" font-style="normal" font-weight="normal" text-decoration="none" x="0" y="330">UNREGISTERED</text><text fill="#eeeeee" stroke="none" font-family="Arial" font-size="24px" font-style="normal" font-weight="normal" text-decoration="none" x="0" y="360">UNREGISTERED</text><text fill="#eeeeee" stroke="none" font-family="Arial" font-size="24px" font-style="normal" font-weight="normal" text-decoration="none" x="0" y="390">UNREGISTERED</text><text fill="#eeeeee" stroke="none" font-family="Arial" font-size="24px" font-style="normal" font-weight="normal" text-decoration="none" x="0" y="420">UNREGISTERED</text><text fill="#eeeeee" stroke="none" font-family="Arial" font-size="24px" font-style="normal" font-weight="normal" text-decoration="none" x="0" y="450">UNREGISTERED</text><text fill="#eeeeee" stroke="none" font-family="Arial" font-size="24px" font-style="normal" font-weight="normal" text-decoration="none" x="200" y="0">UNREGISTERED</text><text fill="#eeeeee" stroke="none" font-family="Arial" font-size="24px" font-style="normal" font-weight="normal" text-decoration="none" x="200" y="30">UNREGISTERED</text><text fill="#eeeeee" stroke="none" font-family="Arial" font-size="24px" font-style="normal" font-weight="normal" text-decoration="none" x="200" y="60">UNREGISTERED</text><text fill="#eeeeee" stroke="none" font-family="Arial" font-size="24px" font-style="normal" font-weight="normal" text-decoration="none" x="200" y="90">UNREGISTERED</text><text fill="#eeeeee" stroke="none" font-family="Arial" font-size="24px" font-style="normal" font-weight="normal" text-decoration="none" x="200" y="120">UNREGISTERED</text><text fill="#eeeeee" stroke="none" font-family="Arial" font-size="24px" font-style="normal" font-weight="normal" text-decoration="none" x="200" y="150">UNREGISTERED</text><text fill="#eeeeee" stroke="none" font-family="Arial" font-size="24px" font-style="normal" font-weight="normal" text-decoration="none" x="200" y="180">UNREGISTERED</text><text fill="#eeeeee" stroke="none" font-family="Arial" font-size="24px" font-style="normal" font-weight="normal" text-decoration="none" x="200" y="210">UNREGISTERED</text><text fill="#eeeeee" stroke="none" font-family="Arial" font-size="24px" font-style="normal" font-weight="normal" text-decoration="none" x="200" y="240">UNREGISTERED</text><text fill="#eeeeee" stroke="none" font-family="Arial" font-size="24px" font-style="normal" font-weight="normal" text-decoration="none" x="200" y="270">UNREGISTERED</text><text fill="#eeeeee" stroke="none" font-family="Arial" font-size="24px" font-style="normal" font-weight="normal" text-decoration="none" x="200" y="300">UNREGISTERED</text><text fill="#eeeeee" stroke="none" font-family="Arial" font-size="24px" font-style="normal" font-weight="normal" text-decoration="none" x="200" y="330">UNREGISTERED</text><text fill="#eeeeee" stroke="none" font-family="Arial" font-size="24px" font-style="normal" font-weight="normal" text-decoration="none" x="200" y="360">UNREGISTERED</text><text fill="#eeeeee" stroke="none" font-family="Arial" font-size="24px" font-style="normal" font-weight="normal" text-decoration="none" x="200" y="390">UNREGISTERED</text><text fill="#eeeeee" stroke="none" font-family="Arial" font-size="24px" font-style="normal" font-weight="normal" text-decoration="none" x="200" y="420">UNREGISTERED</text><text fill="#eeeeee" stroke="none" font-family="Arial" font-size="24px" font-style="normal" font-weight="normal" text-decoration="none" x="200" y="450">UNREGISTERED</text><text fill="#eeeeee" stroke="none" font-family="Arial" font-size="24px" font-style="normal" font-weight="normal" text-decoration="none" x="400" y="0">UNREGISTERED</text><text fill="#eeeeee" stroke="none" font-family="Arial" font-size="24px" font-style="normal" font-weight="normal" text-decoration="none" x="400" y="30">UNREGISTERED</text><text fill="#eeeeee" stroke="none" font-family="Arial" font-size="24px" font-style="normal" font-weight="normal" text-decoration="none" x="400" y="60">UNREGISTERED</text><text fill="#eeeeee" stroke="none" font-family="Arial" font-size="24px" font-style="normal" font-weight="normal" text-decoration="none" x="400" y="90">UNREGISTERED</text><text fill="#eeeeee" stroke="none" font-family="Arial" font-size="24px" font-style="normal" font-weight="normal" text-decoration="none" x="400" y="120">UNREGISTERED</text><text fill="#eeeeee" stroke="none" font-family="Arial" font-size="24px" font-style="normal" font-weight="normal" text-decoration="none" x="400" y="150">UNREGISTERED</text><text fill="#eeeeee" stroke="none" font-family="Arial" font-size="24px" font-style="normal" font-weight="normal" text-decoration="none" x="400" y="180">UNREGISTERED</text><text fill="#eeeeee" stroke="none" font-family="Arial" font-size="24px" font-style="normal" font-weight="normal" text-decoration="none" x="400" y="210">UNREGISTERED</text><text fill="#eeeeee" stroke="none" font-family="Arial" font-size="24px" font-style="normal" font-weight="normal" text-decoration="none" x="400" y="240">UNREGISTERED</text><text fill="#eeeeee" stroke="none" font-family="Arial" font-size="24px" font-style="normal" font-weight="normal" text-decoration="none" x="400" y="270">UNREGISTERED</text><text fill="#eeeeee" stroke="none" font-family="Arial" font-size="24px" font-style="normal" font-weight="normal" text-decoration="none" x="400" y="300">UNREGISTERED</text><text fill="#eeeeee" stroke="none" font-family="Arial" font-size="24px" font-style="normal" font-weight="normal" text-decoration="none" x="400" y="330">UNREGISTERED</text><text fill="#eeeeee" stroke="none" font-family="Arial" font-size="24px" font-style="normal" font-weight="normal" text-decoration="none" x="400" y="360">UNREGISTERED</text><text fill="#eeeeee" stroke="none" font-family="Arial" font-size="24px" font-style="normal" font-weight="normal" text-decoration="none" x="400" y="390">UNREGISTERED</text><text fill="#eeeeee" stroke="none" font-family="Arial" font-size="24px" font-style="normal" font-weight="normal" text-decoration="none" x="400" y="420">UNREGISTERED</text><text fill="#eeeeee" stroke="none" font-family="Arial" font-size="24px" font-style="normal" font-weight="normal" text-decoration="none" x="400" y="450">UNREGISTERED</text><text fill="#eeeeee" stroke="none" font-family="Arial" font-size="24px" font-style="normal" font-weight="normal" text-decoration="none" x="600" y="0">UNREGISTERED</text><text fill="#eeeeee" stroke="none" font-family="Arial" font-size="24px" font-style="normal" font-weight="normal" text-decoration="none" x="600" y="30">UNREGISTERED</text><text fill="#eeeeee" stroke="none" font-family="Arial" font-size="24px" font-style="normal" font-weight="normal" text-decoration="none" x="600" y="60">UNREGISTERED</text><text fill="#eeeeee" stroke="none" font-family="Arial" font-size="24px" font-style="normal" font-weight="normal" text-decoration="none" x="600" y="90">UNREGISTERED</text><text fill="#eeeeee" stroke="none" font-family="Arial" font-size="24px" font-style="normal" font-weight="normal" text-decoration="none" x="600" y="120">UNREGISTERED</text><text fill="#eeeeee" stroke="none" font-family="Arial" font-size="24px" font-style="normal" font-weight="normal" text-decoration="none" x="600" y="150">UNREGISTERED</text><text fill="#eeeeee" stroke="none" font-family="Arial" font-size="24px" font-style="normal" font-weight="normal" text-decoration="none" x="600" y="180">UNREGISTERED</text><text fill="#eeeeee" stroke="none" font-family="Arial" font-size="24px" font-style="normal" font-weight="normal" text-decoration="none" x="600" y="210">UNREGISTERED</text><text fill="#eeeeee" stroke="none" font-family="Arial" font-size="24px" font-style="normal" font-weight="normal" text-decoration="none" x="600" y="240">UNREGISTERED</text><text fill="#eeeeee" stroke="none" font-family="Arial" font-size="24px" font-style="normal" font-weight="normal" text-decoration="none" x="600" y="270">UNREGISTERED</text><text fill="#eeeeee" stroke="none" font-family="Arial" font-size="24px" font-style="normal" font-weight="normal" text-decoration="none" x="600" y="300">UNREGISTERED</text><text fill="#eeeeee" stroke="none" font-family="Arial" font-size="24px" font-style="normal" font-weight="normal" text-decoration="none" x="600" y="330">UNREGISTERED</text><text fill="#eeeeee" stroke="none" font-family="Arial" font-size="24px" font-style="normal" font-weight="normal" text-decoration="none" x="600" y="360">UNREGISTERED</text><text fill="#eeeeee" stroke="none" font-family="Arial" font-size="24px" font-style="normal" font-weight="normal" text-decoration="none" x="600" y="390">UNREGISTERED</text><text fill="#eeeeee" stroke="none" font-family="Arial" font-size="24px" font-style="normal" font-weight="normal" text-decoration="none" x="600" y="420">UNREGISTERED</text><text fill="#eeeeee" stroke="none" font-family="Arial" font-size="24px" font-style="normal" font-weight="normal" text-decoration="none" x="600" y="450">UNREGISTERED</text><text fill="#eeeeee" stroke="none" font-family="Arial" font-size="24px" font-style="normal" font-weight="normal" text-decoration="none" x="800" y="0">UNREGISTERED</text><text fill="#eeeeee" stroke="none" font-family="Arial" font-size="24px" font-style="normal" font-weight="normal" text-decoration="none" x="800" y="30">UNREGISTERED</text><text fill="#eeeeee" stroke="none" font-family="Arial" font-size="24px" font-style="normal" font-weight="normal" text-decoration="none" x="800" y="60">UNREGISTERED</text><text fill="#eeeeee" stroke="none" font-family="Arial" font-size="24px" font-style="normal" font-weight="normal" text-decoration="none" x="800" y="90">UNREGISTERED</text><text fill="#eeeeee" stroke="none" font-family="Arial" font-size="24px" font-style="normal" font-weight="normal" text-decoration="none" x="800" y="120">UNREGISTERED</text><text fill="#eeeeee" stroke="none" font-family="Arial" font-size="24px" font-style="normal" font-weight="normal" text-decoration="none" x="800" y="150">UNREGISTERED</text><text fill="#eeeeee" stroke="none" font-family="Arial" font-size="24px" font-style="normal" font-weight="normal" text-decoration="none" x="800" y="180">UNREGISTERED</text><text fill="#eeeeee" stroke="none" font-family="Arial" font-size="24px" font-style="normal" font-weight="normal" text-decoration="none" x="800" y="210">UNREGISTERED</text><text fill="#eeeeee" stroke="none" font-family="Arial" font-size="24px" font-style="normal" font-weight="normal" text-decoration="none" x="800" y="240">UNREGISTERED</text><text fill="#eeeeee" stroke="none" font-family="Arial" font-size="24px" font-style="normal" font-weight="normal" text-decoration="none" x="800" y="270">UNREGISTERED</text><text fill="#eeeeee" stroke="none" font-family="Arial" font-size="24px" font-style="normal" font-weight="normal" text-decoration="none" x="800" y="300">UNREGISTERED</text><text fill="#eeeeee" stroke="none" font-family="Arial" font-size="24px" font-style="normal" font-weight="normal" text-decoration="none" x="800" y="330">UNREGISTERED</text><text fill="#eeeeee" stroke="none" font-family="Arial" font-size="24px" font-style="normal" font-weight="normal" text-decoration="none" x="800" y="360">UNREGISTERED</text><text fill="#eeeeee" stroke="none" font-family="Arial" font-size="24px" font-style="normal" font-weight="normal" text-decoration="none" x="800" y="390">UNREGISTERED</text><text fill="#eeeeee" stroke="none" font-family="Arial" font-size="24px" font-style="normal" font-weight="normal" text-decoration="none" x="800" y="420">UNREGISTERED</text><text fill="#eeeeee" stroke="none" font-family="Arial" font-size="24px" font-style="normal" font-weight="normal" text-decoration="none" x="800" y="450">UNREGISTERED</text><g transform="translate(-54,-94) scale(1,1)"><path fill="none" stroke="#000000" d="M 64 104 L 888 104 L 888 552 L 64 552 L 64 104" stroke-miterlimit="10"/></g><g transform="translate(-54,-94) scale(1,1)"><path fill="#ffffff" stroke="none" d="M 64 104 L 64 126 L 139.97900390625 126 L 150.97900390625 115 L 150.97900390625 104 L 64 104"/></g><g transform="translate(-54,-94) scale(1,1)"><path fill="none" stroke="#000000" d="M 64 104 L 64 126 L 139.97900390625 126 L 150.97900390625 115 L 150.97900390625 104 L 64 104 L 64 104" stroke-miterlimit="10"/></g><g transform="translate(-54,-94) scale(1,1)"><g><path fill="none" stroke="none"/><text fill="#000000" stroke="none" font-family="Arial" font-size="13px" font-style="normal" font-weight="normal" text-decoration="none" x="88.72998046875" y="120">addCart</text></g></g><g transform="translate(-54,-94) scale(1,1)"><g><path fill="none" stroke="none"/><text fill="#000000" stroke="none" font-family="Arial" font-size="13px" font-style="normal" font-weight="bold" text-decoration="none" x="68.279541015625" y="120">sd</text></g></g><g transform="translate(-54,-94) scale(1,1)"><rect fill="#C0C0C0" stroke="none" x="399" y="287" width="99" height="29" opacity="0.2"/></g><g transform="translate(-54,-94) scale(1,1)"><rect fill="#ffffff" stroke="none" x="392" y="280" width="99" height="29"/></g><g transform="translate(-54,-94) scale(1,1)"><path fill="none" stroke="#000000" d="M 392 280 L 491 280 L 491 309 L 392 309 L 392 280 Z Z" stroke-miterlimit="10"/></g><g transform="translate(-54,-94) scale(1,1)"><rect fill="#ffffff" stroke="none" x="392" y="280" width="99" height="29"/></g><g transform="translate(-54,-94) scale(1,1)"><path fill="none" stroke="#000000" d="M 392 280 L 491 280 L 491 309 L 392 309 L 392 280 Z Z" stroke-miterlimit="10"/></g><g transform="translate(-54,-94) scale(1,1)"><g><path fill="none" stroke="none"/><text fill="#000000" stroke="none" font-family="Arial" font-size="13px" font-style="normal" font-weight="bold" text-decoration="none" x="424.5263671875" y="298">: Cart</text></g></g><g transform="translate(-54,-94) scale(1,1)"><rect fill="#C0C0C0" stroke="none" x="743" y="287" width="99" height="29" opacity="0.2"/></g><g transform="translate(-54,-94) scale(1,1)"><rect fill="#ffffff" stroke="none" x="736" y="280" width="99" height="29"/></g><g transform="translate(-54,-94) scale(1,1)"><path fill="none" stroke="#000000" d="M 736 280 L 835 280 L 835 309 L 736 309 L 736 280 Z Z" stroke-miterlimit="10"/></g><g transform="translate(-54,-94) scale(1,1)"><rect fill="#ffffff" stroke="none" x="736" y="280" width="99" height="29"/></g><g transform="translate(-54,-94) scale(1,1)"><path fill="none" stroke="#000000" d="M 736 280 L 835 280 L 835 309 L 736 309 L 736 280 Z Z" stroke-miterlimit="10"/></g><g transform="translate(-54,-94) scale(1,1)"><g><path fill="none" stroke="none"/><text fill="#000000" stroke="none" font-family="Arial" font-size="13px" font-style="normal" font-weight="bold" text-decoration="none" x="767.075927734375" y="298">: User</text></g></g><g transform="translate(-54,-94) scale(1,1)"><rect fill="#C0C0C0" stroke="none" x="399" y="495" width="99" height="29" opacity="0.2"/></g><g transform="translate(-54,-94) scale(1,1)"><rect fill="#ffffff" stroke="none" x="392" y="488" width="99" height="29"/></g><g transform="translate(-54,-94) scale(1,1)"><path fill="none" stroke="#000000" d="M 392 488 L 491 488 L 491 517 L 392 517 L 392 488 Z Z" stroke-miterlimit="10"/></g><g transform="translate(-54,-94) scale(1,1)"><rect fill="#ffffff" stroke="none" x="392" y="488" width="99" height="29"/></g><g transform="translate(-54,-94) scale(1,1)"><path fill="none" stroke="#000000" d="M 392 488 L 491 488 L 491 517 L 392 517 L 392 488 Z Z" stroke-miterlimit="10"/></g><g transform="translate(-54,-94) scale(1,1)"><g><path fill="none" stroke="none"/><text fill="#000000" stroke="none" font-family="Arial" font-size="13px" font-style="normal" font-weight="bold" text-decoration="none" x="406.10546875" y="506">: GuestCart</text></g></g><g transform="translate(-54,-94) scale(1,1)"><path fill="none" stroke="#000000" d="M 492 294 L 735 294" stroke-miterlimit="10"/></g><g transform="translate(-54,-94) scale(1,1)"><path fill="none" stroke="#000000" d="M 343 286 L 303 286" stroke-miterlimit="10"/></g><g transform="translate(-54,-94) scale(1,1)"><path fill="#000000" stroke="none" d="M 331 290 L 343 286 L 331 281"/></g><g transform="translate(-54,-94) scale(1,1)"><g><path fill="none" stroke="none"/><text fill="#000000" stroke="none" font-family="Arial" font-size="13px" font-style="normal" font-weight="normal" text-decoration="none" x="241.0673828125" y="280">addCart(productId, quantity)</text></g></g><g transform="translate(-54,-94) scale(1,1)"><path fill="none" stroke="#000000" d="M 248 296 L 391 297" stroke-miterlimit="10"/></g><g transform="translate(-54,-94) scale(1,1)"><path fill="none" stroke="#000000" d="M 492 294 L 735 294" stroke-miterlimit="10"/></g><g transform="translate(-54,-94) scale(1,1)"><path fill="none" stroke="#000000" d="M 633 284 L 593 284" stroke-miterlimit="10"/></g><g transform="translate(-54,-94) scale(1,1)"><path fill="#000000" stroke="none" d="M 621 288 L 633 284 L 621 279"/></g><g transform="translate(-54,-94) scale(1,1)"><g><path fill="none" stroke="none"/><text fill="#000000" stroke="none" font-family="Arial" font-size="13px" font-style="normal" font-weight="normal" text-decoration="none" x="527.4619140625" y="275">1: getUsetFromAttribute(attributeUser)</text></g></g><g transform="translate(-54,-94) scale(1,1)"><path fill="none" stroke="#000000" d="M 441 310 L 441 487" stroke-miterlimit="10"/></g><g transform="translate(-54,-94) scale(1,1)"><path fill="none" stroke="#000000" d="M 450 417 L 450 377" stroke-miterlimit="10"/></g><g transform="translate(-54,-94) scale(1,1)"><path fill="#000000" stroke="none" d="M 445 405 L 450 417 L 454 405"/></g><g transform="translate(-54,-94) scale(1,1)"><g><path fill="none" stroke="none"/><text fill="#000000" stroke="none" font-family="Arial" font-size="13px" font-style="normal" font-weight="normal" text-decoration="none" x="463.11376953125" y="387">2: getGuestCartFromAttribute(attributeGuesCart)</text></g></g><g transform="translate(-54,-94) scale(1,1)"><path fill="none" stroke="#000000" d="M 441 280 L 441 259 L 520 259 L 520 294 L 491 294" stroke-miterlimit="10"/></g><g transform="translate(-54,-94) scale(1,1)"><path fill="none" stroke="#000000" d="M 471 254 L 471 214" stroke-miterlimit="10"/></g><g transform="translate(-54,-94) scale(1,1)"><path fill="#000000" stroke="none" d="M 466 242 L 471 254 L 475 242"/></g><g transform="translate(-54,-94) scale(1,1)"><g><path fill="none" stroke="none"/><text fill="#000000" stroke="none" font-family="Arial" font-size="13px" font-style="normal" font-weight="normal" text-decoration="none" x="477.229248046875" y="227">3.a.1[user != null] :getCurrentCartByUserId(userId)</text></g></g><g transform="translate(-54,-94) scale(1,1)"><path fill="none" stroke="#000000" d="M 492 294 L 735 294" stroke-miterlimit="10"/></g><g transform="translate(-54,-94) scale(1,1)"><path fill="none" stroke="#000000" d="M 441 310 L 441 487" stroke-miterlimit="10"/></g><g transform="translate(-54,-94) scale(1,1)"><path fill="none" stroke="#000000" d="M 487 214 L 487 174" stroke-miterlimit="10"/></g><g transform="translate(-54,-94) scale(1,1)"><path fill="#000000" stroke="none" d="M 482 202 L 487 214 L 491 202"/></g><g transform="translate(-54,-94) scale(1,1)"><g><path fill="none" stroke="none"/><text fill="#000000" stroke="none" font-family="Arial" font-size="13px" font-style="normal" font-weight="normal" text-decoration="none" x="490.972900390625" y="188">3.a.2 [user != null &amp;&amp; cart == null]:  createCart(user)</text></g></g><g transform="translate(-54,-94) scale(1,1)"><path fill="none" stroke="#000000" d="M 441 310 L 441 487" stroke-miterlimit="10"/></g><g transform="translate(-54,-94) scale(1,1)"><path fill="none" stroke="#000000" d="M 495 167 L 495 127" stroke-miterlimit="10"/></g><g transform="translate(-54,-94) scale(1,1)"><path fill="#000000" stroke="none" d="M 490 155 L 495 167 L 499 155"/></g><g transform="translate(-54,-94) scale(1,1)"><g><path fill="none" stroke="none"/><text fill="#000000" stroke="none" font-family="Arial" font-size="13px" font-style="normal" font-weight="normal" text-decoration="none" x="503.97705078125" y="141">3.a.3[user != null] :addProductToCart(cart, ProductId, quantity)</text></g></g><g transform="translate(-54,-94) scale(1,1)"><path fill="none" stroke="#000000" d="M 441 280 L 441 259 L 520 259 L 520 294 L 491 294" stroke-miterlimit="10"/></g><g transform="translate(-54,-94) scale(1,1)"><path fill="none" stroke="#000000" d="M 439 246 L 439 206" stroke-miterlimit="10"/></g><g transform="translate(-54,-94) scale(1,1)"><path fill="#000000" stroke="none" d="M 434 234 L 439 246 L 443 234"/></g><g transform="translate(-54,-94) scale(1,1)"><g><path fill="none" stroke="none"/><text fill="#000000" stroke="none" font-family="Arial" font-size="13px" font-style="normal" font-weight="normal" text-decoration="none" x="204.17333984375" y="202">3.b [user == null &amp;&amp; guestCart != null]: </text><text fill="#000000" stroke="none" font-family="Arial" font-size="13px" font-style="normal" font-weight="normal" text-decoration="none" x="214.116943359375" y="215">addProductToGuestCart(guestCart,</text><text fill="#000000" stroke="none" font-family="Arial" font-size="13px" font-style="normal" font-weight="normal" text-decoration="none" x="260.3564453125" y="228">productId, quantity)</text></g></g><g transform="translate(-54,-94) scale(1,1)"><path fill="none" stroke="#000000" d="M 441 310 L 441 487" stroke-miterlimit="10"/></g><g transform="translate(-54,-94) scale(1,1)"><path fill="none" stroke="#000000" d="M 423 471 L 423 431" stroke-miterlimit="10"/></g><g transform="translate(-54,-94) scale(1,1)"><path fill="#000000" stroke="none" d="M 418 459 L 423 471 L 427 459"/></g><g transform="translate(-54,-94) scale(1,1)"><g><path fill="none" stroke="none"/><text fill="#000000" stroke="none" font-family="Arial" font-size="13px" font-style="normal" font-weight="normal" text-decoration="none" x="71.3056640625" y="443">3.c.1 [user == null &amp;&amp; guestCart == null]:  createGuestCart()</text></g></g><g transform="translate(-54,-94) scale(1,1)"><path fill="none" stroke="#000000" d="M 441 280 L 441 259 L 520 259 L 520 294 L 491 294" stroke-miterlimit="10"/></g><g transform="translate(-54,-94) scale(1,1)"><path fill="none" stroke="#000000" d="M 431 190 L 431 150" stroke-miterlimit="10"/></g><g transform="translate(-54,-94) scale(1,1)"><path fill="#000000" stroke="none" d="M 426 178 L 431 190 L 435 178"/></g><g transform="translate(-54,-94) scale(1,1)"><g><path fill="none" stroke="none"/><text fill="#000000" stroke="none" font-family="Arial" font-size="13px" font-style="normal" font-weight="normal" text-decoration="none" x="178.12744140625" y="150">3.c.2 [user == null &amp;&amp; guestCart == null]: </text><text fill="#000000" stroke="none" font-family="Arial" font-size="13px" font-style="normal" font-weight="normal" text-decoration="none" x="195.116943359375" y="163">addProductToGuestCart(guestCart,</text><text fill="#000000" stroke="none" font-family="Arial" font-size="13px" font-style="normal" font-weight="normal" text-decoration="none" x="239.550537109375" y="176">productId,  quantity)</text></g></g></g></svg>