<svg version="1.1" xmlns="http://www.w3.org/2000/svg" xmlns:xlink="http://www.w3.org/1999/xlink" width="711" height="508"><defs/><g><text fill="#eeeeee" stroke="none" font-family="Arial" font-size="24px" font-style="normal" font-weight="normal" text-decoration="none" x="0" y="0">UNREGISTERED</text><text fill="#eeeeee" stroke="none" font-family="Arial" font-size="24px" font-style="normal" font-weight="normal" text-decoration="none" x="0" y="30">UNREGISTERED</text><text fill="#eeeeee" stroke="none" font-family="Arial" font-size="24px" font-style="normal" font-weight="normal" text-decoration="none" x="0" y="60">UNREGISTERED</text><text fill="#eeeeee" stroke="none" font-family="Arial" font-size="24px" font-style="normal" font-weight="normal" text-decoration="none" x="0" y="90">UNREGISTERED</text><text fill="#eeeeee" stroke="none" font-family="Arial" font-size="24px" font-style="normal" font-weight="normal" text-decoration="none" x="0" y="120">UNREGISTERED</text><text fill="#eeeeee" stroke="none" font-family="Arial" font-size="24px" font-style="normal" font-weight="normal" text-decoration="none" x="0" y="150">UNREGISTERED</text><text fill="#eeeeee" stroke="none" font-family="Arial" font-size="24px" font-style="normal" font-weight="normal" text-decoration="none" x="0" y="180">UNREGISTERED</text><text fill="#eeeeee" stroke="none" font-family="Arial" font-size="24px" font-style="normal" font-weight="normal" text-decoration="none" x="0" y="210">UNREGISTERED</text><text fill="#eeeeee" stroke="none" font-family="Arial" font-size="24px" font-style="normal" font-weight="normal" text-decoration="none" x="0" y="240">UNREGISTERED</text><text fill="#eeeeee" stroke="none" font-family="Arial" font-size="24px" font-style="normal" font-weight="normal" text-decoration="none" x="0" y="270">UNREGISTERED</text><text fill="#eeeeee" stroke="none" font-family="Arial" font-size="24px" font-style="normal" font-weight="normal" text-decoration="none" x="0" y="300">UNREGISTERED</text><text fill="#eeeeee" stroke="none" font-family="Arial" font-size="24px" font-style="normal" font-weight="normal" text-decoration="none" x="0" y="330">UNREGISTERED</text><text fill="#eeeeee" stroke="none" font-family="Arial" font-size="24px" font-style="normal" font-weight="normal" text-decoration="none" x="0" y="360">UNREGISTERED</text><text fill="#eeeeee" stroke="none" font-family="Arial" font-size="24px" font-style="normal" font-weight="normal" text-decoration="none" x="0" y="390">UNREGISTERED</text><text fill="#eeeeee" stroke="none" font-family="Arial" font-size="24px" font-style="normal" font-weight="normal" text-decoration="none" x="0" y="420">UNREGISTERED</text><text fill="#eeeeee" stroke="none" font-family="Arial" font-size="24px" font-style="normal" font-weight="normal" text-decoration="none" x="0" y="450">UNREGISTERED</text><text fill="#eeeeee" stroke="none" font-family="Arial" font-size="24px" font-style="normal" font-weight="normal" text-decoration="none" x="0" y="480">UNREGISTERED</text><text fill="#eeeeee" stroke="none" font-family="Arial" font-size="24px" font-style="normal" font-weight="normal" text-decoration="none" x="200" y="0">UNREGISTERED</text><text fill="#eeeeee" stroke="none" font-family="Arial" font-size="24px" font-style="normal" font-weight="normal" text-decoration="none" x="200" y="30">UNREGISTERED</text><text fill="#eeeeee" stroke="none" font-family="Arial" font-size="24px" font-style="normal" font-weight="normal" text-decoration="none" x="200" y="60">UNREGISTERED</text><text fill="#eeeeee" stroke="none" font-family="Arial" font-size="24px" font-style="normal" font-weight="normal" text-decoration="none" x="200" y="90">UNREGISTERED</text><text fill="#eeeeee" stroke="none" font-family="Arial" font-size="24px" font-style="normal" font-weight="normal" text-decoration="none" x="200" y="120">UNREGISTERED</text><text fill="#eeeeee" stroke="none" font-family="Arial" font-size="24px" font-style="normal" font-weight="normal" text-decoration="none" x="200" y="150">UNREGISTERED</text><text fill="#eeeeee" stroke="none" font-family="Arial" font-size="24px" font-style="normal" font-weight="normal" text-decoration="none" x="200" y="180">UNREGISTERED</text><text fill="#eeeeee" stroke="none" font-family="Arial" font-size="24px" font-style="normal" font-weight="normal" text-decoration="none" x="200" y="210">UNREGISTERED</text><text fill="#eeeeee" stroke="none" font-family="Arial" font-size="24px" font-style="normal" font-weight="normal" text-decoration="none" x="200" y="240">UNREGISTERED</text><text fill="#eeeeee" stroke="none" font-family="Arial" font-size="24px" font-style="normal" font-weight="normal" text-decoration="none" x="200" y="270">UNREGISTERED</text><text fill="#eeeeee" stroke="none" font-family="Arial" font-size="24px" font-style="normal" font-weight="normal" text-decoration="none" x="200" y="300">UNREGISTERED</text><text fill="#eeeeee" stroke="none" font-family="Arial" font-size="24px" font-style="normal" font-weight="normal" text-decoration="none" x="200" y="330">UNREGISTERED</text><text fill="#eeeeee" stroke="none" font-family="Arial" font-size="24px" font-style="normal" font-weight="normal" text-decoration="none" x="200" y="360">UNREGISTERED</text><text fill="#eeeeee" stroke="none" font-family="Arial" font-size="24px" font-style="normal" font-weight="normal" text-decoration="none" x="200" y="390">UNREGISTERED</text><text fill="#eeeeee" stroke="none" font-family="Arial" font-size="24px" font-style="normal" font-weight="normal" text-decoration="none" x="200" y="420">UNREGISTERED</text><text fill="#eeeeee" stroke="none" font-family="Arial" font-size="24px" font-style="normal" font-weight="normal" text-decoration="none" x="200" y="450">UNREGISTERED</text><text fill="#eeeeee" stroke="none" font-family="Arial" font-size="24px" font-style="normal" font-weight="normal" text-decoration="none" x="200" y="480">UNREGISTERED</text><text fill="#eeeeee" stroke="none" font-family="Arial" font-size="24px" font-style="normal" font-weight="normal" text-decoration="none" x="400" y="0">UNREGISTERED</text><text fill="#eeeeee" stroke="none" font-family="Arial" font-size="24px" font-style="normal" font-weight="normal" text-decoration="none" x="400" y="30">UNREGISTERED</text><text fill="#eeeeee" stroke="none" font-family="Arial" font-size="24px" font-style="normal" font-weight="normal" text-decoration="none" x="400" y="60">UNREGISTERED</text><text fill="#eeeeee" stroke="none" font-family="Arial" font-size="24px" font-style="normal" font-weight="normal" text-decoration="none" x="400" y="90">UNREGISTERED</text><text fill="#eeeeee" stroke="none" font-family="Arial" font-size="24px" font-style="normal" font-weight="normal" text-decoration="none" x="400" y="120">UNREGISTERED</text><text fill="#eeeeee" stroke="none" font-family="Arial" font-size="24px" font-style="normal" font-weight="normal" text-decoration="none" x="400" y="150">UNREGISTERED</text><text fill="#eeeeee" stroke="none" font-family="Arial" font-size="24px" font-style="normal" font-weight="normal" text-decoration="none" x="400" y="180">UNREGISTERED</text><text fill="#eeeeee" stroke="none" font-family="Arial" font-size="24px" font-style="normal" font-weight="normal" text-decoration="none" x="400" y="210">UNREGISTERED</text><text fill="#eeeeee" stroke="none" font-family="Arial" font-size="24px" font-style="normal" font-weight="normal" text-decoration="none" x="400" y="240">UNREGISTERED</text><text fill="#eeeeee" stroke="none" font-family="Arial" font-size="24px" font-style="normal" font-weight="normal" text-decoration="none" x="400" y="270">UNREGISTERED</text><text fill="#eeeeee" stroke="none" font-family="Arial" font-size="24px" font-style="normal" font-weight="normal" text-decoration="none" x="400" y="300">UNREGISTERED</text><text fill="#eeeeee" stroke="none" font-family="Arial" font-size="24px" font-style="normal" font-weight="normal" text-decoration="none" x="400" y="330">UNREGISTERED</text><text fill="#eeeeee" stroke="none" font-family="Arial" font-size="24px" font-style="normal" font-weight="normal" text-decoration="none" x="400" y="360">UNREGISTERED</text><text fill="#eeeeee" stroke="none" font-family="Arial" font-size="24px" font-style="normal" font-weight="normal" text-decoration="none" x="400" y="390">UNREGISTERED</text><text fill="#eeeeee" stroke="none" font-family="Arial" font-size="24px" font-style="normal" font-weight="normal" text-decoration="none" x="400" y="420">UNREGISTERED</text><text fill="#eeeeee" stroke="none" font-family="Arial" font-size="24px" font-style="normal" font-weight="normal" text-decoration="none" x="400" y="450">UNREGISTERED</text><text fill="#eeeeee" stroke="none" font-family="Arial" font-size="24px" font-style="normal" font-weight="normal" text-decoration="none" x="400" y="480">UNREGISTERED</text><text fill="#eeeeee" stroke="none" font-family="Arial" font-size="24px" font-style="normal" font-weight="normal" text-decoration="none" x="600" y="0">UNREGISTERED</text><text fill="#eeeeee" stroke="none" font-family="Arial" font-size="24px" font-style="normal" font-weight="normal" text-decoration="none" x="600" y="30">UNREGISTERED</text><text fill="#eeeeee" stroke="none" font-family="Arial" font-size="24px" font-style="normal" font-weight="normal" text-decoration="none" x="600" y="60">UNREGISTERED</text><text fill="#eeeeee" stroke="none" font-family="Arial" font-size="24px" font-style="normal" font-weight="normal" text-decoration="none" x="600" y="90">UNREGISTERED</text><text fill="#eeeeee" stroke="none" font-family="Arial" font-size="24px" font-style="normal" font-weight="normal" text-decoration="none" x="600" y="120">UNREGISTERED</text><text fill="#eeeeee" stroke="none" font-family="Arial" font-size="24px" font-style="normal" font-weight="normal" text-decoration="none" x="600" y="150">UNREGISTERED</text><text fill="#eeeeee" stroke="none" font-family="Arial" font-size="24px" font-style="normal" font-weight="normal" text-decoration="none" x="600" y="180">UNREGISTERED</text><text fill="#eeeeee" stroke="none" font-family="Arial" font-size="24px" font-style="normal" font-weight="normal" text-decoration="none" x="600" y="210">UNREGISTERED</text><text fill="#eeeeee" stroke="none" font-family="Arial" font-size="24px" font-style="normal" font-weight="normal" text-decoration="none" x="600" y="240">UNREGISTERED</text><text fill="#eeeeee" stroke="none" font-family="Arial" font-size="24px" font-style="normal" font-weight="normal" text-decoration="none" x="600" y="270">UNREGISTERED</text><text fill="#eeeeee" stroke="none" font-family="Arial" font-size="24px" font-style="normal" font-weight="normal" text-decoration="none" x="600" y="300">UNREGISTERED</text><text fill="#eeeeee" stroke="none" font-family="Arial" font-size="24px" font-style="normal" font-weight="normal" text-decoration="none" x="600" y="330">UNREGISTERED</text><text fill="#eeeeee" stroke="none" font-family="Arial" font-size="24px" font-style="normal" font-weight="normal" text-decoration="none" x="600" y="360">UNREGISTERED</text><text fill="#eeeeee" stroke="none" font-family="Arial" font-size="24px" font-style="normal" font-weight="normal" text-decoration="none" x="600" y="390">UNREGISTERED</text><text fill="#eeeeee" stroke="none" font-family="Arial" font-size="24px" font-style="normal" font-weight="normal" text-decoration="none" x="600" y="420">UNREGISTERED</text><text fill="#eeeeee" stroke="none" font-family="Arial" font-size="24px" font-style="normal" font-weight="normal" text-decoration="none" x="600" y="450">UNREGISTERED</text><text fill="#eeeeee" stroke="none" font-family="Arial" font-size="24px" font-style="normal" font-weight="normal" text-decoration="none" x="600" y="480">UNREGISTERED</text><g transform="translate(-150,-22) scale(1,1)"><path fill="none" stroke="#000000" d="M 160 32 L 851 32 L 851 520 L 160 520 L 160 32" stroke-miterlimit="10"/></g><g transform="translate(-150,-22) scale(1,1)"><path fill="#ffffff" stroke="none" d="M 160 32 L 160 54 L 331.33984375 54 L 342.33984375 43 L 342.33984375 32 L 160 32"/></g><g transform="translate(-150,-22) scale(1,1)"><path fill="none" stroke="#000000" d="M 160 32 L 160 54 L 331.33984375 54 L 342.33984375 43 L 342.33984375 32 L 160 32 L 160 32" stroke-miterlimit="10"/></g><g transform="translate(-150,-22) scale(1,1)"><g><path fill="none" stroke="none"/><text fill="#000000" stroke="none" font-family="Arial" font-size="13px" font-style="normal" font-weight="normal" text-decoration="none" x="184.72998046875" y="48">ProcessForgotPassword</text></g></g><g transform="translate(-150,-22) scale(1,1)"><g><path fill="none" stroke="none"/><text fill="#000000" stroke="none" font-family="Arial" font-size="13px" font-style="normal" font-weight="bold" text-decoration="none" x="164.279541015625" y="48">sd</text></g></g><g transform="translate(-150,-22) scale(1,1)"><rect fill="#C0C0C0" stroke="none" x="359" y="47" width="78.94091796875" height="39" opacity="0.2"/></g><g transform="translate(-150,-22) scale(1,1)"><rect fill="#ffffff" stroke="none" x="352" y="40" width="78.94091796875" height="39"/></g><g transform="translate(-150,-22) scale(1,1)"><path fill="none" stroke="#000000" d="M 352 40 L 430.94091796875 40 L 430.94091796875 79 L 352 79 L 352 40 Z Z" stroke-miterlimit="10"/></g><g transform="translate(-150,-22) scale(1,1)"><g><path fill="none" stroke="none"/><text fill="#000000" stroke="none" font-family="Arial" font-size="13px" font-style="normal" font-weight="bold" text-decoration="none" x="361.5" y="58">: Account</text></g></g><g transform="translate(-150,-22) scale(1,1)"><path fill="none" stroke="#000000" d="M 392.5 80 L 392.5 496" stroke-miterlimit="10" stroke-dasharray="3"/></g><g transform="translate(-150,-22) scale(1,1)"><rect fill="#C0C0C0" stroke="none" x="711" y="47" width="71.736328125" height="39" opacity="0.2"/></g><g transform="translate(-150,-22) scale(1,1)"><rect fill="#ffffff" stroke="none" x="704" y="40" width="71.736328125" height="39"/></g><g transform="translate(-150,-22) scale(1,1)"><path fill="none" stroke="#000000" d="M 704 40 L 775.736328125 40 L 775.736328125 79 L 704 79 L 704 40 Z Z" stroke-miterlimit="10"/></g><g transform="translate(-150,-22) scale(1,1)"><g><path fill="none" stroke="none"/><text fill="#000000" stroke="none" font-family="Arial" font-size="13px" font-style="normal" font-weight="bold" text-decoration="none" x="721.444091796875" y="58">: User</text></g></g><g transform="translate(-150,-22) scale(1,1)"><path fill="none" stroke="#000000" d="M 740.5 80 L 740.5 488" stroke-miterlimit="10" stroke-dasharray="3"/></g><g transform="translate(-150,-22) scale(1,1)"><path fill="#000000" stroke="none" d="M 216 127.5 C 216 123.6340064 219.1340064 120.5 223 120.5 C 226.8659936 120.5 230 123.6340064 230 127.5 C 230 131.3659936 226.8659936 134.5 223 134.5 C 219.1340064 134.5 216 131.3659936 216 127.5 Z"/></g><g transform="translate(-150,-22) scale(1,1)"><path fill="none" stroke="#000000" d="M 230 128 L 385 128" stroke-miterlimit="10"/></g><g transform="translate(-150,-22) scale(1,1)"><path fill="#000000" stroke="none" d="M 374.83732514237585 132.209517756016 L 385 128 L 374.83732514237585 123.79048224398402"/></g><g transform="translate(-150,-22) scale(1,1)"><path fill="none" stroke="#000000" d="M 374.83732514237585 132.209517756016 L 385 128 L 374.83732514237585 123.79048224398402 L 374.83732514237585 132.209517756016" stroke-miterlimit="10"/></g><g transform="translate(-150,-22) scale(1,1)"><g><path fill="none" stroke="none"/><text fill="#000000" stroke="none" font-family="Arial" font-size="13px" font-style="normal" font-weight="normal" text-decoration="none" x="176.53271484375" y="122">processForgotPassword(email)</text></g></g><g transform="translate(-150,-22) scale(1,1)"><rect fill="#ffffff" stroke="none" x="385" y="128" width="13" height="344"/></g><g transform="translate(-150,-22) scale(1,1)"><path fill="none" stroke="#000000" d="M 385 128 L 398 128 L 398 472 L 385 472 L 385 128 Z Z" stroke-miterlimit="10"/></g><g transform="translate(-150,-22) scale(1,1)"><path fill="none" stroke="#000000" d="M 398 192 L 428 192 L 428 212 L 405 212" stroke-miterlimit="10"/></g><g transform="translate(-150,-22) scale(1,1)"><path fill="#000000" stroke="none" d="M 415.16267485762415 207.790482243984 L 405 212 L 415.16267485762415 216.209517756016"/></g><g transform="translate(-150,-22) scale(1,1)"><path fill="none" stroke="#000000" d="M 415.16267485762415 207.790482243984 L 405 212 L 415.16267485762415 216.209517756016 L 415.16267485762415 207.790482243984" stroke-miterlimit="10"/></g><g transform="translate(-150,-22) scale(1,1)"><g><path fill="none" stroke="none"/><text fill="#000000" stroke="none" font-family="Arial" font-size="13px" font-style="normal" font-weight="normal" text-decoration="none" x="439.53271484375" y="187">updateResetPasswordToken(token, email)</text></g></g><g transform="translate(-150,-22) scale(1,1)"><rect fill="#ffffff" stroke="none" x="392" y="212" width="13" height="172"/></g><g transform="translate(-150,-22) scale(1,1)"><path fill="none" stroke="#000000" d="M 392 212 L 405 212 L 405 384 L 392 384 L 392 212 Z Z" stroke-miterlimit="10"/></g><g transform="translate(-150,-22) scale(1,1)"><path fill="none" stroke="#000000" d="M 405 232 L 733 232" stroke-miterlimit="10"/></g><g transform="translate(-150,-22) scale(1,1)"><path fill="#000000" stroke="none" d="M 722.8373251423759 236.209517756016 L 733 232 L 722.8373251423758 227.790482243984"/></g><g transform="translate(-150,-22) scale(1,1)"><path fill="none" stroke="#000000" d="M 722.8373251423759 236.209517756016 L 733 232 L 722.8373251423758 227.790482243984 L 722.8373251423759 236.209517756016" stroke-miterlimit="10"/></g><g transform="translate(-150,-22) scale(1,1)"><g><path fill="none" stroke="none"/><text fill="#000000" stroke="none" font-family="Arial" font-size="13px" font-style="normal" font-weight="normal" text-decoration="none" x="502.53271484375" y="227">getUserByEmail(email)</text></g></g><g transform="translate(-150,-22) scale(1,1)"><rect fill="#ffffff" stroke="none" x="733" y="232" width="13" height="40"/></g><g transform="translate(-150,-22) scale(1,1)"><path fill="none" stroke="#000000" d="M 733 232 L 746 232 L 746 272 L 733 272 L 733 232 Z Z" stroke-miterlimit="10"/></g><g transform="translate(-150,-22) scale(1,1)"><path fill="none" stroke="#000000" d="M 733 256 L 405 256" stroke-miterlimit="10" stroke-dasharray="3"/></g><g transform="translate(-150,-22) scale(1,1)"><path fill="none" stroke="#000000" d="M 415.16267485762415 251.790482243984 L 405 256 L 415.16267485762415 260.209517756016" stroke-miterlimit="10"/></g><g transform="translate(-150,-22) scale(1,1)"><g><path fill="none" stroke="none"/><text fill="#000000" stroke="none" font-family="Arial" font-size="13px" font-style="normal" font-weight="normal" text-decoration="none" x="555.5" y="269.5">user</text></g></g><g transform="translate(-150,-22) scale(1,1)"><path fill="none" stroke="#000000" d="M 405 272 L 435 272 L 435 292 L 412 292" stroke-miterlimit="10"/></g><g transform="translate(-150,-22) scale(1,1)"><path fill="#000000" stroke="none" d="M 422.16267485762415 287.790482243984 L 412 292 L 422.16267485762415 296.209517756016"/></g><g transform="translate(-150,-22) scale(1,1)"><path fill="none" stroke="#000000" d="M 422.16267485762415 287.790482243984 L 412 292 L 422.16267485762415 296.209517756016 L 422.16267485762415 287.790482243984" stroke-miterlimit="10"/></g><g transform="translate(-150,-22) scale(1,1)"><g><path fill="none" stroke="none"/><text fill="#000000" stroke="none" font-family="Arial" font-size="13px" font-style="normal" font-weight="normal" text-decoration="none" x="438.5" y="291">getAccountByName(accountNameFromUser)</text></g></g><g transform="translate(-150,-22) scale(1,1)"><rect fill="#ffffff" stroke="none" x="399" y="292" width="13" height="28"/></g><g transform="translate(-150,-22) scale(1,1)"><path fill="none" stroke="#000000" d="M 399 292 L 412 292 L 412 320 L 399 320 L 399 292 Z Z" stroke-miterlimit="10"/></g><g transform="translate(-150,-22) scale(1,1)"><path fill="none" stroke="#000000" d="M 405 328 L 435 328 L 435 348 L 412 348" stroke-miterlimit="10"/></g><g transform="translate(-150,-22) scale(1,1)"><path fill="#000000" stroke="none" d="M 422.16267485762415 343.790482243984 L 412 348 L 422.16267485762415 352.209517756016"/></g><g transform="translate(-150,-22) scale(1,1)"><path fill="none" stroke="#000000" d="M 422.16267485762415 343.790482243984 L 412 348 L 422.16267485762415 352.209517756016 L 422.16267485762415 343.790482243984" stroke-miterlimit="10"/></g><g transform="translate(-150,-22) scale(1,1)"><g><path fill="none" stroke="none"/><text fill="#000000" stroke="none" font-family="Arial" font-size="13px" font-style="normal" font-weight="normal" text-decoration="none" x="463.5" y="342">save(account)</text></g></g><g transform="translate(-150,-22) scale(1,1)"><rect fill="#ffffff" stroke="none" x="399" y="348" width="13" height="28"/></g><g transform="translate(-150,-22) scale(1,1)"><path fill="none" stroke="#000000" d="M 399 348 L 412 348 L 412 376 L 399 376 L 399 348 Z Z" stroke-miterlimit="10"/></g><g transform="translate(-150,-22) scale(1,1)"><path fill="none" stroke="#000000" d="M 398 400 L 428 400 L 428 420 L 405 420" stroke-miterlimit="10"/></g><g transform="translate(-150,-22) scale(1,1)"><path fill="#000000" stroke="none" d="M 415.16267485762415 415.790482243984 L 405 420 L 415.16267485762415 424.209517756016"/></g><g transform="translate(-150,-22) scale(1,1)"><path fill="none" stroke="#000000" d="M 415.16267485762415 415.790482243984 L 405 420 L 415.16267485762415 424.209517756016 L 415.16267485762415 415.790482243984" stroke-miterlimit="10"/></g><g transform="translate(-150,-22) scale(1,1)"><g><path fill="none" stroke="none"/><text fill="#000000" stroke="none" font-family="Arial" font-size="13px" font-style="normal" font-weight="normal" text-decoration="none" x="439.53271484375" y="414">sendMail(email, resetPasswordLink)</text></g></g><g transform="translate(-150,-22) scale(1,1)"><rect fill="#ffffff" stroke="none" x="392" y="420" width="13" height="28"/></g><g transform="translate(-150,-22) scale(1,1)"><path fill="none" stroke="#000000" d="M 392 420 L 405 420 L 405 448 L 392 448 L 392 420 Z Z" stroke-miterlimit="10"/></g></g></svg>