<svg version="1.1" xmlns="http://www.w3.org/2000/svg" xmlns:xlink="http://www.w3.org/1999/xlink" width="711" height="379"><defs/><g><text fill="#eeeeee" stroke="none" font-family="Arial" font-size="24px" font-style="normal" font-weight="normal" text-decoration="none" x="0" y="0">UNREGISTERED</text><text fill="#eeeeee" stroke="none" font-family="Arial" font-size="24px" font-style="normal" font-weight="normal" text-decoration="none" x="0" y="30">UNREGISTERED</text><text fill="#eeeeee" stroke="none" font-family="Arial" font-size="24px" font-style="normal" font-weight="normal" text-decoration="none" x="0" y="60">UNREGISTERED</text><text fill="#eeeeee" stroke="none" font-family="Arial" font-size="24px" font-style="normal" font-weight="normal" text-decoration="none" x="0" y="90">UNREGISTERED</text><text fill="#eeeeee" stroke="none" font-family="Arial" font-size="24px" font-style="normal" font-weight="normal" text-decoration="none" x="0" y="120">UNREGISTERED</text><text fill="#eeeeee" stroke="none" font-family="Arial" font-size="24px" font-style="normal" font-weight="normal" text-decoration="none" x="0" y="150">UNREGISTERED</text><text fill="#eeeeee" stroke="none" font-family="Arial" font-size="24px" font-style="normal" font-weight="normal" text-decoration="none" x="0" y="180">UNREGISTERED</text><text fill="#eeeeee" stroke="none" font-family="Arial" font-size="24px" font-style="normal" font-weight="normal" text-decoration="none" x="0" y="210">UNREGISTERED</text><text fill="#eeeeee" stroke="none" font-family="Arial" font-size="24px" font-style="normal" font-weight="normal" text-decoration="none" x="0" y="240">UNREGISTERED</text><text fill="#eeeeee" stroke="none" font-family="Arial" font-size="24px" font-style="normal" font-weight="normal" text-decoration="none" x="0" y="270">UNREGISTERED</text><text fill="#eeeeee" stroke="none" font-family="Arial" font-size="24px" font-style="normal" font-weight="normal" text-decoration="none" x="0" y="300">UNREGISTERED</text><text fill="#eeeeee" stroke="none" font-family="Arial" font-size="24px" font-style="normal" font-weight="normal" text-decoration="none" x="0" y="330">UNREGISTERED</text><text fill="#eeeeee" stroke="none" font-family="Arial" font-size="24px" font-style="normal" font-weight="normal" text-decoration="none" x="0" y="360">UNREGISTERED</text><text fill="#eeeeee" stroke="none" font-family="Arial" font-size="24px" font-style="normal" font-weight="normal" text-decoration="none" x="200" y="0">UNREGISTERED</text><text fill="#eeeeee" stroke="none" font-family="Arial" font-size="24px" font-style="normal" font-weight="normal" text-decoration="none" x="200" y="30">UNREGISTERED</text><text fill="#eeeeee" stroke="none" font-family="Arial" font-size="24px" font-style="normal" font-weight="normal" text-decoration="none" x="200" y="60">UNREGISTERED</text><text fill="#eeeeee" stroke="none" font-family="Arial" font-size="24px" font-style="normal" font-weight="normal" text-decoration="none" x="200" y="90">UNREGISTERED</text><text fill="#eeeeee" stroke="none" font-family="Arial" font-size="24px" font-style="normal" font-weight="normal" text-decoration="none" x="200" y="120">UNREGISTERED</text><text fill="#eeeeee" stroke="none" font-family="Arial" font-size="24px" font-style="normal" font-weight="normal" text-decoration="none" x="200" y="150">UNREGISTERED</text><text fill="#eeeeee" stroke="none" font-family="Arial" font-size="24px" font-style="normal" font-weight="normal" text-decoration="none" x="200" y="180">UNREGISTERED</text><text fill="#eeeeee" stroke="none" font-family="Arial" font-size="24px" font-style="normal" font-weight="normal" text-decoration="none" x="200" y="210">UNREGISTERED</text><text fill="#eeeeee" stroke="none" font-family="Arial" font-size="24px" font-style="normal" font-weight="normal" text-decoration="none" x="200" y="240">UNREGISTERED</text><text fill="#eeeeee" stroke="none" font-family="Arial" font-size="24px" font-style="normal" font-weight="normal" text-decoration="none" x="200" y="270">UNREGISTERED</text><text fill="#eeeeee" stroke="none" font-family="Arial" font-size="24px" font-style="normal" font-weight="normal" text-decoration="none" x="200" y="300">UNREGISTERED</text><text fill="#eeeeee" stroke="none" font-family="Arial" font-size="24px" font-style="normal" font-weight="normal" text-decoration="none" x="200" y="330">UNREGISTERED</text><text fill="#eeeeee" stroke="none" font-family="Arial" font-size="24px" font-style="normal" font-weight="normal" text-decoration="none" x="200" y="360">UNREGISTERED</text><text fill="#eeeeee" stroke="none" font-family="Arial" font-size="24px" font-style="normal" font-weight="normal" text-decoration="none" x="400" y="0">UNREGISTERED</text><text fill="#eeeeee" stroke="none" font-family="Arial" font-size="24px" font-style="normal" font-weight="normal" text-decoration="none" x="400" y="30">UNREGISTERED</text><text fill="#eeeeee" stroke="none" font-family="Arial" font-size="24px" font-style="normal" font-weight="normal" text-decoration="none" x="400" y="60">UNREGISTERED</text><text fill="#eeeeee" stroke="none" font-family="Arial" font-size="24px" font-style="normal" font-weight="normal" text-decoration="none" x="400" y="90">UNREGISTERED</text><text fill="#eeeeee" stroke="none" font-family="Arial" font-size="24px" font-style="normal" font-weight="normal" text-decoration="none" x="400" y="120">UNREGISTERED</text><text fill="#eeeeee" stroke="none" font-family="Arial" font-size="24px" font-style="normal" font-weight="normal" text-decoration="none" x="400" y="150">UNREGISTERED</text><text fill="#eeeeee" stroke="none" font-family="Arial" font-size="24px" font-style="normal" font-weight="normal" text-decoration="none" x="400" y="180">UNREGISTERED</text><text fill="#eeeeee" stroke="none" font-family="Arial" font-size="24px" font-style="normal" font-weight="normal" text-decoration="none" x="400" y="210">UNREGISTERED</text><text fill="#eeeeee" stroke="none" font-family="Arial" font-size="24px" font-style="normal" font-weight="normal" text-decoration="none" x="400" y="240">UNREGISTERED</text><text fill="#eeeeee" stroke="none" font-family="Arial" font-size="24px" font-style="normal" font-weight="normal" text-decoration="none" x="400" y="270">UNREGISTERED</text><text fill="#eeeeee" stroke="none" font-family="Arial" font-size="24px" font-style="normal" font-weight="normal" text-decoration="none" x="400" y="300">UNREGISTERED</text><text fill="#eeeeee" stroke="none" font-family="Arial" font-size="24px" font-style="normal" font-weight="normal" text-decoration="none" x="400" y="330">UNREGISTERED</text><text fill="#eeeeee" stroke="none" font-family="Arial" font-size="24px" font-style="normal" font-weight="normal" text-decoration="none" x="400" y="360">UNREGISTERED</text><text fill="#eeeeee" stroke="none" font-family="Arial" font-size="24px" font-style="normal" font-weight="normal" text-decoration="none" x="600" y="0">UNREGISTERED</text><text fill="#eeeeee" stroke="none" font-family="Arial" font-size="24px" font-style="normal" font-weight="normal" text-decoration="none" x="600" y="30">UNREGISTERED</text><text fill="#eeeeee" stroke="none" font-family="Arial" font-size="24px" font-style="normal" font-weight="normal" text-decoration="none" x="600" y="60">UNREGISTERED</text><text fill="#eeeeee" stroke="none" font-family="Arial" font-size="24px" font-style="normal" font-weight="normal" text-decoration="none" x="600" y="90">UNREGISTERED</text><text fill="#eeeeee" stroke="none" font-family="Arial" font-size="24px" font-style="normal" font-weight="normal" text-decoration="none" x="600" y="120">UNREGISTERED</text><text fill="#eeeeee" stroke="none" font-family="Arial" font-size="24px" font-style="normal" font-weight="normal" text-decoration="none" x="600" y="150">UNREGISTERED</text><text fill="#eeeeee" stroke="none" font-family="Arial" font-size="24px" font-style="normal" font-weight="normal" text-decoration="none" x="600" y="180">UNREGISTERED</text><text fill="#eeeeee" stroke="none" font-family="Arial" font-size="24px" font-style="normal" font-weight="normal" text-decoration="none" x="600" y="210">UNREGISTERED</text><text fill="#eeeeee" stroke="none" font-family="Arial" font-size="24px" font-style="normal" font-weight="normal" text-decoration="none" x="600" y="240">UNREGISTERED</text><text fill="#eeeeee" stroke="none" font-family="Arial" font-size="24px" font-style="normal" font-weight="normal" text-decoration="none" x="600" y="270">UNREGISTERED</text><text fill="#eeeeee" stroke="none" font-family="Arial" font-size="24px" font-style="normal" font-weight="normal" text-decoration="none" x="600" y="300">UNREGISTERED</text><text fill="#eeeeee" stroke="none" font-family="Arial" font-size="24px" font-style="normal" font-weight="normal" text-decoration="none" x="600" y="330">UNREGISTERED</text><text fill="#eeeeee" stroke="none" font-family="Arial" font-size="24px" font-style="normal" font-weight="normal" text-decoration="none" x="600" y="360">UNREGISTERED</text><g transform="translate(-22,-158) scale(1,1)"><path fill="none" stroke="#000000" d="M 32 168 L 723 168 L 723 527 L 32 527 L 32 168" stroke-miterlimit="10"/></g><g transform="translate(-22,-158) scale(1,1)"><path fill="#ffffff" stroke="none" d="M 32 168 L 32 190 L 141.92626953125 190 L 152.92626953125 179 L 152.92626953125 168 L 32 168"/></g><g transform="translate(-22,-158) scale(1,1)"><path fill="none" stroke="#000000" d="M 32 168 L 32 190 L 141.92626953125 190 L 152.92626953125 179 L 152.92626953125 168 L 32 168 L 32 168" stroke-miterlimit="10"/></g><g transform="translate(-22,-158) scale(1,1)"><g><path fill="none" stroke="none"/><text fill="#000000" stroke="none" font-family="Arial" font-size="13px" font-style="normal" font-weight="normal" text-decoration="none" x="56.72998046875" y="184">show(orderId)</text></g></g><g transform="translate(-22,-158) scale(1,1)"><g><path fill="none" stroke="none"/><text fill="#000000" stroke="none" font-family="Arial" font-size="13px" font-style="normal" font-weight="bold" text-decoration="none" x="36.279541015625" y="184">sd</text></g></g><g transform="translate(-22,-158) scale(1,1)"><rect fill="#C0C0C0" stroke="none" x="183" y="215" width="99" height="29" opacity="0.2"/></g><g transform="translate(-22,-158) scale(1,1)"><rect fill="#ffffff" stroke="none" x="176" y="208" width="99" height="29"/></g><g transform="translate(-22,-158) scale(1,1)"><path fill="none" stroke="#000000" d="M 176 208 L 275 208 L 275 237 L 176 237 L 176 208 Z Z" stroke-miterlimit="10"/></g><g transform="translate(-22,-158) scale(1,1)"><rect fill="#ffffff" stroke="none" x="176" y="208" width="99" height="29"/></g><g transform="translate(-22,-158) scale(1,1)"><path fill="none" stroke="#000000" d="M 176 208 L 275 208 L 275 237 L 176 237 L 176 208 Z Z" stroke-miterlimit="10"/></g><g transform="translate(-22,-158) scale(1,1)"><g><path fill="none" stroke="none"/><text fill="#000000" stroke="none" font-family="Arial" font-size="13px" font-style="normal" font-weight="bold" text-decoration="none" x="199.1318359375" y="226">: Invoice</text></g></g><g transform="translate(-22,-158) scale(1,1)"><rect fill="#C0C0C0" stroke="none" x="527" y="215" width="99" height="29" opacity="0.2"/></g><g transform="translate(-22,-158) scale(1,1)"><rect fill="#ffffff" stroke="none" x="520" y="208" width="99" height="29"/></g><g transform="translate(-22,-158) scale(1,1)"><path fill="none" stroke="#000000" d="M 520 208 L 619 208 L 619 237 L 520 237 L 520 208 Z Z" stroke-miterlimit="10"/></g><g transform="translate(-22,-158) scale(1,1)"><rect fill="#ffffff" stroke="none" x="520" y="208" width="99" height="29"/></g><g transform="translate(-22,-158) scale(1,1)"><path fill="none" stroke="#000000" d="M 520 208 L 619 208 L 619 237 L 520 237 L 520 208 Z Z" stroke-miterlimit="10"/></g><g transform="translate(-22,-158) scale(1,1)"><g><path fill="none" stroke="none"/><text fill="#000000" stroke="none" font-family="Arial" font-size="13px" font-style="normal" font-weight="bold" text-decoration="none" x="551.075927734375" y="226">: User</text></g></g><g transform="translate(-22,-158) scale(1,1)"><rect fill="#C0C0C0" stroke="none" x="183" y="455" width="99" height="29" opacity="0.2"/></g><g transform="translate(-22,-158) scale(1,1)"><rect fill="#ffffff" stroke="none" x="176" y="448" width="99" height="29"/></g><g transform="translate(-22,-158) scale(1,1)"><path fill="none" stroke="#000000" d="M 176 448 L 275 448 L 275 477 L 176 477 L 176 448 Z Z" stroke-miterlimit="10"/></g><g transform="translate(-22,-158) scale(1,1)"><rect fill="#ffffff" stroke="none" x="176" y="448" width="99" height="29"/></g><g transform="translate(-22,-158) scale(1,1)"><path fill="none" stroke="#000000" d="M 176 448 L 275 448 L 275 477 L 176 477 L 176 448 Z Z" stroke-miterlimit="10"/></g><g transform="translate(-22,-158) scale(1,1)"><g><path fill="none" stroke="none"/><text fill="#000000" stroke="none" font-family="Arial" font-size="13px" font-style="normal" font-weight="bold" text-decoration="none" x="203.8291015625" y="466">: Order</text></g></g><g transform="translate(-22,-158) scale(1,1)"><path fill="none" stroke="#000000" d="M 276 222 L 519 222" stroke-miterlimit="10"/></g><g transform="translate(-22,-158) scale(1,1)"><path fill="none" stroke="#000000" d="M 143 214 L 103 214" stroke-miterlimit="10"/></g><g transform="translate(-22,-158) scale(1,1)"><path fill="#000000" stroke="none" d="M 131 218 L 143 214 L 131 209"/></g><g transform="translate(-22,-158) scale(1,1)"><g><path fill="none" stroke="none"/><text fill="#000000" stroke="none" font-family="Arial" font-size="13px" font-style="normal" font-weight="normal" text-decoration="none" x="81.90185546875" y="208">show(orderId)</text></g></g><g transform="translate(-22,-158) scale(1,1)"><path fill="none" stroke="#000000" d="M 48 224 L 176 225" stroke-miterlimit="10"/></g><g transform="translate(-22,-158) scale(1,1)"><path fill="none" stroke="#000000" d="M 276 222 L 519 222" stroke-miterlimit="10"/></g><g transform="translate(-22,-158) scale(1,1)"><path fill="none" stroke="#000000" d="M 417 212 L 377 212" stroke-miterlimit="10"/></g><g transform="translate(-22,-158) scale(1,1)"><path fill="#000000" stroke="none" d="M 405 216 L 417 212 L 405 207"/></g><g transform="translate(-22,-158) scale(1,1)"><g><path fill="none" stroke="none"/><text fill="#000000" stroke="none" font-family="Arial" font-size="13px" font-style="normal" font-weight="normal" text-decoration="none" x="285.103271484375" y="206">1: getUserFromAttribute(attributeUser)</text></g></g><g transform="translate(-22,-158) scale(1,1)"><path fill="none" stroke="#000000" d="M 225 238 L 225 447" stroke-miterlimit="10"/></g><g transform="translate(-22,-158) scale(1,1)"><path fill="none" stroke="#000000" d="M 239 295 L 239 255" stroke-miterlimit="10"/></g><g transform="translate(-22,-158) scale(1,1)"><path fill="#000000" stroke="none" d="M 234 283 L 239 295 L 243 283"/></g><g transform="translate(-22,-158) scale(1,1)"><g><path fill="none" stroke="none"/><text fill="#000000" stroke="none" font-family="Arial" font-size="13px" font-style="normal" font-weight="normal" text-decoration="none" x="247.19189453125" y="269">2: getOrderById(orderId)</text></g></g><g transform="translate(-22,-158) scale(1,1)"><path fill="none" stroke="#000000" d="M 225 238 L 225 447" stroke-miterlimit="10"/></g><g transform="translate(-22,-158) scale(1,1)"><path fill="none" stroke="#000000" d="M 255 343 L 255 303" stroke-miterlimit="10"/></g><g transform="translate(-22,-158) scale(1,1)"><path fill="#000000" stroke="none" d="M 250 331 L 255 343 L 259 331"/></g><g transform="translate(-22,-158) scale(1,1)"><g><path fill="none" stroke="none"/><text fill="#000000" stroke="none" font-family="Arial" font-size="13px" font-style="normal" font-weight="normal" text-decoration="none" x="262.925048828125" y="317">3: getOrderDetails()</text></g></g><g transform="translate(-22,-158) scale(1,1)"><path fill="none" stroke="#000000" d="M 225 238 L 225 447" stroke-miterlimit="10"/></g><g transform="translate(-22,-158) scale(1,1)"><path fill="none" stroke="#000000" d="M 271 414 L 271 374" stroke-miterlimit="10"/></g><g transform="translate(-22,-158) scale(1,1)"><path fill="#000000" stroke="none" d="M 266 402 L 271 414 L 275 402"/></g><g transform="translate(-22,-158) scale(1,1)"><g><path fill="none" stroke="none"/><text fill="#000000" stroke="none" font-family="Arial" font-size="13px" font-style="normal" font-weight="normal" text-decoration="none" x="271.820556640625" y="388">4: checkOrderStatusById(orderId)</text></g></g></g></svg>