<svg version="1.1" xmlns="http://www.w3.org/2000/svg" xmlns:xlink="http://www.w3.org/1999/xlink" width="1252" height="596"><defs/><g><text fill="#eeeeee" stroke="none" font-family="Arial" font-size="24px" font-style="normal" font-weight="normal" text-decoration="none" x="0" y="0">UNREGISTERED</text><text fill="#eeeeee" stroke="none" font-family="Arial" font-size="24px" font-style="normal" font-weight="normal" text-decoration="none" x="0" y="30">UNREGISTERED</text><text fill="#eeeeee" stroke="none" font-family="Arial" font-size="24px" font-style="normal" font-weight="normal" text-decoration="none" x="0" y="60">UNREGISTERED</text><text fill="#eeeeee" stroke="none" font-family="Arial" font-size="24px" font-style="normal" font-weight="normal" text-decoration="none" x="0" y="90">UNREGISTERED</text><text fill="#eeeeee" stroke="none" font-family="Arial" font-size="24px" font-style="normal" font-weight="normal" text-decoration="none" x="0" y="120">UNREGISTERED</text><text fill="#eeeeee" stroke="none" font-family="Arial" font-size="24px" font-style="normal" font-weight="normal" text-decoration="none" x="0" y="150">UNREGISTERED</text><text fill="#eeeeee" stroke="none" font-family="Arial" font-size="24px" font-style="normal" font-weight="normal" text-decoration="none" x="0" y="180">UNREGISTERED</text><text fill="#eeeeee" stroke="none" font-family="Arial" font-size="24px" font-style="normal" font-weight="normal" text-decoration="none" x="0" y="210">UNREGISTERED</text><text fill="#eeeeee" stroke="none" font-family="Arial" font-size="24px" font-style="normal" font-weight="normal" text-decoration="none" x="0" y="240">UNREGISTERED</text><text fill="#eeeeee" stroke="none" font-family="Arial" font-size="24px" font-style="normal" font-weight="normal" text-decoration="none" x="0" y="270">UNREGISTERED</text><text fill="#eeeeee" stroke="none" font-family="Arial" font-size="24px" font-style="normal" font-weight="normal" text-decoration="none" x="0" y="300">UNREGISTERED</text><text fill="#eeeeee" stroke="none" font-family="Arial" font-size="24px" font-style="normal" font-weight="normal" text-decoration="none" x="0" y="330">UNREGISTERED</text><text fill="#eeeeee" stroke="none" font-family="Arial" font-size="24px" font-style="normal" font-weight="normal" text-decoration="none" x="0" y="360">UNREGISTERED</text><text fill="#eeeeee" stroke="none" font-family="Arial" font-size="24px" font-style="normal" font-weight="normal" text-decoration="none" x="0" y="390">UNREGISTERED</text><text fill="#eeeeee" stroke="none" font-family="Arial" font-size="24px" font-style="normal" font-weight="normal" text-decoration="none" x="0" y="420">UNREGISTERED</text><text fill="#eeeeee" stroke="none" font-family="Arial" font-size="24px" font-style="normal" font-weight="normal" text-decoration="none" x="0" y="450">UNREGISTERED</text><text fill="#eeeeee" stroke="none" font-family="Arial" font-size="24px" font-style="normal" font-weight="normal" text-decoration="none" x="0" y="480">UNREGISTERED</text><text fill="#eeeeee" stroke="none" font-family="Arial" font-size="24px" font-style="normal" font-weight="normal" text-decoration="none" x="0" y="510">UNREGISTERED</text><text fill="#eeeeee" stroke="none" font-family="Arial" font-size="24px" font-style="normal" font-weight="normal" text-decoration="none" x="0" y="540">UNREGISTERED</text><text fill="#eeeeee" stroke="none" font-family="Arial" font-size="24px" font-style="normal" font-weight="normal" text-decoration="none" x="0" y="570">UNREGISTERED</text><text fill="#eeeeee" stroke="none" font-family="Arial" font-size="24px" font-style="normal" font-weight="normal" text-decoration="none" x="200" y="0">UNREGISTERED</text><text fill="#eeeeee" stroke="none" font-family="Arial" font-size="24px" font-style="normal" font-weight="normal" text-decoration="none" x="200" y="30">UNREGISTERED</text><text fill="#eeeeee" stroke="none" font-family="Arial" font-size="24px" font-style="normal" font-weight="normal" text-decoration="none" x="200" y="60">UNREGISTERED</text><text fill="#eeeeee" stroke="none" font-family="Arial" font-size="24px" font-style="normal" font-weight="normal" text-decoration="none" x="200" y="90">UNREGISTERED</text><text fill="#eeeeee" stroke="none" font-family="Arial" font-size="24px" font-style="normal" font-weight="normal" text-decoration="none" x="200" y="120">UNREGISTERED</text><text fill="#eeeeee" stroke="none" font-family="Arial" font-size="24px" font-style="normal" font-weight="normal" text-decoration="none" x="200" y="150">UNREGISTERED</text><text fill="#eeeeee" stroke="none" font-family="Arial" font-size="24px" font-style="normal" font-weight="normal" text-decoration="none" x="200" y="180">UNREGISTERED</text><text fill="#eeeeee" stroke="none" font-family="Arial" font-size="24px" font-style="normal" font-weight="normal" text-decoration="none" x="200" y="210">UNREGISTERED</text><text fill="#eeeeee" stroke="none" font-family="Arial" font-size="24px" font-style="normal" font-weight="normal" text-decoration="none" x="200" y="240">UNREGISTERED</text><text fill="#eeeeee" stroke="none" font-family="Arial" font-size="24px" font-style="normal" font-weight="normal" text-decoration="none" x="200" y="270">UNREGISTERED</text><text fill="#eeeeee" stroke="none" font-family="Arial" font-size="24px" font-style="normal" font-weight="normal" text-decoration="none" x="200" y="300">UNREGISTERED</text><text fill="#eeeeee" stroke="none" font-family="Arial" font-size="24px" font-style="normal" font-weight="normal" text-decoration="none" x="200" y="330">UNREGISTERED</text><text fill="#eeeeee" stroke="none" font-family="Arial" font-size="24px" font-style="normal" font-weight="normal" text-decoration="none" x="200" y="360">UNREGISTERED</text><text fill="#eeeeee" stroke="none" font-family="Arial" font-size="24px" font-style="normal" font-weight="normal" text-decoration="none" x="200" y="390">UNREGISTERED</text><text fill="#eeeeee" stroke="none" font-family="Arial" font-size="24px" font-style="normal" font-weight="normal" text-decoration="none" x="200" y="420">UNREGISTERED</text><text fill="#eeeeee" stroke="none" font-family="Arial" font-size="24px" font-style="normal" font-weight="normal" text-decoration="none" x="200" y="450">UNREGISTERED</text><text fill="#eeeeee" stroke="none" font-family="Arial" font-size="24px" font-style="normal" font-weight="normal" text-decoration="none" x="200" y="480">UNREGISTERED</text><text fill="#eeeeee" stroke="none" font-family="Arial" font-size="24px" font-style="normal" font-weight="normal" text-decoration="none" x="200" y="510">UNREGISTERED</text><text fill="#eeeeee" stroke="none" font-family="Arial" font-size="24px" font-style="normal" font-weight="normal" text-decoration="none" x="200" y="540">UNREGISTERED</text><text fill="#eeeeee" stroke="none" font-family="Arial" font-size="24px" font-style="normal" font-weight="normal" text-decoration="none" x="200" y="570">UNREGISTERED</text><text fill="#eeeeee" stroke="none" font-family="Arial" font-size="24px" font-style="normal" font-weight="normal" text-decoration="none" x="400" y="0">UNREGISTERED</text><text fill="#eeeeee" stroke="none" font-family="Arial" font-size="24px" font-style="normal" font-weight="normal" text-decoration="none" x="400" y="30">UNREGISTERED</text><text fill="#eeeeee" stroke="none" font-family="Arial" font-size="24px" font-style="normal" font-weight="normal" text-decoration="none" x="400" y="60">UNREGISTERED</text><text fill="#eeeeee" stroke="none" font-family="Arial" font-size="24px" font-style="normal" font-weight="normal" text-decoration="none" x="400" y="90">UNREGISTERED</text><text fill="#eeeeee" stroke="none" font-family="Arial" font-size="24px" font-style="normal" font-weight="normal" text-decoration="none" x="400" y="120">UNREGISTERED</text><text fill="#eeeeee" stroke="none" font-family="Arial" font-size="24px" font-style="normal" font-weight="normal" text-decoration="none" x="400" y="150">UNREGISTERED</text><text fill="#eeeeee" stroke="none" font-family="Arial" font-size="24px" font-style="normal" font-weight="normal" text-decoration="none" x="400" y="180">UNREGISTERED</text><text fill="#eeeeee" stroke="none" font-family="Arial" font-size="24px" font-style="normal" font-weight="normal" text-decoration="none" x="400" y="210">UNREGISTERED</text><text fill="#eeeeee" stroke="none" font-family="Arial" font-size="24px" font-style="normal" font-weight="normal" text-decoration="none" x="400" y="240">UNREGISTERED</text><text fill="#eeeeee" stroke="none" font-family="Arial" font-size="24px" font-style="normal" font-weight="normal" text-decoration="none" x="400" y="270">UNREGISTERED</text><text fill="#eeeeee" stroke="none" font-family="Arial" font-size="24px" font-style="normal" font-weight="normal" text-decoration="none" x="400" y="300">UNREGISTERED</text><text fill="#eeeeee" stroke="none" font-family="Arial" font-size="24px" font-style="normal" font-weight="normal" text-decoration="none" x="400" y="330">UNREGISTERED</text><text fill="#eeeeee" stroke="none" font-family="Arial" font-size="24px" font-style="normal" font-weight="normal" text-decoration="none" x="400" y="360">UNREGISTERED</text><text fill="#eeeeee" stroke="none" font-family="Arial" font-size="24px" font-style="normal" font-weight="normal" text-decoration="none" x="400" y="390">UNREGISTERED</text><text fill="#eeeeee" stroke="none" font-family="Arial" font-size="24px" font-style="normal" font-weight="normal" text-decoration="none" x="400" y="420">UNREGISTERED</text><text fill="#eeeeee" stroke="none" font-family="Arial" font-size="24px" font-style="normal" font-weight="normal" text-decoration="none" x="400" y="450">UNREGISTERED</text><text fill="#eeeeee" stroke="none" font-family="Arial" font-size="24px" font-style="normal" font-weight="normal" text-decoration="none" x="400" y="480">UNREGISTERED</text><text fill="#eeeeee" stroke="none" font-family="Arial" font-size="24px" font-style="normal" font-weight="normal" text-decoration="none" x="400" y="510">UNREGISTERED</text><text fill="#eeeeee" stroke="none" font-family="Arial" font-size="24px" font-style="normal" font-weight="normal" text-decoration="none" x="400" y="540">UNREGISTERED</text><text fill="#eeeeee" stroke="none" font-family="Arial" font-size="24px" font-style="normal" font-weight="normal" text-decoration="none" x="400" y="570">UNREGISTERED</text><text fill="#eeeeee" stroke="none" font-family="Arial" font-size="24px" font-style="normal" font-weight="normal" text-decoration="none" x="600" y="0">UNREGISTERED</text><text fill="#eeeeee" stroke="none" font-family="Arial" font-size="24px" font-style="normal" font-weight="normal" text-decoration="none" x="600" y="30">UNREGISTERED</text><text fill="#eeeeee" stroke="none" font-family="Arial" font-size="24px" font-style="normal" font-weight="normal" text-decoration="none" x="600" y="60">UNREGISTERED</text><text fill="#eeeeee" stroke="none" font-family="Arial" font-size="24px" font-style="normal" font-weight="normal" text-decoration="none" x="600" y="90">UNREGISTERED</text><text fill="#eeeeee" stroke="none" font-family="Arial" font-size="24px" font-style="normal" font-weight="normal" text-decoration="none" x="600" y="120">UNREGISTERED</text><text fill="#eeeeee" stroke="none" font-family="Arial" font-size="24px" font-style="normal" font-weight="normal" text-decoration="none" x="600" y="150">UNREGISTERED</text><text fill="#eeeeee" stroke="none" font-family="Arial" font-size="24px" font-style="normal" font-weight="normal" text-decoration="none" x="600" y="180">UNREGISTERED</text><text fill="#eeeeee" stroke="none" font-family="Arial" font-size="24px" font-style="normal" font-weight="normal" text-decoration="none" x="600" y="210">UNREGISTERED</text><text fill="#eeeeee" stroke="none" font-family="Arial" font-size="24px" font-style="normal" font-weight="normal" text-decoration="none" x="600" y="240">UNREGISTERED</text><text fill="#eeeeee" stroke="none" font-family="Arial" font-size="24px" font-style="normal" font-weight="normal" text-decoration="none" x="600" y="270">UNREGISTERED</text><text fill="#eeeeee" stroke="none" font-family="Arial" font-size="24px" font-style="normal" font-weight="normal" text-decoration="none" x="600" y="300">UNREGISTERED</text><text fill="#eeeeee" stroke="none" font-family="Arial" font-size="24px" font-style="normal" font-weight="normal" text-decoration="none" x="600" y="330">UNREGISTERED</text><text fill="#eeeeee" stroke="none" font-family="Arial" font-size="24px" font-style="normal" font-weight="normal" text-decoration="none" x="600" y="360">UNREGISTERED</text><text fill="#eeeeee" stroke="none" font-family="Arial" font-size="24px" font-style="normal" font-weight="normal" text-decoration="none" x="600" y="390">UNREGISTERED</text><text fill="#eeeeee" stroke="none" font-family="Arial" font-size="24px" font-style="normal" font-weight="normal" text-decoration="none" x="600" y="420">UNREGISTERED</text><text fill="#eeeeee" stroke="none" font-family="Arial" font-size="24px" font-style="normal" font-weight="normal" text-decoration="none" x="600" y="450">UNREGISTERED</text><text fill="#eeeeee" stroke="none" font-family="Arial" font-size="24px" font-style="normal" font-weight="normal" text-decoration="none" x="600" y="480">UNREGISTERED</text><text fill="#eeeeee" stroke="none" font-family="Arial" font-size="24px" font-style="normal" font-weight="normal" text-decoration="none" x="600" y="510">UNREGISTERED</text><text fill="#eeeeee" stroke="none" font-family="Arial" font-size="24px" font-style="normal" font-weight="normal" text-decoration="none" x="600" y="540">UNREGISTERED</text><text fill="#eeeeee" stroke="none" font-family="Arial" font-size="24px" font-style="normal" font-weight="normal" text-decoration="none" x="600" y="570">UNREGISTERED</text><text fill="#eeeeee" stroke="none" font-family="Arial" font-size="24px" font-style="normal" font-weight="normal" text-decoration="none" x="800" y="0">UNREGISTERED</text><text fill="#eeeeee" stroke="none" font-family="Arial" font-size="24px" font-style="normal" font-weight="normal" text-decoration="none" x="800" y="30">UNREGISTERED</text><text fill="#eeeeee" stroke="none" font-family="Arial" font-size="24px" font-style="normal" font-weight="normal" text-decoration="none" x="800" y="60">UNREGISTERED</text><text fill="#eeeeee" stroke="none" font-family="Arial" font-size="24px" font-style="normal" font-weight="normal" text-decoration="none" x="800" y="90">UNREGISTERED</text><text fill="#eeeeee" stroke="none" font-family="Arial" font-size="24px" font-style="normal" font-weight="normal" text-decoration="none" x="800" y="120">UNREGISTERED</text><text fill="#eeeeee" stroke="none" font-family="Arial" font-size="24px" font-style="normal" font-weight="normal" text-decoration="none" x="800" y="150">UNREGISTERED</text><text fill="#eeeeee" stroke="none" font-family="Arial" font-size="24px" font-style="normal" font-weight="normal" text-decoration="none" x="800" y="180">UNREGISTERED</text><text fill="#eeeeee" stroke="none" font-family="Arial" font-size="24px" font-style="normal" font-weight="normal" text-decoration="none" x="800" y="210">UNREGISTERED</text><text fill="#eeeeee" stroke="none" font-family="Arial" font-size="24px" font-style="normal" font-weight="normal" text-decoration="none" x="800" y="240">UNREGISTERED</text><text fill="#eeeeee" stroke="none" font-family="Arial" font-size="24px" font-style="normal" font-weight="normal" text-decoration="none" x="800" y="270">UNREGISTERED</text><text fill="#eeeeee" stroke="none" font-family="Arial" font-size="24px" font-style="normal" font-weight="normal" text-decoration="none" x="800" y="300">UNREGISTERED</text><text fill="#eeeeee" stroke="none" font-family="Arial" font-size="24px" font-style="normal" font-weight="normal" text-decoration="none" x="800" y="330">UNREGISTERED</text><text fill="#eeeeee" stroke="none" font-family="Arial" font-size="24px" font-style="normal" font-weight="normal" text-decoration="none" x="800" y="360">UNREGISTERED</text><text fill="#eeeeee" stroke="none" font-family="Arial" font-size="24px" font-style="normal" font-weight="normal" text-decoration="none" x="800" y="390">UNREGISTERED</text><text fill="#eeeeee" stroke="none" font-family="Arial" font-size="24px" font-style="normal" font-weight="normal" text-decoration="none" x="800" y="420">UNREGISTERED</text><text fill="#eeeeee" stroke="none" font-family="Arial" font-size="24px" font-style="normal" font-weight="normal" text-decoration="none" x="800" y="450">UNREGISTERED</text><text fill="#eeeeee" stroke="none" font-family="Arial" font-size="24px" font-style="normal" font-weight="normal" text-decoration="none" x="800" y="480">UNREGISTERED</text><text fill="#eeeeee" stroke="none" font-family="Arial" font-size="24px" font-style="normal" font-weight="normal" text-decoration="none" x="800" y="510">UNREGISTERED</text><text fill="#eeeeee" stroke="none" font-family="Arial" font-size="24px" font-style="normal" font-weight="normal" text-decoration="none" x="800" y="540">UNREGISTERED</text><text fill="#eeeeee" stroke="none" font-family="Arial" font-size="24px" font-style="normal" font-weight="normal" text-decoration="none" x="800" y="570">UNREGISTERED</text><text fill="#eeeeee" stroke="none" font-family="Arial" font-size="24px" font-style="normal" font-weight="normal" text-decoration="none" x="1000" y="0">UNREGISTERED</text><text fill="#eeeeee" stroke="none" font-family="Arial" font-size="24px" font-style="normal" font-weight="normal" text-decoration="none" x="1000" y="30">UNREGISTERED</text><text fill="#eeeeee" stroke="none" font-family="Arial" font-size="24px" font-style="normal" font-weight="normal" text-decoration="none" x="1000" y="60">UNREGISTERED</text><text fill="#eeeeee" stroke="none" font-family="Arial" font-size="24px" font-style="normal" font-weight="normal" text-decoration="none" x="1000" y="90">UNREGISTERED</text><text fill="#eeeeee" stroke="none" font-family="Arial" font-size="24px" font-style="normal" font-weight="normal" text-decoration="none" x="1000" y="120">UNREGISTERED</text><text fill="#eeeeee" stroke="none" font-family="Arial" font-size="24px" font-style="normal" font-weight="normal" text-decoration="none" x="1000" y="150">UNREGISTERED</text><text fill="#eeeeee" stroke="none" font-family="Arial" font-size="24px" font-style="normal" font-weight="normal" text-decoration="none" x="1000" y="180">UNREGISTERED</text><text fill="#eeeeee" stroke="none" font-family="Arial" font-size="24px" font-style="normal" font-weight="normal" text-decoration="none" x="1000" y="210">UNREGISTERED</text><text fill="#eeeeee" stroke="none" font-family="Arial" font-size="24px" font-style="normal" font-weight="normal" text-decoration="none" x="1000" y="240">UNREGISTERED</text><text fill="#eeeeee" stroke="none" font-family="Arial" font-size="24px" font-style="normal" font-weight="normal" text-decoration="none" x="1000" y="270">UNREGISTERED</text><text fill="#eeeeee" stroke="none" font-family="Arial" font-size="24px" font-style="normal" font-weight="normal" text-decoration="none" x="1000" y="300">UNREGISTERED</text><text fill="#eeeeee" stroke="none" font-family="Arial" font-size="24px" font-style="normal" font-weight="normal" text-decoration="none" x="1000" y="330">UNREGISTERED</text><text fill="#eeeeee" stroke="none" font-family="Arial" font-size="24px" font-style="normal" font-weight="normal" text-decoration="none" x="1000" y="360">UNREGISTERED</text><text fill="#eeeeee" stroke="none" font-family="Arial" font-size="24px" font-style="normal" font-weight="normal" text-decoration="none" x="1000" y="390">UNREGISTERED</text><text fill="#eeeeee" stroke="none" font-family="Arial" font-size="24px" font-style="normal" font-weight="normal" text-decoration="none" x="1000" y="420">UNREGISTERED</text><text fill="#eeeeee" stroke="none" font-family="Arial" font-size="24px" font-style="normal" font-weight="normal" text-decoration="none" x="1000" y="450">UNREGISTERED</text><text fill="#eeeeee" stroke="none" font-family="Arial" font-size="24px" font-style="normal" font-weight="normal" text-decoration="none" x="1000" y="480">UNREGISTERED</text><text fill="#eeeeee" stroke="none" font-family="Arial" font-size="24px" font-style="normal" font-weight="normal" text-decoration="none" x="1000" y="510">UNREGISTERED</text><text fill="#eeeeee" stroke="none" font-family="Arial" font-size="24px" font-style="normal" font-weight="normal" text-decoration="none" x="1000" y="540">UNREGISTERED</text><text fill="#eeeeee" stroke="none" font-family="Arial" font-size="24px" font-style="normal" font-weight="normal" text-decoration="none" x="1000" y="570">UNREGISTERED</text><text fill="#eeeeee" stroke="none" font-family="Arial" font-size="24px" font-style="normal" font-weight="normal" text-decoration="none" x="1200" y="0">UNREGISTERED</text><text fill="#eeeeee" stroke="none" font-family="Arial" font-size="24px" font-style="normal" font-weight="normal" text-decoration="none" x="1200" y="30">UNREGISTERED</text><text fill="#eeeeee" stroke="none" font-family="Arial" font-size="24px" font-style="normal" font-weight="normal" text-decoration="none" x="1200" y="60">UNREGISTERED</text><text fill="#eeeeee" stroke="none" font-family="Arial" font-size="24px" font-style="normal" font-weight="normal" text-decoration="none" x="1200" y="90">UNREGISTERED</text><text fill="#eeeeee" stroke="none" font-family="Arial" font-size="24px" font-style="normal" font-weight="normal" text-decoration="none" x="1200" y="120">UNREGISTERED</text><text fill="#eeeeee" stroke="none" font-family="Arial" font-size="24px" font-style="normal" font-weight="normal" text-decoration="none" x="1200" y="150">UNREGISTERED</text><text fill="#eeeeee" stroke="none" font-family="Arial" font-size="24px" font-style="normal" font-weight="normal" text-decoration="none" x="1200" y="180">UNREGISTERED</text><text fill="#eeeeee" stroke="none" font-family="Arial" font-size="24px" font-style="normal" font-weight="normal" text-decoration="none" x="1200" y="210">UNREGISTERED</text><text fill="#eeeeee" stroke="none" font-family="Arial" font-size="24px" font-style="normal" font-weight="normal" text-decoration="none" x="1200" y="240">UNREGISTERED</text><text fill="#eeeeee" stroke="none" font-family="Arial" font-size="24px" font-style="normal" font-weight="normal" text-decoration="none" x="1200" y="270">UNREGISTERED</text><text fill="#eeeeee" stroke="none" font-family="Arial" font-size="24px" font-style="normal" font-weight="normal" text-decoration="none" x="1200" y="300">UNREGISTERED</text><text fill="#eeeeee" stroke="none" font-family="Arial" font-size="24px" font-style="normal" font-weight="normal" text-decoration="none" x="1200" y="330">UNREGISTERED</text><text fill="#eeeeee" stroke="none" font-family="Arial" font-size="24px" font-style="normal" font-weight="normal" text-decoration="none" x="1200" y="360">UNREGISTERED</text><text fill="#eeeeee" stroke="none" font-family="Arial" font-size="24px" font-style="normal" font-weight="normal" text-decoration="none" x="1200" y="390">UNREGISTERED</text><text fill="#eeeeee" stroke="none" font-family="Arial" font-size="24px" font-style="normal" font-weight="normal" text-decoration="none" x="1200" y="420">UNREGISTERED</text><text fill="#eeeeee" stroke="none" font-family="Arial" font-size="24px" font-style="normal" font-weight="normal" text-decoration="none" x="1200" y="450">UNREGISTERED</text><text fill="#eeeeee" stroke="none" font-family="Arial" font-size="24px" font-style="normal" font-weight="normal" text-decoration="none" x="1200" y="480">UNREGISTERED</text><text fill="#eeeeee" stroke="none" font-family="Arial" font-size="24px" font-style="normal" font-weight="normal" text-decoration="none" x="1200" y="510">UNREGISTERED</text><text fill="#eeeeee" stroke="none" font-family="Arial" font-size="24px" font-style="normal" font-weight="normal" text-decoration="none" x="1200" y="540">UNREGISTERED</text><text fill="#eeeeee" stroke="none" font-family="Arial" font-size="24px" font-style="normal" font-weight="normal" text-decoration="none" x="1200" y="570">UNREGISTERED</text><g transform="translate(-174,2) scale(1,1)"><path fill="none" stroke="#000000" d="M 184 8 L 1416 8 L 1416 584 L 184 584 L 184 8" stroke-miterlimit="10"/></g><g transform="translate(-174,2) scale(1,1)"><path fill="#ffffff" stroke="none" d="M 184 8 L 184 30 L 306.919921875 30 L 317.919921875 19 L 317.919921875 8 L 184 8"/></g><g transform="translate(-174,2) scale(1,1)"><path fill="none" stroke="#000000" d="M 184 8 L 184 30 L 306.919921875 30 L 317.919921875 19 L 317.919921875 8 L 184 8 L 184 8" stroke-miterlimit="10"/></g><g transform="translate(-174,2) scale(1,1)"><g><path fill="none" stroke="none"/><text fill="#000000" stroke="none" font-family="Arial" font-size="13px" font-style="normal" font-weight="normal" text-decoration="none" x="208.72998046875" y="24">removeCartItem</text></g></g><g transform="translate(-174,2) scale(1,1)"><g><path fill="none" stroke="none"/><text fill="#000000" stroke="none" font-family="Arial" font-size="13px" font-style="normal" font-weight="bold" text-decoration="none" x="188.279541015625" y="24">sd</text></g></g><g transform="translate(-174,2) scale(1,1)"><rect fill="#C0C0C0" stroke="none" x="407" y="47" width="71.736328125" height="39" opacity="0.2"/></g><g transform="translate(-174,2) scale(1,1)"><rect fill="#ffffff" stroke="none" x="400" y="40" width="71.736328125" height="39"/></g><g transform="translate(-174,2) scale(1,1)"><path fill="none" stroke="#000000" d="M 400 40 L 471.736328125 40 L 471.736328125 79 L 400 79 L 400 40 Z Z" stroke-miterlimit="10"/></g><g transform="translate(-174,2) scale(1,1)"><g><path fill="none" stroke="none"/><text fill="#000000" stroke="none" font-family="Arial" font-size="13px" font-style="normal" font-weight="bold" text-decoration="none" x="418.89453125" y="58">: Cart</text></g></g><g transform="translate(-174,2) scale(1,1)"><path fill="none" stroke="#000000" d="M 436.5 80 L 436.5 566" stroke-miterlimit="10" stroke-dasharray="3"/></g><g transform="translate(-174,2) scale(1,1)"><rect fill="#C0C0C0" stroke="none" x="639" y="47" width="71.736328125" height="39" opacity="0.2"/></g><g transform="translate(-174,2) scale(1,1)"><rect fill="#ffffff" stroke="none" x="632" y="40" width="71.736328125" height="39"/></g><g transform="translate(-174,2) scale(1,1)"><path fill="none" stroke="#000000" d="M 632 40 L 703.736328125 40 L 703.736328125 79 L 632 79 L 632 40 Z Z" stroke-miterlimit="10"/></g><g transform="translate(-174,2) scale(1,1)"><g><path fill="none" stroke="none"/><text fill="#000000" stroke="none" font-family="Arial" font-size="13px" font-style="normal" font-weight="bold" text-decoration="none" x="649.444091796875" y="58">: User</text></g></g><g transform="translate(-174,2) scale(1,1)"><path fill="none" stroke="#000000" d="M 668.5 80 L 668.5 560" stroke-miterlimit="10" stroke-dasharray="3"/></g><g transform="translate(-174,2) scale(1,1)"><rect fill="#C0C0C0" stroke="none" x="871" y="47" width="89.7890625" height="39" opacity="0.2"/></g><g transform="translate(-174,2) scale(1,1)"><rect fill="#ffffff" stroke="none" x="864" y="40" width="89.7890625" height="39"/></g><g transform="translate(-174,2) scale(1,1)"><path fill="none" stroke="#000000" d="M 864 40 L 953.7890625 40 L 953.7890625 79 L 864 79 L 864 40 Z Z" stroke-miterlimit="10"/></g><g transform="translate(-174,2) scale(1,1)"><g><path fill="none" stroke="none"/><text fill="#000000" stroke="none" font-family="Arial" font-size="13px" font-style="normal" font-weight="bold" text-decoration="none" x="873.5" y="58">: GuestCart</text></g></g><g transform="translate(-174,2) scale(1,1)"><path fill="none" stroke="#000000" d="M 909.5 80 L 909.5 544" stroke-miterlimit="10" stroke-dasharray="3"/></g><g transform="translate(-174,2) scale(1,1)"><rect fill="#C0C0C0" stroke="none" x="1087" y="47" width="79.67724609375" height="39" opacity="0.2"/></g><g transform="translate(-174,2) scale(1,1)"><rect fill="#ffffff" stroke="none" x="1080" y="40" width="79.67724609375" height="39"/></g><g transform="translate(-174,2) scale(1,1)"><path fill="none" stroke="#000000" d="M 1080 40 L 1159.67724609375 40 L 1159.67724609375 79 L 1080 79 L 1080 40 Z Z" stroke-miterlimit="10"/></g><g transform="translate(-174,2) scale(1,1)"><g><path fill="none" stroke="none"/><text fill="#000000" stroke="none" font-family="Arial" font-size="13px" font-style="normal" font-weight="bold" text-decoration="none" x="1089.5" y="58">: CartItem</text></g></g><g transform="translate(-174,2) scale(1,1)"><path fill="none" stroke="#000000" d="M 1120.5 80 L 1120.5 560" stroke-miterlimit="10" stroke-dasharray="3"/></g><g transform="translate(-174,2) scale(1,1)"><path fill="#000000" stroke="none" d="M 232 95.5 C 232 91.6340064 235.1340064 88.5 239 88.5 C 242.8659936 88.5 246 91.6340064 246 95.5 C 246 99.3659936 242.8659936 102.5 239 102.5 C 235.1340064 102.5 232 99.3659936 232 95.5 Z"/></g><g transform="translate(-174,2) scale(1,1)"><path fill="none" stroke="#000000" d="M 246 96 L 429 96" stroke-miterlimit="10"/></g><g transform="translate(-174,2) scale(1,1)"><path fill="#000000" stroke="none" d="M 418.83732514237585 100.20951775601598 L 429 96 L 418.83732514237585 91.79048224398402"/></g><g transform="translate(-174,2) scale(1,1)"><path fill="none" stroke="#000000" d="M 418.83732514237585 100.20951775601598 L 429 96 L 418.83732514237585 91.79048224398402 L 418.83732514237585 100.20951775601598" stroke-miterlimit="10"/></g><g transform="translate(-174,2) scale(1,1)"><g><path fill="none" stroke="none"/><text fill="#000000" stroke="none" font-family="Arial" font-size="13px" font-style="normal" font-weight="normal" text-decoration="none" x="286.53271484375" y="91">removeCartItem()</text></g></g><g transform="translate(-174,2) scale(1,1)"><rect fill="#ffffff" stroke="none" x="429" y="96" width="13" height="440"/></g><g transform="translate(-174,2) scale(1,1)"><path fill="none" stroke="#000000" d="M 429 96 L 442 96 L 442 536 L 429 536 L 429 96 Z Z" stroke-miterlimit="10"/></g><g transform="translate(-174,2) scale(1,1)"><path fill="none" stroke="#000000" d="M 442 120 L 661 120" stroke-miterlimit="10"/></g><g transform="translate(-174,2) scale(1,1)"><path fill="#000000" stroke="none" d="M 650.8373251423759 124.20951775601598 L 661 120 L 650.8373251423758 115.79048224398402"/></g><g transform="translate(-174,2) scale(1,1)"><path fill="none" stroke="#000000" d="M 650.8373251423759 124.20951775601598 L 661 120 L 650.8373251423758 115.79048224398402 L 650.8373251423759 124.20951775601598" stroke-miterlimit="10"/></g><g transform="translate(-174,2) scale(1,1)"><g><path fill="none" stroke="none"/><text fill="#000000" stroke="none" font-family="Arial" font-size="13px" font-style="normal" font-weight="normal" text-decoration="none" x="447.53271484375" y="115">getUserFromAttribute(attributeUser)</text></g></g><g transform="translate(-174,2) scale(1,1)"><rect fill="#ffffff" stroke="none" x="661" y="120" width="13" height="28"/></g><g transform="translate(-174,2) scale(1,1)"><path fill="none" stroke="#000000" d="M 661 120 L 674 120 L 674 148 L 661 148 L 661 120 Z Z" stroke-miterlimit="10"/></g><g transform="translate(-174,2) scale(1,1)"><path fill="none" stroke="#000000" d="M 661 138 L 442 138" stroke-miterlimit="10" stroke-dasharray="3"/></g><g transform="translate(-174,2) scale(1,1)"><path fill="none" stroke="#000000" d="M 452.16267485762415 133.790482243984 L 442 138 L 452.16267485762415 142.209517756016" stroke-miterlimit="10"/></g><g transform="translate(-174,2) scale(1,1)"><g><path fill="none" stroke="none"/><text fill="#000000" stroke="none" font-family="Arial" font-size="13px" font-style="normal" font-weight="normal" text-decoration="none" x="536.53271484375" y="153">User</text></g></g><g transform="translate(-174,2) scale(1,1)"><path fill="none" stroke="#000000" d="M 442 192 L 902 192" stroke-miterlimit="10"/></g><g transform="translate(-174,2) scale(1,1)"><path fill="#000000" stroke="none" d="M 891.8373251423759 196.209517756016 L 902 192 L 891.8373251423758 187.790482243984"/></g><g transform="translate(-174,2) scale(1,1)"><path fill="none" stroke="#000000" d="M 891.8373251423759 196.209517756016 L 902 192 L 891.8373251423758 187.790482243984 L 891.8373251423759 196.209517756016" stroke-miterlimit="10"/></g><g transform="translate(-174,2) scale(1,1)"><g><path fill="none" stroke="none"/><text fill="#000000" stroke="none" font-family="Arial" font-size="13px" font-style="normal" font-weight="normal" text-decoration="none" x="536.53271484375" y="187">getGuestCartFromAttribute(attributeGuestCart)</text></g></g><g transform="translate(-174,2) scale(1,1)"><rect fill="#ffffff" stroke="none" x="902" y="192" width="13" height="28"/></g><g transform="translate(-174,2) scale(1,1)"><path fill="none" stroke="#000000" d="M 902 192 L 915 192 L 915 220 L 902 220 L 902 192 Z Z" stroke-miterlimit="10"/></g><g transform="translate(-174,2) scale(1,1)"><path fill="none" stroke="#000000" d="M 902 216 L 442 216" stroke-miterlimit="10" stroke-dasharray="3"/></g><g transform="translate(-174,2) scale(1,1)"><path fill="none" stroke="#000000" d="M 452.16267485762415 211.790482243984 L 442 216 L 452.16267485762415 220.209517756016" stroke-miterlimit="10"/></g><g transform="translate(-174,2) scale(1,1)"><g><path fill="none" stroke="none"/><text fill="#000000" stroke="none" font-family="Arial" font-size="13px" font-style="normal" font-weight="normal" text-decoration="none" x="642.53271484375" y="231">guestCart</text></g></g><g transform="translate(-174,2) scale(1,1)"><path fill="none" stroke="#000000" d="M 442 256 L 472 256 L 472 276 L 449 276" stroke-miterlimit="10"/></g><g transform="translate(-174,2) scale(1,1)"><path fill="#000000" stroke="none" d="M 459.16267485762415 271.790482243984 L 449 276 L 459.16267485762415 280.209517756016"/></g><g transform="translate(-174,2) scale(1,1)"><path fill="none" stroke="#000000" d="M 459.16267485762415 271.790482243984 L 449 276 L 459.16267485762415 280.209517756016 L 459.16267485762415 271.790482243984" stroke-miterlimit="10"/></g><g transform="translate(-174,2) scale(1,1)"><g><path fill="none" stroke="none"/><text fill="#000000" stroke="none" font-family="Arial" font-size="13px" font-style="normal" font-weight="normal" text-decoration="none" x="471.53271484375" y="270">getCurrentCartByUserId(userId)</text></g></g><g transform="translate(-174,2) scale(1,1)"><rect fill="#ffffff" stroke="none" x="436" y="276" width="13" height="28"/></g><g transform="translate(-174,2) scale(1,1)"><path fill="none" stroke="#000000" d="M 436 276 L 449 276 L 449 304 L 436 304 L 436 276 Z Z" stroke-miterlimit="10"/></g><g transform="translate(-174,2) scale(1,1)"><path fill="none" stroke="#000000" d="M 442 320 L 1113 320" stroke-miterlimit="10"/></g><g transform="translate(-174,2) scale(1,1)"><path fill="#000000" stroke="none" d="M 1102.837325142376 324.209517756016 L 1113 320 L 1102.837325142376 315.790482243984"/></g><g transform="translate(-174,2) scale(1,1)"><path fill="none" stroke="#000000" d="M 1102.837325142376 324.209517756016 L 1113 320 L 1102.837325142376 315.790482243984 L 1102.837325142376 324.209517756016" stroke-miterlimit="10"/></g><g transform="translate(-174,2) scale(1,1)"><g><path fill="none" stroke="none"/><text fill="#000000" stroke="none" font-family="Arial" font-size="13px" font-style="normal" font-weight="normal" text-decoration="none" x="614.53271484375" y="315">removeCartItemByCartIdAndProductId(cartId, productId)</text></g></g><g transform="translate(-174,2) scale(1,1)"><rect fill="#ffffff" stroke="none" x="1113" y="320" width="13" height="28"/></g><g transform="translate(-174,2) scale(1,1)"><path fill="none" stroke="#000000" d="M 1113 320 L 1126 320 L 1126 348 L 1113 348 L 1113 320 Z Z" stroke-miterlimit="10"/></g><g transform="translate(-174,2) scale(1,1)"><path fill="none" stroke="#000000" d="M 442 387 L 1113 387" stroke-miterlimit="10"/></g><g transform="translate(-174,2) scale(1,1)"><path fill="#000000" stroke="none" d="M 1102.837325142376 391.209517756016 L 1113 387 L 1102.837325142376 382.790482243984"/></g><g transform="translate(-174,2) scale(1,1)"><path fill="none" stroke="#000000" d="M 1102.837325142376 391.209517756016 L 1113 387 L 1102.837325142376 382.790482243984 L 1102.837325142376 391.209517756016" stroke-miterlimit="10"/></g><g transform="translate(-174,2) scale(1,1)"><g><path fill="none" stroke="none"/><text fill="#000000" stroke="none" font-family="Arial" font-size="13px" font-style="normal" font-weight="normal" text-decoration="none" x="597.53271484375" y="382">removeCartItemByGuestCartIdAndProductId(cartId, productId)</text></g></g><g transform="translate(-174,2) scale(1,1)"><rect fill="#ffffff" stroke="none" x="1113" y="387" width="13" height="28"/></g><g transform="translate(-174,2) scale(1,1)"><path fill="none" stroke="#000000" d="M 1113 387 L 1126 387 L 1126 415 L 1113 415 L 1113 387 Z Z" stroke-miterlimit="10"/></g><g transform="translate(-174,2) scale(1,1)"><path fill="none" stroke="#000000" d="M 442 432 L 1113 432" stroke-miterlimit="10"/></g><g transform="translate(-174,2) scale(1,1)"><path fill="#000000" stroke="none" d="M 1102.837325142376 436.209517756016 L 1113 432 L 1102.837325142376 427.790482243984"/></g><g transform="translate(-174,2) scale(1,1)"><path fill="none" stroke="#000000" d="M 1102.837325142376 436.209517756016 L 1113 432 L 1102.837325142376 427.790482243984 L 1102.837325142376 436.209517756016" stroke-miterlimit="10"/></g><g transform="translate(-174,2) scale(1,1)"><g><path fill="none" stroke="none"/><text fill="#000000" stroke="none" font-family="Arial" font-size="13px" font-style="normal" font-weight="normal" text-decoration="none" x="686.53271484375" y="427">setCartItemList(List&lt;CartItem&gt;)</text></g></g><g transform="translate(-174,2) scale(1,1)"><rect fill="#ffffff" stroke="none" x="1113" y="432" width="13" height="88"/></g><g transform="translate(-174,2) scale(1,1)"><path fill="none" stroke="#000000" d="M 1113 432 L 1126 432 L 1126 520 L 1113 520 L 1113 432 Z Z" stroke-miterlimit="10"/></g><g transform="translate(-174,2) scale(1,1)"><path fill="none" stroke="#000000" d="M 1126 448 L 1156 448 L 1156 468 L 1133 468" stroke-miterlimit="10"/></g><g transform="translate(-174,2) scale(1,1)"><path fill="#000000" stroke="none" d="M 1143.162674857624 463.790482243984 L 1133 468 L 1143.162674857624 472.209517756016"/></g><g transform="translate(-174,2) scale(1,1)"><path fill="none" stroke="#000000" d="M 1143.162674857624 463.790482243984 L 1133 468 L 1143.162674857624 472.209517756016 L 1143.162674857624 463.790482243984" stroke-miterlimit="10"/></g><g transform="translate(-174,2) scale(1,1)"><g><path fill="none" stroke="none"/><text fill="#000000" stroke="none" font-family="Arial" font-size="13px" font-style="normal" font-weight="normal" text-decoration="none" x="1171.5" y="462">getCartItemByGuestCartId(guestCardId)</text></g></g><g transform="translate(-174,2) scale(1,1)"><rect fill="#ffffff" stroke="none" x="1120" y="468" width="13" height="28"/></g><g transform="translate(-174,2) scale(1,1)"><path fill="none" stroke="#000000" d="M 1120 468 L 1133 468 L 1133 496 L 1120 496 L 1120 468 Z Z" stroke-miterlimit="10"/></g><g transform="translate(-174,2) scale(1,1)"><path fill="none" stroke="#000000" d="M 1113 506 L 442 506" stroke-miterlimit="10" stroke-dasharray="3"/></g><g transform="translate(-174,2) scale(1,1)"><path fill="none" stroke="#000000" d="M 452.16267485762415 501.790482243984 L 442 506 L 452.16267485762415 510.209517756016" stroke-miterlimit="10"/></g><g transform="translate(-174,2) scale(1,1)"><g><path fill="none" stroke="none"/><text fill="#000000" stroke="none" font-family="Arial" font-size="13px" font-style="normal" font-weight="normal" text-decoration="none" x="740.665283203125" y="521">ListCartItem</text></g></g><g transform="translate(-174,2) scale(1,1)"><path fill="none" stroke="#000000" d="M 280 240 L 1191 240 L 1191 351 L 280 351 L 280 240" stroke-miterlimit="10"/></g><g transform="translate(-174,2) scale(1,1)"><path fill="#ffffff" stroke="none" d="M 280 240 L 280 262 L 378.0244140625 262 L 389.0244140625 251 L 389.0244140625 240 L 280 240"/></g><g transform="translate(-174,2) scale(1,1)"><path fill="none" stroke="#000000" d="M 280 240 L 280 262 L 378.0244140625 262 L 389.0244140625 251 L 389.0244140625 240 L 280 240 L 280 240" stroke-miterlimit="10"/></g><g transform="translate(-174,2) scale(1,1)"><g><path fill="none" stroke="none"/><text fill="#000000" stroke="none" font-family="Arial" font-size="13px" font-style="normal" font-weight="normal" text-decoration="none" x="309.07177734375" y="256">user != null</text></g></g><g transform="translate(-174,2) scale(1,1)"><g><path fill="none" stroke="none"/><text fill="#000000" stroke="none" font-family="Arial" font-size="13px" font-style="normal" font-weight="bold" text-decoration="none" x="283.930419921875" y="255.5">opt</text></g></g><g transform="translate(-174,2) scale(1,1)"><path fill="none" stroke="#000000" d="M 184 360 L 1408 360 L 1408 551 L 184 551 L 184 360" stroke-miterlimit="10"/></g><g transform="translate(-174,2) scale(1,1)"><path fill="#ffffff" stroke="none" d="M 184 360 L 184 382 L 405.59423828125 382 L 416.59423828125 371 L 416.59423828125 360 L 184 360"/></g><g transform="translate(-174,2) scale(1,1)"><path fill="none" stroke="#000000" d="M 184 360 L 184 382 L 405.59423828125 382 L 416.59423828125 371 L 416.59423828125 360 L 184 360 L 184 360" stroke-miterlimit="10"/></g><g transform="translate(-174,2) scale(1,1)"><g><path fill="none" stroke="none"/><text fill="#000000" stroke="none" font-family="Arial" font-size="13px" font-style="normal" font-weight="normal" text-decoration="none" x="213.07177734375" y="376">user == null &amp;&amp; guestCart != null</text></g></g><g transform="translate(-174,2) scale(1,1)"><g><path fill="none" stroke="none"/><text fill="#000000" stroke="none" font-family="Arial" font-size="13px" font-style="normal" font-weight="bold" text-decoration="none" x="187.930419921875" y="375.5">opt</text></g></g></g></svg>