<svg version="1.1" xmlns="http://www.w3.org/2000/svg" xmlns:xlink="http://www.w3.org/1999/xlink" width="852" height="492"><defs/><g><text fill="#eeeeee" stroke="none" font-family="Arial" font-size="24px" font-style="normal" font-weight="normal" text-decoration="none" x="0" y="0">UNREGISTERED</text><text fill="#eeeeee" stroke="none" font-family="Arial" font-size="24px" font-style="normal" font-weight="normal" text-decoration="none" x="0" y="30">UNREGISTERED</text><text fill="#eeeeee" stroke="none" font-family="Arial" font-size="24px" font-style="normal" font-weight="normal" text-decoration="none" x="0" y="60">UNREGISTERED</text><text fill="#eeeeee" stroke="none" font-family="Arial" font-size="24px" font-style="normal" font-weight="normal" text-decoration="none" x="0" y="90">UNREGISTERED</text><text fill="#eeeeee" stroke="none" font-family="Arial" font-size="24px" font-style="normal" font-weight="normal" text-decoration="none" x="0" y="120">UNREGISTERED</text><text fill="#eeeeee" stroke="none" font-family="Arial" font-size="24px" font-style="normal" font-weight="normal" text-decoration="none" x="0" y="150">UNREGISTERED</text><text fill="#eeeeee" stroke="none" font-family="Arial" font-size="24px" font-style="normal" font-weight="normal" text-decoration="none" x="0" y="180">UNREGISTERED</text><text fill="#eeeeee" stroke="none" font-family="Arial" font-size="24px" font-style="normal" font-weight="normal" text-decoration="none" x="0" y="210">UNREGISTERED</text><text fill="#eeeeee" stroke="none" font-family="Arial" font-size="24px" font-style="normal" font-weight="normal" text-decoration="none" x="0" y="240">UNREGISTERED</text><text fill="#eeeeee" stroke="none" font-family="Arial" font-size="24px" font-style="normal" font-weight="normal" text-decoration="none" x="0" y="270">UNREGISTERED</text><text fill="#eeeeee" stroke="none" font-family="Arial" font-size="24px" font-style="normal" font-weight="normal" text-decoration="none" x="0" y="300">UNREGISTERED</text><text fill="#eeeeee" stroke="none" font-family="Arial" font-size="24px" font-style="normal" font-weight="normal" text-decoration="none" x="0" y="330">UNREGISTERED</text><text fill="#eeeeee" stroke="none" font-family="Arial" font-size="24px" font-style="normal" font-weight="normal" text-decoration="none" x="0" y="360">UNREGISTERED</text><text fill="#eeeeee" stroke="none" font-family="Arial" font-size="24px" font-style="normal" font-weight="normal" text-decoration="none" x="0" y="390">UNREGISTERED</text><text fill="#eeeeee" stroke="none" font-family="Arial" font-size="24px" font-style="normal" font-weight="normal" text-decoration="none" x="0" y="420">UNREGISTERED</text><text fill="#eeeeee" stroke="none" font-family="Arial" font-size="24px" font-style="normal" font-weight="normal" text-decoration="none" x="0" y="450">UNREGISTERED</text><text fill="#eeeeee" stroke="none" font-family="Arial" font-size="24px" font-style="normal" font-weight="normal" text-decoration="none" x="0" y="480">UNREGISTERED</text><text fill="#eeeeee" stroke="none" font-family="Arial" font-size="24px" font-style="normal" font-weight="normal" text-decoration="none" x="200" y="0">UNREGISTERED</text><text fill="#eeeeee" stroke="none" font-family="Arial" font-size="24px" font-style="normal" font-weight="normal" text-decoration="none" x="200" y="30">UNREGISTERED</text><text fill="#eeeeee" stroke="none" font-family="Arial" font-size="24px" font-style="normal" font-weight="normal" text-decoration="none" x="200" y="60">UNREGISTERED</text><text fill="#eeeeee" stroke="none" font-family="Arial" font-size="24px" font-style="normal" font-weight="normal" text-decoration="none" x="200" y="90">UNREGISTERED</text><text fill="#eeeeee" stroke="none" font-family="Arial" font-size="24px" font-style="normal" font-weight="normal" text-decoration="none" x="200" y="120">UNREGISTERED</text><text fill="#eeeeee" stroke="none" font-family="Arial" font-size="24px" font-style="normal" font-weight="normal" text-decoration="none" x="200" y="150">UNREGISTERED</text><text fill="#eeeeee" stroke="none" font-family="Arial" font-size="24px" font-style="normal" font-weight="normal" text-decoration="none" x="200" y="180">UNREGISTERED</text><text fill="#eeeeee" stroke="none" font-family="Arial" font-size="24px" font-style="normal" font-weight="normal" text-decoration="none" x="200" y="210">UNREGISTERED</text><text fill="#eeeeee" stroke="none" font-family="Arial" font-size="24px" font-style="normal" font-weight="normal" text-decoration="none" x="200" y="240">UNREGISTERED</text><text fill="#eeeeee" stroke="none" font-family="Arial" font-size="24px" font-style="normal" font-weight="normal" text-decoration="none" x="200" y="270">UNREGISTERED</text><text fill="#eeeeee" stroke="none" font-family="Arial" font-size="24px" font-style="normal" font-weight="normal" text-decoration="none" x="200" y="300">UNREGISTERED</text><text fill="#eeeeee" stroke="none" font-family="Arial" font-size="24px" font-style="normal" font-weight="normal" text-decoration="none" x="200" y="330">UNREGISTERED</text><text fill="#eeeeee" stroke="none" font-family="Arial" font-size="24px" font-style="normal" font-weight="normal" text-decoration="none" x="200" y="360">UNREGISTERED</text><text fill="#eeeeee" stroke="none" font-family="Arial" font-size="24px" font-style="normal" font-weight="normal" text-decoration="none" x="200" y="390">UNREGISTERED</text><text fill="#eeeeee" stroke="none" font-family="Arial" font-size="24px" font-style="normal" font-weight="normal" text-decoration="none" x="200" y="420">UNREGISTERED</text><text fill="#eeeeee" stroke="none" font-family="Arial" font-size="24px" font-style="normal" font-weight="normal" text-decoration="none" x="200" y="450">UNREGISTERED</text><text fill="#eeeeee" stroke="none" font-family="Arial" font-size="24px" font-style="normal" font-weight="normal" text-decoration="none" x="200" y="480">UNREGISTERED</text><text fill="#eeeeee" stroke="none" font-family="Arial" font-size="24px" font-style="normal" font-weight="normal" text-decoration="none" x="400" y="0">UNREGISTERED</text><text fill="#eeeeee" stroke="none" font-family="Arial" font-size="24px" font-style="normal" font-weight="normal" text-decoration="none" x="400" y="30">UNREGISTERED</text><text fill="#eeeeee" stroke="none" font-family="Arial" font-size="24px" font-style="normal" font-weight="normal" text-decoration="none" x="400" y="60">UNREGISTERED</text><text fill="#eeeeee" stroke="none" font-family="Arial" font-size="24px" font-style="normal" font-weight="normal" text-decoration="none" x="400" y="90">UNREGISTERED</text><text fill="#eeeeee" stroke="none" font-family="Arial" font-size="24px" font-style="normal" font-weight="normal" text-decoration="none" x="400" y="120">UNREGISTERED</text><text fill="#eeeeee" stroke="none" font-family="Arial" font-size="24px" font-style="normal" font-weight="normal" text-decoration="none" x="400" y="150">UNREGISTERED</text><text fill="#eeeeee" stroke="none" font-family="Arial" font-size="24px" font-style="normal" font-weight="normal" text-decoration="none" x="400" y="180">UNREGISTERED</text><text fill="#eeeeee" stroke="none" font-family="Arial" font-size="24px" font-style="normal" font-weight="normal" text-decoration="none" x="400" y="210">UNREGISTERED</text><text fill="#eeeeee" stroke="none" font-family="Arial" font-size="24px" font-style="normal" font-weight="normal" text-decoration="none" x="400" y="240">UNREGISTERED</text><text fill="#eeeeee" stroke="none" font-family="Arial" font-size="24px" font-style="normal" font-weight="normal" text-decoration="none" x="400" y="270">UNREGISTERED</text><text fill="#eeeeee" stroke="none" font-family="Arial" font-size="24px" font-style="normal" font-weight="normal" text-decoration="none" x="400" y="300">UNREGISTERED</text><text fill="#eeeeee" stroke="none" font-family="Arial" font-size="24px" font-style="normal" font-weight="normal" text-decoration="none" x="400" y="330">UNREGISTERED</text><text fill="#eeeeee" stroke="none" font-family="Arial" font-size="24px" font-style="normal" font-weight="normal" text-decoration="none" x="400" y="360">UNREGISTERED</text><text fill="#eeeeee" stroke="none" font-family="Arial" font-size="24px" font-style="normal" font-weight="normal" text-decoration="none" x="400" y="390">UNREGISTERED</text><text fill="#eeeeee" stroke="none" font-family="Arial" font-size="24px" font-style="normal" font-weight="normal" text-decoration="none" x="400" y="420">UNREGISTERED</text><text fill="#eeeeee" stroke="none" font-family="Arial" font-size="24px" font-style="normal" font-weight="normal" text-decoration="none" x="400" y="450">UNREGISTERED</text><text fill="#eeeeee" stroke="none" font-family="Arial" font-size="24px" font-style="normal" font-weight="normal" text-decoration="none" x="400" y="480">UNREGISTERED</text><text fill="#eeeeee" stroke="none" font-family="Arial" font-size="24px" font-style="normal" font-weight="normal" text-decoration="none" x="600" y="0">UNREGISTERED</text><text fill="#eeeeee" stroke="none" font-family="Arial" font-size="24px" font-style="normal" font-weight="normal" text-decoration="none" x="600" y="30">UNREGISTERED</text><text fill="#eeeeee" stroke="none" font-family="Arial" font-size="24px" font-style="normal" font-weight="normal" text-decoration="none" x="600" y="60">UNREGISTERED</text><text fill="#eeeeee" stroke="none" font-family="Arial" font-size="24px" font-style="normal" font-weight="normal" text-decoration="none" x="600" y="90">UNREGISTERED</text><text fill="#eeeeee" stroke="none" font-family="Arial" font-size="24px" font-style="normal" font-weight="normal" text-decoration="none" x="600" y="120">UNREGISTERED</text><text fill="#eeeeee" stroke="none" font-family="Arial" font-size="24px" font-style="normal" font-weight="normal" text-decoration="none" x="600" y="150">UNREGISTERED</text><text fill="#eeeeee" stroke="none" font-family="Arial" font-size="24px" font-style="normal" font-weight="normal" text-decoration="none" x="600" y="180">UNREGISTERED</text><text fill="#eeeeee" stroke="none" font-family="Arial" font-size="24px" font-style="normal" font-weight="normal" text-decoration="none" x="600" y="210">UNREGISTERED</text><text fill="#eeeeee" stroke="none" font-family="Arial" font-size="24px" font-style="normal" font-weight="normal" text-decoration="none" x="600" y="240">UNREGISTERED</text><text fill="#eeeeee" stroke="none" font-family="Arial" font-size="24px" font-style="normal" font-weight="normal" text-decoration="none" x="600" y="270">UNREGISTERED</text><text fill="#eeeeee" stroke="none" font-family="Arial" font-size="24px" font-style="normal" font-weight="normal" text-decoration="none" x="600" y="300">UNREGISTERED</text><text fill="#eeeeee" stroke="none" font-family="Arial" font-size="24px" font-style="normal" font-weight="normal" text-decoration="none" x="600" y="330">UNREGISTERED</text><text fill="#eeeeee" stroke="none" font-family="Arial" font-size="24px" font-style="normal" font-weight="normal" text-decoration="none" x="600" y="360">UNREGISTERED</text><text fill="#eeeeee" stroke="none" font-family="Arial" font-size="24px" font-style="normal" font-weight="normal" text-decoration="none" x="600" y="390">UNREGISTERED</text><text fill="#eeeeee" stroke="none" font-family="Arial" font-size="24px" font-style="normal" font-weight="normal" text-decoration="none" x="600" y="420">UNREGISTERED</text><text fill="#eeeeee" stroke="none" font-family="Arial" font-size="24px" font-style="normal" font-weight="normal" text-decoration="none" x="600" y="450">UNREGISTERED</text><text fill="#eeeeee" stroke="none" font-family="Arial" font-size="24px" font-style="normal" font-weight="normal" text-decoration="none" x="600" y="480">UNREGISTERED</text><text fill="#eeeeee" stroke="none" font-family="Arial" font-size="24px" font-style="normal" font-weight="normal" text-decoration="none" x="800" y="0">UNREGISTERED</text><text fill="#eeeeee" stroke="none" font-family="Arial" font-size="24px" font-style="normal" font-weight="normal" text-decoration="none" x="800" y="30">UNREGISTERED</text><text fill="#eeeeee" stroke="none" font-family="Arial" font-size="24px" font-style="normal" font-weight="normal" text-decoration="none" x="800" y="60">UNREGISTERED</text><text fill="#eeeeee" stroke="none" font-family="Arial" font-size="24px" font-style="normal" font-weight="normal" text-decoration="none" x="800" y="90">UNREGISTERED</text><text fill="#eeeeee" stroke="none" font-family="Arial" font-size="24px" font-style="normal" font-weight="normal" text-decoration="none" x="800" y="120">UNREGISTERED</text><text fill="#eeeeee" stroke="none" font-family="Arial" font-size="24px" font-style="normal" font-weight="normal" text-decoration="none" x="800" y="150">UNREGISTERED</text><text fill="#eeeeee" stroke="none" font-family="Arial" font-size="24px" font-style="normal" font-weight="normal" text-decoration="none" x="800" y="180">UNREGISTERED</text><text fill="#eeeeee" stroke="none" font-family="Arial" font-size="24px" font-style="normal" font-weight="normal" text-decoration="none" x="800" y="210">UNREGISTERED</text><text fill="#eeeeee" stroke="none" font-family="Arial" font-size="24px" font-style="normal" font-weight="normal" text-decoration="none" x="800" y="240">UNREGISTERED</text><text fill="#eeeeee" stroke="none" font-family="Arial" font-size="24px" font-style="normal" font-weight="normal" text-decoration="none" x="800" y="270">UNREGISTERED</text><text fill="#eeeeee" stroke="none" font-family="Arial" font-size="24px" font-style="normal" font-weight="normal" text-decoration="none" x="800" y="300">UNREGISTERED</text><text fill="#eeeeee" stroke="none" font-family="Arial" font-size="24px" font-style="normal" font-weight="normal" text-decoration="none" x="800" y="330">UNREGISTERED</text><text fill="#eeeeee" stroke="none" font-family="Arial" font-size="24px" font-style="normal" font-weight="normal" text-decoration="none" x="800" y="360">UNREGISTERED</text><text fill="#eeeeee" stroke="none" font-family="Arial" font-size="24px" font-style="normal" font-weight="normal" text-decoration="none" x="800" y="390">UNREGISTERED</text><text fill="#eeeeee" stroke="none" font-family="Arial" font-size="24px" font-style="normal" font-weight="normal" text-decoration="none" x="800" y="420">UNREGISTERED</text><text fill="#eeeeee" stroke="none" font-family="Arial" font-size="24px" font-style="normal" font-weight="normal" text-decoration="none" x="800" y="450">UNREGISTERED</text><text fill="#eeeeee" stroke="none" font-family="Arial" font-size="24px" font-style="normal" font-weight="normal" text-decoration="none" x="800" y="480">UNREGISTERED</text><g transform="translate(-62,-14) scale(1,1)"><path fill="none" stroke="#000000" d="M 72 24 L 904 24 L 904 496 L 72 496 L 72 24" stroke-miterlimit="10"/></g><g transform="translate(-62,-14) scale(1,1)"><path fill="#ffffff" stroke="none" d="M 72 24 L 72 46 L 181.92626953125 46 L 192.92626953125 35 L 192.92626953125 24 L 72 24"/></g><g transform="translate(-62,-14) scale(1,1)"><path fill="none" stroke="#000000" d="M 72 24 L 72 46 L 181.92626953125 46 L 192.92626953125 35 L 192.92626953125 24 L 72 24 L 72 24" stroke-miterlimit="10"/></g><g transform="translate(-62,-14) scale(1,1)"><g><path fill="none" stroke="none"/><text fill="#000000" stroke="none" font-family="Arial" font-size="13px" font-style="normal" font-weight="normal" text-decoration="none" x="96.72998046875" y="40">show(orderId)</text></g></g><g transform="translate(-62,-14) scale(1,1)"><g><path fill="none" stroke="none"/><text fill="#000000" stroke="none" font-family="Arial" font-size="13px" font-style="normal" font-weight="bold" text-decoration="none" x="76.279541015625" y="40">sd</text></g></g><g transform="translate(-62,-14) scale(1,1)"><rect fill="#C0C0C0" stroke="none" x="279" y="47" width="71.736328125" height="39" opacity="0.2"/></g><g transform="translate(-62,-14) scale(1,1)"><rect fill="#ffffff" stroke="none" x="272" y="40" width="71.736328125" height="39"/></g><g transform="translate(-62,-14) scale(1,1)"><path fill="none" stroke="#000000" d="M 272 40 L 343.736328125 40 L 343.736328125 79 L 272 79 L 272 40 Z Z" stroke-miterlimit="10"/></g><g transform="translate(-62,-14) scale(1,1)"><g><path fill="none" stroke="none"/><text fill="#000000" stroke="none" font-family="Arial" font-size="13px" font-style="normal" font-weight="bold" text-decoration="none" x="281.5" y="58">: Invoice</text></g></g><g transform="translate(-62,-14) scale(1,1)"><path fill="none" stroke="#000000" d="M 308.5 80 L 308.5 480" stroke-miterlimit="10" stroke-dasharray="3"/></g><g transform="translate(-62,-14) scale(1,1)"><rect fill="#C0C0C0" stroke="none" x="551" y="47" width="71.736328125" height="39" opacity="0.2"/></g><g transform="translate(-62,-14) scale(1,1)"><rect fill="#ffffff" stroke="none" x="544" y="40" width="71.736328125" height="39"/></g><g transform="translate(-62,-14) scale(1,1)"><path fill="none" stroke="#000000" d="M 544 40 L 615.736328125 40 L 615.736328125 79 L 544 79 L 544 40 Z Z" stroke-miterlimit="10"/></g><g transform="translate(-62,-14) scale(1,1)"><g><path fill="none" stroke="none"/><text fill="#000000" stroke="none" font-family="Arial" font-size="13px" font-style="normal" font-weight="bold" text-decoration="none" x="561.444091796875" y="58">: User</text></g></g><g transform="translate(-62,-14) scale(1,1)"><path fill="none" stroke="#000000" d="M 580.5 80 L 580.5 472" stroke-miterlimit="10" stroke-dasharray="3"/></g><g transform="translate(-62,-14) scale(1,1)"><rect fill="#C0C0C0" stroke="none" x="823" y="47" width="71.736328125" height="39" opacity="0.2"/></g><g transform="translate(-62,-14) scale(1,1)"><rect fill="#ffffff" stroke="none" x="816" y="40" width="71.736328125" height="39"/></g><g transform="translate(-62,-14) scale(1,1)"><path fill="none" stroke="#000000" d="M 816 40 L 887.736328125 40 L 887.736328125 79 L 816 79 L 816 40 Z Z" stroke-miterlimit="10"/></g><g transform="translate(-62,-14) scale(1,1)"><g><path fill="none" stroke="none"/><text fill="#000000" stroke="none" font-family="Arial" font-size="13px" font-style="normal" font-weight="bold" text-decoration="none" x="830.197265625" y="58">: Order</text></g></g><g transform="translate(-62,-14) scale(1,1)"><path fill="none" stroke="#000000" d="M 852.5 80 L 852.5 472" stroke-miterlimit="10" stroke-dasharray="3"/></g><g transform="translate(-62,-14) scale(1,1)"><path fill="#000000" stroke="none" d="M 80 127.5 C 80 123.6340064 83.1340064 120.5 87 120.5 C 90.8659936 120.5 94 123.6340064 94 127.5 C 94 131.3659936 90.8659936 134.5 87 134.5 C 83.1340064 134.5 80 131.3659936 80 127.5 Z"/></g><g transform="translate(-62,-14) scale(1,1)"><path fill="none" stroke="#000000" d="M 94 128 L 301 128" stroke-miterlimit="10"/></g><g transform="translate(-62,-14) scale(1,1)"><path fill="#000000" stroke="none" d="M 290.83732514237585 132.209517756016 L 301 128 L 290.83732514237585 123.79048224398402"/></g><g transform="translate(-62,-14) scale(1,1)"><path fill="none" stroke="#000000" d="M 290.83732514237585 132.209517756016 L 301 128 L 290.83732514237585 123.79048224398402 L 290.83732514237585 132.209517756016" stroke-miterlimit="10"/></g><g transform="translate(-62,-14) scale(1,1)"><g><path fill="none" stroke="none"/><text fill="#000000" stroke="none" font-family="Arial" font-size="13px" font-style="normal" font-weight="normal" text-decoration="none" x="156.53271484375" y="123">show(orderId)</text></g></g><g transform="translate(-62,-14) scale(1,1)"><rect fill="#ffffff" stroke="none" x="301" y="128" width="13" height="320"/></g><g transform="translate(-62,-14) scale(1,1)"><path fill="none" stroke="#000000" d="M 301 128 L 314 128 L 314 448 L 301 448 L 301 128 Z Z" stroke-miterlimit="10"/></g><g transform="translate(-62,-14) scale(1,1)"><path fill="none" stroke="#000000" d="M 314 160 L 573 160" stroke-miterlimit="10"/></g><g transform="translate(-62,-14) scale(1,1)"><path fill="#000000" stroke="none" d="M 562.8373251423759 164.209517756016 L 573 160 L 562.8373251423758 155.790482243984"/></g><g transform="translate(-62,-14) scale(1,1)"><path fill="none" stroke="#000000" d="M 562.8373251423759 164.209517756016 L 573 160 L 562.8373251423758 155.790482243984 L 562.8373251423759 164.209517756016" stroke-miterlimit="10"/></g><g transform="translate(-62,-14) scale(1,1)"><g><path fill="none" stroke="none"/><text fill="#000000" stroke="none" font-family="Arial" font-size="13px" font-style="normal" font-weight="normal" text-decoration="none" x="339.53271484375" y="155">getUserFromAttribute(attributeUser)</text></g></g><g transform="translate(-62,-14) scale(1,1)"><rect fill="#ffffff" stroke="none" x="573" y="160" width="13" height="28"/></g><g transform="translate(-62,-14) scale(1,1)"><path fill="none" stroke="#000000" d="M 573 160 L 586 160 L 586 188 L 573 188 L 573 160 Z Z" stroke-miterlimit="10"/></g><g transform="translate(-62,-14) scale(1,1)"><path fill="none" stroke="#000000" d="M 573 178 L 314 178" stroke-miterlimit="10" stroke-dasharray="3"/></g><g transform="translate(-62,-14) scale(1,1)"><path fill="none" stroke="#000000" d="M 324.16267485762415 173.790482243984 L 314 178 L 324.16267485762415 182.209517756016" stroke-miterlimit="10"/></g><g transform="translate(-62,-14) scale(1,1)"><g><path fill="none" stroke="none"/><text fill="#000000" stroke="none" font-family="Arial" font-size="13px" font-style="normal" font-weight="normal" text-decoration="none" x="429.53271484375" y="191.5">user</text></g></g><g transform="translate(-62,-14) scale(1,1)"><path fill="none" stroke="#000000" d="M 314 224 L 845 224" stroke-miterlimit="10"/></g><g transform="translate(-62,-14) scale(1,1)"><path fill="#000000" stroke="none" d="M 834.8373251423759 228.209517756016 L 845 224 L 834.8373251423758 219.790482243984"/></g><g transform="translate(-62,-14) scale(1,1)"><path fill="none" stroke="#000000" d="M 834.8373251423759 228.209517756016 L 845 224 L 834.8373251423758 219.790482243984 L 834.8373251423759 228.209517756016" stroke-miterlimit="10"/></g><g transform="translate(-62,-14) scale(1,1)"><g><path fill="none" stroke="none"/><text fill="#000000" stroke="none" font-family="Arial" font-size="13px" font-style="normal" font-weight="normal" text-decoration="none" x="515.53271484375" y="219">getOrderById(orderId)</text></g></g><g transform="translate(-62,-14) scale(1,1)"><rect fill="#ffffff" stroke="none" x="845" y="224" width="13" height="28"/></g><g transform="translate(-62,-14) scale(1,1)"><path fill="none" stroke="#000000" d="M 845 224 L 858 224 L 858 252 L 845 252 L 845 224 Z Z" stroke-miterlimit="10"/></g><g transform="translate(-62,-14) scale(1,1)"><path fill="none" stroke="#000000" d="M 845 241 L 314 241" stroke-miterlimit="10" stroke-dasharray="3"/></g><g transform="translate(-62,-14) scale(1,1)"><path fill="none" stroke="#000000" d="M 324.16267485762415 236.790482243984 L 314 241 L 324.16267485762415 245.209517756016" stroke-miterlimit="10"/></g><g transform="translate(-62,-14) scale(1,1)"><g><path fill="none" stroke="none"/><text fill="#000000" stroke="none" font-family="Arial" font-size="13px" font-style="normal" font-weight="normal" text-decoration="none" x="562.53271484375" y="256">order</text></g></g><g transform="translate(-62,-14) scale(1,1)"><path fill="none" stroke="#000000" d="M 314 290 L 845 290" stroke-miterlimit="10"/></g><g transform="translate(-62,-14) scale(1,1)"><path fill="#000000" stroke="none" d="M 834.8373251423759 294.209517756016 L 845 290 L 834.8373251423758 285.790482243984"/></g><g transform="translate(-62,-14) scale(1,1)"><path fill="none" stroke="#000000" d="M 834.8373251423759 294.209517756016 L 845 290 L 834.8373251423758 285.790482243984 L 834.8373251423759 294.209517756016" stroke-miterlimit="10"/></g><g transform="translate(-62,-14) scale(1,1)"><g><path fill="none" stroke="none"/><text fill="#000000" stroke="none" font-family="Arial" font-size="13px" font-style="normal" font-weight="normal" text-decoration="none" x="529.53271484375" y="285">getOrderDetails()</text></g></g><g transform="translate(-62,-14) scale(1,1)"><rect fill="#ffffff" stroke="none" x="845" y="290" width="13" height="28"/></g><g transform="translate(-62,-14) scale(1,1)"><path fill="none" stroke="#000000" d="M 845 290 L 858 290 L 858 318 L 845 318 L 845 290 Z Z" stroke-miterlimit="10"/></g><g transform="translate(-62,-14) scale(1,1)"><path fill="none" stroke="#000000" d="M 845 304 L 314 304" stroke-miterlimit="10" stroke-dasharray="3"/></g><g transform="translate(-62,-14) scale(1,1)"><path fill="none" stroke="#000000" d="M 324.16267485762415 299.790482243984 L 314 304 L 324.16267485762415 308.209517756016" stroke-miterlimit="10"/></g><g transform="translate(-62,-14) scale(1,1)"><g><path fill="none" stroke="none"/><text fill="#000000" stroke="none" font-family="Arial" font-size="13px" font-style="normal" font-weight="normal" text-decoration="none" x="536.53271484375" y="319">orderDetailList</text></g></g><g transform="translate(-62,-14) scale(1,1)"><path fill="none" stroke="#000000" d="M 314 345 L 845 345" stroke-miterlimit="10"/></g><g transform="translate(-62,-14) scale(1,1)"><path fill="#000000" stroke="none" d="M 834.8373251423759 349.209517756016 L 845 345 L 834.8373251423758 340.790482243984"/></g><g transform="translate(-62,-14) scale(1,1)"><path fill="none" stroke="#000000" d="M 834.8373251423759 349.209517756016 L 845 345 L 834.8373251423758 340.790482243984 L 834.8373251423759 349.209517756016" stroke-miterlimit="10"/></g><g transform="translate(-62,-14) scale(1,1)"><g><path fill="none" stroke="none"/><text fill="#000000" stroke="none" font-family="Arial" font-size="13px" font-style="normal" font-weight="normal" text-decoration="none" x="489.53271484375" y="340">checkOrderStatusById(orderId)</text></g></g><g transform="translate(-62,-14) scale(1,1)"><rect fill="#ffffff" stroke="none" x="845" y="345" width="13" height="28"/></g><g transform="translate(-62,-14) scale(1,1)"><path fill="none" stroke="#000000" d="M 845 345 L 858 345 L 858 373 L 845 373 L 845 345 Z Z" stroke-miterlimit="10"/></g><g transform="translate(-62,-14) scale(1,1)"><path fill="none" stroke="#000000" d="M 845 360 L 314 360" stroke-miterlimit="10" stroke-dasharray="3"/></g><g transform="translate(-62,-14) scale(1,1)"><path fill="none" stroke="#000000" d="M 324.16267485762415 355.790482243984 L 314 360 L 324.16267485762415 364.209517756016" stroke-miterlimit="10"/></g><g transform="translate(-62,-14) scale(1,1)"><g><path fill="none" stroke="none"/><text fill="#000000" stroke="none" font-family="Arial" font-size="13px" font-style="normal" font-weight="normal" text-decoration="none" x="535.53271484375" y="375">checkedStatus</text></g></g></g></svg>