<svg version="1.1" xmlns="http://www.w3.org/2000/svg" xmlns:xlink="http://www.w3.org/1999/xlink" width="532" height="340"><defs/><g><text fill="#eeeeee" stroke="none" font-family="Arial" font-size="24px" font-style="normal" font-weight="normal" text-decoration="none" x="0" y="0">UNREGISTERED</text><text fill="#eeeeee" stroke="none" font-family="Arial" font-size="24px" font-style="normal" font-weight="normal" text-decoration="none" x="0" y="30">UNREGISTERED</text><text fill="#eeeeee" stroke="none" font-family="Arial" font-size="24px" font-style="normal" font-weight="normal" text-decoration="none" x="0" y="60">UNREGISTERED</text><text fill="#eeeeee" stroke="none" font-family="Arial" font-size="24px" font-style="normal" font-weight="normal" text-decoration="none" x="0" y="90">UNREGISTERED</text><text fill="#eeeeee" stroke="none" font-family="Arial" font-size="24px" font-style="normal" font-weight="normal" text-decoration="none" x="0" y="120">UNREGISTERED</text><text fill="#eeeeee" stroke="none" font-family="Arial" font-size="24px" font-style="normal" font-weight="normal" text-decoration="none" x="0" y="150">UNREGISTERED</text><text fill="#eeeeee" stroke="none" font-family="Arial" font-size="24px" font-style="normal" font-weight="normal" text-decoration="none" x="0" y="180">UNREGISTERED</text><text fill="#eeeeee" stroke="none" font-family="Arial" font-size="24px" font-style="normal" font-weight="normal" text-decoration="none" x="0" y="210">UNREGISTERED</text><text fill="#eeeeee" stroke="none" font-family="Arial" font-size="24px" font-style="normal" font-weight="normal" text-decoration="none" x="0" y="240">UNREGISTERED</text><text fill="#eeeeee" stroke="none" font-family="Arial" font-size="24px" font-style="normal" font-weight="normal" text-decoration="none" x="0" y="270">UNREGISTERED</text><text fill="#eeeeee" stroke="none" font-family="Arial" font-size="24px" font-style="normal" font-weight="normal" text-decoration="none" x="0" y="300">UNREGISTERED</text><text fill="#eeeeee" stroke="none" font-family="Arial" font-size="24px" font-style="normal" font-weight="normal" text-decoration="none" x="0" y="330">UNREGISTERED</text><text fill="#eeeeee" stroke="none" font-family="Arial" font-size="24px" font-style="normal" font-weight="normal" text-decoration="none" x="200" y="0">UNREGISTERED</text><text fill="#eeeeee" stroke="none" font-family="Arial" font-size="24px" font-style="normal" font-weight="normal" text-decoration="none" x="200" y="30">UNREGISTERED</text><text fill="#eeeeee" stroke="none" font-family="Arial" font-size="24px" font-style="normal" font-weight="normal" text-decoration="none" x="200" y="60">UNREGISTERED</text><text fill="#eeeeee" stroke="none" font-family="Arial" font-size="24px" font-style="normal" font-weight="normal" text-decoration="none" x="200" y="90">UNREGISTERED</text><text fill="#eeeeee" stroke="none" font-family="Arial" font-size="24px" font-style="normal" font-weight="normal" text-decoration="none" x="200" y="120">UNREGISTERED</text><text fill="#eeeeee" stroke="none" font-family="Arial" font-size="24px" font-style="normal" font-weight="normal" text-decoration="none" x="200" y="150">UNREGISTERED</text><text fill="#eeeeee" stroke="none" font-family="Arial" font-size="24px" font-style="normal" font-weight="normal" text-decoration="none" x="200" y="180">UNREGISTERED</text><text fill="#eeeeee" stroke="none" font-family="Arial" font-size="24px" font-style="normal" font-weight="normal" text-decoration="none" x="200" y="210">UNREGISTERED</text><text fill="#eeeeee" stroke="none" font-family="Arial" font-size="24px" font-style="normal" font-weight="normal" text-decoration="none" x="200" y="240">UNREGISTERED</text><text fill="#eeeeee" stroke="none" font-family="Arial" font-size="24px" font-style="normal" font-weight="normal" text-decoration="none" x="200" y="270">UNREGISTERED</text><text fill="#eeeeee" stroke="none" font-family="Arial" font-size="24px" font-style="normal" font-weight="normal" text-decoration="none" x="200" y="300">UNREGISTERED</text><text fill="#eeeeee" stroke="none" font-family="Arial" font-size="24px" font-style="normal" font-weight="normal" text-decoration="none" x="200" y="330">UNREGISTERED</text><text fill="#eeeeee" stroke="none" font-family="Arial" font-size="24px" font-style="normal" font-weight="normal" text-decoration="none" x="400" y="0">UNREGISTERED</text><text fill="#eeeeee" stroke="none" font-family="Arial" font-size="24px" font-style="normal" font-weight="normal" text-decoration="none" x="400" y="30">UNREGISTERED</text><text fill="#eeeeee" stroke="none" font-family="Arial" font-size="24px" font-style="normal" font-weight="normal" text-decoration="none" x="400" y="60">UNREGISTERED</text><text fill="#eeeeee" stroke="none" font-family="Arial" font-size="24px" font-style="normal" font-weight="normal" text-decoration="none" x="400" y="90">UNREGISTERED</text><text fill="#eeeeee" stroke="none" font-family="Arial" font-size="24px" font-style="normal" font-weight="normal" text-decoration="none" x="400" y="120">UNREGISTERED</text><text fill="#eeeeee" stroke="none" font-family="Arial" font-size="24px" font-style="normal" font-weight="normal" text-decoration="none" x="400" y="150">UNREGISTERED</text><text fill="#eeeeee" stroke="none" font-family="Arial" font-size="24px" font-style="normal" font-weight="normal" text-decoration="none" x="400" y="180">UNREGISTERED</text><text fill="#eeeeee" stroke="none" font-family="Arial" font-size="24px" font-style="normal" font-weight="normal" text-decoration="none" x="400" y="210">UNREGISTERED</text><text fill="#eeeeee" stroke="none" font-family="Arial" font-size="24px" font-style="normal" font-weight="normal" text-decoration="none" x="400" y="240">UNREGISTERED</text><text fill="#eeeeee" stroke="none" font-family="Arial" font-size="24px" font-style="normal" font-weight="normal" text-decoration="none" x="400" y="270">UNREGISTERED</text><text fill="#eeeeee" stroke="none" font-family="Arial" font-size="24px" font-style="normal" font-weight="normal" text-decoration="none" x="400" y="300">UNREGISTERED</text><text fill="#eeeeee" stroke="none" font-family="Arial" font-size="24px" font-style="normal" font-weight="normal" text-decoration="none" x="400" y="330">UNREGISTERED</text><g transform="translate(-134,-14) scale(1,1)"><path fill="none" stroke="#000000" d="M 144 24 L 656 24 L 656 344 L 144 344 L 144 24" stroke-miterlimit="10"/></g><g transform="translate(-134,-14) scale(1,1)"><path fill="#ffffff" stroke="none" d="M 144 24 L 144 46 L 240.92626953125 46 L 251.92626953125 35 L 251.92626953125 24 L 144 24"/></g><g transform="translate(-134,-14) scale(1,1)"><path fill="none" stroke="#000000" d="M 144 24 L 144 46 L 240.92626953125 46 L 251.92626953125 35 L 251.92626953125 24 L 144 24 L 144 24" stroke-miterlimit="10"/></g><g transform="translate(-134,-14) scale(1,1)"><g><path fill="none" stroke="none"/><text fill="#000000" stroke="none" font-family="Arial" font-size="13px" font-style="normal" font-weight="normal" text-decoration="none" x="168.72998046875" y="40">showProfile</text></g></g><g transform="translate(-134,-14) scale(1,1)"><g><path fill="none" stroke="none"/><text fill="#000000" stroke="none" font-family="Arial" font-size="13px" font-style="normal" font-weight="bold" text-decoration="none" x="148.279541015625" y="40">sd</text></g></g><g transform="translate(-134,-14) scale(1,1)"><rect fill="#C0C0C0" stroke="none" x="335" y="47" width="71.736328125" height="39" opacity="0.2"/></g><g transform="translate(-134,-14) scale(1,1)"><rect fill="#ffffff" stroke="none" x="328" y="40" width="71.736328125" height="39"/></g><g transform="translate(-134,-14) scale(1,1)"><path fill="none" stroke="#000000" d="M 328 40 L 399.736328125 40 L 399.736328125 79 L 328 79 L 328 40 Z Z" stroke-miterlimit="10"/></g><g transform="translate(-134,-14) scale(1,1)"><g><path fill="none" stroke="none"/><text fill="#000000" stroke="none" font-family="Arial" font-size="13px" font-style="normal" font-weight="bold" text-decoration="none" x="345.444091796875" y="58">: User</text></g></g><g transform="translate(-134,-14) scale(1,1)"><path fill="none" stroke="#000000" d="M 364.5 80 L 364.5 320" stroke-miterlimit="10" stroke-dasharray="3"/></g><g transform="translate(-134,-14) scale(1,1)"><path fill="#000000" stroke="none" d="M 168 119.5 C 168 115.6340064 171.1340064 112.5 175 112.5 C 178.8659936 112.5 182 115.6340064 182 119.5 C 182 123.3659936 178.8659936 126.5 175 126.5 C 171.1340064 126.5 168 123.3659936 168 119.5 Z"/></g><g transform="translate(-134,-14) scale(1,1)"><path fill="none" stroke="#000000" d="M 182 120 L 357 120" stroke-miterlimit="10"/></g><g transform="translate(-134,-14) scale(1,1)"><path fill="#000000" stroke="none" d="M 346.83732514237585 124.20951775601598 L 357 120 L 346.83732514237585 115.79048224398402"/></g><g transform="translate(-134,-14) scale(1,1)"><path fill="none" stroke="#000000" d="M 346.83732514237585 124.20951775601598 L 357 120 L 346.83732514237585 115.79048224398402 L 346.83732514237585 124.20951775601598" stroke-miterlimit="10"/></g><g transform="translate(-134,-14) scale(1,1)"><g><path fill="none" stroke="none"/><text fill="#000000" stroke="none" font-family="Arial" font-size="13px" font-style="normal" font-weight="normal" text-decoration="none" x="231.53271484375" y="115">showProfile()</text></g></g><g transform="translate(-134,-14) scale(1,1)"><rect fill="#ffffff" stroke="none" x="357" y="120" width="13" height="179"/></g><g transform="translate(-134,-14) scale(1,1)"><path fill="none" stroke="#000000" d="M 357 120 L 370 120 L 370 299 L 357 299 L 357 120 Z Z" stroke-miterlimit="10"/></g><g transform="translate(-134,-14) scale(1,1)"><path fill="none" stroke="#000000" d="M 370 152 L 400 152 L 400 172 L 377 172" stroke-miterlimit="10"/></g><g transform="translate(-134,-14) scale(1,1)"><path fill="#000000" stroke="none" d="M 387.16267485762415 167.790482243984 L 377 172 L 387.16267485762415 176.209517756016"/></g><g transform="translate(-134,-14) scale(1,1)"><path fill="none" stroke="#000000" d="M 387.16267485762415 167.790482243984 L 377 172 L 387.16267485762415 176.209517756016 L 387.16267485762415 167.790482243984" stroke-miterlimit="10"/></g><g transform="translate(-134,-14) scale(1,1)"><g><path fill="none" stroke="none"/><text fill="#000000" stroke="none" font-family="Arial" font-size="13px" font-style="normal" font-weight="normal" text-decoration="none" x="408.53271484375" y="166">getUserFromAttribute(attributeUser)</text></g></g><g transform="translate(-134,-14) scale(1,1)"><rect fill="#ffffff" stroke="none" x="364" y="172" width="13" height="28"/></g><g transform="translate(-134,-14) scale(1,1)"><path fill="none" stroke="#000000" d="M 364 172 L 377 172 L 377 200 L 364 200 L 364 172 Z Z" stroke-miterlimit="10"/></g><g transform="translate(-134,-14) scale(1,1)"><path fill="none" stroke="#000000" d="M 370 248 L 400 248 L 400 268 L 377 268" stroke-miterlimit="10"/></g><g transform="translate(-134,-14) scale(1,1)"><path fill="#000000" stroke="none" d="M 387.16267485762415 263.790482243984 L 377 268 L 387.16267485762415 272.209517756016"/></g><g transform="translate(-134,-14) scale(1,1)"><path fill="none" stroke="#000000" d="M 387.16267485762415 263.790482243984 L 377 268 L 387.16267485762415 272.209517756016 L 387.16267485762415 263.790482243984" stroke-miterlimit="10"/></g><g transform="translate(-134,-14) scale(1,1)"><g><path fill="none" stroke="none"/><text fill="#000000" stroke="none" font-family="Arial" font-size="13px" font-style="normal" font-weight="normal" text-decoration="none" x="415.53271484375" y="262">getByUserId(userId)</text></g></g><g transform="translate(-134,-14) scale(1,1)"><rect fill="#ffffff" stroke="none" x="364" y="268" width="13" height="28"/></g><g transform="translate(-134,-14) scale(1,1)"><path fill="none" stroke="#000000" d="M 364 268 L 377 268 L 377 296 L 364 296 L 364 268 Z Z" stroke-miterlimit="10"/></g></g></svg>