<svg version="1.1" xmlns="http://www.w3.org/2000/svg" xmlns:xlink="http://www.w3.org/1999/xlink" width="711" height="284"><defs/><g><text fill="#eeeeee" stroke="none" font-family="Arial" font-size="24px" font-style="normal" font-weight="normal" text-decoration="none" x="0" y="0">UNREGISTERED</text><text fill="#eeeeee" stroke="none" font-family="Arial" font-size="24px" font-style="normal" font-weight="normal" text-decoration="none" x="0" y="30">UNREGISTERED</text><text fill="#eeeeee" stroke="none" font-family="Arial" font-size="24px" font-style="normal" font-weight="normal" text-decoration="none" x="0" y="60">UNREGISTERED</text><text fill="#eeeeee" stroke="none" font-family="Arial" font-size="24px" font-style="normal" font-weight="normal" text-decoration="none" x="0" y="90">UNREGISTERED</text><text fill="#eeeeee" stroke="none" font-family="Arial" font-size="24px" font-style="normal" font-weight="normal" text-decoration="none" x="0" y="120">UNREGISTERED</text><text fill="#eeeeee" stroke="none" font-family="Arial" font-size="24px" font-style="normal" font-weight="normal" text-decoration="none" x="0" y="150">UNREGISTERED</text><text fill="#eeeeee" stroke="none" font-family="Arial" font-size="24px" font-style="normal" font-weight="normal" text-decoration="none" x="0" y="180">UNREGISTERED</text><text fill="#eeeeee" stroke="none" font-family="Arial" font-size="24px" font-style="normal" font-weight="normal" text-decoration="none" x="0" y="210">UNREGISTERED</text><text fill="#eeeeee" stroke="none" font-family="Arial" font-size="24px" font-style="normal" font-weight="normal" text-decoration="none" x="0" y="240">UNREGISTERED</text><text fill="#eeeeee" stroke="none" font-family="Arial" font-size="24px" font-style="normal" font-weight="normal" text-decoration="none" x="0" y="270">UNREGISTERED</text><text fill="#eeeeee" stroke="none" font-family="Arial" font-size="24px" font-style="normal" font-weight="normal" text-decoration="none" x="200" y="0">UNREGISTERED</text><text fill="#eeeeee" stroke="none" font-family="Arial" font-size="24px" font-style="normal" font-weight="normal" text-decoration="none" x="200" y="30">UNREGISTERED</text><text fill="#eeeeee" stroke="none" font-family="Arial" font-size="24px" font-style="normal" font-weight="normal" text-decoration="none" x="200" y="60">UNREGISTERED</text><text fill="#eeeeee" stroke="none" font-family="Arial" font-size="24px" font-style="normal" font-weight="normal" text-decoration="none" x="200" y="90">UNREGISTERED</text><text fill="#eeeeee" stroke="none" font-family="Arial" font-size="24px" font-style="normal" font-weight="normal" text-decoration="none" x="200" y="120">UNREGISTERED</text><text fill="#eeeeee" stroke="none" font-family="Arial" font-size="24px" font-style="normal" font-weight="normal" text-decoration="none" x="200" y="150">UNREGISTERED</text><text fill="#eeeeee" stroke="none" font-family="Arial" font-size="24px" font-style="normal" font-weight="normal" text-decoration="none" x="200" y="180">UNREGISTERED</text><text fill="#eeeeee" stroke="none" font-family="Arial" font-size="24px" font-style="normal" font-weight="normal" text-decoration="none" x="200" y="210">UNREGISTERED</text><text fill="#eeeeee" stroke="none" font-family="Arial" font-size="24px" font-style="normal" font-weight="normal" text-decoration="none" x="200" y="240">UNREGISTERED</text><text fill="#eeeeee" stroke="none" font-family="Arial" font-size="24px" font-style="normal" font-weight="normal" text-decoration="none" x="200" y="270">UNREGISTERED</text><text fill="#eeeeee" stroke="none" font-family="Arial" font-size="24px" font-style="normal" font-weight="normal" text-decoration="none" x="400" y="0">UNREGISTERED</text><text fill="#eeeeee" stroke="none" font-family="Arial" font-size="24px" font-style="normal" font-weight="normal" text-decoration="none" x="400" y="30">UNREGISTERED</text><text fill="#eeeeee" stroke="none" font-family="Arial" font-size="24px" font-style="normal" font-weight="normal" text-decoration="none" x="400" y="60">UNREGISTERED</text><text fill="#eeeeee" stroke="none" font-family="Arial" font-size="24px" font-style="normal" font-weight="normal" text-decoration="none" x="400" y="90">UNREGISTERED</text><text fill="#eeeeee" stroke="none" font-family="Arial" font-size="24px" font-style="normal" font-weight="normal" text-decoration="none" x="400" y="120">UNREGISTERED</text><text fill="#eeeeee" stroke="none" font-family="Arial" font-size="24px" font-style="normal" font-weight="normal" text-decoration="none" x="400" y="150">UNREGISTERED</text><text fill="#eeeeee" stroke="none" font-family="Arial" font-size="24px" font-style="normal" font-weight="normal" text-decoration="none" x="400" y="180">UNREGISTERED</text><text fill="#eeeeee" stroke="none" font-family="Arial" font-size="24px" font-style="normal" font-weight="normal" text-decoration="none" x="400" y="210">UNREGISTERED</text><text fill="#eeeeee" stroke="none" font-family="Arial" font-size="24px" font-style="normal" font-weight="normal" text-decoration="none" x="400" y="240">UNREGISTERED</text><text fill="#eeeeee" stroke="none" font-family="Arial" font-size="24px" font-style="normal" font-weight="normal" text-decoration="none" x="400" y="270">UNREGISTERED</text><text fill="#eeeeee" stroke="none" font-family="Arial" font-size="24px" font-style="normal" font-weight="normal" text-decoration="none" x="600" y="0">UNREGISTERED</text><text fill="#eeeeee" stroke="none" font-family="Arial" font-size="24px" font-style="normal" font-weight="normal" text-decoration="none" x="600" y="30">UNREGISTERED</text><text fill="#eeeeee" stroke="none" font-family="Arial" font-size="24px" font-style="normal" font-weight="normal" text-decoration="none" x="600" y="60">UNREGISTERED</text><text fill="#eeeeee" stroke="none" font-family="Arial" font-size="24px" font-style="normal" font-weight="normal" text-decoration="none" x="600" y="90">UNREGISTERED</text><text fill="#eeeeee" stroke="none" font-family="Arial" font-size="24px" font-style="normal" font-weight="normal" text-decoration="none" x="600" y="120">UNREGISTERED</text><text fill="#eeeeee" stroke="none" font-family="Arial" font-size="24px" font-style="normal" font-weight="normal" text-decoration="none" x="600" y="150">UNREGISTERED</text><text fill="#eeeeee" stroke="none" font-family="Arial" font-size="24px" font-style="normal" font-weight="normal" text-decoration="none" x="600" y="180">UNREGISTERED</text><text fill="#eeeeee" stroke="none" font-family="Arial" font-size="24px" font-style="normal" font-weight="normal" text-decoration="none" x="600" y="210">UNREGISTERED</text><text fill="#eeeeee" stroke="none" font-family="Arial" font-size="24px" font-style="normal" font-weight="normal" text-decoration="none" x="600" y="240">UNREGISTERED</text><text fill="#eeeeee" stroke="none" font-family="Arial" font-size="24px" font-style="normal" font-weight="normal" text-decoration="none" x="600" y="270">UNREGISTERED</text><g transform="translate(-134,-78) scale(1,1)"><path fill="none" stroke="#000000" d="M 144 88 L 835 88 L 835 352 L 144 352 L 144 88" stroke-miterlimit="10"/></g><g transform="translate(-134,-78) scale(1,1)"><path fill="#ffffff" stroke="none" d="M 144 88 L 144 110 L 313.89892578125 110 L 324.89892578125 99 L 324.89892578125 88 L 144 88"/></g><g transform="translate(-134,-78) scale(1,1)"><path fill="none" stroke="#000000" d="M 144 88 L 144 110 L 313.89892578125 110 L 324.89892578125 99 L 324.89892578125 88 L 144 88 L 144 88" stroke-miterlimit="10"/></g><g transform="translate(-134,-78) scale(1,1)"><g><path fill="none" stroke="none"/><text fill="#000000" stroke="none" font-family="Arial" font-size="13px" font-style="normal" font-weight="normal" text-decoration="none" x="168.72998046875" y="104">processForgotPassword</text></g></g><g transform="translate(-134,-78) scale(1,1)"><g><path fill="none" stroke="none"/><text fill="#000000" stroke="none" font-family="Arial" font-size="13px" font-style="normal" font-weight="bold" text-decoration="none" x="148.279541015625" y="104">sd</text></g></g><g transform="translate(-134,-78) scale(1,1)"><rect fill="#C0C0C0" stroke="none" x="359" y="295" width="99" height="29" opacity="0.2"/></g><g transform="translate(-134,-78) scale(1,1)"><rect fill="#ffffff" stroke="none" x="352" y="288" width="99" height="29"/></g><g transform="translate(-134,-78) scale(1,1)"><path fill="none" stroke="#000000" d="M 352 288 L 451 288 L 451 317 L 352 317 L 352 288 Z Z" stroke-miterlimit="10"/></g><g transform="translate(-134,-78) scale(1,1)"><rect fill="#ffffff" stroke="none" x="352" y="288" width="99" height="29"/></g><g transform="translate(-134,-78) scale(1,1)"><path fill="none" stroke="#000000" d="M 352 288 L 451 288 L 451 317 L 352 317 L 352 288 Z Z" stroke-miterlimit="10"/></g><g transform="translate(-134,-78) scale(1,1)"><g><path fill="none" stroke="none"/><text fill="#000000" stroke="none" font-family="Arial" font-size="13px" font-style="normal" font-weight="bold" text-decoration="none" x="371.529541015625" y="306">: Account</text></g></g><g transform="translate(-134,-78) scale(1,1)"><rect fill="#C0C0C0" stroke="none" x="711" y="295" width="99" height="29" opacity="0.2"/></g><g transform="translate(-134,-78) scale(1,1)"><rect fill="#ffffff" stroke="none" x="704" y="288" width="99" height="29"/></g><g transform="translate(-134,-78) scale(1,1)"><path fill="none" stroke="#000000" d="M 704 288 L 803 288 L 803 317 L 704 317 L 704 288 Z Z" stroke-miterlimit="10"/></g><g transform="translate(-134,-78) scale(1,1)"><rect fill="#ffffff" stroke="none" x="704" y="288" width="99" height="29"/></g><g transform="translate(-134,-78) scale(1,1)"><path fill="none" stroke="#000000" d="M 704 288 L 803 288 L 803 317 L 704 317 L 704 288 Z Z" stroke-miterlimit="10"/></g><g transform="translate(-134,-78) scale(1,1)"><g><path fill="none" stroke="none"/><text fill="#000000" stroke="none" font-family="Arial" font-size="13px" font-style="normal" font-weight="bold" text-decoration="none" x="735.075927734375" y="306">: User</text></g></g><g transform="translate(-134,-78) scale(1,1)"><path fill="none" stroke="#000000" d="M 401 288 L 401 267 L 480 267 L 480 302 L 451 302" stroke-miterlimit="10"/></g><g transform="translate(-134,-78) scale(1,1)"><path fill="none" stroke="#000000" d="M 489 286 L 489 246" stroke-miterlimit="10"/></g><g transform="translate(-134,-78) scale(1,1)"><path fill="#000000" stroke="none" d="M 484 274 L 489 286 L 493 274"/></g><g transform="translate(-134,-78) scale(1,1)"><g><path fill="none" stroke="none"/><text fill="#000000" stroke="none" font-family="Arial" font-size="13px" font-style="normal" font-weight="normal" text-decoration="none" x="224.65380859375" y="259">1: updateResetPasswordToken(token, email)</text></g></g><g transform="translate(-134,-78) scale(1,1)"><path fill="none" stroke="#000000" d="M 452 302 L 703 302" stroke-miterlimit="10"/></g><g transform="translate(-134,-78) scale(1,1)"><path fill="none" stroke="#000000" d="M 597 292 L 557 292" stroke-miterlimit="10"/></g><g transform="translate(-134,-78) scale(1,1)"><path fill="#000000" stroke="none" d="M 585 296 L 597 292 L 585 287"/></g><g transform="translate(-134,-78) scale(1,1)"><g><path fill="none" stroke="none"/><text fill="#000000" stroke="none" font-family="Arial" font-size="13px" font-style="normal" font-weight="normal" text-decoration="none" x="546.892333984375" y="283">1.1: getUserByEmail(email)</text></g></g><g transform="translate(-134,-78) scale(1,1)"><path fill="none" stroke="#000000" d="M 401 288 L 401 267 L 480 267 L 480 302 L 451 302" stroke-miterlimit="10"/></g><g transform="translate(-134,-78) scale(1,1)"><path fill="none" stroke="#000000" d="M 495 247 L 495 207" stroke-miterlimit="10"/></g><g transform="translate(-134,-78) scale(1,1)"><path fill="#000000" stroke="none" d="M 490 235 L 495 247 L 499 235"/></g><g transform="translate(-134,-78) scale(1,1)"><g><path fill="none" stroke="none"/><text fill="#000000" stroke="none" font-family="Arial" font-size="13px" font-style="normal" font-weight="normal" text-decoration="none" x="203.584228515625" y="218">1.2: getAccountByName(accountNameFromUser)</text></g></g><g transform="translate(-134,-78) scale(1,1)"><path fill="none" stroke="#000000" d="M 401 288 L 401 267 L 480 267 L 480 302 L 451 302" stroke-miterlimit="10"/></g><g transform="translate(-134,-78) scale(1,1)"><path fill="none" stroke="#000000" d="M 503 206 L 503 166" stroke-miterlimit="10"/></g><g transform="translate(-134,-78) scale(1,1)"><path fill="#000000" stroke="none" d="M 498 194 L 503 206 L 507 194"/></g><g transform="translate(-134,-78) scale(1,1)"><g><path fill="none" stroke="none"/><text fill="#000000" stroke="none" font-family="Arial" font-size="13px" font-style="normal" font-weight="normal" text-decoration="none" x="387.52734375" y="177">1.3: save(account)</text></g></g><g transform="translate(-134,-78) scale(1,1)"><path fill="none" stroke="#000000" d="M 401 288 L 401 267 L 480 267 L 480 302 L 451 302" stroke-miterlimit="10"/></g><g transform="translate(-134,-78) scale(1,1)"><path fill="none" stroke="#000000" d="M 511 167 L 511 127" stroke-miterlimit="10"/></g><g transform="translate(-134,-78) scale(1,1)"><path fill="#000000" stroke="none" d="M 506 155 L 511 167 L 515 155"/></g><g transform="translate(-134,-78) scale(1,1)"><g><path fill="none" stroke="none"/><text fill="#000000" stroke="none" font-family="Arial" font-size="13px" font-style="normal" font-weight="normal" text-decoration="none" x="264.873291015625" y="138">2: sendEmail(email, resretPasswordLink)</text></g></g><g transform="translate(-134,-78) scale(1,1)"><path fill="none" stroke="#000000" d="M 208 304 L 349 304" stroke-miterlimit="10"/></g><g transform="translate(-134,-78) scale(1,1)"><path fill="none" stroke="#000000" d="M 401 288 L 401 267 L 480 267 L 480 302 L 451 302" stroke-miterlimit="10"/></g><g transform="translate(-134,-78) scale(1,1)"><path fill="none" stroke="#000000" d="M 452 302 L 703 302" stroke-miterlimit="10"/></g><g transform="translate(-134,-78) scale(1,1)"><path fill="none" stroke="#000000" d="M 263 294 L 223 294" stroke-miterlimit="10"/></g><g transform="translate(-134,-78) scale(1,1)"><path fill="#000000" stroke="none" d="M 251 298 L 263 294 L 251 289"/></g><g transform="translate(-134,-78) scale(1,1)"><g><path fill="none" stroke="none"/><text fill="#000000" stroke="none" font-family="Arial" font-size="13px" font-style="normal" font-weight="normal" text-decoration="none" x="150.247802734375" y="288"> processForgotPassword(email)</text></g></g></g></svg>