<svg version="1.1" xmlns="http://www.w3.org/2000/svg" xmlns:xlink="http://www.w3.org/1999/xlink" width="780" height="412"><defs/><g><text fill="#eeeeee" stroke="none" font-family="Arial" font-size="24px" font-style="normal" font-weight="normal" text-decoration="none" x="0" y="0">UNREGISTERED</text><text fill="#eeeeee" stroke="none" font-family="Arial" font-size="24px" font-style="normal" font-weight="normal" text-decoration="none" x="0" y="30">UNREGISTERED</text><text fill="#eeeeee" stroke="none" font-family="Arial" font-size="24px" font-style="normal" font-weight="normal" text-decoration="none" x="0" y="60">UNREGISTERED</text><text fill="#eeeeee" stroke="none" font-family="Arial" font-size="24px" font-style="normal" font-weight="normal" text-decoration="none" x="0" y="90">UNREGISTERED</text><text fill="#eeeeee" stroke="none" font-family="Arial" font-size="24px" font-style="normal" font-weight="normal" text-decoration="none" x="0" y="120">UNREGISTERED</text><text fill="#eeeeee" stroke="none" font-family="Arial" font-size="24px" font-style="normal" font-weight="normal" text-decoration="none" x="0" y="150">UNREGISTERED</text><text fill="#eeeeee" stroke="none" font-family="Arial" font-size="24px" font-style="normal" font-weight="normal" text-decoration="none" x="0" y="180">UNREGISTERED</text><text fill="#eeeeee" stroke="none" font-family="Arial" font-size="24px" font-style="normal" font-weight="normal" text-decoration="none" x="0" y="210">UNREGISTERED</text><text fill="#eeeeee" stroke="none" font-family="Arial" font-size="24px" font-style="normal" font-weight="normal" text-decoration="none" x="0" y="240">UNREGISTERED</text><text fill="#eeeeee" stroke="none" font-family="Arial" font-size="24px" font-style="normal" font-weight="normal" text-decoration="none" x="0" y="270">UNREGISTERED</text><text fill="#eeeeee" stroke="none" font-family="Arial" font-size="24px" font-style="normal" font-weight="normal" text-decoration="none" x="0" y="300">UNREGISTERED</text><text fill="#eeeeee" stroke="none" font-family="Arial" font-size="24px" font-style="normal" font-weight="normal" text-decoration="none" x="0" y="330">UNREGISTERED</text><text fill="#eeeeee" stroke="none" font-family="Arial" font-size="24px" font-style="normal" font-weight="normal" text-decoration="none" x="0" y="360">UNREGISTERED</text><text fill="#eeeeee" stroke="none" font-family="Arial" font-size="24px" font-style="normal" font-weight="normal" text-decoration="none" x="0" y="390">UNREGISTERED</text><text fill="#eeeeee" stroke="none" font-family="Arial" font-size="24px" font-style="normal" font-weight="normal" text-decoration="none" x="200" y="0">UNREGISTERED</text><text fill="#eeeeee" stroke="none" font-family="Arial" font-size="24px" font-style="normal" font-weight="normal" text-decoration="none" x="200" y="30">UNREGISTERED</text><text fill="#eeeeee" stroke="none" font-family="Arial" font-size="24px" font-style="normal" font-weight="normal" text-decoration="none" x="200" y="60">UNREGISTERED</text><text fill="#eeeeee" stroke="none" font-family="Arial" font-size="24px" font-style="normal" font-weight="normal" text-decoration="none" x="200" y="90">UNREGISTERED</text><text fill="#eeeeee" stroke="none" font-family="Arial" font-size="24px" font-style="normal" font-weight="normal" text-decoration="none" x="200" y="120">UNREGISTERED</text><text fill="#eeeeee" stroke="none" font-family="Arial" font-size="24px" font-style="normal" font-weight="normal" text-decoration="none" x="200" y="150">UNREGISTERED</text><text fill="#eeeeee" stroke="none" font-family="Arial" font-size="24px" font-style="normal" font-weight="normal" text-decoration="none" x="200" y="180">UNREGISTERED</text><text fill="#eeeeee" stroke="none" font-family="Arial" font-size="24px" font-style="normal" font-weight="normal" text-decoration="none" x="200" y="210">UNREGISTERED</text><text fill="#eeeeee" stroke="none" font-family="Arial" font-size="24px" font-style="normal" font-weight="normal" text-decoration="none" x="200" y="240">UNREGISTERED</text><text fill="#eeeeee" stroke="none" font-family="Arial" font-size="24px" font-style="normal" font-weight="normal" text-decoration="none" x="200" y="270">UNREGISTERED</text><text fill="#eeeeee" stroke="none" font-family="Arial" font-size="24px" font-style="normal" font-weight="normal" text-decoration="none" x="200" y="300">UNREGISTERED</text><text fill="#eeeeee" stroke="none" font-family="Arial" font-size="24px" font-style="normal" font-weight="normal" text-decoration="none" x="200" y="330">UNREGISTERED</text><text fill="#eeeeee" stroke="none" font-family="Arial" font-size="24px" font-style="normal" font-weight="normal" text-decoration="none" x="200" y="360">UNREGISTERED</text><text fill="#eeeeee" stroke="none" font-family="Arial" font-size="24px" font-style="normal" font-weight="normal" text-decoration="none" x="200" y="390">UNREGISTERED</text><text fill="#eeeeee" stroke="none" font-family="Arial" font-size="24px" font-style="normal" font-weight="normal" text-decoration="none" x="400" y="0">UNREGISTERED</text><text fill="#eeeeee" stroke="none" font-family="Arial" font-size="24px" font-style="normal" font-weight="normal" text-decoration="none" x="400" y="30">UNREGISTERED</text><text fill="#eeeeee" stroke="none" font-family="Arial" font-size="24px" font-style="normal" font-weight="normal" text-decoration="none" x="400" y="60">UNREGISTERED</text><text fill="#eeeeee" stroke="none" font-family="Arial" font-size="24px" font-style="normal" font-weight="normal" text-decoration="none" x="400" y="90">UNREGISTERED</text><text fill="#eeeeee" stroke="none" font-family="Arial" font-size="24px" font-style="normal" font-weight="normal" text-decoration="none" x="400" y="120">UNREGISTERED</text><text fill="#eeeeee" stroke="none" font-family="Arial" font-size="24px" font-style="normal" font-weight="normal" text-decoration="none" x="400" y="150">UNREGISTERED</text><text fill="#eeeeee" stroke="none" font-family="Arial" font-size="24px" font-style="normal" font-weight="normal" text-decoration="none" x="400" y="180">UNREGISTERED</text><text fill="#eeeeee" stroke="none" font-family="Arial" font-size="24px" font-style="normal" font-weight="normal" text-decoration="none" x="400" y="210">UNREGISTERED</text><text fill="#eeeeee" stroke="none" font-family="Arial" font-size="24px" font-style="normal" font-weight="normal" text-decoration="none" x="400" y="240">UNREGISTERED</text><text fill="#eeeeee" stroke="none" font-family="Arial" font-size="24px" font-style="normal" font-weight="normal" text-decoration="none" x="400" y="270">UNREGISTERED</text><text fill="#eeeeee" stroke="none" font-family="Arial" font-size="24px" font-style="normal" font-weight="normal" text-decoration="none" x="400" y="300">UNREGISTERED</text><text fill="#eeeeee" stroke="none" font-family="Arial" font-size="24px" font-style="normal" font-weight="normal" text-decoration="none" x="400" y="330">UNREGISTERED</text><text fill="#eeeeee" stroke="none" font-family="Arial" font-size="24px" font-style="normal" font-weight="normal" text-decoration="none" x="400" y="360">UNREGISTERED</text><text fill="#eeeeee" stroke="none" font-family="Arial" font-size="24px" font-style="normal" font-weight="normal" text-decoration="none" x="400" y="390">UNREGISTERED</text><text fill="#eeeeee" stroke="none" font-family="Arial" font-size="24px" font-style="normal" font-weight="normal" text-decoration="none" x="600" y="0">UNREGISTERED</text><text fill="#eeeeee" stroke="none" font-family="Arial" font-size="24px" font-style="normal" font-weight="normal" text-decoration="none" x="600" y="30">UNREGISTERED</text><text fill="#eeeeee" stroke="none" font-family="Arial" font-size="24px" font-style="normal" font-weight="normal" text-decoration="none" x="600" y="60">UNREGISTERED</text><text fill="#eeeeee" stroke="none" font-family="Arial" font-size="24px" font-style="normal" font-weight="normal" text-decoration="none" x="600" y="90">UNREGISTERED</text><text fill="#eeeeee" stroke="none" font-family="Arial" font-size="24px" font-style="normal" font-weight="normal" text-decoration="none" x="600" y="120">UNREGISTERED</text><text fill="#eeeeee" stroke="none" font-family="Arial" font-size="24px" font-style="normal" font-weight="normal" text-decoration="none" x="600" y="150">UNREGISTERED</text><text fill="#eeeeee" stroke="none" font-family="Arial" font-size="24px" font-style="normal" font-weight="normal" text-decoration="none" x="600" y="180">UNREGISTERED</text><text fill="#eeeeee" stroke="none" font-family="Arial" font-size="24px" font-style="normal" font-weight="normal" text-decoration="none" x="600" y="210">UNREGISTERED</text><text fill="#eeeeee" stroke="none" font-family="Arial" font-size="24px" font-style="normal" font-weight="normal" text-decoration="none" x="600" y="240">UNREGISTERED</text><text fill="#eeeeee" stroke="none" font-family="Arial" font-size="24px" font-style="normal" font-weight="normal" text-decoration="none" x="600" y="270">UNREGISTERED</text><text fill="#eeeeee" stroke="none" font-family="Arial" font-size="24px" font-style="normal" font-weight="normal" text-decoration="none" x="600" y="300">UNREGISTERED</text><text fill="#eeeeee" stroke="none" font-family="Arial" font-size="24px" font-style="normal" font-weight="normal" text-decoration="none" x="600" y="330">UNREGISTERED</text><text fill="#eeeeee" stroke="none" font-family="Arial" font-size="24px" font-style="normal" font-weight="normal" text-decoration="none" x="600" y="360">UNREGISTERED</text><text fill="#eeeeee" stroke="none" font-family="Arial" font-size="24px" font-style="normal" font-weight="normal" text-decoration="none" x="600" y="390">UNREGISTERED</text><g transform="translate(-70,-118) scale(1,1)"><path fill="none" stroke="#000000" d="M 80 128 L 840 128 L 840 520 L 80 520 L 80 128" stroke-miterlimit="10"/></g><g transform="translate(-70,-118) scale(1,1)"><path fill="#ffffff" stroke="none" d="M 80 128 L 80 150 L 164.63720703125 150 L 175.63720703125 139 L 175.63720703125 128 L 80 128"/></g><g transform="translate(-70,-118) scale(1,1)"><path fill="none" stroke="#000000" d="M 80 128 L 80 150 L 164.63720703125 150 L 175.63720703125 139 L 175.63720703125 128 L 80 128 L 80 128" stroke-miterlimit="10"/></g><g transform="translate(-70,-118) scale(1,1)"><g><path fill="none" stroke="none"/><text fill="#000000" stroke="none" font-family="Arial" font-size="13px" font-style="normal" font-weight="normal" text-decoration="none" x="104.72998046875" y="144">showCart</text></g></g><g transform="translate(-70,-118) scale(1,1)"><g><path fill="none" stroke="none"/><text fill="#000000" stroke="none" font-family="Arial" font-size="13px" font-style="normal" font-weight="bold" text-decoration="none" x="84.279541015625" y="144">sd</text></g></g><g transform="translate(-70,-118) scale(1,1)"><rect fill="#C0C0C0" stroke="none" x="399" y="247" width="99" height="29" opacity="0.2"/></g><g transform="translate(-70,-118) scale(1,1)"><rect fill="#ffffff" stroke="none" x="392" y="240" width="99" height="29"/></g><g transform="translate(-70,-118) scale(1,1)"><path fill="none" stroke="#000000" d="M 392 240 L 491 240 L 491 269 L 392 269 L 392 240 Z Z" stroke-miterlimit="10"/></g><g transform="translate(-70,-118) scale(1,1)"><rect fill="#ffffff" stroke="none" x="392" y="240" width="99" height="29"/></g><g transform="translate(-70,-118) scale(1,1)"><path fill="none" stroke="#000000" d="M 392 240 L 491 240 L 491 269 L 392 269 L 392 240 Z Z" stroke-miterlimit="10"/></g><g transform="translate(-70,-118) scale(1,1)"><g><path fill="none" stroke="none"/><text fill="#000000" stroke="none" font-family="Arial" font-size="13px" font-style="normal" font-weight="bold" text-decoration="none" x="424.5263671875" y="258">: Cart</text></g></g><g transform="translate(-70,-118) scale(1,1)"><rect fill="#C0C0C0" stroke="none" x="727" y="247" width="99" height="29" opacity="0.2"/></g><g transform="translate(-70,-118) scale(1,1)"><rect fill="#ffffff" stroke="none" x="720" y="240" width="99" height="29"/></g><g transform="translate(-70,-118) scale(1,1)"><path fill="none" stroke="#000000" d="M 720 240 L 819 240 L 819 269 L 720 269 L 720 240 Z Z" stroke-miterlimit="10"/></g><g transform="translate(-70,-118) scale(1,1)"><rect fill="#ffffff" stroke="none" x="720" y="240" width="99" height="29"/></g><g transform="translate(-70,-118) scale(1,1)"><path fill="none" stroke="#000000" d="M 720 240 L 819 240 L 819 269 L 720 269 L 720 240 Z Z" stroke-miterlimit="10"/></g><g transform="translate(-70,-118) scale(1,1)"><g><path fill="none" stroke="none"/><text fill="#000000" stroke="none" font-family="Arial" font-size="13px" font-style="normal" font-weight="bold" text-decoration="none" x="751.075927734375" y="258">: User</text></g></g><g transform="translate(-70,-118) scale(1,1)"><rect fill="#C0C0C0" stroke="none" x="399" y="471" width="99" height="29" opacity="0.2"/></g><g transform="translate(-70,-118) scale(1,1)"><rect fill="#ffffff" stroke="none" x="392" y="464" width="99" height="29"/></g><g transform="translate(-70,-118) scale(1,1)"><path fill="none" stroke="#000000" d="M 392 464 L 491 464 L 491 493 L 392 493 L 392 464 Z Z" stroke-miterlimit="10"/></g><g transform="translate(-70,-118) scale(1,1)"><rect fill="#ffffff" stroke="none" x="392" y="464" width="99" height="29"/></g><g transform="translate(-70,-118) scale(1,1)"><path fill="none" stroke="#000000" d="M 392 464 L 491 464 L 491 493 L 392 493 L 392 464 Z Z" stroke-miterlimit="10"/></g><g transform="translate(-70,-118) scale(1,1)"><g><path fill="none" stroke="none"/><text fill="#000000" stroke="none" font-family="Arial" font-size="13px" font-style="normal" font-weight="bold" text-decoration="none" x="406.10546875" y="482">: GuestCart</text></g></g><g transform="translate(-70,-118) scale(1,1)"><path fill="none" stroke="#000000" d="M 492 254 L 719 254" stroke-miterlimit="10"/></g><g transform="translate(-70,-118) scale(1,1)"><path fill="none" stroke="#000000" d="M 351 238 L 311 238" stroke-miterlimit="10"/></g><g transform="translate(-70,-118) scale(1,1)"><path fill="#000000" stroke="none" d="M 339 242 L 351 238 L 339 233"/></g><g transform="translate(-70,-118) scale(1,1)"><g><path fill="none" stroke="none"/><text fill="#000000" stroke="none" font-family="Arial" font-size="13px" font-style="normal" font-weight="normal" text-decoration="none" x="298.21728515625" y="232">showCart()</text></g></g><g transform="translate(-70,-118) scale(1,1)"><path fill="none" stroke="#000000" d="M 248 248 L 391 248" stroke-miterlimit="10"/></g><g transform="translate(-70,-118) scale(1,1)"><path fill="none" stroke="#000000" d="M 492 254 L 719 254" stroke-miterlimit="10"/></g><g transform="translate(-70,-118) scale(1,1)"><path fill="none" stroke="#000000" d="M 625 244 L 585 244" stroke-miterlimit="10"/></g><g transform="translate(-70,-118) scale(1,1)"><path fill="#000000" stroke="none" d="M 613 248 L 625 244 L 613 239"/></g><g transform="translate(-70,-118) scale(1,1)"><g><path fill="none" stroke="none"/><text fill="#000000" stroke="none" font-family="Arial" font-size="13px" font-style="normal" font-weight="normal" text-decoration="none" x="527.103271484375" y="235">1: getUserFromAttribute(attributeUser)</text></g></g><g transform="translate(-70,-118) scale(1,1)"><path fill="none" stroke="#000000" d="M 441 270 L 441 463" stroke-miterlimit="10"/></g><g transform="translate(-70,-118) scale(1,1)"><path fill="none" stroke="#000000" d="M 451 385 L 451 345" stroke-miterlimit="10"/></g><g transform="translate(-70,-118) scale(1,1)"><path fill="#000000" stroke="none" d="M 446 373 L 451 385 L 455 373"/></g><g transform="translate(-70,-118) scale(1,1)"><g><path fill="none" stroke="none"/><text fill="#000000" stroke="none" font-family="Arial" font-size="13px" font-style="normal" font-weight="normal" text-decoration="none" x="455.307861328125" y="363">2: getGuestCartFromAttribute(attributeGuestCart)</text></g></g><g transform="translate(-70,-118) scale(1,1)"><path fill="none" stroke="#000000" d="M 441 240 L 441 219 L 520 219 L 520 254 L 491 254" stroke-miterlimit="10"/></g><g transform="translate(-70,-118) scale(1,1)"><path fill="none" stroke="#000000" d="M 527 215 L 527 175" stroke-miterlimit="10"/></g><g transform="translate(-70,-118) scale(1,1)"><path fill="#000000" stroke="none" d="M 522 203 L 527 215 L 531 203"/></g><g transform="translate(-70,-118) scale(1,1)"><g><path fill="none" stroke="none"/><text fill="#000000" stroke="none" font-family="Arial" font-size="13px" font-style="normal" font-weight="normal" text-decoration="none" x="534.6591796875" y="187">3: getCurrentCartByUserId(userId)</text></g></g><g transform="translate(-70,-118) scale(1,1)"><path fill="none" stroke="#000000" d="M 441 240 L 441 219 L 520 219 L 520 254 L 491 254" stroke-miterlimit="10"/></g><g transform="translate(-70,-118) scale(1,1)"><path fill="none" stroke="#000000" d="M 535 175 L 535 135" stroke-miterlimit="10"/></g><g transform="translate(-70,-118) scale(1,1)"><path fill="#000000" stroke="none" d="M 530 163 L 535 175 L 539 163"/></g><g transform="translate(-70,-118) scale(1,1)"><g><path fill="none" stroke="none"/><text fill="#000000" stroke="none" font-family="Arial" font-size="13px" font-style="normal" font-weight="normal" text-decoration="none" x="543.372314453125" y="149">4: getCartItemList()</text></g></g><g transform="translate(-70,-118) scale(1,1)"><path fill="none" stroke="#000000" d="M 441 270 L 441 463" stroke-miterlimit="10"/></g><g transform="translate(-70,-118) scale(1,1)"><path fill="none" stroke="#000000" d="M 463 422 L 463 382" stroke-miterlimit="10"/></g><g transform="translate(-70,-118) scale(1,1)"><path fill="#000000" stroke="none" d="M 458 410 L 463 422 L 467 410"/></g><g transform="translate(-70,-118) scale(1,1)"><g><path fill="none" stroke="none"/><text fill="#000000" stroke="none" font-family="Arial" font-size="13px" font-style="normal" font-weight="normal" text-decoration="none" x="470.568359375" y="395">5.a [user = null &amp;&amp; guestCart != null]: getCartItemList()</text></g></g><g transform="translate(-70,-118) scale(1,1)"><rect fill="#C0C0C0" stroke="none" x="207" y="471" width="99" height="29" opacity="0.2"/></g><g transform="translate(-70,-118) scale(1,1)"><rect fill="#ffffff" stroke="none" x="200" y="464" width="99" height="29"/></g><g transform="translate(-70,-118) scale(1,1)"><path fill="none" stroke="#000000" d="M 200 464 L 299 464 L 299 493 L 200 493 L 200 464 Z Z" stroke-miterlimit="10"/></g><g transform="translate(-70,-118) scale(1,1)"><rect fill="#ffffff" stroke="none" x="200" y="464" width="99" height="29"/></g><g transform="translate(-70,-118) scale(1,1)"><path fill="none" stroke="#000000" d="M 200 464 L 299 464 L 299 493 L 200 493 L 200 464 Z Z" stroke-miterlimit="10"/></g><g transform="translate(-70,-118) scale(1,1)"><g><path fill="none" stroke="none"/><text fill="#000000" stroke="none" font-family="Arial" font-size="13px" font-style="normal" font-weight="bold" text-decoration="none" x="219.161376953125" y="482">: CartItem</text></g></g><g transform="translate(-70,-118) scale(1,1)"><path fill="none" stroke="#000000" d="M 427 270 L 262 463" stroke-miterlimit="10"/></g><g transform="translate(-70,-118) scale(1,1)"><path fill="none" stroke="#000000" d="M 320 372 L 345 342" stroke-miterlimit="10"/></g><g transform="translate(-70,-118) scale(1,1)"><path fill="#000000" stroke="none" d="M 323 360 L 320 372 L 330 366"/></g><g transform="translate(-70,-118) scale(1,1)"><g><path fill="none" stroke="none"/><text fill="#000000" stroke="none" font-family="Arial" font-size="13px" font-style="normal" font-weight="normal" text-decoration="none" x="124.952392578125" y="338.5">5.b [user = null &amp; guestCart =</text><text fill="#000000" stroke="none" font-family="Arial" font-size="13px" font-style="normal" font-weight="normal" text-decoration="none" x="86.3046875" y="351.5">null]:&lt;&lt;create&gt;&gt; newArrayList&lt;CartItem&gt;()</text></g></g></g></svg>