<svg version="1.1" xmlns="http://www.w3.org/2000/svg" xmlns:xlink="http://www.w3.org/1999/xlink" width="724" height="308"><defs/><g><text fill="#eeeeee" stroke="none" font-family="Arial" font-size="24px" font-style="normal" font-weight="normal" text-decoration="none" x="0" y="0">UNREGISTERED</text><text fill="#eeeeee" stroke="none" font-family="Arial" font-size="24px" font-style="normal" font-weight="normal" text-decoration="none" x="0" y="30">UNREGISTERED</text><text fill="#eeeeee" stroke="none" font-family="Arial" font-size="24px" font-style="normal" font-weight="normal" text-decoration="none" x="0" y="60">UNREGISTERED</text><text fill="#eeeeee" stroke="none" font-family="Arial" font-size="24px" font-style="normal" font-weight="normal" text-decoration="none" x="0" y="90">UNREGISTERED</text><text fill="#eeeeee" stroke="none" font-family="Arial" font-size="24px" font-style="normal" font-weight="normal" text-decoration="none" x="0" y="120">UNREGISTERED</text><text fill="#eeeeee" stroke="none" font-family="Arial" font-size="24px" font-style="normal" font-weight="normal" text-decoration="none" x="0" y="150">UNREGISTERED</text><text fill="#eeeeee" stroke="none" font-family="Arial" font-size="24px" font-style="normal" font-weight="normal" text-decoration="none" x="0" y="180">UNREGISTERED</text><text fill="#eeeeee" stroke="none" font-family="Arial" font-size="24px" font-style="normal" font-weight="normal" text-decoration="none" x="0" y="210">UNREGISTERED</text><text fill="#eeeeee" stroke="none" font-family="Arial" font-size="24px" font-style="normal" font-weight="normal" text-decoration="none" x="0" y="240">UNREGISTERED</text><text fill="#eeeeee" stroke="none" font-family="Arial" font-size="24px" font-style="normal" font-weight="normal" text-decoration="none" x="0" y="270">UNREGISTERED</text><text fill="#eeeeee" stroke="none" font-family="Arial" font-size="24px" font-style="normal" font-weight="normal" text-decoration="none" x="0" y="300">UNREGISTERED</text><text fill="#eeeeee" stroke="none" font-family="Arial" font-size="24px" font-style="normal" font-weight="normal" text-decoration="none" x="200" y="0">UNREGISTERED</text><text fill="#eeeeee" stroke="none" font-family="Arial" font-size="24px" font-style="normal" font-weight="normal" text-decoration="none" x="200" y="30">UNREGISTERED</text><text fill="#eeeeee" stroke="none" font-family="Arial" font-size="24px" font-style="normal" font-weight="normal" text-decoration="none" x="200" y="60">UNREGISTERED</text><text fill="#eeeeee" stroke="none" font-family="Arial" font-size="24px" font-style="normal" font-weight="normal" text-decoration="none" x="200" y="90">UNREGISTERED</text><text fill="#eeeeee" stroke="none" font-family="Arial" font-size="24px" font-style="normal" font-weight="normal" text-decoration="none" x="200" y="120">UNREGISTERED</text><text fill="#eeeeee" stroke="none" font-family="Arial" font-size="24px" font-style="normal" font-weight="normal" text-decoration="none" x="200" y="150">UNREGISTERED</text><text fill="#eeeeee" stroke="none" font-family="Arial" font-size="24px" font-style="normal" font-weight="normal" text-decoration="none" x="200" y="180">UNREGISTERED</text><text fill="#eeeeee" stroke="none" font-family="Arial" font-size="24px" font-style="normal" font-weight="normal" text-decoration="none" x="200" y="210">UNREGISTERED</text><text fill="#eeeeee" stroke="none" font-family="Arial" font-size="24px" font-style="normal" font-weight="normal" text-decoration="none" x="200" y="240">UNREGISTERED</text><text fill="#eeeeee" stroke="none" font-family="Arial" font-size="24px" font-style="normal" font-weight="normal" text-decoration="none" x="200" y="270">UNREGISTERED</text><text fill="#eeeeee" stroke="none" font-family="Arial" font-size="24px" font-style="normal" font-weight="normal" text-decoration="none" x="200" y="300">UNREGISTERED</text><text fill="#eeeeee" stroke="none" font-family="Arial" font-size="24px" font-style="normal" font-weight="normal" text-decoration="none" x="400" y="0">UNREGISTERED</text><text fill="#eeeeee" stroke="none" font-family="Arial" font-size="24px" font-style="normal" font-weight="normal" text-decoration="none" x="400" y="30">UNREGISTERED</text><text fill="#eeeeee" stroke="none" font-family="Arial" font-size="24px" font-style="normal" font-weight="normal" text-decoration="none" x="400" y="60">UNREGISTERED</text><text fill="#eeeeee" stroke="none" font-family="Arial" font-size="24px" font-style="normal" font-weight="normal" text-decoration="none" x="400" y="90">UNREGISTERED</text><text fill="#eeeeee" stroke="none" font-family="Arial" font-size="24px" font-style="normal" font-weight="normal" text-decoration="none" x="400" y="120">UNREGISTERED</text><text fill="#eeeeee" stroke="none" font-family="Arial" font-size="24px" font-style="normal" font-weight="normal" text-decoration="none" x="400" y="150">UNREGISTERED</text><text fill="#eeeeee" stroke="none" font-family="Arial" font-size="24px" font-style="normal" font-weight="normal" text-decoration="none" x="400" y="180">UNREGISTERED</text><text fill="#eeeeee" stroke="none" font-family="Arial" font-size="24px" font-style="normal" font-weight="normal" text-decoration="none" x="400" y="210">UNREGISTERED</text><text fill="#eeeeee" stroke="none" font-family="Arial" font-size="24px" font-style="normal" font-weight="normal" text-decoration="none" x="400" y="240">UNREGISTERED</text><text fill="#eeeeee" stroke="none" font-family="Arial" font-size="24px" font-style="normal" font-weight="normal" text-decoration="none" x="400" y="270">UNREGISTERED</text><text fill="#eeeeee" stroke="none" font-family="Arial" font-size="24px" font-style="normal" font-weight="normal" text-decoration="none" x="400" y="300">UNREGISTERED</text><text fill="#eeeeee" stroke="none" font-family="Arial" font-size="24px" font-style="normal" font-weight="normal" text-decoration="none" x="600" y="0">UNREGISTERED</text><text fill="#eeeeee" stroke="none" font-family="Arial" font-size="24px" font-style="normal" font-weight="normal" text-decoration="none" x="600" y="30">UNREGISTERED</text><text fill="#eeeeee" stroke="none" font-family="Arial" font-size="24px" font-style="normal" font-weight="normal" text-decoration="none" x="600" y="60">UNREGISTERED</text><text fill="#eeeeee" stroke="none" font-family="Arial" font-size="24px" font-style="normal" font-weight="normal" text-decoration="none" x="600" y="90">UNREGISTERED</text><text fill="#eeeeee" stroke="none" font-family="Arial" font-size="24px" font-style="normal" font-weight="normal" text-decoration="none" x="600" y="120">UNREGISTERED</text><text fill="#eeeeee" stroke="none" font-family="Arial" font-size="24px" font-style="normal" font-weight="normal" text-decoration="none" x="600" y="150">UNREGISTERED</text><text fill="#eeeeee" stroke="none" font-family="Arial" font-size="24px" font-style="normal" font-weight="normal" text-decoration="none" x="600" y="180">UNREGISTERED</text><text fill="#eeeeee" stroke="none" font-family="Arial" font-size="24px" font-style="normal" font-weight="normal" text-decoration="none" x="600" y="210">UNREGISTERED</text><text fill="#eeeeee" stroke="none" font-family="Arial" font-size="24px" font-style="normal" font-weight="normal" text-decoration="none" x="600" y="240">UNREGISTERED</text><text fill="#eeeeee" stroke="none" font-family="Arial" font-size="24px" font-style="normal" font-weight="normal" text-decoration="none" x="600" y="270">UNREGISTERED</text><text fill="#eeeeee" stroke="none" font-family="Arial" font-size="24px" font-style="normal" font-weight="normal" text-decoration="none" x="600" y="300">UNREGISTERED</text><g transform="translate(-86,-14) scale(1,1)"><path fill="none" stroke="#000000" d="M 96 24 L 800 24 L 800 312 L 96 312 L 96 24" stroke-miterlimit="10"/></g><g transform="translate(-86,-14) scale(1,1)"><path fill="#ffffff" stroke="none" d="M 96 24 L 96 46 L 348.9833984375 46 L 359.9833984375 35 L 359.9833984375 24 L 96 24"/></g><g transform="translate(-86,-14) scale(1,1)"><path fill="none" stroke="#000000" d="M 96 24 L 96 46 L 348.9833984375 46 L 359.9833984375 35 L 359.9833984375 24 L 96 24 L 96 24" stroke-miterlimit="10"/></g><g transform="translate(-86,-14) scale(1,1)"><g><path fill="none" stroke="none"/><text fill="#000000" stroke="none" font-family="Arial" font-size="13px" font-style="normal" font-weight="normal" text-decoration="none" x="120.72998046875" y="40">ShowProductListBySortType(ExFlow1)</text></g></g><g transform="translate(-86,-14) scale(1,1)"><g><path fill="none" stroke="none"/><text fill="#000000" stroke="none" font-family="Arial" font-size="13px" font-style="normal" font-weight="bold" text-decoration="none" x="100.279541015625" y="40">sd</text></g></g><g transform="translate(-86,-14) scale(1,1)"><rect fill="#ffffff" stroke="none" x="112" y="120" width="679" height="136"/></g><g transform="translate(-86,-14) scale(1,1)"><path fill="none" stroke="#000000" d="M 112 120 L 791 120 L 791 256 L 112 256 L 112 120 Z Z" stroke-miterlimit="10"/></g><g transform="translate(-86,-14) scale(1,1)"><path fill="#ffffff" stroke="none" d="M 408.9981551846591 47.3 C 408.9981551846591 43.82060576 411.8765569068409 41 415.42724609375 41 C 418.9779352806591 41 421.856337002841 43.82060576 421.856337002841 47.3 C 421.856337002841 50.779394239999995 418.9779352806591 53.6 415.42724609375 53.6 C 411.8765569068409 53.6 408.9981551846591 50.779394239999995 408.9981551846591 47.3 Z"/></g><g transform="translate(-86,-14) scale(1,1)"><path fill="none" stroke="#000000" d="M 408.9981551846591 47.3 C 408.9981551846591 43.82060576 411.8765569068409 41 415.42724609375 41 C 418.9779352806591 41 421.856337002841 43.82060576 421.856337002841 47.3 C 421.856337002841 50.779394239999995 418.9779352806591 53.6 415.42724609375 53.6 C 411.8765569068409 53.6 408.9981551846591 50.779394239999995 408.9981551846591 47.3 Z" stroke-miterlimit="10"/></g><g transform="translate(-86,-14) scale(1,1)"><path fill="none" stroke="#000000" d="M 415.42724609375 53.6 L 415.42724609375 66.4" stroke-miterlimit="10"/></g><g transform="translate(-86,-14) scale(1,1)"><path fill="none" stroke="#000000" d="M 408.61997336647727 58.4 L 422.2345188210228 58.4" stroke-miterlimit="10"/></g><g transform="translate(-86,-14) scale(1,1)"><path fill="none" stroke="#000000" d="M 415.42724609375 66.4 L 405.97270063920456 79" stroke-miterlimit="10"/></g><g transform="translate(-86,-14) scale(1,1)"><path fill="none" stroke="#000000" d="M 415.42724609375 66.4 L 424.8817915482955 79" stroke-miterlimit="10"/></g><g transform="translate(-86,-14) scale(1,1)"><g><path fill="none" stroke="none"/><text fill="#000000" stroke="none" font-family="Arial" font-size="13px" font-style="normal" font-weight="bold" text-decoration="none" x="397.003173828125" y="98">: User</text></g></g><g transform="translate(-86,-14) scale(1,1)"><path fill="none" stroke="#000000" d="M 416.5 105 L 416.5 272" stroke-miterlimit="10" stroke-dasharray="3"/></g><g transform="translate(-86,-14) scale(1,1)"><rect fill="#C0C0C0" stroke="none" x="679" y="47" width="73.18994140625" height="39" opacity="0.2"/></g><g transform="translate(-86,-14) scale(1,1)"><rect fill="#ffffff" stroke="none" x="672" y="40" width="73.18994140625" height="39"/></g><g transform="translate(-86,-14) scale(1,1)"><path fill="none" stroke="#000000" d="M 672 40 L 745.18994140625 40 L 745.18994140625 79 L 672 79 L 672 40 Z Z" stroke-miterlimit="10"/></g><g transform="translate(-86,-14) scale(1,1)"><g><path fill="none" stroke="none"/><text fill="#000000" stroke="none" font-family="Arial" font-size="13px" font-style="normal" font-weight="bold" text-decoration="none" x="681.5" y="58">: System</text></g></g><g transform="translate(-86,-14) scale(1,1)"><path fill="none" stroke="#000000" d="M 709.5 80 L 709.5 272" stroke-miterlimit="10" stroke-dasharray="3"/></g><g transform="translate(-86,-14) scale(1,1)"><g><path fill="none" stroke="none"/><text fill="#000000" stroke="none" font-family="Arial" font-size="13px" font-style="normal" font-weight="normal" text-decoration="none" x="141" y="144">1. Trong trang hiển thị sản phẩm,</text><text fill="#000000" stroke="none" font-family="Arial" font-size="13px" font-style="normal" font-weight="normal" text-decoration="none" x="141" y="157">người dùng tiến hành chọn 1 cách</text><text fill="#000000" stroke="none" font-family="Arial" font-size="13px" font-style="normal" font-weight="normal" text-decoration="none" x="141" y="171">sắp xếp trong phần select "Sắp xếp"</text></g></g><g transform="translate(-86,-14) scale(1,1)"><g><path fill="none" stroke="none"/><text fill="#000000" stroke="none" font-family="Arial" font-size="13px" font-style="normal" font-weight="normal" text-decoration="none" x="141" y="200">2. Hệ thống hiện thị danh sách sản</text><text fill="#000000" stroke="none" font-family="Arial" font-size="13px" font-style="normal" font-weight="normal" text-decoration="none" x="141" y="214">phẩm được sắp xếp theo kiểu sắp</text><text fill="#000000" stroke="none" font-family="Arial" font-size="13px" font-style="normal" font-weight="normal" text-decoration="none" x="141" y="226">xếp đã chọn</text></g></g><g transform="translate(-86,-14) scale(1,1)"><path fill="none" stroke="#000000" d="M 416 144 L 709 144" stroke-miterlimit="10"/></g><g transform="translate(-86,-14) scale(1,1)"><path fill="none" stroke="#000000" d="M 698.8373251423759 148.209517756016 L 709 144 L 698.8373251423758 139.790482243984" stroke-miterlimit="10"/></g><g transform="translate(-86,-14) scale(1,1)"><g><path fill="none" stroke="none"/><text fill="#000000" stroke="none" font-family="Arial" font-size="13px" font-style="normal" font-weight="normal" text-decoration="none" x="431.5" y="139">showProductsByCategory(id, sortType, page)</text></g></g><g transform="translate(-86,-14) scale(1,1)"><path fill="none" stroke="#000000" d="M 709 176 L 416 176" stroke-miterlimit="10" stroke-dasharray="3"/></g><g transform="translate(-86,-14) scale(1,1)"><path fill="none" stroke="#000000" d="M 426.16267485762415 171.790482243984 L 416 176 L 426.16267485762415 180.209517756016" stroke-miterlimit="10"/></g><g transform="translate(-86,-14) scale(1,1)"><g><path fill="none" stroke="none"/><text fill="#000000" stroke="none" font-family="Arial" font-size="13px" font-style="normal" font-weight="normal" text-decoration="none" x="475.89453125" y="191">SortedListProductBySortType</text></g></g></g></svg>