<svg version="1.1" xmlns="http://www.w3.org/2000/svg" xmlns:xlink="http://www.w3.org/1999/xlink" width="558.5673828125" height="244"><defs/><g><text fill="#eeeeee" stroke="none" font-family="Arial" font-size="24px" font-style="normal" font-weight="normal" text-decoration="none" x="0" y="0">UNREGISTERED</text><text fill="#eeeeee" stroke="none" font-family="Arial" font-size="24px" font-style="normal" font-weight="normal" text-decoration="none" x="0" y="30">UNREGISTERED</text><text fill="#eeeeee" stroke="none" font-family="Arial" font-size="24px" font-style="normal" font-weight="normal" text-decoration="none" x="0" y="60">UNREGISTERED</text><text fill="#eeeeee" stroke="none" font-family="Arial" font-size="24px" font-style="normal" font-weight="normal" text-decoration="none" x="0" y="90">UNREGISTERED</text><text fill="#eeeeee" stroke="none" font-family="Arial" font-size="24px" font-style="normal" font-weight="normal" text-decoration="none" x="0" y="120">UNREGISTERED</text><text fill="#eeeeee" stroke="none" font-family="Arial" font-size="24px" font-style="normal" font-weight="normal" text-decoration="none" x="0" y="150">UNREGISTERED</text><text fill="#eeeeee" stroke="none" font-family="Arial" font-size="24px" font-style="normal" font-weight="normal" text-decoration="none" x="0" y="180">UNREGISTERED</text><text fill="#eeeeee" stroke="none" font-family="Arial" font-size="24px" font-style="normal" font-weight="normal" text-decoration="none" x="0" y="210">UNREGISTERED</text><text fill="#eeeeee" stroke="none" font-family="Arial" font-size="24px" font-style="normal" font-weight="normal" text-decoration="none" x="0" y="240">UNREGISTERED</text><text fill="#eeeeee" stroke="none" font-family="Arial" font-size="24px" font-style="normal" font-weight="normal" text-decoration="none" x="200" y="0">UNREGISTERED</text><text fill="#eeeeee" stroke="none" font-family="Arial" font-size="24px" font-style="normal" font-weight="normal" text-decoration="none" x="200" y="30">UNREGISTERED</text><text fill="#eeeeee" stroke="none" font-family="Arial" font-size="24px" font-style="normal" font-weight="normal" text-decoration="none" x="200" y="60">UNREGISTERED</text><text fill="#eeeeee" stroke="none" font-family="Arial" font-size="24px" font-style="normal" font-weight="normal" text-decoration="none" x="200" y="90">UNREGISTERED</text><text fill="#eeeeee" stroke="none" font-family="Arial" font-size="24px" font-style="normal" font-weight="normal" text-decoration="none" x="200" y="120">UNREGISTERED</text><text fill="#eeeeee" stroke="none" font-family="Arial" font-size="24px" font-style="normal" font-weight="normal" text-decoration="none" x="200" y="150">UNREGISTERED</text><text fill="#eeeeee" stroke="none" font-family="Arial" font-size="24px" font-style="normal" font-weight="normal" text-decoration="none" x="200" y="180">UNREGISTERED</text><text fill="#eeeeee" stroke="none" font-family="Arial" font-size="24px" font-style="normal" font-weight="normal" text-decoration="none" x="200" y="210">UNREGISTERED</text><text fill="#eeeeee" stroke="none" font-family="Arial" font-size="24px" font-style="normal" font-weight="normal" text-decoration="none" x="200" y="240">UNREGISTERED</text><text fill="#eeeeee" stroke="none" font-family="Arial" font-size="24px" font-style="normal" font-weight="normal" text-decoration="none" x="400" y="0">UNREGISTERED</text><text fill="#eeeeee" stroke="none" font-family="Arial" font-size="24px" font-style="normal" font-weight="normal" text-decoration="none" x="400" y="30">UNREGISTERED</text><text fill="#eeeeee" stroke="none" font-family="Arial" font-size="24px" font-style="normal" font-weight="normal" text-decoration="none" x="400" y="60">UNREGISTERED</text><text fill="#eeeeee" stroke="none" font-family="Arial" font-size="24px" font-style="normal" font-weight="normal" text-decoration="none" x="400" y="90">UNREGISTERED</text><text fill="#eeeeee" stroke="none" font-family="Arial" font-size="24px" font-style="normal" font-weight="normal" text-decoration="none" x="400" y="120">UNREGISTERED</text><text fill="#eeeeee" stroke="none" font-family="Arial" font-size="24px" font-style="normal" font-weight="normal" text-decoration="none" x="400" y="150">UNREGISTERED</text><text fill="#eeeeee" stroke="none" font-family="Arial" font-size="24px" font-style="normal" font-weight="normal" text-decoration="none" x="400" y="180">UNREGISTERED</text><text fill="#eeeeee" stroke="none" font-family="Arial" font-size="24px" font-style="normal" font-weight="normal" text-decoration="none" x="400" y="210">UNREGISTERED</text><text fill="#eeeeee" stroke="none" font-family="Arial" font-size="24px" font-style="normal" font-weight="normal" text-decoration="none" x="400" y="240">UNREGISTERED</text><g transform="translate(-198,-14) scale(1,1)"><path fill="none" stroke="#000000" d="M 208 24 L 624 24 L 624 248 L 208 248 L 208 24" stroke-miterlimit="10"/></g><g transform="translate(-198,-14) scale(1,1)"><path fill="#ffffff" stroke="none" d="M 208 24 L 208 46 L 277.49169921875 46 L 288.49169921875 35 L 288.49169921875 24 L 208 24"/></g><g transform="translate(-198,-14) scale(1,1)"><path fill="none" stroke="#000000" d="M 208 24 L 208 46 L 277.49169921875 46 L 288.49169921875 35 L 288.49169921875 24 L 208 24 L 208 24" stroke-miterlimit="10"/></g><g transform="translate(-198,-14) scale(1,1)"><g><path fill="none" stroke="none"/><text fill="#000000" stroke="none" font-family="Arial" font-size="13px" font-style="normal" font-weight="normal" text-decoration="none" x="232.72998046875" y="40">update</text></g></g><g transform="translate(-198,-14) scale(1,1)"><g><path fill="none" stroke="none"/><text fill="#000000" stroke="none" font-family="Arial" font-size="13px" font-style="normal" font-weight="bold" text-decoration="none" x="212.279541015625" y="40">sd</text></g></g><g transform="translate(-198,-14) scale(1,1)"><rect fill="#C0C0C0" stroke="none" x="359" y="47" width="78.94091796875" height="39" opacity="0.2"/></g><g transform="translate(-198,-14) scale(1,1)"><rect fill="#ffffff" stroke="none" x="352" y="40" width="78.94091796875" height="39"/></g><g transform="translate(-198,-14) scale(1,1)"><path fill="none" stroke="#000000" d="M 352 40 L 430.94091796875 40 L 430.94091796875 79 L 352 79 L 352 40 Z Z" stroke-miterlimit="10"/></g><g transform="translate(-198,-14) scale(1,1)"><g><path fill="none" stroke="none"/><text fill="#000000" stroke="none" font-family="Arial" font-size="13px" font-style="normal" font-weight="bold" text-decoration="none" x="361.5" y="58">: Account</text></g></g><g transform="translate(-198,-14) scale(1,1)"><path fill="none" stroke="#000000" d="M 392.5 80 L 392.5 232" stroke-miterlimit="10" stroke-dasharray="3"/></g><g transform="translate(-198,-14) scale(1,1)"><path fill="#000000" stroke="none" d="M 232 111.5 C 232 107.6340064 235.1340064 104.5 239 104.5 C 242.8659936 104.5 246 107.6340064 246 111.5 C 246 115.3659936 242.8659936 118.5 239 118.5 C 235.1340064 118.5 232 115.3659936 232 111.5 Z"/></g><g transform="translate(-198,-14) scale(1,1)"><path fill="none" stroke="#000000" d="M 246 112 L 385 112" stroke-miterlimit="10"/></g><g transform="translate(-198,-14) scale(1,1)"><path fill="#000000" stroke="none" d="M 374.83732514237585 116.20951775601598 L 385 112 L 374.83732514237585 107.79048224398402"/></g><g transform="translate(-198,-14) scale(1,1)"><path fill="none" stroke="#000000" d="M 374.83732514237585 116.20951775601598 L 385 112 L 374.83732514237585 107.79048224398402 L 374.83732514237585 116.20951775601598" stroke-miterlimit="10"/></g><g transform="translate(-198,-14) scale(1,1)"><g><path fill="none" stroke="none"/><text fill="#000000" stroke="none" font-family="Arial" font-size="13px" font-style="normal" font-weight="normal" text-decoration="none" x="268.05908203125" y="107">update(account)</text></g></g><g transform="translate(-198,-14) scale(1,1)"><rect fill="#ffffff" stroke="none" x="385" y="112" width="13" height="104"/></g><g transform="translate(-198,-14) scale(1,1)"><path fill="none" stroke="#000000" d="M 385 112 L 398 112 L 398 216 L 385 216 L 385 112 Z Z" stroke-miterlimit="10"/></g><g transform="translate(-198,-14) scale(1,1)"><path fill="none" stroke="#000000" d="M 398 136 L 428 136 L 428 156 L 405 156" stroke-miterlimit="10"/></g><g transform="translate(-198,-14) scale(1,1)"><path fill="#000000" stroke="none" d="M 415.16267485762415 151.790482243984 L 405 156 L 415.16267485762415 160.209517756016"/></g><g transform="translate(-198,-14) scale(1,1)"><path fill="none" stroke="#000000" d="M 415.16267485762415 151.790482243984 L 405 156 L 415.16267485762415 160.209517756016 L 415.16267485762415 151.790482243984" stroke-miterlimit="10"/></g><g transform="translate(-198,-14) scale(1,1)"><g><path fill="none" stroke="none"/><text fill="#000000" stroke="none" font-family="Arial" font-size="13px" font-style="normal" font-weight="normal" text-decoration="none" x="438.307861328125" y="147">update(account)</text></g></g><g transform="translate(-198,-14) scale(1,1)"><rect fill="#ffffff" stroke="none" x="392" y="156" width="13" height="28"/></g><g transform="translate(-198,-14) scale(1,1)"><path fill="none" stroke="#000000" d="M 392 156 L 405 156 L 405 184 L 392 184 L 392 156 Z Z" stroke-miterlimit="10"/></g></g></svg>