<svg version="1.1" xmlns="http://www.w3.org/2000/svg" xmlns:xlink="http://www.w3.org/1999/xlink" width="612" height="420"><defs/><g><text fill="#eeeeee" stroke="none" font-family="Arial" font-size="24px" font-style="normal" font-weight="normal" text-decoration="none" x="0" y="0">UNREGISTERED</text><text fill="#eeeeee" stroke="none" font-family="Arial" font-size="24px" font-style="normal" font-weight="normal" text-decoration="none" x="0" y="30">UNREGISTERED</text><text fill="#eeeeee" stroke="none" font-family="Arial" font-size="24px" font-style="normal" font-weight="normal" text-decoration="none" x="0" y="60">UNREGISTERED</text><text fill="#eeeeee" stroke="none" font-family="Arial" font-size="24px" font-style="normal" font-weight="normal" text-decoration="none" x="0" y="90">UNREGISTERED</text><text fill="#eeeeee" stroke="none" font-family="Arial" font-size="24px" font-style="normal" font-weight="normal" text-decoration="none" x="0" y="120">UNREGISTERED</text><text fill="#eeeeee" stroke="none" font-family="Arial" font-size="24px" font-style="normal" font-weight="normal" text-decoration="none" x="0" y="150">UNREGISTERED</text><text fill="#eeeeee" stroke="none" font-family="Arial" font-size="24px" font-style="normal" font-weight="normal" text-decoration="none" x="0" y="180">UNREGISTERED</text><text fill="#eeeeee" stroke="none" font-family="Arial" font-size="24px" font-style="normal" font-weight="normal" text-decoration="none" x="0" y="210">UNREGISTERED</text><text fill="#eeeeee" stroke="none" font-family="Arial" font-size="24px" font-style="normal" font-weight="normal" text-decoration="none" x="0" y="240">UNREGISTERED</text><text fill="#eeeeee" stroke="none" font-family="Arial" font-size="24px" font-style="normal" font-weight="normal" text-decoration="none" x="0" y="270">UNREGISTERED</text><text fill="#eeeeee" stroke="none" font-family="Arial" font-size="24px" font-style="normal" font-weight="normal" text-decoration="none" x="0" y="300">UNREGISTERED</text><text fill="#eeeeee" stroke="none" font-family="Arial" font-size="24px" font-style="normal" font-weight="normal" text-decoration="none" x="0" y="330">UNREGISTERED</text><text fill="#eeeeee" stroke="none" font-family="Arial" font-size="24px" font-style="normal" font-weight="normal" text-decoration="none" x="0" y="360">UNREGISTERED</text><text fill="#eeeeee" stroke="none" font-family="Arial" font-size="24px" font-style="normal" font-weight="normal" text-decoration="none" x="0" y="390">UNREGISTERED</text><text fill="#eeeeee" stroke="none" font-family="Arial" font-size="24px" font-style="normal" font-weight="normal" text-decoration="none" x="200" y="0">UNREGISTERED</text><text fill="#eeeeee" stroke="none" font-family="Arial" font-size="24px" font-style="normal" font-weight="normal" text-decoration="none" x="200" y="30">UNREGISTERED</text><text fill="#eeeeee" stroke="none" font-family="Arial" font-size="24px" font-style="normal" font-weight="normal" text-decoration="none" x="200" y="60">UNREGISTERED</text><text fill="#eeeeee" stroke="none" font-family="Arial" font-size="24px" font-style="normal" font-weight="normal" text-decoration="none" x="200" y="90">UNREGISTERED</text><text fill="#eeeeee" stroke="none" font-family="Arial" font-size="24px" font-style="normal" font-weight="normal" text-decoration="none" x="200" y="120">UNREGISTERED</text><text fill="#eeeeee" stroke="none" font-family="Arial" font-size="24px" font-style="normal" font-weight="normal" text-decoration="none" x="200" y="150">UNREGISTERED</text><text fill="#eeeeee" stroke="none" font-family="Arial" font-size="24px" font-style="normal" font-weight="normal" text-decoration="none" x="200" y="180">UNREGISTERED</text><text fill="#eeeeee" stroke="none" font-family="Arial" font-size="24px" font-style="normal" font-weight="normal" text-decoration="none" x="200" y="210">UNREGISTERED</text><text fill="#eeeeee" stroke="none" font-family="Arial" font-size="24px" font-style="normal" font-weight="normal" text-decoration="none" x="200" y="240">UNREGISTERED</text><text fill="#eeeeee" stroke="none" font-family="Arial" font-size="24px" font-style="normal" font-weight="normal" text-decoration="none" x="200" y="270">UNREGISTERED</text><text fill="#eeeeee" stroke="none" font-family="Arial" font-size="24px" font-style="normal" font-weight="normal" text-decoration="none" x="200" y="300">UNREGISTERED</text><text fill="#eeeeee" stroke="none" font-family="Arial" font-size="24px" font-style="normal" font-weight="normal" text-decoration="none" x="200" y="330">UNREGISTERED</text><text fill="#eeeeee" stroke="none" font-family="Arial" font-size="24px" font-style="normal" font-weight="normal" text-decoration="none" x="200" y="360">UNREGISTERED</text><text fill="#eeeeee" stroke="none" font-family="Arial" font-size="24px" font-style="normal" font-weight="normal" text-decoration="none" x="200" y="390">UNREGISTERED</text><text fill="#eeeeee" stroke="none" font-family="Arial" font-size="24px" font-style="normal" font-weight="normal" text-decoration="none" x="400" y="0">UNREGISTERED</text><text fill="#eeeeee" stroke="none" font-family="Arial" font-size="24px" font-style="normal" font-weight="normal" text-decoration="none" x="400" y="30">UNREGISTERED</text><text fill="#eeeeee" stroke="none" font-family="Arial" font-size="24px" font-style="normal" font-weight="normal" text-decoration="none" x="400" y="60">UNREGISTERED</text><text fill="#eeeeee" stroke="none" font-family="Arial" font-size="24px" font-style="normal" font-weight="normal" text-decoration="none" x="400" y="90">UNREGISTERED</text><text fill="#eeeeee" stroke="none" font-family="Arial" font-size="24px" font-style="normal" font-weight="normal" text-decoration="none" x="400" y="120">UNREGISTERED</text><text fill="#eeeeee" stroke="none" font-family="Arial" font-size="24px" font-style="normal" font-weight="normal" text-decoration="none" x="400" y="150">UNREGISTERED</text><text fill="#eeeeee" stroke="none" font-family="Arial" font-size="24px" font-style="normal" font-weight="normal" text-decoration="none" x="400" y="180">UNREGISTERED</text><text fill="#eeeeee" stroke="none" font-family="Arial" font-size="24px" font-style="normal" font-weight="normal" text-decoration="none" x="400" y="210">UNREGISTERED</text><text fill="#eeeeee" stroke="none" font-family="Arial" font-size="24px" font-style="normal" font-weight="normal" text-decoration="none" x="400" y="240">UNREGISTERED</text><text fill="#eeeeee" stroke="none" font-family="Arial" font-size="24px" font-style="normal" font-weight="normal" text-decoration="none" x="400" y="270">UNREGISTERED</text><text fill="#eeeeee" stroke="none" font-family="Arial" font-size="24px" font-style="normal" font-weight="normal" text-decoration="none" x="400" y="300">UNREGISTERED</text><text fill="#eeeeee" stroke="none" font-family="Arial" font-size="24px" font-style="normal" font-weight="normal" text-decoration="none" x="400" y="330">UNREGISTERED</text><text fill="#eeeeee" stroke="none" font-family="Arial" font-size="24px" font-style="normal" font-weight="normal" text-decoration="none" x="400" y="360">UNREGISTERED</text><text fill="#eeeeee" stroke="none" font-family="Arial" font-size="24px" font-style="normal" font-weight="normal" text-decoration="none" x="400" y="390">UNREGISTERED</text><text fill="#eeeeee" stroke="none" font-family="Arial" font-size="24px" font-style="normal" font-weight="normal" text-decoration="none" x="600" y="0">UNREGISTERED</text><text fill="#eeeeee" stroke="none" font-family="Arial" font-size="24px" font-style="normal" font-weight="normal" text-decoration="none" x="600" y="30">UNREGISTERED</text><text fill="#eeeeee" stroke="none" font-family="Arial" font-size="24px" font-style="normal" font-weight="normal" text-decoration="none" x="600" y="60">UNREGISTERED</text><text fill="#eeeeee" stroke="none" font-family="Arial" font-size="24px" font-style="normal" font-weight="normal" text-decoration="none" x="600" y="90">UNREGISTERED</text><text fill="#eeeeee" stroke="none" font-family="Arial" font-size="24px" font-style="normal" font-weight="normal" text-decoration="none" x="600" y="120">UNREGISTERED</text><text fill="#eeeeee" stroke="none" font-family="Arial" font-size="24px" font-style="normal" font-weight="normal" text-decoration="none" x="600" y="150">UNREGISTERED</text><text fill="#eeeeee" stroke="none" font-family="Arial" font-size="24px" font-style="normal" font-weight="normal" text-decoration="none" x="600" y="180">UNREGISTERED</text><text fill="#eeeeee" stroke="none" font-family="Arial" font-size="24px" font-style="normal" font-weight="normal" text-decoration="none" x="600" y="210">UNREGISTERED</text><text fill="#eeeeee" stroke="none" font-family="Arial" font-size="24px" font-style="normal" font-weight="normal" text-decoration="none" x="600" y="240">UNREGISTERED</text><text fill="#eeeeee" stroke="none" font-family="Arial" font-size="24px" font-style="normal" font-weight="normal" text-decoration="none" x="600" y="270">UNREGISTERED</text><text fill="#eeeeee" stroke="none" font-family="Arial" font-size="24px" font-style="normal" font-weight="normal" text-decoration="none" x="600" y="300">UNREGISTERED</text><text fill="#eeeeee" stroke="none" font-family="Arial" font-size="24px" font-style="normal" font-weight="normal" text-decoration="none" x="600" y="330">UNREGISTERED</text><text fill="#eeeeee" stroke="none" font-family="Arial" font-size="24px" font-style="normal" font-weight="normal" text-decoration="none" x="600" y="360">UNREGISTERED</text><text fill="#eeeeee" stroke="none" font-family="Arial" font-size="24px" font-style="normal" font-weight="normal" text-decoration="none" x="600" y="390">UNREGISTERED</text><g transform="translate(-78,-6) scale(1,1)"><path fill="none" stroke="#000000" d="M 88 16 L 680 16 L 680 416 L 88 416 L 88 16" stroke-miterlimit="10"/></g><g transform="translate(-78,-6) scale(1,1)"><path fill="#ffffff" stroke="none" d="M 88 16 L 88 38 L 145.1962890625 38 L 156.1962890625 27 L 156.1962890625 16 L 88 16"/></g><g transform="translate(-78,-6) scale(1,1)"><path fill="none" stroke="#000000" d="M 88 16 L 88 38 L 145.1962890625 38 L 156.1962890625 27 L 156.1962890625 16 L 88 16 L 88 16" stroke-miterlimit="10"/></g><g transform="translate(-78,-6) scale(1,1)"><g><path fill="none" stroke="none"/><text fill="#000000" stroke="none" font-family="Arial" font-size="13px" font-style="normal" font-weight="normal" text-decoration="none" x="112.72998046875" y="32">login</text></g></g><g transform="translate(-78,-6) scale(1,1)"><g><path fill="none" stroke="none"/><text fill="#000000" stroke="none" font-family="Arial" font-size="13px" font-style="normal" font-weight="bold" text-decoration="none" x="92.279541015625" y="32">sd</text></g></g><g transform="translate(-78,-6) scale(1,1)"><rect fill="#C0C0C0" stroke="none" x="279" y="47" width="78.94091796875" height="39" opacity="0.2"/></g><g transform="translate(-78,-6) scale(1,1)"><rect fill="#ffffff" stroke="none" x="272" y="40" width="78.94091796875" height="39"/></g><g transform="translate(-78,-6) scale(1,1)"><path fill="none" stroke="#000000" d="M 272 40 L 350.94091796875 40 L 350.94091796875 79 L 272 79 L 272 40 Z Z" stroke-miterlimit="10"/></g><g transform="translate(-78,-6) scale(1,1)"><g><path fill="none" stroke="none"/><text fill="#000000" stroke="none" font-family="Arial" font-size="13px" font-style="normal" font-weight="bold" text-decoration="none" x="281.5" y="58">: Account</text></g></g><g transform="translate(-78,-6) scale(1,1)"><path fill="none" stroke="#000000" d="M 312.5 80 L 312.5 368" stroke-miterlimit="10" stroke-dasharray="3"/></g><g transform="translate(-78,-6) scale(1,1)"><path fill="#000000" stroke="none" d="M 112 111.5 C 112 107.6340064 115.1340064 104.5 119 104.5 C 122.8659936 104.5 126 107.6340064 126 111.5 C 126 115.3659936 122.8659936 118.5 119 118.5 C 115.1340064 118.5 112 115.3659936 112 111.5 Z"/></g><g transform="translate(-78,-6) scale(1,1)"><path fill="none" stroke="#000000" d="M 126 112 L 305 112" stroke-miterlimit="10"/></g><g transform="translate(-78,-6) scale(1,1)"><path fill="#000000" stroke="none" d="M 294.83732514237585 116.20951775601598 L 305 112 L 294.83732514237585 107.79048224398402"/></g><g transform="translate(-78,-6) scale(1,1)"><path fill="none" stroke="#000000" d="M 294.83732514237585 116.20951775601598 L 305 112 L 294.83732514237585 107.79048224398402 L 294.83732514237585 116.20951775601598" stroke-miterlimit="10"/></g><g transform="translate(-78,-6) scale(1,1)"><g><path fill="none" stroke="none"/><text fill="#000000" stroke="none" font-family="Arial" font-size="13px" font-style="normal" font-weight="normal" text-decoration="none" x="125.53271484375" y="107">login(accountName, password)</text></g></g><g transform="translate(-78,-6) scale(1,1)"><rect fill="#ffffff" stroke="none" x="305" y="112" width="13" height="224"/></g><g transform="translate(-78,-6) scale(1,1)"><path fill="none" stroke="#000000" d="M 305 112 L 318 112 L 318 336 L 305 336 L 305 112 Z Z" stroke-miterlimit="10"/></g><g transform="translate(-78,-6) scale(1,1)"><path fill="none" stroke="#000000" d="M 318 136 L 348 136 L 348 156 L 325 156" stroke-miterlimit="10"/></g><g transform="translate(-78,-6) scale(1,1)"><path fill="#000000" stroke="none" d="M 335.16267485762415 151.790482243984 L 325 156 L 335.16267485762415 160.209517756016"/></g><g transform="translate(-78,-6) scale(1,1)"><path fill="none" stroke="#000000" d="M 335.16267485762415 151.790482243984 L 325 156 L 335.16267485762415 160.209517756016 L 335.16267485762415 151.790482243984" stroke-miterlimit="10"/></g><g transform="translate(-78,-6) scale(1,1)"><g><path fill="none" stroke="none"/><text fill="#000000" stroke="none" font-family="Arial" font-size="13px" font-style="normal" font-weight="normal" text-decoration="none" x="359.53271484375" y="155">authenticateAdmin(accountName, password)</text></g></g><g transform="translate(-78,-6) scale(1,1)"><rect fill="#ffffff" stroke="none" x="312" y="156" width="13" height="164"/></g><g transform="translate(-78,-6) scale(1,1)"><path fill="none" stroke="#000000" d="M 312 156 L 325 156 L 325 320 L 312 320 L 312 156 Z Z" stroke-miterlimit="10"/></g><g transform="translate(-78,-6) scale(1,1)"><path fill="none" stroke="#000000" d="M 325 200 L 355 200 L 355 220 L 332 220" stroke-miterlimit="10"/></g><g transform="translate(-78,-6) scale(1,1)"><path fill="#000000" stroke="none" d="M 342.16267485762415 215.790482243984 L 332 220 L 342.16267485762415 224.209517756016"/></g><g transform="translate(-78,-6) scale(1,1)"><path fill="none" stroke="#000000" d="M 342.16267485762415 215.790482243984 L 332 220 L 342.16267485762415 224.209517756016 L 342.16267485762415 215.790482243984" stroke-miterlimit="10"/></g><g transform="translate(-78,-6) scale(1,1)"><g><path fill="none" stroke="none"/><text fill="#000000" stroke="none" font-family="Arial" font-size="13px" font-style="normal" font-weight="normal" text-decoration="none" x="384.53271484375" y="214">getAccountByName(accountName)</text></g></g><g transform="translate(-78,-6) scale(1,1)"><rect fill="#ffffff" stroke="none" x="319" y="220" width="13" height="28"/></g><g transform="translate(-78,-6) scale(1,1)"><path fill="none" stroke="#000000" d="M 319 220 L 332 220 L 332 248 L 319 248 L 319 220 Z Z" stroke-miterlimit="10"/></g></g></svg>