<svg version="1.1" xmlns="http://www.w3.org/2000/svg" xmlns:xlink="http://www.w3.org/1999/xlink" width="660" height="452"><defs/><g><text fill="#eeeeee" stroke="none" font-family="Arial" font-size="24px" font-style="normal" font-weight="normal" text-decoration="none" x="0" y="0">UNREGISTERED</text><text fill="#eeeeee" stroke="none" font-family="Arial" font-size="24px" font-style="normal" font-weight="normal" text-decoration="none" x="0" y="30">UNREGISTERED</text><text fill="#eeeeee" stroke="none" font-family="Arial" font-size="24px" font-style="normal" font-weight="normal" text-decoration="none" x="0" y="60">UNREGISTERED</text><text fill="#eeeeee" stroke="none" font-family="Arial" font-size="24px" font-style="normal" font-weight="normal" text-decoration="none" x="0" y="90">UNREGISTERED</text><text fill="#eeeeee" stroke="none" font-family="Arial" font-size="24px" font-style="normal" font-weight="normal" text-decoration="none" x="0" y="120">UNREGISTERED</text><text fill="#eeeeee" stroke="none" font-family="Arial" font-size="24px" font-style="normal" font-weight="normal" text-decoration="none" x="0" y="150">UNREGISTERED</text><text fill="#eeeeee" stroke="none" font-family="Arial" font-size="24px" font-style="normal" font-weight="normal" text-decoration="none" x="0" y="180">UNREGISTERED</text><text fill="#eeeeee" stroke="none" font-family="Arial" font-size="24px" font-style="normal" font-weight="normal" text-decoration="none" x="0" y="210">UNREGISTERED</text><text fill="#eeeeee" stroke="none" font-family="Arial" font-size="24px" font-style="normal" font-weight="normal" text-decoration="none" x="0" y="240">UNREGISTERED</text><text fill="#eeeeee" stroke="none" font-family="Arial" font-size="24px" font-style="normal" font-weight="normal" text-decoration="none" x="0" y="270">UNREGISTERED</text><text fill="#eeeeee" stroke="none" font-family="Arial" font-size="24px" font-style="normal" font-weight="normal" text-decoration="none" x="0" y="300">UNREGISTERED</text><text fill="#eeeeee" stroke="none" font-family="Arial" font-size="24px" font-style="normal" font-weight="normal" text-decoration="none" x="0" y="330">UNREGISTERED</text><text fill="#eeeeee" stroke="none" font-family="Arial" font-size="24px" font-style="normal" font-weight="normal" text-decoration="none" x="0" y="360">UNREGISTERED</text><text fill="#eeeeee" stroke="none" font-family="Arial" font-size="24px" font-style="normal" font-weight="normal" text-decoration="none" x="0" y="390">UNREGISTERED</text><text fill="#eeeeee" stroke="none" font-family="Arial" font-size="24px" font-style="normal" font-weight="normal" text-decoration="none" x="0" y="420">UNREGISTERED</text><text fill="#eeeeee" stroke="none" font-family="Arial" font-size="24px" font-style="normal" font-weight="normal" text-decoration="none" x="0" y="450">UNREGISTERED</text><text fill="#eeeeee" stroke="none" font-family="Arial" font-size="24px" font-style="normal" font-weight="normal" text-decoration="none" x="200" y="0">UNREGISTERED</text><text fill="#eeeeee" stroke="none" font-family="Arial" font-size="24px" font-style="normal" font-weight="normal" text-decoration="none" x="200" y="30">UNREGISTERED</text><text fill="#eeeeee" stroke="none" font-family="Arial" font-size="24px" font-style="normal" font-weight="normal" text-decoration="none" x="200" y="60">UNREGISTERED</text><text fill="#eeeeee" stroke="none" font-family="Arial" font-size="24px" font-style="normal" font-weight="normal" text-decoration="none" x="200" y="90">UNREGISTERED</text><text fill="#eeeeee" stroke="none" font-family="Arial" font-size="24px" font-style="normal" font-weight="normal" text-decoration="none" x="200" y="120">UNREGISTERED</text><text fill="#eeeeee" stroke="none" font-family="Arial" font-size="24px" font-style="normal" font-weight="normal" text-decoration="none" x="200" y="150">UNREGISTERED</text><text fill="#eeeeee" stroke="none" font-family="Arial" font-size="24px" font-style="normal" font-weight="normal" text-decoration="none" x="200" y="180">UNREGISTERED</text><text fill="#eeeeee" stroke="none" font-family="Arial" font-size="24px" font-style="normal" font-weight="normal" text-decoration="none" x="200" y="210">UNREGISTERED</text><text fill="#eeeeee" stroke="none" font-family="Arial" font-size="24px" font-style="normal" font-weight="normal" text-decoration="none" x="200" y="240">UNREGISTERED</text><text fill="#eeeeee" stroke="none" font-family="Arial" font-size="24px" font-style="normal" font-weight="normal" text-decoration="none" x="200" y="270">UNREGISTERED</text><text fill="#eeeeee" stroke="none" font-family="Arial" font-size="24px" font-style="normal" font-weight="normal" text-decoration="none" x="200" y="300">UNREGISTERED</text><text fill="#eeeeee" stroke="none" font-family="Arial" font-size="24px" font-style="normal" font-weight="normal" text-decoration="none" x="200" y="330">UNREGISTERED</text><text fill="#eeeeee" stroke="none" font-family="Arial" font-size="24px" font-style="normal" font-weight="normal" text-decoration="none" x="200" y="360">UNREGISTERED</text><text fill="#eeeeee" stroke="none" font-family="Arial" font-size="24px" font-style="normal" font-weight="normal" text-decoration="none" x="200" y="390">UNREGISTERED</text><text fill="#eeeeee" stroke="none" font-family="Arial" font-size="24px" font-style="normal" font-weight="normal" text-decoration="none" x="200" y="420">UNREGISTERED</text><text fill="#eeeeee" stroke="none" font-family="Arial" font-size="24px" font-style="normal" font-weight="normal" text-decoration="none" x="200" y="450">UNREGISTERED</text><text fill="#eeeeee" stroke="none" font-family="Arial" font-size="24px" font-style="normal" font-weight="normal" text-decoration="none" x="400" y="0">UNREGISTERED</text><text fill="#eeeeee" stroke="none" font-family="Arial" font-size="24px" font-style="normal" font-weight="normal" text-decoration="none" x="400" y="30">UNREGISTERED</text><text fill="#eeeeee" stroke="none" font-family="Arial" font-size="24px" font-style="normal" font-weight="normal" text-decoration="none" x="400" y="60">UNREGISTERED</text><text fill="#eeeeee" stroke="none" font-family="Arial" font-size="24px" font-style="normal" font-weight="normal" text-decoration="none" x="400" y="90">UNREGISTERED</text><text fill="#eeeeee" stroke="none" font-family="Arial" font-size="24px" font-style="normal" font-weight="normal" text-decoration="none" x="400" y="120">UNREGISTERED</text><text fill="#eeeeee" stroke="none" font-family="Arial" font-size="24px" font-style="normal" font-weight="normal" text-decoration="none" x="400" y="150">UNREGISTERED</text><text fill="#eeeeee" stroke="none" font-family="Arial" font-size="24px" font-style="normal" font-weight="normal" text-decoration="none" x="400" y="180">UNREGISTERED</text><text fill="#eeeeee" stroke="none" font-family="Arial" font-size="24px" font-style="normal" font-weight="normal" text-decoration="none" x="400" y="210">UNREGISTERED</text><text fill="#eeeeee" stroke="none" font-family="Arial" font-size="24px" font-style="normal" font-weight="normal" text-decoration="none" x="400" y="240">UNREGISTERED</text><text fill="#eeeeee" stroke="none" font-family="Arial" font-size="24px" font-style="normal" font-weight="normal" text-decoration="none" x="400" y="270">UNREGISTERED</text><text fill="#eeeeee" stroke="none" font-family="Arial" font-size="24px" font-style="normal" font-weight="normal" text-decoration="none" x="400" y="300">UNREGISTERED</text><text fill="#eeeeee" stroke="none" font-family="Arial" font-size="24px" font-style="normal" font-weight="normal" text-decoration="none" x="400" y="330">UNREGISTERED</text><text fill="#eeeeee" stroke="none" font-family="Arial" font-size="24px" font-style="normal" font-weight="normal" text-decoration="none" x="400" y="360">UNREGISTERED</text><text fill="#eeeeee" stroke="none" font-family="Arial" font-size="24px" font-style="normal" font-weight="normal" text-decoration="none" x="400" y="390">UNREGISTERED</text><text fill="#eeeeee" stroke="none" font-family="Arial" font-size="24px" font-style="normal" font-weight="normal" text-decoration="none" x="400" y="420">UNREGISTERED</text><text fill="#eeeeee" stroke="none" font-family="Arial" font-size="24px" font-style="normal" font-weight="normal" text-decoration="none" x="400" y="450">UNREGISTERED</text><text fill="#eeeeee" stroke="none" font-family="Arial" font-size="24px" font-style="normal" font-weight="normal" text-decoration="none" x="600" y="0">UNREGISTERED</text><text fill="#eeeeee" stroke="none" font-family="Arial" font-size="24px" font-style="normal" font-weight="normal" text-decoration="none" x="600" y="30">UNREGISTERED</text><text fill="#eeeeee" stroke="none" font-family="Arial" font-size="24px" font-style="normal" font-weight="normal" text-decoration="none" x="600" y="60">UNREGISTERED</text><text fill="#eeeeee" stroke="none" font-family="Arial" font-size="24px" font-style="normal" font-weight="normal" text-decoration="none" x="600" y="90">UNREGISTERED</text><text fill="#eeeeee" stroke="none" font-family="Arial" font-size="24px" font-style="normal" font-weight="normal" text-decoration="none" x="600" y="120">UNREGISTERED</text><text fill="#eeeeee" stroke="none" font-family="Arial" font-size="24px" font-style="normal" font-weight="normal" text-decoration="none" x="600" y="150">UNREGISTERED</text><text fill="#eeeeee" stroke="none" font-family="Arial" font-size="24px" font-style="normal" font-weight="normal" text-decoration="none" x="600" y="180">UNREGISTERED</text><text fill="#eeeeee" stroke="none" font-family="Arial" font-size="24px" font-style="normal" font-weight="normal" text-decoration="none" x="600" y="210">UNREGISTERED</text><text fill="#eeeeee" stroke="none" font-family="Arial" font-size="24px" font-style="normal" font-weight="normal" text-decoration="none" x="600" y="240">UNREGISTERED</text><text fill="#eeeeee" stroke="none" font-family="Arial" font-size="24px" font-style="normal" font-weight="normal" text-decoration="none" x="600" y="270">UNREGISTERED</text><text fill="#eeeeee" stroke="none" font-family="Arial" font-size="24px" font-style="normal" font-weight="normal" text-decoration="none" x="600" y="300">UNREGISTERED</text><text fill="#eeeeee" stroke="none" font-family="Arial" font-size="24px" font-style="normal" font-weight="normal" text-decoration="none" x="600" y="330">UNREGISTERED</text><text fill="#eeeeee" stroke="none" font-family="Arial" font-size="24px" font-style="normal" font-weight="normal" text-decoration="none" x="600" y="360">UNREGISTERED</text><text fill="#eeeeee" stroke="none" font-family="Arial" font-size="24px" font-style="normal" font-weight="normal" text-decoration="none" x="600" y="390">UNREGISTERED</text><text fill="#eeeeee" stroke="none" font-family="Arial" font-size="24px" font-style="normal" font-weight="normal" text-decoration="none" x="600" y="420">UNREGISTERED</text><text fill="#eeeeee" stroke="none" font-family="Arial" font-size="24px" font-style="normal" font-weight="normal" text-decoration="none" x="600" y="450">UNREGISTERED</text><g transform="translate(-110,-14) scale(1,1)"><path fill="none" stroke="#000000" d="M 120 24 L 760 24 L 760 456 L 120 456 L 120 24" stroke-miterlimit="10"/></g><g transform="translate(-110,-14) scale(1,1)"><path fill="#ffffff" stroke="none" d="M 120 24 L 120 46 L 180.078125 46 L 191.078125 35 L 191.078125 24 L 120 24"/></g><g transform="translate(-110,-14) scale(1,1)"><path fill="none" stroke="#000000" d="M 120 24 L 120 46 L 180.078125 46 L 191.078125 35 L 191.078125 24 L 120 24 L 120 24" stroke-miterlimit="10"/></g><g transform="translate(-110,-14) scale(1,1)"><g><path fill="none" stroke="none"/><text fill="#000000" stroke="none" font-family="Arial" font-size="13px" font-style="normal" font-weight="normal" text-decoration="none" x="144.72998046875" y="40">show</text></g></g><g transform="translate(-110,-14) scale(1,1)"><g><path fill="none" stroke="none"/><text fill="#000000" stroke="none" font-family="Arial" font-size="13px" font-style="normal" font-weight="bold" text-decoration="none" x="124.279541015625" y="40">sd</text></g></g><g transform="translate(-110,-14) scale(1,1)"><rect fill="#C0C0C0" stroke="none" x="311" y="47" width="83.2890625" height="39" opacity="0.2"/></g><g transform="translate(-110,-14) scale(1,1)"><rect fill="#ffffff" stroke="none" x="304" y="40" width="83.2890625" height="39"/></g><g transform="translate(-110,-14) scale(1,1)"><path fill="none" stroke="#000000" d="M 304 40 L 387.2890625 40 L 387.2890625 79 L 304 79 L 304 40 Z Z" stroke-miterlimit="10"/></g><g transform="translate(-110,-14) scale(1,1)"><g><path fill="none" stroke="none"/><text fill="#000000" stroke="none" font-family="Arial" font-size="13px" font-style="normal" font-weight="bold" text-decoration="none" x="327.220458984375" y="58">: User</text></g></g><g transform="translate(-110,-14) scale(1,1)"><path fill="none" stroke="#000000" d="M 346.5 80 L 346.5 416" stroke-miterlimit="10" stroke-dasharray="3"/></g><g transform="translate(-110,-14) scale(1,1)"><rect fill="#C0C0C0" stroke="none" x="583" y="47" width="83.2890625" height="39" opacity="0.2"/></g><g transform="translate(-110,-14) scale(1,1)"><rect fill="#ffffff" stroke="none" x="576" y="40" width="83.2890625" height="39"/></g><g transform="translate(-110,-14) scale(1,1)"><path fill="none" stroke="#000000" d="M 576 40 L 659.2890625 40 L 659.2890625 79 L 576 79 L 576 40 Z Z" stroke-miterlimit="10"/></g><g transform="translate(-110,-14) scale(1,1)"><g><path fill="none" stroke="none"/><text fill="#000000" stroke="none" font-family="Arial" font-size="13px" font-style="normal" font-weight="bold" text-decoration="none" x="587.674072265625" y="58">: Account</text></g></g><g transform="translate(-110,-14) scale(1,1)"><path fill="none" stroke="#000000" d="M 618.5 80 L 618.5 408" stroke-miterlimit="10" stroke-dasharray="3"/></g><g transform="translate(-110,-14) scale(1,1)"><path fill="#000000" stroke="none" d="M 128 128.5 C 128 124.6340064 131.1340064 121.5 135 121.5 C 138.8659936 121.5 142 124.6340064 142 128.5 C 142 132.3659936 138.8659936 135.5 135 135.5 C 131.1340064 135.5 128 132.3659936 128 128.5 Z"/></g><g transform="translate(-110,-14) scale(1,1)"><path fill="none" stroke="#000000" d="M 142 129 L 339 129" stroke-miterlimit="10"/></g><g transform="translate(-110,-14) scale(1,1)"><path fill="#000000" stroke="none" d="M 328.83732514237585 133.209517756016 L 339 129 L 328.83732514237585 124.79048224398402"/></g><g transform="translate(-110,-14) scale(1,1)"><path fill="none" stroke="#000000" d="M 328.83732514237585 133.209517756016 L 339 129 L 328.83732514237585 124.79048224398402 L 328.83732514237585 133.209517756016" stroke-miterlimit="10"/></g><g transform="translate(-110,-14) scale(1,1)"><g><path fill="none" stroke="none"/><text fill="#000000" stroke="none" font-family="Arial" font-size="13px" font-style="normal" font-weight="normal" text-decoration="none" x="177.53271484375" y="124">show(sortType, page)</text></g></g><g transform="translate(-110,-14) scale(1,1)"><rect fill="#ffffff" stroke="none" x="339" y="129" width="13" height="255"/></g><g transform="translate(-110,-14) scale(1,1)"><path fill="none" stroke="#000000" d="M 339 129 L 352 129 L 352 384 L 339 384 L 339 129 Z Z" stroke-miterlimit="10"/></g><g transform="translate(-110,-14) scale(1,1)"><path fill="none" stroke="#000000" d="M 352 154 L 611 154" stroke-miterlimit="10"/></g><g transform="translate(-110,-14) scale(1,1)"><path fill="#000000" stroke="none" d="M 600.8373251423759 158.209517756016 L 611 154 L 600.8373251423758 149.790482243984"/></g><g transform="translate(-110,-14) scale(1,1)"><path fill="none" stroke="#000000" d="M 600.8373251423759 158.209517756016 L 611 154 L 600.8373251423758 149.790482243984 L 600.8373251423759 158.209517756016" stroke-miterlimit="10"/></g><g transform="translate(-110,-14) scale(1,1)"><g><path fill="none" stroke="none"/><text fill="#000000" stroke="none" font-family="Arial" font-size="13px" font-style="normal" font-weight="normal" text-decoration="none" x="367.5" y="149">getAdminFromAttribute(attributeAdmin)</text></g></g><g transform="translate(-110,-14) scale(1,1)"><rect fill="#ffffff" stroke="none" x="611" y="154" width="13" height="28"/></g><g transform="translate(-110,-14) scale(1,1)"><path fill="none" stroke="#000000" d="M 611 154 L 624 154 L 624 182 L 611 182 L 611 154 Z Z" stroke-miterlimit="10"/></g><g transform="translate(-110,-14) scale(1,1)"><path fill="none" stroke="#000000" d="M 611 168 L 352 168" stroke-miterlimit="10" stroke-dasharray="3"/></g><g transform="translate(-110,-14) scale(1,1)"><path fill="none" stroke="#000000" d="M 362.16267485762415 163.790482243984 L 352 168 L 362.16267485762415 172.209517756016" stroke-miterlimit="10"/></g><g transform="translate(-110,-14) scale(1,1)"><g><path fill="none" stroke="none"/><text fill="#000000" stroke="none" font-family="Arial" font-size="13px" font-style="normal" font-weight="normal" text-decoration="none" x="457.5" y="182.5">account</text></g></g><g transform="translate(-110,-14) scale(1,1)"><path fill="none" stroke="#000000" d="M 352 240 L 611 240" stroke-miterlimit="10"/></g><g transform="translate(-110,-14) scale(1,1)"><path fill="#000000" stroke="none" d="M 600.8373251423759 244.209517756016 L 611 240 L 600.8373251423758 235.790482243984"/></g><g transform="translate(-110,-14) scale(1,1)"><path fill="none" stroke="#000000" d="M 600.8373251423759 244.209517756016 L 611 240 L 600.8373251423758 235.790482243984 L 600.8373251423759 244.209517756016" stroke-miterlimit="10"/></g><g transform="translate(-110,-14) scale(1,1)"><g><path fill="none" stroke="none"/><text fill="#000000" stroke="none" font-family="Arial" font-size="13px" font-style="normal" font-weight="normal" text-decoration="none" x="387.5" y="235">getAppropriateAccountForUser()</text></g></g><g transform="translate(-110,-14) scale(1,1)"><rect fill="#ffffff" stroke="none" x="611" y="240" width="13" height="28"/></g><g transform="translate(-110,-14) scale(1,1)"><path fill="none" stroke="#000000" d="M 611 240 L 624 240 L 624 268 L 611 268 L 611 240 Z Z" stroke-miterlimit="10"/></g><g transform="translate(-110,-14) scale(1,1)"><path fill="none" stroke="#000000" d="M 611 260 L 352 260" stroke-miterlimit="10" stroke-dasharray="3"/></g><g transform="translate(-110,-14) scale(1,1)"><path fill="none" stroke="#000000" d="M 362.16267485762415 255.790482243984 L 352 260 L 362.16267485762415 264.209517756016" stroke-miterlimit="10"/></g><g transform="translate(-110,-14) scale(1,1)"><g><path fill="none" stroke="none"/><text fill="#000000" stroke="none" font-family="Arial" font-size="13px" font-style="normal" font-weight="normal" text-decoration="none" x="434.5" y="275">usableAccounts</text></g></g><g transform="translate(-110,-14) scale(1,1)"><path fill="none" stroke="#000000" d="M 352 344 L 611 344" stroke-miterlimit="10"/></g><g transform="translate(-110,-14) scale(1,1)"><path fill="#000000" stroke="none" d="M 600.8373251423759 348.209517756016 L 611 344 L 600.8373251423758 339.790482243984"/></g><g transform="translate(-110,-14) scale(1,1)"><path fill="none" stroke="#000000" d="M 600.8373251423759 348.209517756016 L 611 344 L 600.8373251423758 339.790482243984 L 600.8373251423759 348.209517756016" stroke-miterlimit="10"/></g><g transform="translate(-110,-14) scale(1,1)"><g><path fill="none" stroke="none"/><text fill="#000000" stroke="none" font-family="Arial" font-size="13px" font-style="normal" font-weight="normal" text-decoration="none" x="413.5" y="339">getAllPaging(pageable)</text></g></g><g transform="translate(-110,-14) scale(1,1)"><rect fill="#ffffff" stroke="none" x="611" y="344" width="13" height="28"/></g><g transform="translate(-110,-14) scale(1,1)"><path fill="none" stroke="#000000" d="M 611 344 L 624 344 L 624 372 L 611 372 L 611 344 Z Z" stroke-miterlimit="10"/></g><g transform="translate(-110,-14) scale(1,1)"><path fill="none" stroke="#000000" d="M 611 360 L 352 360" stroke-miterlimit="10" stroke-dasharray="3"/></g><g transform="translate(-110,-14) scale(1,1)"><path fill="none" stroke="#000000" d="M 362.16267485762415 355.790482243984 L 352 360 L 362.16267485762415 364.209517756016" stroke-miterlimit="10"/></g><g transform="translate(-110,-14) scale(1,1)"><g><path fill="none" stroke="none"/><text fill="#000000" stroke="none" font-family="Arial" font-size="13px" font-style="normal" font-weight="normal" text-decoration="none" x="451.82177734375" y="375">userPage</text></g></g></g></svg>