<svg version="1.1" xmlns="http://www.w3.org/2000/svg" xmlns:xlink="http://www.w3.org/1999/xlink" width="572" height="417"><defs/><g><text fill="#eeeeee" stroke="none" font-family="Arial" font-size="24px" font-style="normal" font-weight="normal" text-decoration="none" x="0" y="0">UNREGISTERED</text><text fill="#eeeeee" stroke="none" font-family="Arial" font-size="24px" font-style="normal" font-weight="normal" text-decoration="none" x="0" y="30">UNREGISTERED</text><text fill="#eeeeee" stroke="none" font-family="Arial" font-size="24px" font-style="normal" font-weight="normal" text-decoration="none" x="0" y="60">UNREGISTERED</text><text fill="#eeeeee" stroke="none" font-family="Arial" font-size="24px" font-style="normal" font-weight="normal" text-decoration="none" x="0" y="90">UNREGISTERED</text><text fill="#eeeeee" stroke="none" font-family="Arial" font-size="24px" font-style="normal" font-weight="normal" text-decoration="none" x="0" y="120">UNREGISTERED</text><text fill="#eeeeee" stroke="none" font-family="Arial" font-size="24px" font-style="normal" font-weight="normal" text-decoration="none" x="0" y="150">UNREGISTERED</text><text fill="#eeeeee" stroke="none" font-family="Arial" font-size="24px" font-style="normal" font-weight="normal" text-decoration="none" x="0" y="180">UNREGISTERED</text><text fill="#eeeeee" stroke="none" font-family="Arial" font-size="24px" font-style="normal" font-weight="normal" text-decoration="none" x="0" y="210">UNREGISTERED</text><text fill="#eeeeee" stroke="none" font-family="Arial" font-size="24px" font-style="normal" font-weight="normal" text-decoration="none" x="0" y="240">UNREGISTERED</text><text fill="#eeeeee" stroke="none" font-family="Arial" font-size="24px" font-style="normal" font-weight="normal" text-decoration="none" x="0" y="270">UNREGISTERED</text><text fill="#eeeeee" stroke="none" font-family="Arial" font-size="24px" font-style="normal" font-weight="normal" text-decoration="none" x="0" y="300">UNREGISTERED</text><text fill="#eeeeee" stroke="none" font-family="Arial" font-size="24px" font-style="normal" font-weight="normal" text-decoration="none" x="0" y="330">UNREGISTERED</text><text fill="#eeeeee" stroke="none" font-family="Arial" font-size="24px" font-style="normal" font-weight="normal" text-decoration="none" x="0" y="360">UNREGISTERED</text><text fill="#eeeeee" stroke="none" font-family="Arial" font-size="24px" font-style="normal" font-weight="normal" text-decoration="none" x="0" y="390">UNREGISTERED</text><text fill="#eeeeee" stroke="none" font-family="Arial" font-size="24px" font-style="normal" font-weight="normal" text-decoration="none" x="200" y="0">UNREGISTERED</text><text fill="#eeeeee" stroke="none" font-family="Arial" font-size="24px" font-style="normal" font-weight="normal" text-decoration="none" x="200" y="30">UNREGISTERED</text><text fill="#eeeeee" stroke="none" font-family="Arial" font-size="24px" font-style="normal" font-weight="normal" text-decoration="none" x="200" y="60">UNREGISTERED</text><text fill="#eeeeee" stroke="none" font-family="Arial" font-size="24px" font-style="normal" font-weight="normal" text-decoration="none" x="200" y="90">UNREGISTERED</text><text fill="#eeeeee" stroke="none" font-family="Arial" font-size="24px" font-style="normal" font-weight="normal" text-decoration="none" x="200" y="120">UNREGISTERED</text><text fill="#eeeeee" stroke="none" font-family="Arial" font-size="24px" font-style="normal" font-weight="normal" text-decoration="none" x="200" y="150">UNREGISTERED</text><text fill="#eeeeee" stroke="none" font-family="Arial" font-size="24px" font-style="normal" font-weight="normal" text-decoration="none" x="200" y="180">UNREGISTERED</text><text fill="#eeeeee" stroke="none" font-family="Arial" font-size="24px" font-style="normal" font-weight="normal" text-decoration="none" x="200" y="210">UNREGISTERED</text><text fill="#eeeeee" stroke="none" font-family="Arial" font-size="24px" font-style="normal" font-weight="normal" text-decoration="none" x="200" y="240">UNREGISTERED</text><text fill="#eeeeee" stroke="none" font-family="Arial" font-size="24px" font-style="normal" font-weight="normal" text-decoration="none" x="200" y="270">UNREGISTERED</text><text fill="#eeeeee" stroke="none" font-family="Arial" font-size="24px" font-style="normal" font-weight="normal" text-decoration="none" x="200" y="300">UNREGISTERED</text><text fill="#eeeeee" stroke="none" font-family="Arial" font-size="24px" font-style="normal" font-weight="normal" text-decoration="none" x="200" y="330">UNREGISTERED</text><text fill="#eeeeee" stroke="none" font-family="Arial" font-size="24px" font-style="normal" font-weight="normal" text-decoration="none" x="200" y="360">UNREGISTERED</text><text fill="#eeeeee" stroke="none" font-family="Arial" font-size="24px" font-style="normal" font-weight="normal" text-decoration="none" x="200" y="390">UNREGISTERED</text><text fill="#eeeeee" stroke="none" font-family="Arial" font-size="24px" font-style="normal" font-weight="normal" text-decoration="none" x="400" y="0">UNREGISTERED</text><text fill="#eeeeee" stroke="none" font-family="Arial" font-size="24px" font-style="normal" font-weight="normal" text-decoration="none" x="400" y="30">UNREGISTERED</text><text fill="#eeeeee" stroke="none" font-family="Arial" font-size="24px" font-style="normal" font-weight="normal" text-decoration="none" x="400" y="60">UNREGISTERED</text><text fill="#eeeeee" stroke="none" font-family="Arial" font-size="24px" font-style="normal" font-weight="normal" text-decoration="none" x="400" y="90">UNREGISTERED</text><text fill="#eeeeee" stroke="none" font-family="Arial" font-size="24px" font-style="normal" font-weight="normal" text-decoration="none" x="400" y="120">UNREGISTERED</text><text fill="#eeeeee" stroke="none" font-family="Arial" font-size="24px" font-style="normal" font-weight="normal" text-decoration="none" x="400" y="150">UNREGISTERED</text><text fill="#eeeeee" stroke="none" font-family="Arial" font-size="24px" font-style="normal" font-weight="normal" text-decoration="none" x="400" y="180">UNREGISTERED</text><text fill="#eeeeee" stroke="none" font-family="Arial" font-size="24px" font-style="normal" font-weight="normal" text-decoration="none" x="400" y="210">UNREGISTERED</text><text fill="#eeeeee" stroke="none" font-family="Arial" font-size="24px" font-style="normal" font-weight="normal" text-decoration="none" x="400" y="240">UNREGISTERED</text><text fill="#eeeeee" stroke="none" font-family="Arial" font-size="24px" font-style="normal" font-weight="normal" text-decoration="none" x="400" y="270">UNREGISTERED</text><text fill="#eeeeee" stroke="none" font-family="Arial" font-size="24px" font-style="normal" font-weight="normal" text-decoration="none" x="400" y="300">UNREGISTERED</text><text fill="#eeeeee" stroke="none" font-family="Arial" font-size="24px" font-style="normal" font-weight="normal" text-decoration="none" x="400" y="330">UNREGISTERED</text><text fill="#eeeeee" stroke="none" font-family="Arial" font-size="24px" font-style="normal" font-weight="normal" text-decoration="none" x="400" y="360">UNREGISTERED</text><text fill="#eeeeee" stroke="none" font-family="Arial" font-size="24px" font-style="normal" font-weight="normal" text-decoration="none" x="400" y="390">UNREGISTERED</text><g transform="translate(-158,-46) scale(1,1)"><path fill="none" stroke="#000000" d="M 168 56 L 720 56 L 720 264 L 168 264 L 168 56" stroke-miterlimit="10"/></g><g transform="translate(-158,-46) scale(1,1)"><path fill="#ffffff" stroke="none" d="M 168 56 L 168 78 L 262.76171875 78 L 273.76171875 67 L 273.76171875 56 L 168 56"/></g><g transform="translate(-158,-46) scale(1,1)"><path fill="none" stroke="#000000" d="M 168 56 L 168 78 L 262.76171875 78 L 273.76171875 67 L 273.76171875 56 L 168 56 L 168 56" stroke-miterlimit="10"/></g><g transform="translate(-158,-46) scale(1,1)"><g><path fill="none" stroke="none"/><text fill="#000000" stroke="none" font-family="Arial" font-size="13px" font-style="normal" font-weight="normal" text-decoration="none" x="192.72998046875" y="72">showBilling</text></g></g><g transform="translate(-158,-46) scale(1,1)"><g><path fill="none" stroke="none"/><text fill="#000000" stroke="none" font-family="Arial" font-size="13px" font-style="normal" font-weight="bold" text-decoration="none" x="172.279541015625" y="72">sd</text></g></g><g transform="translate(-158,-46) scale(1,1)"><rect fill="#C0C0C0" stroke="none" x="391" y="199" width="99" height="29" opacity="0.2"/></g><g transform="translate(-158,-46) scale(1,1)"><rect fill="#ffffff" stroke="none" x="384" y="192" width="99" height="29"/></g><g transform="translate(-158,-46) scale(1,1)"><path fill="none" stroke="#000000" d="M 384 192 L 483 192 L 483 221 L 384 221 L 384 192 Z Z" stroke-miterlimit="10"/></g><g transform="translate(-158,-46) scale(1,1)"><rect fill="#ffffff" stroke="none" x="384" y="192" width="99" height="29"/></g><g transform="translate(-158,-46) scale(1,1)"><path fill="none" stroke="#000000" d="M 384 192 L 483 192 L 483 221 L 384 221 L 384 192 Z Z" stroke-miterlimit="10"/></g><g transform="translate(-158,-46) scale(1,1)"><g><path fill="none" stroke="none"/><text fill="#000000" stroke="none" font-family="Arial" font-size="13px" font-style="normal" font-weight="bold" text-decoration="none" x="415.075927734375" y="210">: User</text></g></g><g transform="translate(-158,-46) scale(1,1)"><rect fill="#C0C0C0" stroke="none" x="223" y="431" width="99" height="29" opacity="0.2"/></g><g transform="translate(-158,-46) scale(1,1)"><rect fill="#ffffff" stroke="none" x="216" y="424" width="99" height="29"/></g><g transform="translate(-158,-46) scale(1,1)"><path fill="none" stroke="#000000" d="M 216 424 L 315 424 L 315 453 L 216 453 L 216 424 Z Z" stroke-miterlimit="10"/></g><g transform="translate(-158,-46) scale(1,1)"><rect fill="#ffffff" stroke="none" x="216" y="424" width="99" height="29"/></g><g transform="translate(-158,-46) scale(1,1)"><path fill="none" stroke="#000000" d="M 216 424 L 315 424 L 315 453 L 216 453 L 216 424 Z Z" stroke-miterlimit="10"/></g><g transform="translate(-158,-46) scale(1,1)"><g><path fill="none" stroke="none"/><text fill="#000000" stroke="none" font-family="Arial" font-size="13px" font-style="normal" font-weight="bold" text-decoration="none" x="239.1318359375" y="442">Lifeline1</text></g></g><g transform="translate(-158,-46) scale(1,1)"><rect fill="#C0C0C0" stroke="none" x="511" y="431" width="99" height="29" opacity="0.2"/></g><g transform="translate(-158,-46) scale(1,1)"><rect fill="#ffffff" stroke="none" x="504" y="424" width="99" height="29"/></g><g transform="translate(-158,-46) scale(1,1)"><path fill="none" stroke="#000000" d="M 504 424 L 603 424 L 603 453 L 504 453 L 504 424 Z Z" stroke-miterlimit="10"/></g><g transform="translate(-158,-46) scale(1,1)"><rect fill="#ffffff" stroke="none" x="504" y="424" width="99" height="29"/></g><g transform="translate(-158,-46) scale(1,1)"><path fill="none" stroke="#000000" d="M 504 424 L 603 424 L 603 453 L 504 453 L 504 424 Z Z" stroke-miterlimit="10"/></g><g transform="translate(-158,-46) scale(1,1)"><g><path fill="none" stroke="none"/><text fill="#000000" stroke="none" font-family="Arial" font-size="13px" font-style="normal" font-weight="bold" text-decoration="none" x="527.1318359375" y="442">Lifeline2</text></g></g><g transform="translate(-158,-46) scale(1,1)"><path fill="none" stroke="#000000" d="M 316 438 L 503 438" stroke-miterlimit="10"/></g><g transform="translate(-158,-46) scale(1,1)"><path fill="none" stroke="#000000" d="M 311 198 L 271 198" stroke-miterlimit="10"/></g><g transform="translate(-158,-46) scale(1,1)"><path fill="#000000" stroke="none" d="M 299 202 L 311 198 L 299 193"/></g><g transform="translate(-158,-46) scale(1,1)"><g><path fill="none" stroke="none"/><text fill="#000000" stroke="none" font-family="Arial" font-size="13px" font-style="normal" font-weight="normal" text-decoration="none" x="253.155029296875" y="192">showBilling()</text></g></g><g transform="translate(-158,-46) scale(1,1)"><path fill="none" stroke="#000000" d="M 216 208 L 384 206" stroke-miterlimit="10"/></g><g transform="translate(-158,-46) scale(1,1)"><path fill="none" stroke="#000000" d="M 433 192 L 433 171 L 512 171 L 512 206 L 483 206" stroke-miterlimit="10"/></g><g transform="translate(-158,-46) scale(1,1)"><path fill="none" stroke="#000000" d="M 455 166 L 455 126" stroke-miterlimit="10"/></g><g transform="translate(-158,-46) scale(1,1)"><path fill="#000000" stroke="none" d="M 450 154 L 455 166 L 459 154"/></g><g transform="translate(-158,-46) scale(1,1)"><g><path fill="none" stroke="none"/><text fill="#000000" stroke="none" font-family="Arial" font-size="13px" font-style="normal" font-weight="normal" text-decoration="none" x="461.103271484375" y="140">1: getUserFromAttribute(attributeUser)</text></g></g><g transform="translate(-158,-46) scale(1,1)"><path fill="none" stroke="#000000" d="M 433 192 L 433 171 L 512 171 L 512 206 L 483 206" stroke-miterlimit="10"/></g><g transform="translate(-158,-46) scale(1,1)"><path fill="none" stroke="#000000" d="M 471 118 L 471 78" stroke-miterlimit="10"/></g><g transform="translate(-158,-46) scale(1,1)"><path fill="#000000" stroke="none" d="M 466 106 L 471 118 L 475 106"/></g><g transform="translate(-158,-46) scale(1,1)"><g><path fill="none" stroke="none"/><text fill="#000000" stroke="none" font-family="Arial" font-size="13px" font-style="normal" font-weight="normal" text-decoration="none" x="486.997802734375" y="92">2: getOrderByUserId(userId)</text></g></g></g></svg>