<svg version="1.1" xmlns="http://www.w3.org/2000/svg" xmlns:xlink="http://www.w3.org/1999/xlink" width="652" height="356"><defs/><g><text fill="#eeeeee" stroke="none" font-family="Arial" font-size="24px" font-style="normal" font-weight="normal" text-decoration="none" x="0" y="0">UNREGISTERED</text><text fill="#eeeeee" stroke="none" font-family="Arial" font-size="24px" font-style="normal" font-weight="normal" text-decoration="none" x="0" y="30">UNREGISTERED</text><text fill="#eeeeee" stroke="none" font-family="Arial" font-size="24px" font-style="normal" font-weight="normal" text-decoration="none" x="0" y="60">UNREGISTERED</text><text fill="#eeeeee" stroke="none" font-family="Arial" font-size="24px" font-style="normal" font-weight="normal" text-decoration="none" x="0" y="90">UNREGISTERED</text><text fill="#eeeeee" stroke="none" font-family="Arial" font-size="24px" font-style="normal" font-weight="normal" text-decoration="none" x="0" y="120">UNREGISTERED</text><text fill="#eeeeee" stroke="none" font-family="Arial" font-size="24px" font-style="normal" font-weight="normal" text-decoration="none" x="0" y="150">UNREGISTERED</text><text fill="#eeeeee" stroke="none" font-family="Arial" font-size="24px" font-style="normal" font-weight="normal" text-decoration="none" x="0" y="180">UNREGISTERED</text><text fill="#eeeeee" stroke="none" font-family="Arial" font-size="24px" font-style="normal" font-weight="normal" text-decoration="none" x="0" y="210">UNREGISTERED</text><text fill="#eeeeee" stroke="none" font-family="Arial" font-size="24px" font-style="normal" font-weight="normal" text-decoration="none" x="0" y="240">UNREGISTERED</text><text fill="#eeeeee" stroke="none" font-family="Arial" font-size="24px" font-style="normal" font-weight="normal" text-decoration="none" x="0" y="270">UNREGISTERED</text><text fill="#eeeeee" stroke="none" font-family="Arial" font-size="24px" font-style="normal" font-weight="normal" text-decoration="none" x="0" y="300">UNREGISTERED</text><text fill="#eeeeee" stroke="none" font-family="Arial" font-size="24px" font-style="normal" font-weight="normal" text-decoration="none" x="0" y="330">UNREGISTERED</text><text fill="#eeeeee" stroke="none" font-family="Arial" font-size="24px" font-style="normal" font-weight="normal" text-decoration="none" x="200" y="0">UNREGISTERED</text><text fill="#eeeeee" stroke="none" font-family="Arial" font-size="24px" font-style="normal" font-weight="normal" text-decoration="none" x="200" y="30">UNREGISTERED</text><text fill="#eeeeee" stroke="none" font-family="Arial" font-size="24px" font-style="normal" font-weight="normal" text-decoration="none" x="200" y="60">UNREGISTERED</text><text fill="#eeeeee" stroke="none" font-family="Arial" font-size="24px" font-style="normal" font-weight="normal" text-decoration="none" x="200" y="90">UNREGISTERED</text><text fill="#eeeeee" stroke="none" font-family="Arial" font-size="24px" font-style="normal" font-weight="normal" text-decoration="none" x="200" y="120">UNREGISTERED</text><text fill="#eeeeee" stroke="none" font-family="Arial" font-size="24px" font-style="normal" font-weight="normal" text-decoration="none" x="200" y="150">UNREGISTERED</text><text fill="#eeeeee" stroke="none" font-family="Arial" font-size="24px" font-style="normal" font-weight="normal" text-decoration="none" x="200" y="180">UNREGISTERED</text><text fill="#eeeeee" stroke="none" font-family="Arial" font-size="24px" font-style="normal" font-weight="normal" text-decoration="none" x="200" y="210">UNREGISTERED</text><text fill="#eeeeee" stroke="none" font-family="Arial" font-size="24px" font-style="normal" font-weight="normal" text-decoration="none" x="200" y="240">UNREGISTERED</text><text fill="#eeeeee" stroke="none" font-family="Arial" font-size="24px" font-style="normal" font-weight="normal" text-decoration="none" x="200" y="270">UNREGISTERED</text><text fill="#eeeeee" stroke="none" font-family="Arial" font-size="24px" font-style="normal" font-weight="normal" text-decoration="none" x="200" y="300">UNREGISTERED</text><text fill="#eeeeee" stroke="none" font-family="Arial" font-size="24px" font-style="normal" font-weight="normal" text-decoration="none" x="200" y="330">UNREGISTERED</text><text fill="#eeeeee" stroke="none" font-family="Arial" font-size="24px" font-style="normal" font-weight="normal" text-decoration="none" x="400" y="0">UNREGISTERED</text><text fill="#eeeeee" stroke="none" font-family="Arial" font-size="24px" font-style="normal" font-weight="normal" text-decoration="none" x="400" y="30">UNREGISTERED</text><text fill="#eeeeee" stroke="none" font-family="Arial" font-size="24px" font-style="normal" font-weight="normal" text-decoration="none" x="400" y="60">UNREGISTERED</text><text fill="#eeeeee" stroke="none" font-family="Arial" font-size="24px" font-style="normal" font-weight="normal" text-decoration="none" x="400" y="90">UNREGISTERED</text><text fill="#eeeeee" stroke="none" font-family="Arial" font-size="24px" font-style="normal" font-weight="normal" text-decoration="none" x="400" y="120">UNREGISTERED</text><text fill="#eeeeee" stroke="none" font-family="Arial" font-size="24px" font-style="normal" font-weight="normal" text-decoration="none" x="400" y="150">UNREGISTERED</text><text fill="#eeeeee" stroke="none" font-family="Arial" font-size="24px" font-style="normal" font-weight="normal" text-decoration="none" x="400" y="180">UNREGISTERED</text><text fill="#eeeeee" stroke="none" font-family="Arial" font-size="24px" font-style="normal" font-weight="normal" text-decoration="none" x="400" y="210">UNREGISTERED</text><text fill="#eeeeee" stroke="none" font-family="Arial" font-size="24px" font-style="normal" font-weight="normal" text-decoration="none" x="400" y="240">UNREGISTERED</text><text fill="#eeeeee" stroke="none" font-family="Arial" font-size="24px" font-style="normal" font-weight="normal" text-decoration="none" x="400" y="270">UNREGISTERED</text><text fill="#eeeeee" stroke="none" font-family="Arial" font-size="24px" font-style="normal" font-weight="normal" text-decoration="none" x="400" y="300">UNREGISTERED</text><text fill="#eeeeee" stroke="none" font-family="Arial" font-size="24px" font-style="normal" font-weight="normal" text-decoration="none" x="400" y="330">UNREGISTERED</text><text fill="#eeeeee" stroke="none" font-family="Arial" font-size="24px" font-style="normal" font-weight="normal" text-decoration="none" x="600" y="0">UNREGISTERED</text><text fill="#eeeeee" stroke="none" font-family="Arial" font-size="24px" font-style="normal" font-weight="normal" text-decoration="none" x="600" y="30">UNREGISTERED</text><text fill="#eeeeee" stroke="none" font-family="Arial" font-size="24px" font-style="normal" font-weight="normal" text-decoration="none" x="600" y="60">UNREGISTERED</text><text fill="#eeeeee" stroke="none" font-family="Arial" font-size="24px" font-style="normal" font-weight="normal" text-decoration="none" x="600" y="90">UNREGISTERED</text><text fill="#eeeeee" stroke="none" font-family="Arial" font-size="24px" font-style="normal" font-weight="normal" text-decoration="none" x="600" y="120">UNREGISTERED</text><text fill="#eeeeee" stroke="none" font-family="Arial" font-size="24px" font-style="normal" font-weight="normal" text-decoration="none" x="600" y="150">UNREGISTERED</text><text fill="#eeeeee" stroke="none" font-family="Arial" font-size="24px" font-style="normal" font-weight="normal" text-decoration="none" x="600" y="180">UNREGISTERED</text><text fill="#eeeeee" stroke="none" font-family="Arial" font-size="24px" font-style="normal" font-weight="normal" text-decoration="none" x="600" y="210">UNREGISTERED</text><text fill="#eeeeee" stroke="none" font-family="Arial" font-size="24px" font-style="normal" font-weight="normal" text-decoration="none" x="600" y="240">UNREGISTERED</text><text fill="#eeeeee" stroke="none" font-family="Arial" font-size="24px" font-style="normal" font-weight="normal" text-decoration="none" x="600" y="270">UNREGISTERED</text><text fill="#eeeeee" stroke="none" font-family="Arial" font-size="24px" font-style="normal" font-weight="normal" text-decoration="none" x="600" y="300">UNREGISTERED</text><text fill="#eeeeee" stroke="none" font-family="Arial" font-size="24px" font-style="normal" font-weight="normal" text-decoration="none" x="600" y="330">UNREGISTERED</text><g transform="translate(-118,-22) scale(1,1)"><path fill="none" stroke="#000000" d="M 128 32 L 760 32 L 760 368 L 128 368 L 128 32" stroke-miterlimit="10"/></g><g transform="translate(-118,-22) scale(1,1)"><path fill="#ffffff" stroke="none" d="M 128 32 L 128 54 L 201.0908203125 54 L 212.0908203125 43 L 212.0908203125 32 L 128 32"/></g><g transform="translate(-118,-22) scale(1,1)"><path fill="none" stroke="#000000" d="M 128 32 L 128 54 L 201.0908203125 54 L 212.0908203125 43 L 212.0908203125 32 L 128 32 L 128 32" stroke-miterlimit="10"/></g><g transform="translate(-118,-22) scale(1,1)"><g><path fill="none" stroke="none"/><text fill="#000000" stroke="none" font-family="Arial" font-size="13px" font-style="normal" font-weight="normal" text-decoration="none" x="152.72998046875" y="48">product</text></g></g><g transform="translate(-118,-22) scale(1,1)"><g><path fill="none" stroke="none"/><text fill="#000000" stroke="none" font-family="Arial" font-size="13px" font-style="normal" font-weight="bold" text-decoration="none" x="132.279541015625" y="48">sd</text></g></g><g transform="translate(-118,-22) scale(1,1)"><rect fill="#C0C0C0" stroke="none" x="335" y="47" width="76.052734375" height="39" opacity="0.2"/></g><g transform="translate(-118,-22) scale(1,1)"><rect fill="#ffffff" stroke="none" x="328" y="40" width="76.052734375" height="39"/></g><g transform="translate(-118,-22) scale(1,1)"><path fill="none" stroke="#000000" d="M 328 40 L 404.052734375 40 L 404.052734375 79 L 328 79 L 328 40 Z Z" stroke-miterlimit="10"/></g><g transform="translate(-118,-22) scale(1,1)"><g><path fill="none" stroke="none"/><text fill="#000000" stroke="none" font-family="Arial" font-size="13px" font-style="normal" font-weight="bold" text-decoration="none" x="337.5" y="58">: Product</text></g></g><g transform="translate(-118,-22) scale(1,1)"><path fill="none" stroke="#000000" d="M 367.5 80 L 367.5 352" stroke-miterlimit="10" stroke-dasharray="3"/></g><g transform="translate(-118,-22) scale(1,1)"><path fill="#000000" stroke="none" d="M 168 119.5 C 168 115.6340064 171.1340064 112.5 175 112.5 C 178.8659936 112.5 182 115.6340064 182 119.5 C 182 123.3659936 178.8659936 126.5 175 126.5 C 171.1340064 126.5 168 123.3659936 168 119.5 Z"/></g><g transform="translate(-118,-22) scale(1,1)"><path fill="none" stroke="#000000" d="M 182 120 L 360 120" stroke-miterlimit="10"/></g><g transform="translate(-118,-22) scale(1,1)"><path fill="#000000" stroke="none" d="M 349.83732514237585 124.20951775601598 L 360 120 L 349.83732514237585 115.79048224398402"/></g><g transform="translate(-118,-22) scale(1,1)"><path fill="none" stroke="#000000" d="M 349.83732514237585 124.20951775601598 L 360 120 L 349.83732514237585 115.79048224398402 L 349.83732514237585 124.20951775601598" stroke-miterlimit="10"/></g><g transform="translate(-118,-22) scale(1,1)"><g><path fill="none" stroke="none"/><text fill="#000000" stroke="none" font-family="Arial" font-size="13px" font-style="normal" font-weight="normal" text-decoration="none" x="239.53271484375" y="115">product(id)</text></g></g><g transform="translate(-118,-22) scale(1,1)"><rect fill="#ffffff" stroke="none" x="360" y="120" width="13" height="200"/></g><g transform="translate(-118,-22) scale(1,1)"><path fill="none" stroke="#000000" d="M 360 120 L 373 120 L 373 320 L 360 320 L 360 120 Z Z" stroke-miterlimit="10"/></g><g transform="translate(-118,-22) scale(1,1)"><path fill="none" stroke="#000000" d="M 373 160 L 403 160 L 403 180 L 380 180" stroke-miterlimit="10"/></g><g transform="translate(-118,-22) scale(1,1)"><path fill="#000000" stroke="none" d="M 390.16267485762415 175.790482243984 L 380 180 L 390.16267485762415 184.209517756016"/></g><g transform="translate(-118,-22) scale(1,1)"><path fill="none" stroke="#000000" d="M 390.16267485762415 175.790482243984 L 380 180 L 390.16267485762415 184.209517756016 L 390.16267485762415 175.790482243984" stroke-miterlimit="10"/></g><g transform="translate(-118,-22) scale(1,1)"><g><path fill="none" stroke="none"/><text fill="#000000" stroke="none" font-family="Arial" font-size="13px" font-style="normal" font-weight="normal" text-decoration="none" x="416.53271484375" y="174">getProductById(id)</text></g></g><g transform="translate(-118,-22) scale(1,1)"><rect fill="#ffffff" stroke="none" x="367" y="180" width="13" height="28"/></g><g transform="translate(-118,-22) scale(1,1)"><path fill="none" stroke="#000000" d="M 367 180 L 380 180 L 380 208 L 367 208 L 367 180 Z Z" stroke-miterlimit="10"/></g><g transform="translate(-118,-22) scale(1,1)"><path fill="none" stroke="#000000" d="M 373 232 L 403 232 L 403 252 L 380 252" stroke-miterlimit="10"/></g><g transform="translate(-118,-22) scale(1,1)"><path fill="#000000" stroke="none" d="M 390.16267485762415 247.790482243984 L 380 252 L 390.16267485762415 256.209517756016"/></g><g transform="translate(-118,-22) scale(1,1)"><path fill="none" stroke="#000000" d="M 390.16267485762415 247.790482243984 L 380 252 L 390.16267485762415 256.209517756016 L 390.16267485762415 247.790482243984" stroke-miterlimit="10"/></g><g transform="translate(-118,-22) scale(1,1)"><g><path fill="none" stroke="none"/><text fill="#000000" stroke="none" font-family="Arial" font-size="13px" font-style="normal" font-weight="normal" text-decoration="none" x="407.53271484375" y="251">getTop4ProductsByFlavor(flavorId, currentProductId)</text></g></g><g transform="translate(-118,-22) scale(1,1)"><rect fill="#ffffff" stroke="none" x="367" y="252" width="13" height="28"/></g><g transform="translate(-118,-22) scale(1,1)"><path fill="none" stroke="#000000" d="M 367 252 L 380 252 L 380 280 L 367 280 L 367 252 Z Z" stroke-miterlimit="10"/></g></g></svg>