<svg version="1.1" xmlns="http://www.w3.org/2000/svg" xmlns:xlink="http://www.w3.org/1999/xlink" width="735.0439453125" height="252"><defs/><g><text fill="#eeeeee" stroke="none" font-family="Arial" font-size="24px" font-style="normal" font-weight="normal" text-decoration="none" x="0" y="0">UNREGISTERED</text><text fill="#eeeeee" stroke="none" font-family="Arial" font-size="24px" font-style="normal" font-weight="normal" text-decoration="none" x="0" y="30">UNREGISTERED</text><text fill="#eeeeee" stroke="none" font-family="Arial" font-size="24px" font-style="normal" font-weight="normal" text-decoration="none" x="0" y="60">UNREGISTERED</text><text fill="#eeeeee" stroke="none" font-family="Arial" font-size="24px" font-style="normal" font-weight="normal" text-decoration="none" x="0" y="90">UNREGISTERED</text><text fill="#eeeeee" stroke="none" font-family="Arial" font-size="24px" font-style="normal" font-weight="normal" text-decoration="none" x="0" y="120">UNREGISTERED</text><text fill="#eeeeee" stroke="none" font-family="Arial" font-size="24px" font-style="normal" font-weight="normal" text-decoration="none" x="0" y="150">UNREGISTERED</text><text fill="#eeeeee" stroke="none" font-family="Arial" font-size="24px" font-style="normal" font-weight="normal" text-decoration="none" x="0" y="180">UNREGISTERED</text><text fill="#eeeeee" stroke="none" font-family="Arial" font-size="24px" font-style="normal" font-weight="normal" text-decoration="none" x="0" y="210">UNREGISTERED</text><text fill="#eeeeee" stroke="none" font-family="Arial" font-size="24px" font-style="normal" font-weight="normal" text-decoration="none" x="0" y="240">UNREGISTERED</text><text fill="#eeeeee" stroke="none" font-family="Arial" font-size="24px" font-style="normal" font-weight="normal" text-decoration="none" x="200" y="0">UNREGISTERED</text><text fill="#eeeeee" stroke="none" font-family="Arial" font-size="24px" font-style="normal" font-weight="normal" text-decoration="none" x="200" y="30">UNREGISTERED</text><text fill="#eeeeee" stroke="none" font-family="Arial" font-size="24px" font-style="normal" font-weight="normal" text-decoration="none" x="200" y="60">UNREGISTERED</text><text fill="#eeeeee" stroke="none" font-family="Arial" font-size="24px" font-style="normal" font-weight="normal" text-decoration="none" x="200" y="90">UNREGISTERED</text><text fill="#eeeeee" stroke="none" font-family="Arial" font-size="24px" font-style="normal" font-weight="normal" text-decoration="none" x="200" y="120">UNREGISTERED</text><text fill="#eeeeee" stroke="none" font-family="Arial" font-size="24px" font-style="normal" font-weight="normal" text-decoration="none" x="200" y="150">UNREGISTERED</text><text fill="#eeeeee" stroke="none" font-family="Arial" font-size="24px" font-style="normal" font-weight="normal" text-decoration="none" x="200" y="180">UNREGISTERED</text><text fill="#eeeeee" stroke="none" font-family="Arial" font-size="24px" font-style="normal" font-weight="normal" text-decoration="none" x="200" y="210">UNREGISTERED</text><text fill="#eeeeee" stroke="none" font-family="Arial" font-size="24px" font-style="normal" font-weight="normal" text-decoration="none" x="200" y="240">UNREGISTERED</text><text fill="#eeeeee" stroke="none" font-family="Arial" font-size="24px" font-style="normal" font-weight="normal" text-decoration="none" x="400" y="0">UNREGISTERED</text><text fill="#eeeeee" stroke="none" font-family="Arial" font-size="24px" font-style="normal" font-weight="normal" text-decoration="none" x="400" y="30">UNREGISTERED</text><text fill="#eeeeee" stroke="none" font-family="Arial" font-size="24px" font-style="normal" font-weight="normal" text-decoration="none" x="400" y="60">UNREGISTERED</text><text fill="#eeeeee" stroke="none" font-family="Arial" font-size="24px" font-style="normal" font-weight="normal" text-decoration="none" x="400" y="90">UNREGISTERED</text><text fill="#eeeeee" stroke="none" font-family="Arial" font-size="24px" font-style="normal" font-weight="normal" text-decoration="none" x="400" y="120">UNREGISTERED</text><text fill="#eeeeee" stroke="none" font-family="Arial" font-size="24px" font-style="normal" font-weight="normal" text-decoration="none" x="400" y="150">UNREGISTERED</text><text fill="#eeeeee" stroke="none" font-family="Arial" font-size="24px" font-style="normal" font-weight="normal" text-decoration="none" x="400" y="180">UNREGISTERED</text><text fill="#eeeeee" stroke="none" font-family="Arial" font-size="24px" font-style="normal" font-weight="normal" text-decoration="none" x="400" y="210">UNREGISTERED</text><text fill="#eeeeee" stroke="none" font-family="Arial" font-size="24px" font-style="normal" font-weight="normal" text-decoration="none" x="400" y="240">UNREGISTERED</text><text fill="#eeeeee" stroke="none" font-family="Arial" font-size="24px" font-style="normal" font-weight="normal" text-decoration="none" x="600" y="0">UNREGISTERED</text><text fill="#eeeeee" stroke="none" font-family="Arial" font-size="24px" font-style="normal" font-weight="normal" text-decoration="none" x="600" y="30">UNREGISTERED</text><text fill="#eeeeee" stroke="none" font-family="Arial" font-size="24px" font-style="normal" font-weight="normal" text-decoration="none" x="600" y="60">UNREGISTERED</text><text fill="#eeeeee" stroke="none" font-family="Arial" font-size="24px" font-style="normal" font-weight="normal" text-decoration="none" x="600" y="90">UNREGISTERED</text><text fill="#eeeeee" stroke="none" font-family="Arial" font-size="24px" font-style="normal" font-weight="normal" text-decoration="none" x="600" y="120">UNREGISTERED</text><text fill="#eeeeee" stroke="none" font-family="Arial" font-size="24px" font-style="normal" font-weight="normal" text-decoration="none" x="600" y="150">UNREGISTERED</text><text fill="#eeeeee" stroke="none" font-family="Arial" font-size="24px" font-style="normal" font-weight="normal" text-decoration="none" x="600" y="180">UNREGISTERED</text><text fill="#eeeeee" stroke="none" font-family="Arial" font-size="24px" font-style="normal" font-weight="normal" text-decoration="none" x="600" y="210">UNREGISTERED</text><text fill="#eeeeee" stroke="none" font-family="Arial" font-size="24px" font-style="normal" font-weight="normal" text-decoration="none" x="600" y="240">UNREGISTERED</text><g transform="translate(-118,-22) scale(1,1)"><path fill="none" stroke="#000000" d="M 128 32 L 819 32 L 819 264 L 128 264 L 128 32" stroke-miterlimit="10"/></g><g transform="translate(-118,-22) scale(1,1)"><path fill="#ffffff" stroke="none" d="M 128 32 L 128 54 L 259.62890625 54 L 270.62890625 43 L 270.62890625 32 L 128 32"/></g><g transform="translate(-118,-22) scale(1,1)"><path fill="none" stroke="#000000" d="M 128 32 L 128 54 L 259.62890625 54 L 270.62890625 43 L 270.62890625 32 L 128 32 L 128 32" stroke-miterlimit="10"/></g><g transform="translate(-118,-22) scale(1,1)"><g><path fill="none" stroke="none"/><text fill="#000000" stroke="none" font-family="Arial" font-size="13px" font-style="normal" font-weight="normal" text-decoration="none" x="152.72998046875" y="48">showSearchPage</text></g></g><g transform="translate(-118,-22) scale(1,1)"><g><path fill="none" stroke="none"/><text fill="#000000" stroke="none" font-family="Arial" font-size="13px" font-style="normal" font-weight="bold" text-decoration="none" x="132.279541015625" y="48">sd</text></g></g><g transform="translate(-118,-22) scale(1,1)"><rect fill="#C0C0C0" stroke="none" x="399" y="47" width="76.052734375" height="39" opacity="0.2"/></g><g transform="translate(-118,-22) scale(1,1)"><rect fill="#ffffff" stroke="none" x="392" y="40" width="76.052734375" height="39"/></g><g transform="translate(-118,-22) scale(1,1)"><path fill="none" stroke="#000000" d="M 392 40 L 468.052734375 40 L 468.052734375 79 L 392 79 L 392 40 Z Z" stroke-miterlimit="10"/></g><g transform="translate(-118,-22) scale(1,1)"><g><path fill="none" stroke="none"/><text fill="#000000" stroke="none" font-family="Arial" font-size="13px" font-style="normal" font-weight="bold" text-decoration="none" x="401.5" y="58">: Product</text></g></g><g transform="translate(-118,-22) scale(1,1)"><path fill="none" stroke="#000000" d="M 431.5 80 L 431.5 240" stroke-miterlimit="10" stroke-dasharray="3"/></g><g transform="translate(-118,-22) scale(1,1)"><path fill="#000000" stroke="none" d="M 208 103.5 C 208 99.6340064 211.1340064 96.5 215 96.5 C 218.8659936 96.5 222 99.6340064 222 103.5 C 222 107.3659936 218.8659936 110.5 215 110.5 C 211.1340064 110.5 208 107.3659936 208 103.5 Z"/></g><g transform="translate(-118,-22) scale(1,1)"><path fill="none" stroke="#000000" d="M 222 104 L 424 104" stroke-miterlimit="10"/></g><g transform="translate(-118,-22) scale(1,1)"><path fill="#000000" stroke="none" d="M 413.83732514237585 108.20951775601598 L 424 104 L 413.83732514237585 99.79048224398402"/></g><g transform="translate(-118,-22) scale(1,1)"><path fill="none" stroke="#000000" d="M 413.83732514237585 108.20951775601598 L 424 104 L 413.83732514237585 99.79048224398402 L 413.83732514237585 108.20951775601598" stroke-miterlimit="10"/></g><g transform="translate(-118,-22) scale(1,1)"><g><path fill="none" stroke="none"/><text fill="#000000" stroke="none" font-family="Arial" font-size="13px" font-style="normal" font-weight="normal" text-decoration="none" x="161.53271484375" y="98">showSearchPage(name, sortType, page)</text></g></g><g transform="translate(-118,-22) scale(1,1)"><rect fill="#ffffff" stroke="none" x="424" y="104" width="13" height="112"/></g><g transform="translate(-118,-22) scale(1,1)"><path fill="none" stroke="#000000" d="M 424 104 L 437 104 L 437 216 L 424 216 L 424 104 Z Z" stroke-miterlimit="10"/></g><g transform="translate(-118,-22) scale(1,1)"><path fill="none" stroke="#000000" d="M 437 144 L 467 144 L 467 164 L 444 164" stroke-miterlimit="10"/></g><g transform="translate(-118,-22) scale(1,1)"><path fill="#000000" stroke="none" d="M 454.16267485762415 159.790482243984 L 444 164 L 454.16267485762415 168.209517756016"/></g><g transform="translate(-118,-22) scale(1,1)"><path fill="none" stroke="#000000" d="M 454.16267485762415 159.790482243984 L 444 164 L 454.16267485762415 168.209517756016 L 454.16267485762415 159.790482243984" stroke-miterlimit="10"/></g><g transform="translate(-118,-22) scale(1,1)"><g><path fill="none" stroke="none"/><text fill="#000000" stroke="none" font-family="Arial" font-size="13px" font-style="normal" font-weight="normal" text-decoration="none" x="478.80126953125" y="158">productService.getProductsByName(name, pageable)</text></g></g><g transform="translate(-118,-22) scale(1,1)"><rect fill="#ffffff" stroke="none" x="431" y="164" width="13" height="28"/></g><g transform="translate(-118,-22) scale(1,1)"><path fill="none" stroke="#000000" d="M 431 164 L 444 164 L 444 192 L 431 192 L 431 164 Z Z" stroke-miterlimit="10"/></g></g></svg>