<svg version="1.1" xmlns="http://www.w3.org/2000/svg" xmlns:xlink="http://www.w3.org/1999/xlink" width="1028" height="668"><defs/><g><text fill="#eeeeee" stroke="none" font-family="Arial" font-size="24px" font-style="normal" font-weight="normal" text-decoration="none" x="0" y="0">UNREGISTERED</text><text fill="#eeeeee" stroke="none" font-family="Arial" font-size="24px" font-style="normal" font-weight="normal" text-decoration="none" x="0" y="30">UNREGISTERED</text><text fill="#eeeeee" stroke="none" font-family="Arial" font-size="24px" font-style="normal" font-weight="normal" text-decoration="none" x="0" y="60">UNREGISTERED</text><text fill="#eeeeee" stroke="none" font-family="Arial" font-size="24px" font-style="normal" font-weight="normal" text-decoration="none" x="0" y="90">UNREGISTERED</text><text fill="#eeeeee" stroke="none" font-family="Arial" font-size="24px" font-style="normal" font-weight="normal" text-decoration="none" x="0" y="120">UNREGISTERED</text><text fill="#eeeeee" stroke="none" font-family="Arial" font-size="24px" font-style="normal" font-weight="normal" text-decoration="none" x="0" y="150">UNREGISTERED</text><text fill="#eeeeee" stroke="none" font-family="Arial" font-size="24px" font-style="normal" font-weight="normal" text-decoration="none" x="0" y="180">UNREGISTERED</text><text fill="#eeeeee" stroke="none" font-family="Arial" font-size="24px" font-style="normal" font-weight="normal" text-decoration="none" x="0" y="210">UNREGISTERED</text><text fill="#eeeeee" stroke="none" font-family="Arial" font-size="24px" font-style="normal" font-weight="normal" text-decoration="none" x="0" y="240">UNREGISTERED</text><text fill="#eeeeee" stroke="none" font-family="Arial" font-size="24px" font-style="normal" font-weight="normal" text-decoration="none" x="0" y="270">UNREGISTERED</text><text fill="#eeeeee" stroke="none" font-family="Arial" font-size="24px" font-style="normal" font-weight="normal" text-decoration="none" x="0" y="300">UNREGISTERED</text><text fill="#eeeeee" stroke="none" font-family="Arial" font-size="24px" font-style="normal" font-weight="normal" text-decoration="none" x="0" y="330">UNREGISTERED</text><text fill="#eeeeee" stroke="none" font-family="Arial" font-size="24px" font-style="normal" font-weight="normal" text-decoration="none" x="0" y="360">UNREGISTERED</text><text fill="#eeeeee" stroke="none" font-family="Arial" font-size="24px" font-style="normal" font-weight="normal" text-decoration="none" x="0" y="390">UNREGISTERED</text><text fill="#eeeeee" stroke="none" font-family="Arial" font-size="24px" font-style="normal" font-weight="normal" text-decoration="none" x="0" y="420">UNREGISTERED</text><text fill="#eeeeee" stroke="none" font-family="Arial" font-size="24px" font-style="normal" font-weight="normal" text-decoration="none" x="0" y="450">UNREGISTERED</text><text fill="#eeeeee" stroke="none" font-family="Arial" font-size="24px" font-style="normal" font-weight="normal" text-decoration="none" x="0" y="480">UNREGISTERED</text><text fill="#eeeeee" stroke="none" font-family="Arial" font-size="24px" font-style="normal" font-weight="normal" text-decoration="none" x="0" y="510">UNREGISTERED</text><text fill="#eeeeee" stroke="none" font-family="Arial" font-size="24px" font-style="normal" font-weight="normal" text-decoration="none" x="0" y="540">UNREGISTERED</text><text fill="#eeeeee" stroke="none" font-family="Arial" font-size="24px" font-style="normal" font-weight="normal" text-decoration="none" x="0" y="570">UNREGISTERED</text><text fill="#eeeeee" stroke="none" font-family="Arial" font-size="24px" font-style="normal" font-weight="normal" text-decoration="none" x="0" y="600">UNREGISTERED</text><text fill="#eeeeee" stroke="none" font-family="Arial" font-size="24px" font-style="normal" font-weight="normal" text-decoration="none" x="0" y="630">UNREGISTERED</text><text fill="#eeeeee" stroke="none" font-family="Arial" font-size="24px" font-style="normal" font-weight="normal" text-decoration="none" x="0" y="660">UNREGISTERED</text><text fill="#eeeeee" stroke="none" font-family="Arial" font-size="24px" font-style="normal" font-weight="normal" text-decoration="none" x="200" y="0">UNREGISTERED</text><text fill="#eeeeee" stroke="none" font-family="Arial" font-size="24px" font-style="normal" font-weight="normal" text-decoration="none" x="200" y="30">UNREGISTERED</text><text fill="#eeeeee" stroke="none" font-family="Arial" font-size="24px" font-style="normal" font-weight="normal" text-decoration="none" x="200" y="60">UNREGISTERED</text><text fill="#eeeeee" stroke="none" font-family="Arial" font-size="24px" font-style="normal" font-weight="normal" text-decoration="none" x="200" y="90">UNREGISTERED</text><text fill="#eeeeee" stroke="none" font-family="Arial" font-size="24px" font-style="normal" font-weight="normal" text-decoration="none" x="200" y="120">UNREGISTERED</text><text fill="#eeeeee" stroke="none" font-family="Arial" font-size="24px" font-style="normal" font-weight="normal" text-decoration="none" x="200" y="150">UNREGISTERED</text><text fill="#eeeeee" stroke="none" font-family="Arial" font-size="24px" font-style="normal" font-weight="normal" text-decoration="none" x="200" y="180">UNREGISTERED</text><text fill="#eeeeee" stroke="none" font-family="Arial" font-size="24px" font-style="normal" font-weight="normal" text-decoration="none" x="200" y="210">UNREGISTERED</text><text fill="#eeeeee" stroke="none" font-family="Arial" font-size="24px" font-style="normal" font-weight="normal" text-decoration="none" x="200" y="240">UNREGISTERED</text><text fill="#eeeeee" stroke="none" font-family="Arial" font-size="24px" font-style="normal" font-weight="normal" text-decoration="none" x="200" y="270">UNREGISTERED</text><text fill="#eeeeee" stroke="none" font-family="Arial" font-size="24px" font-style="normal" font-weight="normal" text-decoration="none" x="200" y="300">UNREGISTERED</text><text fill="#eeeeee" stroke="none" font-family="Arial" font-size="24px" font-style="normal" font-weight="normal" text-decoration="none" x="200" y="330">UNREGISTERED</text><text fill="#eeeeee" stroke="none" font-family="Arial" font-size="24px" font-style="normal" font-weight="normal" text-decoration="none" x="200" y="360">UNREGISTERED</text><text fill="#eeeeee" stroke="none" font-family="Arial" font-size="24px" font-style="normal" font-weight="normal" text-decoration="none" x="200" y="390">UNREGISTERED</text><text fill="#eeeeee" stroke="none" font-family="Arial" font-size="24px" font-style="normal" font-weight="normal" text-decoration="none" x="200" y="420">UNREGISTERED</text><text fill="#eeeeee" stroke="none" font-family="Arial" font-size="24px" font-style="normal" font-weight="normal" text-decoration="none" x="200" y="450">UNREGISTERED</text><text fill="#eeeeee" stroke="none" font-family="Arial" font-size="24px" font-style="normal" font-weight="normal" text-decoration="none" x="200" y="480">UNREGISTERED</text><text fill="#eeeeee" stroke="none" font-family="Arial" font-size="24px" font-style="normal" font-weight="normal" text-decoration="none" x="200" y="510">UNREGISTERED</text><text fill="#eeeeee" stroke="none" font-family="Arial" font-size="24px" font-style="normal" font-weight="normal" text-decoration="none" x="200" y="540">UNREGISTERED</text><text fill="#eeeeee" stroke="none" font-family="Arial" font-size="24px" font-style="normal" font-weight="normal" text-decoration="none" x="200" y="570">UNREGISTERED</text><text fill="#eeeeee" stroke="none" font-family="Arial" font-size="24px" font-style="normal" font-weight="normal" text-decoration="none" x="200" y="600">UNREGISTERED</text><text fill="#eeeeee" stroke="none" font-family="Arial" font-size="24px" font-style="normal" font-weight="normal" text-decoration="none" x="200" y="630">UNREGISTERED</text><text fill="#eeeeee" stroke="none" font-family="Arial" font-size="24px" font-style="normal" font-weight="normal" text-decoration="none" x="200" y="660">UNREGISTERED</text><text fill="#eeeeee" stroke="none" font-family="Arial" font-size="24px" font-style="normal" font-weight="normal" text-decoration="none" x="400" y="0">UNREGISTERED</text><text fill="#eeeeee" stroke="none" font-family="Arial" font-size="24px" font-style="normal" font-weight="normal" text-decoration="none" x="400" y="30">UNREGISTERED</text><text fill="#eeeeee" stroke="none" font-family="Arial" font-size="24px" font-style="normal" font-weight="normal" text-decoration="none" x="400" y="60">UNREGISTERED</text><text fill="#eeeeee" stroke="none" font-family="Arial" font-size="24px" font-style="normal" font-weight="normal" text-decoration="none" x="400" y="90">UNREGISTERED</text><text fill="#eeeeee" stroke="none" font-family="Arial" font-size="24px" font-style="normal" font-weight="normal" text-decoration="none" x="400" y="120">UNREGISTERED</text><text fill="#eeeeee" stroke="none" font-family="Arial" font-size="24px" font-style="normal" font-weight="normal" text-decoration="none" x="400" y="150">UNREGISTERED</text><text fill="#eeeeee" stroke="none" font-family="Arial" font-size="24px" font-style="normal" font-weight="normal" text-decoration="none" x="400" y="180">UNREGISTERED</text><text fill="#eeeeee" stroke="none" font-family="Arial" font-size="24px" font-style="normal" font-weight="normal" text-decoration="none" x="400" y="210">UNREGISTERED</text><text fill="#eeeeee" stroke="none" font-family="Arial" font-size="24px" font-style="normal" font-weight="normal" text-decoration="none" x="400" y="240">UNREGISTERED</text><text fill="#eeeeee" stroke="none" font-family="Arial" font-size="24px" font-style="normal" font-weight="normal" text-decoration="none" x="400" y="270">UNREGISTERED</text><text fill="#eeeeee" stroke="none" font-family="Arial" font-size="24px" font-style="normal" font-weight="normal" text-decoration="none" x="400" y="300">UNREGISTERED</text><text fill="#eeeeee" stroke="none" font-family="Arial" font-size="24px" font-style="normal" font-weight="normal" text-decoration="none" x="400" y="330">UNREGISTERED</text><text fill="#eeeeee" stroke="none" font-family="Arial" font-size="24px" font-style="normal" font-weight="normal" text-decoration="none" x="400" y="360">UNREGISTERED</text><text fill="#eeeeee" stroke="none" font-family="Arial" font-size="24px" font-style="normal" font-weight="normal" text-decoration="none" x="400" y="390">UNREGISTERED</text><text fill="#eeeeee" stroke="none" font-family="Arial" font-size="24px" font-style="normal" font-weight="normal" text-decoration="none" x="400" y="420">UNREGISTERED</text><text fill="#eeeeee" stroke="none" font-family="Arial" font-size="24px" font-style="normal" font-weight="normal" text-decoration="none" x="400" y="450">UNREGISTERED</text><text fill="#eeeeee" stroke="none" font-family="Arial" font-size="24px" font-style="normal" font-weight="normal" text-decoration="none" x="400" y="480">UNREGISTERED</text><text fill="#eeeeee" stroke="none" font-family="Arial" font-size="24px" font-style="normal" font-weight="normal" text-decoration="none" x="400" y="510">UNREGISTERED</text><text fill="#eeeeee" stroke="none" font-family="Arial" font-size="24px" font-style="normal" font-weight="normal" text-decoration="none" x="400" y="540">UNREGISTERED</text><text fill="#eeeeee" stroke="none" font-family="Arial" font-size="24px" font-style="normal" font-weight="normal" text-decoration="none" x="400" y="570">UNREGISTERED</text><text fill="#eeeeee" stroke="none" font-family="Arial" font-size="24px" font-style="normal" font-weight="normal" text-decoration="none" x="400" y="600">UNREGISTERED</text><text fill="#eeeeee" stroke="none" font-family="Arial" font-size="24px" font-style="normal" font-weight="normal" text-decoration="none" x="400" y="630">UNREGISTERED</text><text fill="#eeeeee" stroke="none" font-family="Arial" font-size="24px" font-style="normal" font-weight="normal" text-decoration="none" x="400" y="660">UNREGISTERED</text><text fill="#eeeeee" stroke="none" font-family="Arial" font-size="24px" font-style="normal" font-weight="normal" text-decoration="none" x="600" y="0">UNREGISTERED</text><text fill="#eeeeee" stroke="none" font-family="Arial" font-size="24px" font-style="normal" font-weight="normal" text-decoration="none" x="600" y="30">UNREGISTERED</text><text fill="#eeeeee" stroke="none" font-family="Arial" font-size="24px" font-style="normal" font-weight="normal" text-decoration="none" x="600" y="60">UNREGISTERED</text><text fill="#eeeeee" stroke="none" font-family="Arial" font-size="24px" font-style="normal" font-weight="normal" text-decoration="none" x="600" y="90">UNREGISTERED</text><text fill="#eeeeee" stroke="none" font-family="Arial" font-size="24px" font-style="normal" font-weight="normal" text-decoration="none" x="600" y="120">UNREGISTERED</text><text fill="#eeeeee" stroke="none" font-family="Arial" font-size="24px" font-style="normal" font-weight="normal" text-decoration="none" x="600" y="150">UNREGISTERED</text><text fill="#eeeeee" stroke="none" font-family="Arial" font-size="24px" font-style="normal" font-weight="normal" text-decoration="none" x="600" y="180">UNREGISTERED</text><text fill="#eeeeee" stroke="none" font-family="Arial" font-size="24px" font-style="normal" font-weight="normal" text-decoration="none" x="600" y="210">UNREGISTERED</text><text fill="#eeeeee" stroke="none" font-family="Arial" font-size="24px" font-style="normal" font-weight="normal" text-decoration="none" x="600" y="240">UNREGISTERED</text><text fill="#eeeeee" stroke="none" font-family="Arial" font-size="24px" font-style="normal" font-weight="normal" text-decoration="none" x="600" y="270">UNREGISTERED</text><text fill="#eeeeee" stroke="none" font-family="Arial" font-size="24px" font-style="normal" font-weight="normal" text-decoration="none" x="600" y="300">UNREGISTERED</text><text fill="#eeeeee" stroke="none" font-family="Arial" font-size="24px" font-style="normal" font-weight="normal" text-decoration="none" x="600" y="330">UNREGISTERED</text><text fill="#eeeeee" stroke="none" font-family="Arial" font-size="24px" font-style="normal" font-weight="normal" text-decoration="none" x="600" y="360">UNREGISTERED</text><text fill="#eeeeee" stroke="none" font-family="Arial" font-size="24px" font-style="normal" font-weight="normal" text-decoration="none" x="600" y="390">UNREGISTERED</text><text fill="#eeeeee" stroke="none" font-family="Arial" font-size="24px" font-style="normal" font-weight="normal" text-decoration="none" x="600" y="420">UNREGISTERED</text><text fill="#eeeeee" stroke="none" font-family="Arial" font-size="24px" font-style="normal" font-weight="normal" text-decoration="none" x="600" y="450">UNREGISTERED</text><text fill="#eeeeee" stroke="none" font-family="Arial" font-size="24px" font-style="normal" font-weight="normal" text-decoration="none" x="600" y="480">UNREGISTERED</text><text fill="#eeeeee" stroke="none" font-family="Arial" font-size="24px" font-style="normal" font-weight="normal" text-decoration="none" x="600" y="510">UNREGISTERED</text><text fill="#eeeeee" stroke="none" font-family="Arial" font-size="24px" font-style="normal" font-weight="normal" text-decoration="none" x="600" y="540">UNREGISTERED</text><text fill="#eeeeee" stroke="none" font-family="Arial" font-size="24px" font-style="normal" font-weight="normal" text-decoration="none" x="600" y="570">UNREGISTERED</text><text fill="#eeeeee" stroke="none" font-family="Arial" font-size="24px" font-style="normal" font-weight="normal" text-decoration="none" x="600" y="600">UNREGISTERED</text><text fill="#eeeeee" stroke="none" font-family="Arial" font-size="24px" font-style="normal" font-weight="normal" text-decoration="none" x="600" y="630">UNREGISTERED</text><text fill="#eeeeee" stroke="none" font-family="Arial" font-size="24px" font-style="normal" font-weight="normal" text-decoration="none" x="600" y="660">UNREGISTERED</text><text fill="#eeeeee" stroke="none" font-family="Arial" font-size="24px" font-style="normal" font-weight="normal" text-decoration="none" x="800" y="0">UNREGISTERED</text><text fill="#eeeeee" stroke="none" font-family="Arial" font-size="24px" font-style="normal" font-weight="normal" text-decoration="none" x="800" y="30">UNREGISTERED</text><text fill="#eeeeee" stroke="none" font-family="Arial" font-size="24px" font-style="normal" font-weight="normal" text-decoration="none" x="800" y="60">UNREGISTERED</text><text fill="#eeeeee" stroke="none" font-family="Arial" font-size="24px" font-style="normal" font-weight="normal" text-decoration="none" x="800" y="90">UNREGISTERED</text><text fill="#eeeeee" stroke="none" font-family="Arial" font-size="24px" font-style="normal" font-weight="normal" text-decoration="none" x="800" y="120">UNREGISTERED</text><text fill="#eeeeee" stroke="none" font-family="Arial" font-size="24px" font-style="normal" font-weight="normal" text-decoration="none" x="800" y="150">UNREGISTERED</text><text fill="#eeeeee" stroke="none" font-family="Arial" font-size="24px" font-style="normal" font-weight="normal" text-decoration="none" x="800" y="180">UNREGISTERED</text><text fill="#eeeeee" stroke="none" font-family="Arial" font-size="24px" font-style="normal" font-weight="normal" text-decoration="none" x="800" y="210">UNREGISTERED</text><text fill="#eeeeee" stroke="none" font-family="Arial" font-size="24px" font-style="normal" font-weight="normal" text-decoration="none" x="800" y="240">UNREGISTERED</text><text fill="#eeeeee" stroke="none" font-family="Arial" font-size="24px" font-style="normal" font-weight="normal" text-decoration="none" x="800" y="270">UNREGISTERED</text><text fill="#eeeeee" stroke="none" font-family="Arial" font-size="24px" font-style="normal" font-weight="normal" text-decoration="none" x="800" y="300">UNREGISTERED</text><text fill="#eeeeee" stroke="none" font-family="Arial" font-size="24px" font-style="normal" font-weight="normal" text-decoration="none" x="800" y="330">UNREGISTERED</text><text fill="#eeeeee" stroke="none" font-family="Arial" font-size="24px" font-style="normal" font-weight="normal" text-decoration="none" x="800" y="360">UNREGISTERED</text><text fill="#eeeeee" stroke="none" font-family="Arial" font-size="24px" font-style="normal" font-weight="normal" text-decoration="none" x="800" y="390">UNREGISTERED</text><text fill="#eeeeee" stroke="none" font-family="Arial" font-size="24px" font-style="normal" font-weight="normal" text-decoration="none" x="800" y="420">UNREGISTERED</text><text fill="#eeeeee" stroke="none" font-family="Arial" font-size="24px" font-style="normal" font-weight="normal" text-decoration="none" x="800" y="450">UNREGISTERED</text><text fill="#eeeeee" stroke="none" font-family="Arial" font-size="24px" font-style="normal" font-weight="normal" text-decoration="none" x="800" y="480">UNREGISTERED</text><text fill="#eeeeee" stroke="none" font-family="Arial" font-size="24px" font-style="normal" font-weight="normal" text-decoration="none" x="800" y="510">UNREGISTERED</text><text fill="#eeeeee" stroke="none" font-family="Arial" font-size="24px" font-style="normal" font-weight="normal" text-decoration="none" x="800" y="540">UNREGISTERED</text><text fill="#eeeeee" stroke="none" font-family="Arial" font-size="24px" font-style="normal" font-weight="normal" text-decoration="none" x="800" y="570">UNREGISTERED</text><text fill="#eeeeee" stroke="none" font-family="Arial" font-size="24px" font-style="normal" font-weight="normal" text-decoration="none" x="800" y="600">UNREGISTERED</text><text fill="#eeeeee" stroke="none" font-family="Arial" font-size="24px" font-style="normal" font-weight="normal" text-decoration="none" x="800" y="630">UNREGISTERED</text><text fill="#eeeeee" stroke="none" font-family="Arial" font-size="24px" font-style="normal" font-weight="normal" text-decoration="none" x="800" y="660">UNREGISTERED</text><text fill="#eeeeee" stroke="none" font-family="Arial" font-size="24px" font-style="normal" font-weight="normal" text-decoration="none" x="1000" y="0">UNREGISTERED</text><text fill="#eeeeee" stroke="none" font-family="Arial" font-size="24px" font-style="normal" font-weight="normal" text-decoration="none" x="1000" y="30">UNREGISTERED</text><text fill="#eeeeee" stroke="none" font-family="Arial" font-size="24px" font-style="normal" font-weight="normal" text-decoration="none" x="1000" y="60">UNREGISTERED</text><text fill="#eeeeee" stroke="none" font-family="Arial" font-size="24px" font-style="normal" font-weight="normal" text-decoration="none" x="1000" y="90">UNREGISTERED</text><text fill="#eeeeee" stroke="none" font-family="Arial" font-size="24px" font-style="normal" font-weight="normal" text-decoration="none" x="1000" y="120">UNREGISTERED</text><text fill="#eeeeee" stroke="none" font-family="Arial" font-size="24px" font-style="normal" font-weight="normal" text-decoration="none" x="1000" y="150">UNREGISTERED</text><text fill="#eeeeee" stroke="none" font-family="Arial" font-size="24px" font-style="normal" font-weight="normal" text-decoration="none" x="1000" y="180">UNREGISTERED</text><text fill="#eeeeee" stroke="none" font-family="Arial" font-size="24px" font-style="normal" font-weight="normal" text-decoration="none" x="1000" y="210">UNREGISTERED</text><text fill="#eeeeee" stroke="none" font-family="Arial" font-size="24px" font-style="normal" font-weight="normal" text-decoration="none" x="1000" y="240">UNREGISTERED</text><text fill="#eeeeee" stroke="none" font-family="Arial" font-size="24px" font-style="normal" font-weight="normal" text-decoration="none" x="1000" y="270">UNREGISTERED</text><text fill="#eeeeee" stroke="none" font-family="Arial" font-size="24px" font-style="normal" font-weight="normal" text-decoration="none" x="1000" y="300">UNREGISTERED</text><text fill="#eeeeee" stroke="none" font-family="Arial" font-size="24px" font-style="normal" font-weight="normal" text-decoration="none" x="1000" y="330">UNREGISTERED</text><text fill="#eeeeee" stroke="none" font-family="Arial" font-size="24px" font-style="normal" font-weight="normal" text-decoration="none" x="1000" y="360">UNREGISTERED</text><text fill="#eeeeee" stroke="none" font-family="Arial" font-size="24px" font-style="normal" font-weight="normal" text-decoration="none" x="1000" y="390">UNREGISTERED</text><text fill="#eeeeee" stroke="none" font-family="Arial" font-size="24px" font-style="normal" font-weight="normal" text-decoration="none" x="1000" y="420">UNREGISTERED</text><text fill="#eeeeee" stroke="none" font-family="Arial" font-size="24px" font-style="normal" font-weight="normal" text-decoration="none" x="1000" y="450">UNREGISTERED</text><text fill="#eeeeee" stroke="none" font-family="Arial" font-size="24px" font-style="normal" font-weight="normal" text-decoration="none" x="1000" y="480">UNREGISTERED</text><text fill="#eeeeee" stroke="none" font-family="Arial" font-size="24px" font-style="normal" font-weight="normal" text-decoration="none" x="1000" y="510">UNREGISTERED</text><text fill="#eeeeee" stroke="none" font-family="Arial" font-size="24px" font-style="normal" font-weight="normal" text-decoration="none" x="1000" y="540">UNREGISTERED</text><text fill="#eeeeee" stroke="none" font-family="Arial" font-size="24px" font-style="normal" font-weight="normal" text-decoration="none" x="1000" y="570">UNREGISTERED</text><text fill="#eeeeee" stroke="none" font-family="Arial" font-size="24px" font-style="normal" font-weight="normal" text-decoration="none" x="1000" y="600">UNREGISTERED</text><text fill="#eeeeee" stroke="none" font-family="Arial" font-size="24px" font-style="normal" font-weight="normal" text-decoration="none" x="1000" y="630">UNREGISTERED</text><text fill="#eeeeee" stroke="none" font-family="Arial" font-size="24px" font-style="normal" font-weight="normal" text-decoration="none" x="1000" y="660">UNREGISTERED</text><g transform="translate(-86,-14) scale(1,1)"><path fill="none" stroke="#000000" d="M 96 24 L 1104 24 L 1104 672 L 96 672 L 96 24" stroke-miterlimit="10"/></g><g transform="translate(-86,-14) scale(1,1)"><path fill="#ffffff" stroke="none" d="M 96 24 L 96 46 L 190.0380859375 46 L 201.0380859375 35 L 201.0380859375 24 L 96 24"/></g><g transform="translate(-86,-14) scale(1,1)"><path fill="none" stroke="#000000" d="M 96 24 L 96 46 L 190.0380859375 46 L 201.0380859375 35 L 201.0380859375 24 L 96 24 L 96 24" stroke-miterlimit="10"/></g><g transform="translate(-86,-14) scale(1,1)"><g><path fill="none" stroke="none"/><text fill="#000000" stroke="none" font-family="Arial" font-size="13px" font-style="normal" font-weight="normal" text-decoration="none" x="120.72998046875" y="40">placeOrder</text></g></g><g transform="translate(-86,-14) scale(1,1)"><g><path fill="none" stroke="none"/><text fill="#000000" stroke="none" font-family="Arial" font-size="13px" font-style="normal" font-weight="bold" text-decoration="none" x="100.279541015625" y="40">sd</text></g></g><g transform="translate(-86,-14) scale(1,1)"><rect fill="#C0C0C0" stroke="none" x="271" y="47" width="71.736328125" height="39" opacity="0.2"/></g><g transform="translate(-86,-14) scale(1,1)"><rect fill="#ffffff" stroke="none" x="264" y="40" width="71.736328125" height="39"/></g><g transform="translate(-86,-14) scale(1,1)"><path fill="none" stroke="#000000" d="M 264 40 L 335.736328125 40 L 335.736328125 79 L 264 79 L 264 40 Z Z" stroke-miterlimit="10"/></g><g transform="translate(-86,-14) scale(1,1)"><g><path fill="none" stroke="none"/><text fill="#000000" stroke="none" font-family="Arial" font-size="13px" font-style="normal" font-weight="bold" text-decoration="none" x="278.197265625" y="58">: Order</text></g></g><g transform="translate(-86,-14) scale(1,1)"><path fill="none" stroke="#000000" d="M 300.5 80 L 300.5 664" stroke-miterlimit="10" stroke-dasharray="3"/></g><g transform="translate(-86,-14) scale(1,1)"><rect fill="#C0C0C0" stroke="none" x="535" y="47" width="71.736328125" height="39" opacity="0.2"/></g><g transform="translate(-86,-14) scale(1,1)"><rect fill="#ffffff" stroke="none" x="528" y="40" width="71.736328125" height="39"/></g><g transform="translate(-86,-14) scale(1,1)"><path fill="none" stroke="#000000" d="M 528 40 L 599.736328125 40 L 599.736328125 79 L 528 79 L 528 40 Z Z" stroke-miterlimit="10"/></g><g transform="translate(-86,-14) scale(1,1)"><g><path fill="none" stroke="none"/><text fill="#000000" stroke="none" font-family="Arial" font-size="13px" font-style="normal" font-weight="bold" text-decoration="none" x="545.444091796875" y="58">: User</text></g></g><g transform="translate(-86,-14) scale(1,1)"><path fill="none" stroke="#000000" d="M 564.5 80 L 564.5 640" stroke-miterlimit="10" stroke-dasharray="3"/></g><g transform="translate(-86,-14) scale(1,1)"><rect fill="#C0C0C0" stroke="none" x="791" y="47" width="71.736328125" height="39" opacity="0.2"/></g><g transform="translate(-86,-14) scale(1,1)"><rect fill="#ffffff" stroke="none" x="784" y="40" width="71.736328125" height="39"/></g><g transform="translate(-86,-14) scale(1,1)"><path fill="none" stroke="#000000" d="M 784 40 L 855.736328125 40 L 855.736328125 79 L 784 79 L 784 40 Z Z" stroke-miterlimit="10"/></g><g transform="translate(-86,-14) scale(1,1)"><g><path fill="none" stroke="none"/><text fill="#000000" stroke="none" font-family="Arial" font-size="13px" font-style="normal" font-weight="bold" text-decoration="none" x="802.89453125" y="58">: Cart</text></g></g><g transform="translate(-86,-14) scale(1,1)"><path fill="none" stroke="#000000" d="M 820.5 80 L 820.5 648" stroke-miterlimit="10" stroke-dasharray="3"/></g><g transform="translate(-86,-14) scale(1,1)"><path fill="#000000" stroke="none" d="M 104 127.5 C 104 123.6340064 107.1340064 120.5 111 120.5 C 114.8659936 120.5 118 123.6340064 118 127.5 C 118 131.3659936 114.8659936 134.5 111 134.5 C 107.1340064 134.5 104 131.3659936 104 127.5 Z"/></g><g transform="translate(-86,-14) scale(1,1)"><rect fill="#C0C0C0" stroke="none" x="959" y="539" width="136.0380859375" height="39" opacity="0.2"/></g><g transform="translate(-86,-14) scale(1,1)"><rect fill="#ffffff" stroke="none" x="952" y="532" width="136.0380859375" height="39"/></g><g transform="translate(-86,-14) scale(1,1)"><path fill="none" stroke="#000000" d="M 952 532 L 1088.0380859375 532 L 1088.0380859375 571 L 952 571 L 952 532 Z Z" stroke-miterlimit="10"/></g><g transform="translate(-86,-14) scale(1,1)"><g><path fill="none" stroke="none"/><text fill="#000000" stroke="none" font-family="Arial" font-size="13px" font-style="normal" font-weight="bold" text-decoration="none" x="984.6181640625" y="550">OrderDetail</text></g></g><g transform="translate(-86,-14) scale(1,1)"><path fill="none" stroke="#000000" d="M 1021.5 572 L 1021.5 632" stroke-miterlimit="10" stroke-dasharray="3"/></g><g transform="translate(-86,-14) scale(1,1)"><path fill="none" stroke="#000000" d="M 118 128 L 293 128" stroke-miterlimit="10"/></g><g transform="translate(-86,-14) scale(1,1)"><path fill="#000000" stroke="none" d="M 282.83732514237585 132.209517756016 L 293 128 L 282.83732514237585 123.79048224398402"/></g><g transform="translate(-86,-14) scale(1,1)"><path fill="none" stroke="#000000" d="M 282.83732514237585 132.209517756016 L 293 128 L 282.83732514237585 123.79048224398402 L 282.83732514237585 132.209517756016" stroke-miterlimit="10"/></g><g transform="translate(-86,-14) scale(1,1)"><g><path fill="none" stroke="none"/><text fill="#000000" stroke="none" font-family="Arial" font-size="13px" font-style="normal" font-weight="normal" text-decoration="none" x="130.156005859375" y="98">placeOrder(email, phone,</text><text fill="#000000" stroke="none" font-family="Arial" font-size="13px" font-style="normal" font-weight="normal" text-decoration="none" x="153.769287109375" y="111">address, city, zip,</text><text fill="#000000" stroke="none" font-family="Arial" font-size="13px" font-style="normal" font-weight="normal" text-decoration="none" x="154.724609375" y="124">paymentMethod)</text></g></g><g transform="translate(-86,-14) scale(1,1)"><rect fill="#ffffff" stroke="none" x="293" y="128" width="13" height="496"/></g><g transform="translate(-86,-14) scale(1,1)"><path fill="none" stroke="#000000" d="M 293 128 L 306 128 L 306 624 L 293 624 L 293 128 Z Z" stroke-miterlimit="10"/></g><g transform="translate(-86,-14) scale(1,1)"><path fill="none" stroke="#000000" d="M 306 168 L 557 168" stroke-miterlimit="10"/></g><g transform="translate(-86,-14) scale(1,1)"><path fill="#000000" stroke="none" d="M 546.8373251423759 172.209517756016 L 557 168 L 546.8373251423758 163.790482243984"/></g><g transform="translate(-86,-14) scale(1,1)"><path fill="none" stroke="#000000" d="M 546.8373251423759 172.209517756016 L 557 168 L 546.8373251423758 163.790482243984 L 546.8373251423759 172.209517756016" stroke-miterlimit="10"/></g><g transform="translate(-86,-14) scale(1,1)"><g><path fill="none" stroke="none"/><text fill="#000000" stroke="none" font-family="Arial" font-size="13px" font-style="normal" font-weight="normal" text-decoration="none" x="326.86181640625" y="163">getUserFromAttribute(attributeUser)</text></g></g><g transform="translate(-86,-14) scale(1,1)"><rect fill="#ffffff" stroke="none" x="557" y="168" width="13" height="28"/></g><g transform="translate(-86,-14) scale(1,1)"><path fill="none" stroke="#000000" d="M 557 168 L 570 168 L 570 196 L 557 196 L 557 168 Z Z" stroke-miterlimit="10"/></g><g transform="translate(-86,-14) scale(1,1)"><path fill="none" stroke="#000000" d="M 557 192 L 306 192" stroke-miterlimit="10" stroke-dasharray="3"/></g><g transform="translate(-86,-14) scale(1,1)"><path fill="none" stroke="#000000" d="M 316.16267485762415 187.790482243984 L 306 192 L 316.16267485762415 196.209517756016" stroke-miterlimit="10"/></g><g transform="translate(-86,-14) scale(1,1)"><g><path fill="none" stroke="none"/><text fill="#000000" stroke="none" font-family="Arial" font-size="13px" font-style="normal" font-weight="normal" text-decoration="none" x="417.53271484375" y="205.5">user</text></g></g><g transform="translate(-86,-14) scale(1,1)"><path fill="none" stroke="#000000" d="M 306 264 L 813 264" stroke-miterlimit="10"/></g><g transform="translate(-86,-14) scale(1,1)"><path fill="#000000" stroke="none" d="M 802.8373251423759 268.209517756016 L 813 264 L 802.8373251423758 259.790482243984"/></g><g transform="translate(-86,-14) scale(1,1)"><path fill="none" stroke="#000000" d="M 802.8373251423759 268.209517756016 L 813 264 L 802.8373251423758 259.790482243984 L 802.8373251423759 268.209517756016" stroke-miterlimit="10"/></g><g transform="translate(-86,-14) scale(1,1)"><g><path fill="none" stroke="none"/><text fill="#000000" stroke="none" font-family="Arial" font-size="13px" font-style="normal" font-weight="normal" text-decoration="none" x="466.53271484375" y="259">getCurrentCartByUserId(userId)</text></g></g><g transform="translate(-86,-14) scale(1,1)"><rect fill="#ffffff" stroke="none" x="813" y="264" width="13" height="28"/></g><g transform="translate(-86,-14) scale(1,1)"><path fill="none" stroke="#000000" d="M 813 264 L 826 264 L 826 292 L 813 292 L 813 264 Z Z" stroke-miterlimit="10"/></g><g transform="translate(-86,-14) scale(1,1)"><path fill="none" stroke="#000000" d="M 813 280 L 306 280" stroke-miterlimit="10" stroke-dasharray="3"/></g><g transform="translate(-86,-14) scale(1,1)"><path fill="none" stroke="#000000" d="M 316.16267485762415 275.790482243984 L 306 280 L 316.16267485762415 284.209517756016" stroke-miterlimit="10"/></g><g transform="translate(-86,-14) scale(1,1)"><g><path fill="none" stroke="none"/><text fill="#000000" stroke="none" font-family="Arial" font-size="13px" font-style="normal" font-weight="normal" text-decoration="none" x="547.53271484375" y="294.5">cart</text></g></g><g transform="translate(-86,-14) scale(1,1)"><path fill="none" stroke="#000000" d="M 306 322 L 813 322" stroke-miterlimit="10"/></g><g transform="translate(-86,-14) scale(1,1)"><path fill="#000000" stroke="none" d="M 802.8373251423759 326.209517756016 L 813 322 L 802.8373251423758 317.790482243984"/></g><g transform="translate(-86,-14) scale(1,1)"><path fill="none" stroke="#000000" d="M 802.8373251423759 326.209517756016 L 813 322 L 802.8373251423758 317.790482243984 L 802.8373251423759 326.209517756016" stroke-miterlimit="10"/></g><g transform="translate(-86,-14) scale(1,1)"><g><path fill="none" stroke="none"/><text fill="#000000" stroke="none" font-family="Arial" font-size="13px" font-style="normal" font-weight="normal" text-decoration="none" x="510.53271484375" y="317">getCartItemList()</text></g></g><g transform="translate(-86,-14) scale(1,1)"><rect fill="#ffffff" stroke="none" x="813" y="322" width="13" height="28"/></g><g transform="translate(-86,-14) scale(1,1)"><path fill="none" stroke="#000000" d="M 813 322 L 826 322 L 826 350 L 813 350 L 813 322 Z Z" stroke-miterlimit="10"/></g><g transform="translate(-86,-14) scale(1,1)"><path fill="none" stroke="#000000" d="M 813 344 L 306 344" stroke-miterlimit="10" stroke-dasharray="3"/></g><g transform="translate(-86,-14) scale(1,1)"><path fill="none" stroke="#000000" d="M 316.16267485762415 339.790482243984 L 306 344 L 316.16267485762415 348.209517756016" stroke-miterlimit="10"/></g><g transform="translate(-86,-14) scale(1,1)"><g><path fill="none" stroke="none"/><text fill="#000000" stroke="none" font-family="Arial" font-size="13px" font-style="normal" font-weight="normal" text-decoration="none" x="524.53271484375" y="359">cartItemList</text></g></g><g transform="translate(-86,-14) scale(1,1)"><path fill="none" stroke="#000000" d="M 306 380 L 813 380" stroke-miterlimit="10"/></g><g transform="translate(-86,-14) scale(1,1)"><path fill="none" stroke="#000000" d="M 802.8373251423759 384.209517756016 L 813 380 L 802.8373251423758 375.790482243984" stroke-miterlimit="10"/></g><g transform="translate(-86,-14) scale(1,1)"><g><path fill="none" stroke="none"/><text fill="#000000" stroke="none" font-family="Arial" font-size="13px" font-style="normal" font-weight="normal" text-decoration="none" x="479.53271484375" y="375">removeCartByCartId(cartId)</text></g></g><g transform="translate(-86,-14) scale(1,1)"><rect fill="#ffffff" stroke="none" x="813" y="380" width="13" height="28"/></g><g transform="translate(-86,-14) scale(1,1)"><path fill="none" stroke="#000000" d="M 813 380 L 826 380 L 826 408 L 813 408 L 813 380 Z Z" stroke-miterlimit="10"/></g><g transform="translate(-86,-14) scale(1,1)"><path fill="none" stroke="#000000" d="M 306 424 L 336 424 L 336 444 L 313 444" stroke-miterlimit="10"/></g><g transform="translate(-86,-14) scale(1,1)"><path fill="#000000" stroke="none" d="M 323.16267485762415 439.790482243984 L 313 444 L 323.16267485762415 448.209517756016"/></g><g transform="translate(-86,-14) scale(1,1)"><path fill="none" stroke="#000000" d="M 323.16267485762415 439.790482243984 L 313 444 L 323.16267485762415 448.209517756016 L 323.16267485762415 439.790482243984" stroke-miterlimit="10"/></g><g transform="translate(-86,-14) scale(1,1)"><g><path fill="none" stroke="none"/><text fill="#000000" stroke="none" font-family="Arial" font-size="13px" font-style="normal" font-weight="normal" text-decoration="none" x="343.75830078125" y="427">placeOrder(user, phone, email,</text><text fill="#000000" stroke="none" font-family="Arial" font-size="13px" font-style="normal" font-weight="normal" text-decoration="none" x="383.269287109375" y="440">address, city, zip,</text><text fill="#000000" stroke="none" font-family="Arial" font-size="13px" font-style="normal" font-weight="normal" text-decoration="none" x="347.02099609375" y="453">paymentMethod, cartItemList)</text></g></g><g transform="translate(-86,-14) scale(1,1)"><rect fill="#ffffff" stroke="none" x="300" y="444" width="13" height="175"/></g><g transform="translate(-86,-14) scale(1,1)"><path fill="none" stroke="#000000" d="M 300 444 L 313 444 L 313 619 L 300 619 L 300 444 Z Z" stroke-miterlimit="10"/></g><g transform="translate(-86,-14) scale(1,1)"><path fill="none" stroke="#000000" d="M 313 488 L 343 488 L 343 508 L 320 508" stroke-miterlimit="10"/></g><g transform="translate(-86,-14) scale(1,1)"><path fill="#000000" stroke="none" d="M 330.16267485762415 503.790482243984 L 320 508 L 330.16267485762415 512.209517756016"/></g><g transform="translate(-86,-14) scale(1,1)"><path fill="none" stroke="#000000" d="M 330.16267485762415 503.790482243984 L 320 508 L 330.16267485762415 512.209517756016 L 330.16267485762415 503.790482243984" stroke-miterlimit="10"/></g><g transform="translate(-86,-14) scale(1,1)"><g><path fill="none" stroke="none"/><text fill="#000000" stroke="none" font-family="Arial" font-size="13px" font-style="normal" font-weight="normal" text-decoration="none" x="347.74267578125" y="502">create()</text></g></g><g transform="translate(-86,-14) scale(1,1)"><rect fill="#ffffff" stroke="none" x="307" y="508" width="13" height="28"/></g><g transform="translate(-86,-14) scale(1,1)"><path fill="none" stroke="#000000" d="M 307 508 L 320 508 L 320 536 L 307 536 L 307 508 Z Z" stroke-miterlimit="10"/></g><g transform="translate(-86,-14) scale(1,1)"><path fill="none" stroke="#000000" d="M 313 552 L 952 552" stroke-miterlimit="10" stroke-dasharray="3"/></g><g transform="translate(-86,-14) scale(1,1)"><path fill="none" stroke="#000000" d="M 941.8373251423759 556.209517756016 L 952 552 L 941.8373251423758 547.790482243984" stroke-miterlimit="10"/></g><g transform="translate(-86,-14) scale(1,1)"><g><path fill="none" stroke="none"/><text fill="#000000" stroke="none" font-family="Arial" font-size="13px" font-style="normal" font-weight="normal" text-decoration="none" x="606.5" y="531.5">«create»</text></g></g><g transform="translate(-86,-14) scale(1,1)"><path fill="none" stroke="#000000" d="M 313 568 L 343 568 L 343 588 L 320 588" stroke-miterlimit="10"/></g><g transform="translate(-86,-14) scale(1,1)"><path fill="#000000" stroke="none" d="M 330.16267485762415 583.790482243984 L 320 588 L 330.16267485762415 592.209517756016"/></g><g transform="translate(-86,-14) scale(1,1)"><path fill="none" stroke="#000000" d="M 330.16267485762415 583.790482243984 L 320 588 L 330.16267485762415 592.209517756016 L 330.16267485762415 583.790482243984" stroke-miterlimit="10"/></g><g transform="translate(-86,-14) scale(1,1)"><g><path fill="none" stroke="none"/><text fill="#000000" stroke="none" font-family="Arial" font-size="13px" font-style="normal" font-weight="normal" text-decoration="none" x="344.904052734375" y="582">save(order)</text></g></g><g transform="translate(-86,-14) scale(1,1)"><rect fill="#ffffff" stroke="none" x="307" y="588" width="13" height="28"/></g><g transform="translate(-86,-14) scale(1,1)"><path fill="none" stroke="#000000" d="M 307 588 L 320 588 L 320 616 L 307 616 L 307 588 Z Z" stroke-miterlimit="10"/></g></g></svg>