<svg version="1.1" xmlns="http://www.w3.org/2000/svg" xmlns:xlink="http://www.w3.org/1999/xlink" width="711" height="356"><defs/><g><text fill="#eeeeee" stroke="none" font-family="Arial" font-size="24px" font-style="normal" font-weight="normal" text-decoration="none" x="0" y="0">UNREGISTERED</text><text fill="#eeeeee" stroke="none" font-family="Arial" font-size="24px" font-style="normal" font-weight="normal" text-decoration="none" x="0" y="30">UNREGISTERED</text><text fill="#eeeeee" stroke="none" font-family="Arial" font-size="24px" font-style="normal" font-weight="normal" text-decoration="none" x="0" y="60">UNREGISTERED</text><text fill="#eeeeee" stroke="none" font-family="Arial" font-size="24px" font-style="normal" font-weight="normal" text-decoration="none" x="0" y="90">UNREGISTERED</text><text fill="#eeeeee" stroke="none" font-family="Arial" font-size="24px" font-style="normal" font-weight="normal" text-decoration="none" x="0" y="120">UNREGISTERED</text><text fill="#eeeeee" stroke="none" font-family="Arial" font-size="24px" font-style="normal" font-weight="normal" text-decoration="none" x="0" y="150">UNREGISTERED</text><text fill="#eeeeee" stroke="none" font-family="Arial" font-size="24px" font-style="normal" font-weight="normal" text-decoration="none" x="0" y="180">UNREGISTERED</text><text fill="#eeeeee" stroke="none" font-family="Arial" font-size="24px" font-style="normal" font-weight="normal" text-decoration="none" x="0" y="210">UNREGISTERED</text><text fill="#eeeeee" stroke="none" font-family="Arial" font-size="24px" font-style="normal" font-weight="normal" text-decoration="none" x="0" y="240">UNREGISTERED</text><text fill="#eeeeee" stroke="none" font-family="Arial" font-size="24px" font-style="normal" font-weight="normal" text-decoration="none" x="0" y="270">UNREGISTERED</text><text fill="#eeeeee" stroke="none" font-family="Arial" font-size="24px" font-style="normal" font-weight="normal" text-decoration="none" x="0" y="300">UNREGISTERED</text><text fill="#eeeeee" stroke="none" font-family="Arial" font-size="24px" font-style="normal" font-weight="normal" text-decoration="none" x="0" y="330">UNREGISTERED</text><text fill="#eeeeee" stroke="none" font-family="Arial" font-size="24px" font-style="normal" font-weight="normal" text-decoration="none" x="200" y="0">UNREGISTERED</text><text fill="#eeeeee" stroke="none" font-family="Arial" font-size="24px" font-style="normal" font-weight="normal" text-decoration="none" x="200" y="30">UNREGISTERED</text><text fill="#eeeeee" stroke="none" font-family="Arial" font-size="24px" font-style="normal" font-weight="normal" text-decoration="none" x="200" y="60">UNREGISTERED</text><text fill="#eeeeee" stroke="none" font-family="Arial" font-size="24px" font-style="normal" font-weight="normal" text-decoration="none" x="200" y="90">UNREGISTERED</text><text fill="#eeeeee" stroke="none" font-family="Arial" font-size="24px" font-style="normal" font-weight="normal" text-decoration="none" x="200" y="120">UNREGISTERED</text><text fill="#eeeeee" stroke="none" font-family="Arial" font-size="24px" font-style="normal" font-weight="normal" text-decoration="none" x="200" y="150">UNREGISTERED</text><text fill="#eeeeee" stroke="none" font-family="Arial" font-size="24px" font-style="normal" font-weight="normal" text-decoration="none" x="200" y="180">UNREGISTERED</text><text fill="#eeeeee" stroke="none" font-family="Arial" font-size="24px" font-style="normal" font-weight="normal" text-decoration="none" x="200" y="210">UNREGISTERED</text><text fill="#eeeeee" stroke="none" font-family="Arial" font-size="24px" font-style="normal" font-weight="normal" text-decoration="none" x="200" y="240">UNREGISTERED</text><text fill="#eeeeee" stroke="none" font-family="Arial" font-size="24px" font-style="normal" font-weight="normal" text-decoration="none" x="200" y="270">UNREGISTERED</text><text fill="#eeeeee" stroke="none" font-family="Arial" font-size="24px" font-style="normal" font-weight="normal" text-decoration="none" x="200" y="300">UNREGISTERED</text><text fill="#eeeeee" stroke="none" font-family="Arial" font-size="24px" font-style="normal" font-weight="normal" text-decoration="none" x="200" y="330">UNREGISTERED</text><text fill="#eeeeee" stroke="none" font-family="Arial" font-size="24px" font-style="normal" font-weight="normal" text-decoration="none" x="400" y="0">UNREGISTERED</text><text fill="#eeeeee" stroke="none" font-family="Arial" font-size="24px" font-style="normal" font-weight="normal" text-decoration="none" x="400" y="30">UNREGISTERED</text><text fill="#eeeeee" stroke="none" font-family="Arial" font-size="24px" font-style="normal" font-weight="normal" text-decoration="none" x="400" y="60">UNREGISTERED</text><text fill="#eeeeee" stroke="none" font-family="Arial" font-size="24px" font-style="normal" font-weight="normal" text-decoration="none" x="400" y="90">UNREGISTERED</text><text fill="#eeeeee" stroke="none" font-family="Arial" font-size="24px" font-style="normal" font-weight="normal" text-decoration="none" x="400" y="120">UNREGISTERED</text><text fill="#eeeeee" stroke="none" font-family="Arial" font-size="24px" font-style="normal" font-weight="normal" text-decoration="none" x="400" y="150">UNREGISTERED</text><text fill="#eeeeee" stroke="none" font-family="Arial" font-size="24px" font-style="normal" font-weight="normal" text-decoration="none" x="400" y="180">UNREGISTERED</text><text fill="#eeeeee" stroke="none" font-family="Arial" font-size="24px" font-style="normal" font-weight="normal" text-decoration="none" x="400" y="210">UNREGISTERED</text><text fill="#eeeeee" stroke="none" font-family="Arial" font-size="24px" font-style="normal" font-weight="normal" text-decoration="none" x="400" y="240">UNREGISTERED</text><text fill="#eeeeee" stroke="none" font-family="Arial" font-size="24px" font-style="normal" font-weight="normal" text-decoration="none" x="400" y="270">UNREGISTERED</text><text fill="#eeeeee" stroke="none" font-family="Arial" font-size="24px" font-style="normal" font-weight="normal" text-decoration="none" x="400" y="300">UNREGISTERED</text><text fill="#eeeeee" stroke="none" font-family="Arial" font-size="24px" font-style="normal" font-weight="normal" text-decoration="none" x="400" y="330">UNREGISTERED</text><text fill="#eeeeee" stroke="none" font-family="Arial" font-size="24px" font-style="normal" font-weight="normal" text-decoration="none" x="600" y="0">UNREGISTERED</text><text fill="#eeeeee" stroke="none" font-family="Arial" font-size="24px" font-style="normal" font-weight="normal" text-decoration="none" x="600" y="30">UNREGISTERED</text><text fill="#eeeeee" stroke="none" font-family="Arial" font-size="24px" font-style="normal" font-weight="normal" text-decoration="none" x="600" y="60">UNREGISTERED</text><text fill="#eeeeee" stroke="none" font-family="Arial" font-size="24px" font-style="normal" font-weight="normal" text-decoration="none" x="600" y="90">UNREGISTERED</text><text fill="#eeeeee" stroke="none" font-family="Arial" font-size="24px" font-style="normal" font-weight="normal" text-decoration="none" x="600" y="120">UNREGISTERED</text><text fill="#eeeeee" stroke="none" font-family="Arial" font-size="24px" font-style="normal" font-weight="normal" text-decoration="none" x="600" y="150">UNREGISTERED</text><text fill="#eeeeee" stroke="none" font-family="Arial" font-size="24px" font-style="normal" font-weight="normal" text-decoration="none" x="600" y="180">UNREGISTERED</text><text fill="#eeeeee" stroke="none" font-family="Arial" font-size="24px" font-style="normal" font-weight="normal" text-decoration="none" x="600" y="210">UNREGISTERED</text><text fill="#eeeeee" stroke="none" font-family="Arial" font-size="24px" font-style="normal" font-weight="normal" text-decoration="none" x="600" y="240">UNREGISTERED</text><text fill="#eeeeee" stroke="none" font-family="Arial" font-size="24px" font-style="normal" font-weight="normal" text-decoration="none" x="600" y="270">UNREGISTERED</text><text fill="#eeeeee" stroke="none" font-family="Arial" font-size="24px" font-style="normal" font-weight="normal" text-decoration="none" x="600" y="300">UNREGISTERED</text><text fill="#eeeeee" stroke="none" font-family="Arial" font-size="24px" font-style="normal" font-weight="normal" text-decoration="none" x="600" y="330">UNREGISTERED</text><g transform="translate(-126,-70) scale(1,1)"><path fill="none" stroke="#000000" d="M 136 80 L 827 80 L 827 416 L 136 416 L 136 80" stroke-miterlimit="10"/></g><g transform="translate(-126,-70) scale(1,1)"><path fill="#ffffff" stroke="none" d="M 136 80 L 136 102 L 238.708984375 102 L 249.708984375 91 L 249.708984375 80 L 136 80"/></g><g transform="translate(-126,-70) scale(1,1)"><path fill="none" stroke="#000000" d="M 136 80 L 136 102 L 238.708984375 102 L 249.708984375 91 L 249.708984375 80 L 136 80 L 136 80" stroke-miterlimit="10"/></g><g transform="translate(-126,-70) scale(1,1)"><g><path fill="none" stroke="none"/><text fill="#000000" stroke="none" font-family="Arial" font-size="13px" font-style="normal" font-weight="normal" text-decoration="none" x="160.72998046875" y="96">makeInvoice</text></g></g><g transform="translate(-126,-70) scale(1,1)"><g><path fill="none" stroke="none"/><text fill="#000000" stroke="none" font-family="Arial" font-size="13px" font-style="normal" font-weight="bold" text-decoration="none" x="140.279541015625" y="96">sd</text></g></g><g transform="translate(-126,-70) scale(1,1)"><rect fill="#C0C0C0" stroke="none" x="311" y="175" width="99" height="29" opacity="0.2"/></g><g transform="translate(-126,-70) scale(1,1)"><rect fill="#ffffff" stroke="none" x="304" y="168" width="99" height="29"/></g><g transform="translate(-126,-70) scale(1,1)"><path fill="none" stroke="#000000" d="M 304 168 L 403 168 L 403 197 L 304 197 L 304 168 Z Z" stroke-miterlimit="10"/></g><g transform="translate(-126,-70) scale(1,1)"><rect fill="#ffffff" stroke="none" x="304" y="168" width="99" height="29"/></g><g transform="translate(-126,-70) scale(1,1)"><path fill="none" stroke="#000000" d="M 304 168 L 403 168 L 403 197 L 304 197 L 304 168 Z Z" stroke-miterlimit="10"/></g><g transform="translate(-126,-70) scale(1,1)"><g><path fill="none" stroke="none"/><text fill="#000000" stroke="none" font-family="Arial" font-size="13px" font-style="normal" font-weight="bold" text-decoration="none" x="327.1318359375" y="186">: Invoice</text></g></g><g transform="translate(-126,-70) scale(1,1)"><rect fill="#C0C0C0" stroke="none" x="727" y="175" width="99" height="29" opacity="0.2"/></g><g transform="translate(-126,-70) scale(1,1)"><rect fill="#ffffff" stroke="none" x="720" y="168" width="99" height="29"/></g><g transform="translate(-126,-70) scale(1,1)"><path fill="none" stroke="#000000" d="M 720 168 L 819 168 L 819 197 L 720 197 L 720 168 Z Z" stroke-miterlimit="10"/></g><g transform="translate(-126,-70) scale(1,1)"><rect fill="#ffffff" stroke="none" x="720" y="168" width="99" height="29"/></g><g transform="translate(-126,-70) scale(1,1)"><path fill="none" stroke="#000000" d="M 720 168 L 819 168 L 819 197 L 720 197 L 720 168 Z Z" stroke-miterlimit="10"/></g><g transform="translate(-126,-70) scale(1,1)"><g><path fill="none" stroke="none"/><text fill="#000000" stroke="none" font-family="Arial" font-size="13px" font-style="normal" font-weight="bold" text-decoration="none" x="751.075927734375" y="186">: User</text></g></g><g transform="translate(-126,-70) scale(1,1)"><rect fill="#C0C0C0" stroke="none" x="311" y="383" width="99" height="29" opacity="0.2"/></g><g transform="translate(-126,-70) scale(1,1)"><rect fill="#ffffff" stroke="none" x="304" y="376" width="99" height="29"/></g><g transform="translate(-126,-70) scale(1,1)"><path fill="none" stroke="#000000" d="M 304 376 L 403 376 L 403 405 L 304 405 L 304 376 Z Z" stroke-miterlimit="10"/></g><g transform="translate(-126,-70) scale(1,1)"><rect fill="#ffffff" stroke="none" x="304" y="376" width="99" height="29"/></g><g transform="translate(-126,-70) scale(1,1)"><path fill="none" stroke="#000000" d="M 304 376 L 403 376 L 403 405 L 304 405 L 304 376 Z Z" stroke-miterlimit="10"/></g><g transform="translate(-126,-70) scale(1,1)"><g><path fill="none" stroke="none"/><text fill="#000000" stroke="none" font-family="Arial" font-size="13px" font-style="normal" font-weight="bold" text-decoration="none" x="331.8291015625" y="394">: Order</text></g></g><g transform="translate(-126,-70) scale(1,1)"><path fill="none" stroke="#000000" d="M 404 182 L 719 182" stroke-miterlimit="10"/></g><g transform="translate(-126,-70) scale(1,1)"><path fill="none" stroke="#000000" d="M 263 174 L 223 174" stroke-miterlimit="10"/></g><g transform="translate(-126,-70) scale(1,1)"><path fill="#000000" stroke="none" d="M 251 178 L 263 174 L 251 169"/></g><g transform="translate(-126,-70) scale(1,1)"><g><path fill="none" stroke="none"/><text fill="#000000" stroke="none" font-family="Arial" font-size="13px" font-style="normal" font-weight="normal" text-decoration="none" x="180.58642578125" y="168">makeInvoice(orderId)</text></g></g><g transform="translate(-126,-70) scale(1,1)"><path fill="none" stroke="#000000" d="M 160 184 L 303 185" stroke-miterlimit="10"/></g><g transform="translate(-126,-70) scale(1,1)"><path fill="none" stroke="#000000" d="M 404 182 L 719 182" stroke-miterlimit="10"/></g><g transform="translate(-126,-70) scale(1,1)"><path fill="none" stroke="#000000" d="M 581 172 L 541 172" stroke-miterlimit="10"/></g><g transform="translate(-126,-70) scale(1,1)"><path fill="#000000" stroke="none" d="M 569 176 L 581 172 L 569 167"/></g><g transform="translate(-126,-70) scale(1,1)"><g><path fill="none" stroke="none"/><text fill="#000000" stroke="none" font-family="Arial" font-size="13px" font-style="normal" font-weight="normal" text-decoration="none" x="449.103271484375" y="166">1: getUserFromAttribute(attributeUser)</text></g></g><g transform="translate(-126,-70) scale(1,1)"><path fill="none" stroke="#000000" d="M 353 198 L 353 375" stroke-miterlimit="10"/></g><g transform="translate(-126,-70) scale(1,1)"><path fill="none" stroke="#000000" d="M 360 263 L 360 223" stroke-miterlimit="10"/></g><g transform="translate(-126,-70) scale(1,1)"><path fill="#000000" stroke="none" d="M 355 251 L 360 263 L 364 251"/></g><g transform="translate(-126,-70) scale(1,1)"><g><path fill="none" stroke="none"/><text fill="#000000" stroke="none" font-family="Arial" font-size="13px" font-style="normal" font-weight="normal" text-decoration="none" x="365.19189453125" y="237">2: getOrderById(orderId)</text></g></g><g transform="translate(-126,-70) scale(1,1)"><path fill="none" stroke="#000000" d="M 353 168 L 353 147 L 432 147 L 432 182 L 403 182" stroke-miterlimit="10"/></g><g transform="translate(-126,-70) scale(1,1)"><path fill="none" stroke="#000000" d="M 390 142 L 390 102" stroke-miterlimit="10"/></g><g transform="translate(-126,-70) scale(1,1)"><path fill="#000000" stroke="none" d="M 385 130 L 390 142 L 394 130"/></g><g transform="translate(-126,-70) scale(1,1)"><g><path fill="none" stroke="none"/><text fill="#000000" stroke="none" font-family="Arial" font-size="13px" font-style="normal" font-weight="normal" text-decoration="none" x="395.780517578125" y="116">3: makeInvoice(order)</text></g></g><g transform="translate(-126,-70) scale(1,1)"><path fill="none" stroke="#000000" d="M 353 198 L 353 375" stroke-miterlimit="10"/></g><g transform="translate(-126,-70) scale(1,1)"><path fill="none" stroke="#000000" d="M 367 304 L 367 264" stroke-miterlimit="10"/></g><g transform="translate(-126,-70) scale(1,1)"><path fill="#000000" stroke="none" d="M 362 292 L 367 304 L 371 292"/></g><g transform="translate(-126,-70) scale(1,1)"><g><path fill="none" stroke="none"/><text fill="#000000" stroke="none" font-family="Arial" font-size="13px" font-style="normal" font-weight="normal" text-decoration="none" x="371.926025390625" y="278">4: updateOrderStatus(orderId)</text></g></g><g transform="translate(-126,-70) scale(1,1)"><path fill="none" stroke="#000000" d="M 353 198 L 353 375" stroke-miterlimit="10"/></g><g transform="translate(-126,-70) scale(1,1)"><path fill="none" stroke="#000000" d="M 375 350 L 375 310" stroke-miterlimit="10"/></g><g transform="translate(-126,-70) scale(1,1)"><path fill="#000000" stroke="none" d="M 370 338 L 375 350 L 379 338"/></g><g transform="translate(-126,-70) scale(1,1)"><g><path fill="none" stroke="none"/><text fill="#000000" stroke="none" font-family="Arial" font-size="13px" font-style="normal" font-weight="normal" text-decoration="none" x="382.751953125" y="323">5: updateSoldByOrderStatus(order)</text></g></g></g></svg>