<svg version="1.1" xmlns="http://www.w3.org/2000/svg" xmlns:xlink="http://www.w3.org/1999/xlink" width="884" height="452"><defs/><g><text fill="#eeeeee" stroke="none" font-family="Arial" font-size="24px" font-style="normal" font-weight="normal" text-decoration="none" x="0" y="0">UNREGISTERED</text><text fill="#eeeeee" stroke="none" font-family="Arial" font-size="24px" font-style="normal" font-weight="normal" text-decoration="none" x="0" y="30">UNREGISTERED</text><text fill="#eeeeee" stroke="none" font-family="Arial" font-size="24px" font-style="normal" font-weight="normal" text-decoration="none" x="0" y="60">UNREGISTERED</text><text fill="#eeeeee" stroke="none" font-family="Arial" font-size="24px" font-style="normal" font-weight="normal" text-decoration="none" x="0" y="90">UNREGISTERED</text><text fill="#eeeeee" stroke="none" font-family="Arial" font-size="24px" font-style="normal" font-weight="normal" text-decoration="none" x="0" y="120">UNREGISTERED</text><text fill="#eeeeee" stroke="none" font-family="Arial" font-size="24px" font-style="normal" font-weight="normal" text-decoration="none" x="0" y="150">UNREGISTERED</text><text fill="#eeeeee" stroke="none" font-family="Arial" font-size="24px" font-style="normal" font-weight="normal" text-decoration="none" x="0" y="180">UNREGISTERED</text><text fill="#eeeeee" stroke="none" font-family="Arial" font-size="24px" font-style="normal" font-weight="normal" text-decoration="none" x="0" y="210">UNREGISTERED</text><text fill="#eeeeee" stroke="none" font-family="Arial" font-size="24px" font-style="normal" font-weight="normal" text-decoration="none" x="0" y="240">UNREGISTERED</text><text fill="#eeeeee" stroke="none" font-family="Arial" font-size="24px" font-style="normal" font-weight="normal" text-decoration="none" x="0" y="270">UNREGISTERED</text><text fill="#eeeeee" stroke="none" font-family="Arial" font-size="24px" font-style="normal" font-weight="normal" text-decoration="none" x="0" y="300">UNREGISTERED</text><text fill="#eeeeee" stroke="none" font-family="Arial" font-size="24px" font-style="normal" font-weight="normal" text-decoration="none" x="0" y="330">UNREGISTERED</text><text fill="#eeeeee" stroke="none" font-family="Arial" font-size="24px" font-style="normal" font-weight="normal" text-decoration="none" x="0" y="360">UNREGISTERED</text><text fill="#eeeeee" stroke="none" font-family="Arial" font-size="24px" font-style="normal" font-weight="normal" text-decoration="none" x="0" y="390">UNREGISTERED</text><text fill="#eeeeee" stroke="none" font-family="Arial" font-size="24px" font-style="normal" font-weight="normal" text-decoration="none" x="0" y="420">UNREGISTERED</text><text fill="#eeeeee" stroke="none" font-family="Arial" font-size="24px" font-style="normal" font-weight="normal" text-decoration="none" x="0" y="450">UNREGISTERED</text><text fill="#eeeeee" stroke="none" font-family="Arial" font-size="24px" font-style="normal" font-weight="normal" text-decoration="none" x="200" y="0">UNREGISTERED</text><text fill="#eeeeee" stroke="none" font-family="Arial" font-size="24px" font-style="normal" font-weight="normal" text-decoration="none" x="200" y="30">UNREGISTERED</text><text fill="#eeeeee" stroke="none" font-family="Arial" font-size="24px" font-style="normal" font-weight="normal" text-decoration="none" x="200" y="60">UNREGISTERED</text><text fill="#eeeeee" stroke="none" font-family="Arial" font-size="24px" font-style="normal" font-weight="normal" text-decoration="none" x="200" y="90">UNREGISTERED</text><text fill="#eeeeee" stroke="none" font-family="Arial" font-size="24px" font-style="normal" font-weight="normal" text-decoration="none" x="200" y="120">UNREGISTERED</text><text fill="#eeeeee" stroke="none" font-family="Arial" font-size="24px" font-style="normal" font-weight="normal" text-decoration="none" x="200" y="150">UNREGISTERED</text><text fill="#eeeeee" stroke="none" font-family="Arial" font-size="24px" font-style="normal" font-weight="normal" text-decoration="none" x="200" y="180">UNREGISTERED</text><text fill="#eeeeee" stroke="none" font-family="Arial" font-size="24px" font-style="normal" font-weight="normal" text-decoration="none" x="200" y="210">UNREGISTERED</text><text fill="#eeeeee" stroke="none" font-family="Arial" font-size="24px" font-style="normal" font-weight="normal" text-decoration="none" x="200" y="240">UNREGISTERED</text><text fill="#eeeeee" stroke="none" font-family="Arial" font-size="24px" font-style="normal" font-weight="normal" text-decoration="none" x="200" y="270">UNREGISTERED</text><text fill="#eeeeee" stroke="none" font-family="Arial" font-size="24px" font-style="normal" font-weight="normal" text-decoration="none" x="200" y="300">UNREGISTERED</text><text fill="#eeeeee" stroke="none" font-family="Arial" font-size="24px" font-style="normal" font-weight="normal" text-decoration="none" x="200" y="330">UNREGISTERED</text><text fill="#eeeeee" stroke="none" font-family="Arial" font-size="24px" font-style="normal" font-weight="normal" text-decoration="none" x="200" y="360">UNREGISTERED</text><text fill="#eeeeee" stroke="none" font-family="Arial" font-size="24px" font-style="normal" font-weight="normal" text-decoration="none" x="200" y="390">UNREGISTERED</text><text fill="#eeeeee" stroke="none" font-family="Arial" font-size="24px" font-style="normal" font-weight="normal" text-decoration="none" x="200" y="420">UNREGISTERED</text><text fill="#eeeeee" stroke="none" font-family="Arial" font-size="24px" font-style="normal" font-weight="normal" text-decoration="none" x="200" y="450">UNREGISTERED</text><text fill="#eeeeee" stroke="none" font-family="Arial" font-size="24px" font-style="normal" font-weight="normal" text-decoration="none" x="400" y="0">UNREGISTERED</text><text fill="#eeeeee" stroke="none" font-family="Arial" font-size="24px" font-style="normal" font-weight="normal" text-decoration="none" x="400" y="30">UNREGISTERED</text><text fill="#eeeeee" stroke="none" font-family="Arial" font-size="24px" font-style="normal" font-weight="normal" text-decoration="none" x="400" y="60">UNREGISTERED</text><text fill="#eeeeee" stroke="none" font-family="Arial" font-size="24px" font-style="normal" font-weight="normal" text-decoration="none" x="400" y="90">UNREGISTERED</text><text fill="#eeeeee" stroke="none" font-family="Arial" font-size="24px" font-style="normal" font-weight="normal" text-decoration="none" x="400" y="120">UNREGISTERED</text><text fill="#eeeeee" stroke="none" font-family="Arial" font-size="24px" font-style="normal" font-weight="normal" text-decoration="none" x="400" y="150">UNREGISTERED</text><text fill="#eeeeee" stroke="none" font-family="Arial" font-size="24px" font-style="normal" font-weight="normal" text-decoration="none" x="400" y="180">UNREGISTERED</text><text fill="#eeeeee" stroke="none" font-family="Arial" font-size="24px" font-style="normal" font-weight="normal" text-decoration="none" x="400" y="210">UNREGISTERED</text><text fill="#eeeeee" stroke="none" font-family="Arial" font-size="24px" font-style="normal" font-weight="normal" text-decoration="none" x="400" y="240">UNREGISTERED</text><text fill="#eeeeee" stroke="none" font-family="Arial" font-size="24px" font-style="normal" font-weight="normal" text-decoration="none" x="400" y="270">UNREGISTERED</text><text fill="#eeeeee" stroke="none" font-family="Arial" font-size="24px" font-style="normal" font-weight="normal" text-decoration="none" x="400" y="300">UNREGISTERED</text><text fill="#eeeeee" stroke="none" font-family="Arial" font-size="24px" font-style="normal" font-weight="normal" text-decoration="none" x="400" y="330">UNREGISTERED</text><text fill="#eeeeee" stroke="none" font-family="Arial" font-size="24px" font-style="normal" font-weight="normal" text-decoration="none" x="400" y="360">UNREGISTERED</text><text fill="#eeeeee" stroke="none" font-family="Arial" font-size="24px" font-style="normal" font-weight="normal" text-decoration="none" x="400" y="390">UNREGISTERED</text><text fill="#eeeeee" stroke="none" font-family="Arial" font-size="24px" font-style="normal" font-weight="normal" text-decoration="none" x="400" y="420">UNREGISTERED</text><text fill="#eeeeee" stroke="none" font-family="Arial" font-size="24px" font-style="normal" font-weight="normal" text-decoration="none" x="400" y="450">UNREGISTERED</text><text fill="#eeeeee" stroke="none" font-family="Arial" font-size="24px" font-style="normal" font-weight="normal" text-decoration="none" x="600" y="0">UNREGISTERED</text><text fill="#eeeeee" stroke="none" font-family="Arial" font-size="24px" font-style="normal" font-weight="normal" text-decoration="none" x="600" y="30">UNREGISTERED</text><text fill="#eeeeee" stroke="none" font-family="Arial" font-size="24px" font-style="normal" font-weight="normal" text-decoration="none" x="600" y="60">UNREGISTERED</text><text fill="#eeeeee" stroke="none" font-family="Arial" font-size="24px" font-style="normal" font-weight="normal" text-decoration="none" x="600" y="90">UNREGISTERED</text><text fill="#eeeeee" stroke="none" font-family="Arial" font-size="24px" font-style="normal" font-weight="normal" text-decoration="none" x="600" y="120">UNREGISTERED</text><text fill="#eeeeee" stroke="none" font-family="Arial" font-size="24px" font-style="normal" font-weight="normal" text-decoration="none" x="600" y="150">UNREGISTERED</text><text fill="#eeeeee" stroke="none" font-family="Arial" font-size="24px" font-style="normal" font-weight="normal" text-decoration="none" x="600" y="180">UNREGISTERED</text><text fill="#eeeeee" stroke="none" font-family="Arial" font-size="24px" font-style="normal" font-weight="normal" text-decoration="none" x="600" y="210">UNREGISTERED</text><text fill="#eeeeee" stroke="none" font-family="Arial" font-size="24px" font-style="normal" font-weight="normal" text-decoration="none" x="600" y="240">UNREGISTERED</text><text fill="#eeeeee" stroke="none" font-family="Arial" font-size="24px" font-style="normal" font-weight="normal" text-decoration="none" x="600" y="270">UNREGISTERED</text><text fill="#eeeeee" stroke="none" font-family="Arial" font-size="24px" font-style="normal" font-weight="normal" text-decoration="none" x="600" y="300">UNREGISTERED</text><text fill="#eeeeee" stroke="none" font-family="Arial" font-size="24px" font-style="normal" font-weight="normal" text-decoration="none" x="600" y="330">UNREGISTERED</text><text fill="#eeeeee" stroke="none" font-family="Arial" font-size="24px" font-style="normal" font-weight="normal" text-decoration="none" x="600" y="360">UNREGISTERED</text><text fill="#eeeeee" stroke="none" font-family="Arial" font-size="24px" font-style="normal" font-weight="normal" text-decoration="none" x="600" y="390">UNREGISTERED</text><text fill="#eeeeee" stroke="none" font-family="Arial" font-size="24px" font-style="normal" font-weight="normal" text-decoration="none" x="600" y="420">UNREGISTERED</text><text fill="#eeeeee" stroke="none" font-family="Arial" font-size="24px" font-style="normal" font-weight="normal" text-decoration="none" x="600" y="450">UNREGISTERED</text><text fill="#eeeeee" stroke="none" font-family="Arial" font-size="24px" font-style="normal" font-weight="normal" text-decoration="none" x="800" y="0">UNREGISTERED</text><text fill="#eeeeee" stroke="none" font-family="Arial" font-size="24px" font-style="normal" font-weight="normal" text-decoration="none" x="800" y="30">UNREGISTERED</text><text fill="#eeeeee" stroke="none" font-family="Arial" font-size="24px" font-style="normal" font-weight="normal" text-decoration="none" x="800" y="60">UNREGISTERED</text><text fill="#eeeeee" stroke="none" font-family="Arial" font-size="24px" font-style="normal" font-weight="normal" text-decoration="none" x="800" y="90">UNREGISTERED</text><text fill="#eeeeee" stroke="none" font-family="Arial" font-size="24px" font-style="normal" font-weight="normal" text-decoration="none" x="800" y="120">UNREGISTERED</text><text fill="#eeeeee" stroke="none" font-family="Arial" font-size="24px" font-style="normal" font-weight="normal" text-decoration="none" x="800" y="150">UNREGISTERED</text><text fill="#eeeeee" stroke="none" font-family="Arial" font-size="24px" font-style="normal" font-weight="normal" text-decoration="none" x="800" y="180">UNREGISTERED</text><text fill="#eeeeee" stroke="none" font-family="Arial" font-size="24px" font-style="normal" font-weight="normal" text-decoration="none" x="800" y="210">UNREGISTERED</text><text fill="#eeeeee" stroke="none" font-family="Arial" font-size="24px" font-style="normal" font-weight="normal" text-decoration="none" x="800" y="240">UNREGISTERED</text><text fill="#eeeeee" stroke="none" font-family="Arial" font-size="24px" font-style="normal" font-weight="normal" text-decoration="none" x="800" y="270">UNREGISTERED</text><text fill="#eeeeee" stroke="none" font-family="Arial" font-size="24px" font-style="normal" font-weight="normal" text-decoration="none" x="800" y="300">UNREGISTERED</text><text fill="#eeeeee" stroke="none" font-family="Arial" font-size="24px" font-style="normal" font-weight="normal" text-decoration="none" x="800" y="330">UNREGISTERED</text><text fill="#eeeeee" stroke="none" font-family="Arial" font-size="24px" font-style="normal" font-weight="normal" text-decoration="none" x="800" y="360">UNREGISTERED</text><text fill="#eeeeee" stroke="none" font-family="Arial" font-size="24px" font-style="normal" font-weight="normal" text-decoration="none" x="800" y="390">UNREGISTERED</text><text fill="#eeeeee" stroke="none" font-family="Arial" font-size="24px" font-style="normal" font-weight="normal" text-decoration="none" x="800" y="420">UNREGISTERED</text><text fill="#eeeeee" stroke="none" font-family="Arial" font-size="24px" font-style="normal" font-weight="normal" text-decoration="none" x="800" y="450">UNREGISTERED</text><g transform="translate(-22,-118) scale(1,1)"><path fill="none" stroke="#000000" d="M 32 128 L 896 128 L 896 560 L 32 560 L 32 128" stroke-miterlimit="10"/></g><g transform="translate(-22,-118) scale(1,1)"><path fill="#ffffff" stroke="none" d="M 32 128 L 32 150 L 154.919921875 150 L 165.919921875 139 L 165.919921875 128 L 32 128"/></g><g transform="translate(-22,-118) scale(1,1)"><path fill="none" stroke="#000000" d="M 32 128 L 32 150 L 154.919921875 150 L 165.919921875 139 L 165.919921875 128 L 32 128 L 32 128" stroke-miterlimit="10"/></g><g transform="translate(-22,-118) scale(1,1)"><g><path fill="none" stroke="none"/><text fill="#000000" stroke="none" font-family="Arial" font-size="13px" font-style="normal" font-weight="normal" text-decoration="none" x="56.72998046875" y="144">removeCartItem</text></g></g><g transform="translate(-22,-118) scale(1,1)"><g><path fill="none" stroke="none"/><text fill="#000000" stroke="none" font-family="Arial" font-size="13px" font-style="normal" font-weight="bold" text-decoration="none" x="36.279541015625" y="144">sd</text></g></g><g transform="translate(-22,-118) scale(1,1)"><rect fill="#C0C0C0" stroke="none" x="447" y="287" width="99" height="29" opacity="0.2"/></g><g transform="translate(-22,-118) scale(1,1)"><rect fill="#ffffff" stroke="none" x="440" y="280" width="99" height="29"/></g><g transform="translate(-22,-118) scale(1,1)"><path fill="none" stroke="#000000" d="M 440 280 L 539 280 L 539 309 L 440 309 L 440 280 Z Z" stroke-miterlimit="10"/></g><g transform="translate(-22,-118) scale(1,1)"><rect fill="#ffffff" stroke="none" x="440" y="280" width="99" height="29"/></g><g transform="translate(-22,-118) scale(1,1)"><path fill="none" stroke="#000000" d="M 440 280 L 539 280 L 539 309 L 440 309 L 440 280 Z Z" stroke-miterlimit="10"/></g><g transform="translate(-22,-118) scale(1,1)"><g><path fill="none" stroke="none"/><text fill="#000000" stroke="none" font-family="Arial" font-size="13px" font-style="normal" font-weight="bold" text-decoration="none" x="472.5263671875" y="298">: Cart</text></g></g><g transform="translate(-22,-118) scale(1,1)"><rect fill="#C0C0C0" stroke="none" x="759" y="287" width="99" height="29" opacity="0.2"/></g><g transform="translate(-22,-118) scale(1,1)"><rect fill="#ffffff" stroke="none" x="752" y="280" width="99" height="29"/></g><g transform="translate(-22,-118) scale(1,1)"><path fill="none" stroke="#000000" d="M 752 280 L 851 280 L 851 309 L 752 309 L 752 280 Z Z" stroke-miterlimit="10"/></g><g transform="translate(-22,-118) scale(1,1)"><rect fill="#ffffff" stroke="none" x="752" y="280" width="99" height="29"/></g><g transform="translate(-22,-118) scale(1,1)"><path fill="none" stroke="#000000" d="M 752 280 L 851 280 L 851 309 L 752 309 L 752 280 Z Z" stroke-miterlimit="10"/></g><g transform="translate(-22,-118) scale(1,1)"><g><path fill="none" stroke="none"/><text fill="#000000" stroke="none" font-family="Arial" font-size="13px" font-style="normal" font-weight="bold" text-decoration="none" x="783.075927734375" y="298">: User</text></g></g><g transform="translate(-22,-118) scale(1,1)"><rect fill="#C0C0C0" stroke="none" x="447" y="495" width="99" height="29" opacity="0.2"/></g><g transform="translate(-22,-118) scale(1,1)"><rect fill="#ffffff" stroke="none" x="440" y="488" width="99" height="29"/></g><g transform="translate(-22,-118) scale(1,1)"><path fill="none" stroke="#000000" d="M 440 488 L 539 488 L 539 517 L 440 517 L 440 488 Z Z" stroke-miterlimit="10"/></g><g transform="translate(-22,-118) scale(1,1)"><rect fill="#ffffff" stroke="none" x="440" y="488" width="99" height="29"/></g><g transform="translate(-22,-118) scale(1,1)"><path fill="none" stroke="#000000" d="M 440 488 L 539 488 L 539 517 L 440 517 L 440 488 Z Z" stroke-miterlimit="10"/></g><g transform="translate(-22,-118) scale(1,1)"><g><path fill="none" stroke="none"/><text fill="#000000" stroke="none" font-family="Arial" font-size="13px" font-style="normal" font-weight="bold" text-decoration="none" x="459.161376953125" y="506">: CartItem</text></g></g><g transform="translate(-22,-118) scale(1,1)"><rect fill="#C0C0C0" stroke="none" x="151" y="167" width="99" height="29" opacity="0.2"/></g><g transform="translate(-22,-118) scale(1,1)"><rect fill="#ffffff" stroke="none" x="144" y="160" width="99" height="29"/></g><g transform="translate(-22,-118) scale(1,1)"><path fill="none" stroke="#000000" d="M 144 160 L 243 160 L 243 189 L 144 189 L 144 160 Z Z" stroke-miterlimit="10"/></g><g transform="translate(-22,-118) scale(1,1)"><rect fill="#ffffff" stroke="none" x="144" y="160" width="99" height="29"/></g><g transform="translate(-22,-118) scale(1,1)"><path fill="none" stroke="#000000" d="M 144 160 L 243 160 L 243 189 L 144 189 L 144 160 Z Z" stroke-miterlimit="10"/></g><g transform="translate(-22,-118) scale(1,1)"><g><path fill="none" stroke="none"/><text fill="#000000" stroke="none" font-family="Arial" font-size="13px" font-style="normal" font-weight="bold" text-decoration="none" x="158.10546875" y="178">: GuestCart</text></g></g><g transform="translate(-22,-118) scale(1,1)"><path fill="none" stroke="#000000" d="M 540 294 L 751 294" stroke-miterlimit="10"/></g><g transform="translate(-22,-118) scale(1,1)"><path fill="none" stroke="#000000" d="M 375 286 L 335 286" stroke-miterlimit="10"/></g><g transform="translate(-22,-118) scale(1,1)"><path fill="#000000" stroke="none" d="M 363 290 L 375 286 L 363 281"/></g><g transform="translate(-22,-118) scale(1,1)"><g><path fill="none" stroke="none"/><text fill="#000000" stroke="none" font-family="Arial" font-size="13px" font-style="normal" font-weight="normal" text-decoration="none" x="303.437744140625" y="280">removeCartitem()</text></g></g><g transform="translate(-22,-118) scale(1,1)"><path fill="none" stroke="#000000" d="M 312 296 L 440 295" stroke-miterlimit="10"/></g><g transform="translate(-22,-118) scale(1,1)"><path fill="none" stroke="#000000" d="M 540 294 L 751 294" stroke-miterlimit="10"/></g><g transform="translate(-22,-118) scale(1,1)"><path fill="none" stroke="#000000" d="M 665 284 L 625 284" stroke-miterlimit="10"/></g><g transform="translate(-22,-118) scale(1,1)"><path fill="#000000" stroke="none" d="M 653 288 L 665 284 L 653 279"/></g><g transform="translate(-22,-118) scale(1,1)"><g><path fill="none" stroke="none"/><text fill="#000000" stroke="none" font-family="Arial" font-size="13px" font-style="normal" font-weight="normal" text-decoration="none" x="575.103271484375" y="275">1: getUserFromAttribute(attributeUser)</text></g></g><g transform="translate(-22,-118) scale(1,1)"><path fill="none" stroke="#000000" d="M 452 279 L 232 190" stroke-miterlimit="10"/></g><g transform="translate(-22,-118) scale(1,1)"><path fill="none" stroke="#000000" d="M 275 188 L 312 202" stroke-miterlimit="10"/></g><g transform="translate(-22,-118) scale(1,1)"><path fill="#000000" stroke="none" d="M 286 187 L 275 188 L 283 196"/></g><g transform="translate(-22,-118) scale(1,1)"><g><path fill="none" stroke="none"/><text fill="#000000" stroke="none" font-family="Arial" font-size="13px" font-style="normal" font-weight="normal" text-decoration="none" x="246.807861328125" y="183">2: getGuestCartFromAttribute(attributeGuestCart)</text></g></g><g transform="translate(-22,-118) scale(1,1)"><path fill="none" stroke="#000000" d="M 489 280 L 489 259 L 568 259 L 568 294 L 539 294" stroke-miterlimit="10"/></g><g transform="translate(-22,-118) scale(1,1)"><path fill="none" stroke="#000000" d="M 551 254 L 551 214" stroke-miterlimit="10"/></g><g transform="translate(-22,-118) scale(1,1)"><path fill="#000000" stroke="none" d="M 546 242 L 551 254 L 555 242"/></g><g transform="translate(-22,-118) scale(1,1)"><g><path fill="none" stroke="none"/><text fill="#000000" stroke="none" font-family="Arial" font-size="13px" font-style="normal" font-weight="normal" text-decoration="none" x="556.617431640625" y="228">3.a.1 [user != null]:  getCurrentCartByUserId(userId)</text></g></g><g transform="translate(-22,-118) scale(1,1)"><path fill="none" stroke="#000000" d="M 559 206 L 559 166" stroke-miterlimit="10"/></g><g transform="translate(-22,-118) scale(1,1)"><path fill="#000000" stroke="none" d="M 554 194 L 559 206 L 563 194"/></g><g transform="translate(-22,-118) scale(1,1)"><g><path fill="none" stroke="none"/><text fill="#000000" stroke="none" font-family="Arial" font-size="13px" font-style="normal" font-weight="normal" text-decoration="none" x="643.537353515625" y="162">3.a.2 [user != null]: </text><text fill="#000000" stroke="none" font-family="Arial" font-size="13px" font-style="normal" font-weight="normal" text-decoration="none" x="567.505126953125" y="175">removeCartItemByCartIdAndProductId(cartId,</text><text fill="#000000" stroke="none" font-family="Arial" font-size="13px" font-style="normal" font-weight="normal" text-decoration="none" x="669.734130859375" y="188">productId)</text></g></g><g transform="translate(-22,-118) scale(1,1)"><path fill="none" stroke="#000000" d="M 489 310 L 489 487" stroke-miterlimit="10"/></g><g transform="translate(-22,-118) scale(1,1)"><path fill="none" stroke="#000000" d="M 479 374 L 479 334" stroke-miterlimit="10"/></g><g transform="translate(-22,-118) scale(1,1)"><path fill="#000000" stroke="none" d="M 474 362 L 479 374 L 483 362"/></g><g transform="translate(-22,-118) scale(1,1)"><g><path fill="none" stroke="none"/><text fill="#000000" stroke="none" font-family="Arial" font-size="13px" font-style="normal" font-weight="normal" text-decoration="none" x="205.558349609375" y="335">3.b.1 [user == null &amp;&amp; guestCart != null]:</text><text fill="#000000" stroke="none" font-family="Arial" font-size="13px" font-style="normal" font-weight="normal" text-decoration="none" x="172.163330078125" y="348">removeCartItemByGuestCartIdAndProductId(cartId,</text><text fill="#000000" stroke="none" font-family="Arial" font-size="13px" font-style="normal" font-weight="normal" text-decoration="none" x="291.734130859375" y="361">productId)</text></g></g><g transform="translate(-22,-118) scale(1,1)"><path fill="none" stroke="#000000" d="M 489 310 L 489 487" stroke-miterlimit="10"/></g><g transform="translate(-22,-118) scale(1,1)"><path fill="none" stroke="#000000" d="M 471 423 L 471 383" stroke-miterlimit="10"/></g><g transform="translate(-22,-118) scale(1,1)"><path fill="#000000" stroke="none" d="M 466 411 L 471 423 L 475 411"/></g><g transform="translate(-22,-118) scale(1,1)"><g><path fill="none" stroke="none"/><text fill="#000000" stroke="none" font-family="Arial" font-size="13px" font-style="normal" font-weight="normal" text-decoration="none" x="48.282958984375" y="394">3.b.2 [user == null &amp;&amp; guestCart != null]:  setCartItemList(List&lt;CartItem&gt;)</text></g></g><g transform="translate(-22,-118) scale(1,1)"><path fill="none" stroke="#000000" d="M 489 488 L 489 467 L 568 467 L 568 502 L 539 502" stroke-miterlimit="10"/></g><g transform="translate(-22,-118) scale(1,1)"><path fill="none" stroke="#000000" d="M 543 462 L 543 422" stroke-miterlimit="10"/></g><g transform="translate(-22,-118) scale(1,1)"><path fill="#000000" stroke="none" d="M 538 450 L 543 462 L 547 450"/></g><g transform="translate(-22,-118) scale(1,1)"><g><path fill="none" stroke="none"/><text fill="#000000" stroke="none" font-family="Arial" font-size="13px" font-style="normal" font-weight="normal" text-decoration="none" x="550.99560546875" y="435">3.b.2.1: getCartItemByGuestCartId(guestCartId)</text></g></g></g></svg>