<svg version="1.1" xmlns="http://www.w3.org/2000/svg" xmlns:xlink="http://www.w3.org/1999/xlink" width="772" height="364"><defs/><g><text fill="#eeeeee" stroke="none" font-family="Arial" font-size="24px" font-style="normal" font-weight="normal" text-decoration="none" x="0" y="0">UNREGISTERED</text><text fill="#eeeeee" stroke="none" font-family="Arial" font-size="24px" font-style="normal" font-weight="normal" text-decoration="none" x="0" y="30">UNREGISTERED</text><text fill="#eeeeee" stroke="none" font-family="Arial" font-size="24px" font-style="normal" font-weight="normal" text-decoration="none" x="0" y="60">UNREGISTERED</text><text fill="#eeeeee" stroke="none" font-family="Arial" font-size="24px" font-style="normal" font-weight="normal" text-decoration="none" x="0" y="90">UNREGISTERED</text><text fill="#eeeeee" stroke="none" font-family="Arial" font-size="24px" font-style="normal" font-weight="normal" text-decoration="none" x="0" y="120">UNREGISTERED</text><text fill="#eeeeee" stroke="none" font-family="Arial" font-size="24px" font-style="normal" font-weight="normal" text-decoration="none" x="0" y="150">UNREGISTERED</text><text fill="#eeeeee" stroke="none" font-family="Arial" font-size="24px" font-style="normal" font-weight="normal" text-decoration="none" x="0" y="180">UNREGISTERED</text><text fill="#eeeeee" stroke="none" font-family="Arial" font-size="24px" font-style="normal" font-weight="normal" text-decoration="none" x="0" y="210">UNREGISTERED</text><text fill="#eeeeee" stroke="none" font-family="Arial" font-size="24px" font-style="normal" font-weight="normal" text-decoration="none" x="0" y="240">UNREGISTERED</text><text fill="#eeeeee" stroke="none" font-family="Arial" font-size="24px" font-style="normal" font-weight="normal" text-decoration="none" x="0" y="270">UNREGISTERED</text><text fill="#eeeeee" stroke="none" font-family="Arial" font-size="24px" font-style="normal" font-weight="normal" text-decoration="none" x="0" y="300">UNREGISTERED</text><text fill="#eeeeee" stroke="none" font-family="Arial" font-size="24px" font-style="normal" font-weight="normal" text-decoration="none" x="0" y="330">UNREGISTERED</text><text fill="#eeeeee" stroke="none" font-family="Arial" font-size="24px" font-style="normal" font-weight="normal" text-decoration="none" x="0" y="360">UNREGISTERED</text><text fill="#eeeeee" stroke="none" font-family="Arial" font-size="24px" font-style="normal" font-weight="normal" text-decoration="none" x="200" y="0">UNREGISTERED</text><text fill="#eeeeee" stroke="none" font-family="Arial" font-size="24px" font-style="normal" font-weight="normal" text-decoration="none" x="200" y="30">UNREGISTERED</text><text fill="#eeeeee" stroke="none" font-family="Arial" font-size="24px" font-style="normal" font-weight="normal" text-decoration="none" x="200" y="60">UNREGISTERED</text><text fill="#eeeeee" stroke="none" font-family="Arial" font-size="24px" font-style="normal" font-weight="normal" text-decoration="none" x="200" y="90">UNREGISTERED</text><text fill="#eeeeee" stroke="none" font-family="Arial" font-size="24px" font-style="normal" font-weight="normal" text-decoration="none" x="200" y="120">UNREGISTERED</text><text fill="#eeeeee" stroke="none" font-family="Arial" font-size="24px" font-style="normal" font-weight="normal" text-decoration="none" x="200" y="150">UNREGISTERED</text><text fill="#eeeeee" stroke="none" font-family="Arial" font-size="24px" font-style="normal" font-weight="normal" text-decoration="none" x="200" y="180">UNREGISTERED</text><text fill="#eeeeee" stroke="none" font-family="Arial" font-size="24px" font-style="normal" font-weight="normal" text-decoration="none" x="200" y="210">UNREGISTERED</text><text fill="#eeeeee" stroke="none" font-family="Arial" font-size="24px" font-style="normal" font-weight="normal" text-decoration="none" x="200" y="240">UNREGISTERED</text><text fill="#eeeeee" stroke="none" font-family="Arial" font-size="24px" font-style="normal" font-weight="normal" text-decoration="none" x="200" y="270">UNREGISTERED</text><text fill="#eeeeee" stroke="none" font-family="Arial" font-size="24px" font-style="normal" font-weight="normal" text-decoration="none" x="200" y="300">UNREGISTERED</text><text fill="#eeeeee" stroke="none" font-family="Arial" font-size="24px" font-style="normal" font-weight="normal" text-decoration="none" x="200" y="330">UNREGISTERED</text><text fill="#eeeeee" stroke="none" font-family="Arial" font-size="24px" font-style="normal" font-weight="normal" text-decoration="none" x="200" y="360">UNREGISTERED</text><text fill="#eeeeee" stroke="none" font-family="Arial" font-size="24px" font-style="normal" font-weight="normal" text-decoration="none" x="400" y="0">UNREGISTERED</text><text fill="#eeeeee" stroke="none" font-family="Arial" font-size="24px" font-style="normal" font-weight="normal" text-decoration="none" x="400" y="30">UNREGISTERED</text><text fill="#eeeeee" stroke="none" font-family="Arial" font-size="24px" font-style="normal" font-weight="normal" text-decoration="none" x="400" y="60">UNREGISTERED</text><text fill="#eeeeee" stroke="none" font-family="Arial" font-size="24px" font-style="normal" font-weight="normal" text-decoration="none" x="400" y="90">UNREGISTERED</text><text fill="#eeeeee" stroke="none" font-family="Arial" font-size="24px" font-style="normal" font-weight="normal" text-decoration="none" x="400" y="120">UNREGISTERED</text><text fill="#eeeeee" stroke="none" font-family="Arial" font-size="24px" font-style="normal" font-weight="normal" text-decoration="none" x="400" y="150">UNREGISTERED</text><text fill="#eeeeee" stroke="none" font-family="Arial" font-size="24px" font-style="normal" font-weight="normal" text-decoration="none" x="400" y="180">UNREGISTERED</text><text fill="#eeeeee" stroke="none" font-family="Arial" font-size="24px" font-style="normal" font-weight="normal" text-decoration="none" x="400" y="210">UNREGISTERED</text><text fill="#eeeeee" stroke="none" font-family="Arial" font-size="24px" font-style="normal" font-weight="normal" text-decoration="none" x="400" y="240">UNREGISTERED</text><text fill="#eeeeee" stroke="none" font-family="Arial" font-size="24px" font-style="normal" font-weight="normal" text-decoration="none" x="400" y="270">UNREGISTERED</text><text fill="#eeeeee" stroke="none" font-family="Arial" font-size="24px" font-style="normal" font-weight="normal" text-decoration="none" x="400" y="300">UNREGISTERED</text><text fill="#eeeeee" stroke="none" font-family="Arial" font-size="24px" font-style="normal" font-weight="normal" text-decoration="none" x="400" y="330">UNREGISTERED</text><text fill="#eeeeee" stroke="none" font-family="Arial" font-size="24px" font-style="normal" font-weight="normal" text-decoration="none" x="400" y="360">UNREGISTERED</text><text fill="#eeeeee" stroke="none" font-family="Arial" font-size="24px" font-style="normal" font-weight="normal" text-decoration="none" x="600" y="0">UNREGISTERED</text><text fill="#eeeeee" stroke="none" font-family="Arial" font-size="24px" font-style="normal" font-weight="normal" text-decoration="none" x="600" y="30">UNREGISTERED</text><text fill="#eeeeee" stroke="none" font-family="Arial" font-size="24px" font-style="normal" font-weight="normal" text-decoration="none" x="600" y="60">UNREGISTERED</text><text fill="#eeeeee" stroke="none" font-family="Arial" font-size="24px" font-style="normal" font-weight="normal" text-decoration="none" x="600" y="90">UNREGISTERED</text><text fill="#eeeeee" stroke="none" font-family="Arial" font-size="24px" font-style="normal" font-weight="normal" text-decoration="none" x="600" y="120">UNREGISTERED</text><text fill="#eeeeee" stroke="none" font-family="Arial" font-size="24px" font-style="normal" font-weight="normal" text-decoration="none" x="600" y="150">UNREGISTERED</text><text fill="#eeeeee" stroke="none" font-family="Arial" font-size="24px" font-style="normal" font-weight="normal" text-decoration="none" x="600" y="180">UNREGISTERED</text><text fill="#eeeeee" stroke="none" font-family="Arial" font-size="24px" font-style="normal" font-weight="normal" text-decoration="none" x="600" y="210">UNREGISTERED</text><text fill="#eeeeee" stroke="none" font-family="Arial" font-size="24px" font-style="normal" font-weight="normal" text-decoration="none" x="600" y="240">UNREGISTERED</text><text fill="#eeeeee" stroke="none" font-family="Arial" font-size="24px" font-style="normal" font-weight="normal" text-decoration="none" x="600" y="270">UNREGISTERED</text><text fill="#eeeeee" stroke="none" font-family="Arial" font-size="24px" font-style="normal" font-weight="normal" text-decoration="none" x="600" y="300">UNREGISTERED</text><text fill="#eeeeee" stroke="none" font-family="Arial" font-size="24px" font-style="normal" font-weight="normal" text-decoration="none" x="600" y="330">UNREGISTERED</text><text fill="#eeeeee" stroke="none" font-family="Arial" font-size="24px" font-style="normal" font-weight="normal" text-decoration="none" x="600" y="360">UNREGISTERED</text><g transform="translate(-46,-14) scale(1,1)"><path fill="none" stroke="#000000" d="M 56 24 L 808 24 L 808 368 L 56 368 L 56 24" stroke-miterlimit="10"/></g><g transform="translate(-46,-14) scale(1,1)"><path fill="#ffffff" stroke="none" d="M 56 24 L 56 46 L 220.1162109375 46 L 231.1162109375 35 L 231.1162109375 24 L 56 24"/></g><g transform="translate(-46,-14) scale(1,1)"><path fill="none" stroke="#000000" d="M 56 24 L 56 46 L 220.1162109375 46 L 231.1162109375 35 L 231.1162109375 24 L 56 24 L 56 24" stroke-miterlimit="10"/></g><g transform="translate(-46,-14) scale(1,1)"><g><path fill="none" stroke="none"/><text fill="#000000" stroke="none" font-family="Arial" font-size="13px" font-style="normal" font-weight="normal" text-decoration="none" x="80.72998046875" y="40">AddCategory(ExFlow2)</text></g></g><g transform="translate(-46,-14) scale(1,1)"><g><path fill="none" stroke="none"/><text fill="#000000" stroke="none" font-family="Arial" font-size="13px" font-style="normal" font-weight="bold" text-decoration="none" x="60.279541015625" y="40">sd</text></g></g><g transform="translate(-46,-14) scale(1,1)"><rect fill="#ffffff" stroke="none" x="80" y="120" width="711" height="224"/></g><g transform="translate(-46,-14) scale(1,1)"><path fill="none" stroke="#000000" d="M 80 120 L 791 120 L 791 344 L 80 344 L 80 120 Z Z" stroke-miterlimit="10"/></g><g transform="translate(-46,-14) scale(1,1)"><path fill="#ffffff" stroke="none" d="M 408.9981551846591 47.3 C 408.9981551846591 43.82060576 411.8765569068409 41 415.42724609375 41 C 418.9779352806591 41 421.856337002841 43.82060576 421.856337002841 47.3 C 421.856337002841 50.779394239999995 418.9779352806591 53.6 415.42724609375 53.6 C 411.8765569068409 53.6 408.9981551846591 50.779394239999995 408.9981551846591 47.3 Z"/></g><g transform="translate(-46,-14) scale(1,1)"><path fill="none" stroke="#000000" d="M 408.9981551846591 47.3 C 408.9981551846591 43.82060576 411.8765569068409 41 415.42724609375 41 C 418.9779352806591 41 421.856337002841 43.82060576 421.856337002841 47.3 C 421.856337002841 50.779394239999995 418.9779352806591 53.6 415.42724609375 53.6 C 411.8765569068409 53.6 408.9981551846591 50.779394239999995 408.9981551846591 47.3 Z" stroke-miterlimit="10"/></g><g transform="translate(-46,-14) scale(1,1)"><path fill="none" stroke="#000000" d="M 415.42724609375 53.6 L 415.42724609375 66.4" stroke-miterlimit="10"/></g><g transform="translate(-46,-14) scale(1,1)"><path fill="none" stroke="#000000" d="M 408.61997336647727 58.4 L 422.2345188210228 58.4" stroke-miterlimit="10"/></g><g transform="translate(-46,-14) scale(1,1)"><path fill="none" stroke="#000000" d="M 415.42724609375 66.4 L 405.97270063920456 79" stroke-miterlimit="10"/></g><g transform="translate(-46,-14) scale(1,1)"><path fill="none" stroke="#000000" d="M 415.42724609375 66.4 L 424.8817915482955 79" stroke-miterlimit="10"/></g><g transform="translate(-46,-14) scale(1,1)"><g><path fill="none" stroke="none"/><text fill="#000000" stroke="none" font-family="Arial" font-size="13px" font-style="normal" font-weight="bold" text-decoration="none" x="391.236328125" y="98">: Admin</text></g></g><g transform="translate(-46,-14) scale(1,1)"><path fill="none" stroke="#000000" d="M 416.5 105 L 416.5 360" stroke-miterlimit="10" stroke-dasharray="3"/></g><g transform="translate(-46,-14) scale(1,1)"><rect fill="#C0C0C0" stroke="none" x="679" y="47" width="73.18994140625" height="39" opacity="0.2"/></g><g transform="translate(-46,-14) scale(1,1)"><rect fill="#ffffff" stroke="none" x="672" y="40" width="73.18994140625" height="39"/></g><g transform="translate(-46,-14) scale(1,1)"><path fill="none" stroke="#000000" d="M 672 40 L 745.18994140625 40 L 745.18994140625 79 L 672 79 L 672 40 Z Z" stroke-miterlimit="10"/></g><g transform="translate(-46,-14) scale(1,1)"><g><path fill="none" stroke="none"/><text fill="#000000" stroke="none" font-family="Arial" font-size="13px" font-style="normal" font-weight="bold" text-decoration="none" x="681.5" y="58">: System</text></g></g><g transform="translate(-46,-14) scale(1,1)"><path fill="none" stroke="#000000" d="M 709.5 80 L 709.5 360" stroke-miterlimit="10" stroke-dasharray="3"/></g><g transform="translate(-46,-14) scale(1,1)"><g><path fill="none" stroke="none"/><text fill="#000000" stroke="none" font-family="Arial" font-size="13px" font-style="normal" font-weight="normal" text-decoration="none" x="141" y="143">1. Trong danh sách danh mục sản</text><text fill="#000000" stroke="none" font-family="Arial" font-size="13px" font-style="normal" font-weight="normal" text-decoration="none" x="141" y="157">phẩm, Người dùng nhấn nút "Add</text><text fill="#000000" stroke="none" font-family="Arial" font-size="13px" font-style="normal" font-weight="normal" text-decoration="none" x="141" y="169">new category"</text></g></g><g transform="translate(-46,-14) scale(1,1)"><g><path fill="none" stroke="none"/><text fill="#000000" stroke="none" font-family="Arial" font-size="13px" font-style="normal" font-weight="normal" text-decoration="none" x="141" y="320">4. Kết thúc việc thêm danh mục sản</text><text fill="#000000" stroke="none" font-family="Arial" font-size="13px" font-style="normal" font-weight="normal" text-decoration="none" x="141" y="333">phẩm</text></g></g><g transform="translate(-46,-14) scale(1,1)"><g><path fill="none" stroke="none"/><text fill="#000000" stroke="none" font-family="Arial" font-size="13px" font-style="normal" font-weight="normal" text-decoration="none" x="141" y="209">2. Hệ thống hiển thị biểu mẫu, người</text><text fill="#000000" stroke="none" font-family="Arial" font-size="13px" font-style="normal" font-weight="normal" text-decoration="none" x="141" y="220">dùng nhập thông tin tương ứng</text></g></g><g transform="translate(-46,-14) scale(1,1)"><g><path fill="none" stroke="none"/><text fill="#000000" stroke="none" font-family="Arial" font-size="13px" font-style="normal" font-weight="normal" text-decoration="none" x="141" y="264">3. Người dùng nhấn "Add". Chương</text><text fill="#000000" stroke="none" font-family="Arial" font-size="13px" font-style="normal" font-weight="normal" text-decoration="none" x="141" y="277">trình hiển thị thông báo "Please fill out</text><text fill="#000000" stroke="none" font-family="Arial" font-size="13px" font-style="normal" font-weight="normal" text-decoration="none" x="141" y="289">this field"</text></g></g><g transform="translate(-46,-14) scale(1,1)"><path fill="none" stroke="#000000" d="M 709 161 L 416 161" stroke-miterlimit="10" stroke-dasharray="3"/></g><g transform="translate(-46,-14) scale(1,1)"><path fill="none" stroke="#000000" d="M 426.16267485762415 156.790482243984 L 416 161 L 426.16267485762415 165.209517756016" stroke-miterlimit="10"/></g><g transform="translate(-46,-14) scale(1,1)"><g><path fill="none" stroke="none"/><text fill="#000000" stroke="none" font-family="Arial" font-size="13px" font-style="normal" font-weight="normal" text-decoration="none" x="499.5" y="176">FormCreateCategory</text></g></g><g transform="translate(-46,-14) scale(1,1)"><path fill="none" stroke="#000000" d="M 709 234 L 416 234" stroke-miterlimit="10" stroke-dasharray="3"/></g><g transform="translate(-46,-14) scale(1,1)"><path fill="none" stroke="#000000" d="M 426.16267485762415 229.790482243984 L 416 234 L 426.16267485762415 238.209517756016" stroke-miterlimit="10"/></g><g transform="translate(-46,-14) scale(1,1)"><g><path fill="none" stroke="none"/><text fill="#000000" stroke="none" font-family="Arial" font-size="13px" font-style="normal" font-weight="normal" text-decoration="none" x="517.5" y="249">Announcement</text></g></g></g></svg>