<svg version="1.1" xmlns="http://www.w3.org/2000/svg" xmlns:xlink="http://www.w3.org/1999/xlink" width="764" height="420"><defs/><g><text fill="#eeeeee" stroke="none" font-family="Arial" font-size="24px" font-style="normal" font-weight="normal" text-decoration="none" x="0" y="0">UNREGISTERED</text><text fill="#eeeeee" stroke="none" font-family="Arial" font-size="24px" font-style="normal" font-weight="normal" text-decoration="none" x="0" y="30">UNREGISTERED</text><text fill="#eeeeee" stroke="none" font-family="Arial" font-size="24px" font-style="normal" font-weight="normal" text-decoration="none" x="0" y="60">UNREGISTERED</text><text fill="#eeeeee" stroke="none" font-family="Arial" font-size="24px" font-style="normal" font-weight="normal" text-decoration="none" x="0" y="90">UNREGISTERED</text><text fill="#eeeeee" stroke="none" font-family="Arial" font-size="24px" font-style="normal" font-weight="normal" text-decoration="none" x="0" y="120">UNREGISTERED</text><text fill="#eeeeee" stroke="none" font-family="Arial" font-size="24px" font-style="normal" font-weight="normal" text-decoration="none" x="0" y="150">UNREGISTERED</text><text fill="#eeeeee" stroke="none" font-family="Arial" font-size="24px" font-style="normal" font-weight="normal" text-decoration="none" x="0" y="180">UNREGISTERED</text><text fill="#eeeeee" stroke="none" font-family="Arial" font-size="24px" font-style="normal" font-weight="normal" text-decoration="none" x="0" y="210">UNREGISTERED</text><text fill="#eeeeee" stroke="none" font-family="Arial" font-size="24px" font-style="normal" font-weight="normal" text-decoration="none" x="0" y="240">UNREGISTERED</text><text fill="#eeeeee" stroke="none" font-family="Arial" font-size="24px" font-style="normal" font-weight="normal" text-decoration="none" x="0" y="270">UNREGISTERED</text><text fill="#eeeeee" stroke="none" font-family="Arial" font-size="24px" font-style="normal" font-weight="normal" text-decoration="none" x="0" y="300">UNREGISTERED</text><text fill="#eeeeee" stroke="none" font-family="Arial" font-size="24px" font-style="normal" font-weight="normal" text-decoration="none" x="0" y="330">UNREGISTERED</text><text fill="#eeeeee" stroke="none" font-family="Arial" font-size="24px" font-style="normal" font-weight="normal" text-decoration="none" x="0" y="360">UNREGISTERED</text><text fill="#eeeeee" stroke="none" font-family="Arial" font-size="24px" font-style="normal" font-weight="normal" text-decoration="none" x="0" y="390">UNREGISTERED</text><text fill="#eeeeee" stroke="none" font-family="Arial" font-size="24px" font-style="normal" font-weight="normal" text-decoration="none" x="200" y="0">UNREGISTERED</text><text fill="#eeeeee" stroke="none" font-family="Arial" font-size="24px" font-style="normal" font-weight="normal" text-decoration="none" x="200" y="30">UNREGISTERED</text><text fill="#eeeeee" stroke="none" font-family="Arial" font-size="24px" font-style="normal" font-weight="normal" text-decoration="none" x="200" y="60">UNREGISTERED</text><text fill="#eeeeee" stroke="none" font-family="Arial" font-size="24px" font-style="normal" font-weight="normal" text-decoration="none" x="200" y="90">UNREGISTERED</text><text fill="#eeeeee" stroke="none" font-family="Arial" font-size="24px" font-style="normal" font-weight="normal" text-decoration="none" x="200" y="120">UNREGISTERED</text><text fill="#eeeeee" stroke="none" font-family="Arial" font-size="24px" font-style="normal" font-weight="normal" text-decoration="none" x="200" y="150">UNREGISTERED</text><text fill="#eeeeee" stroke="none" font-family="Arial" font-size="24px" font-style="normal" font-weight="normal" text-decoration="none" x="200" y="180">UNREGISTERED</text><text fill="#eeeeee" stroke="none" font-family="Arial" font-size="24px" font-style="normal" font-weight="normal" text-decoration="none" x="200" y="210">UNREGISTERED</text><text fill="#eeeeee" stroke="none" font-family="Arial" font-size="24px" font-style="normal" font-weight="normal" text-decoration="none" x="200" y="240">UNREGISTERED</text><text fill="#eeeeee" stroke="none" font-family="Arial" font-size="24px" font-style="normal" font-weight="normal" text-decoration="none" x="200" y="270">UNREGISTERED</text><text fill="#eeeeee" stroke="none" font-family="Arial" font-size="24px" font-style="normal" font-weight="normal" text-decoration="none" x="200" y="300">UNREGISTERED</text><text fill="#eeeeee" stroke="none" font-family="Arial" font-size="24px" font-style="normal" font-weight="normal" text-decoration="none" x="200" y="330">UNREGISTERED</text><text fill="#eeeeee" stroke="none" font-family="Arial" font-size="24px" font-style="normal" font-weight="normal" text-decoration="none" x="200" y="360">UNREGISTERED</text><text fill="#eeeeee" stroke="none" font-family="Arial" font-size="24px" font-style="normal" font-weight="normal" text-decoration="none" x="200" y="390">UNREGISTERED</text><text fill="#eeeeee" stroke="none" font-family="Arial" font-size="24px" font-style="normal" font-weight="normal" text-decoration="none" x="400" y="0">UNREGISTERED</text><text fill="#eeeeee" stroke="none" font-family="Arial" font-size="24px" font-style="normal" font-weight="normal" text-decoration="none" x="400" y="30">UNREGISTERED</text><text fill="#eeeeee" stroke="none" font-family="Arial" font-size="24px" font-style="normal" font-weight="normal" text-decoration="none" x="400" y="60">UNREGISTERED</text><text fill="#eeeeee" stroke="none" font-family="Arial" font-size="24px" font-style="normal" font-weight="normal" text-decoration="none" x="400" y="90">UNREGISTERED</text><text fill="#eeeeee" stroke="none" font-family="Arial" font-size="24px" font-style="normal" font-weight="normal" text-decoration="none" x="400" y="120">UNREGISTERED</text><text fill="#eeeeee" stroke="none" font-family="Arial" font-size="24px" font-style="normal" font-weight="normal" text-decoration="none" x="400" y="150">UNREGISTERED</text><text fill="#eeeeee" stroke="none" font-family="Arial" font-size="24px" font-style="normal" font-weight="normal" text-decoration="none" x="400" y="180">UNREGISTERED</text><text fill="#eeeeee" stroke="none" font-family="Arial" font-size="24px" font-style="normal" font-weight="normal" text-decoration="none" x="400" y="210">UNREGISTERED</text><text fill="#eeeeee" stroke="none" font-family="Arial" font-size="24px" font-style="normal" font-weight="normal" text-decoration="none" x="400" y="240">UNREGISTERED</text><text fill="#eeeeee" stroke="none" font-family="Arial" font-size="24px" font-style="normal" font-weight="normal" text-decoration="none" x="400" y="270">UNREGISTERED</text><text fill="#eeeeee" stroke="none" font-family="Arial" font-size="24px" font-style="normal" font-weight="normal" text-decoration="none" x="400" y="300">UNREGISTERED</text><text fill="#eeeeee" stroke="none" font-family="Arial" font-size="24px" font-style="normal" font-weight="normal" text-decoration="none" x="400" y="330">UNREGISTERED</text><text fill="#eeeeee" stroke="none" font-family="Arial" font-size="24px" font-style="normal" font-weight="normal" text-decoration="none" x="400" y="360">UNREGISTERED</text><text fill="#eeeeee" stroke="none" font-family="Arial" font-size="24px" font-style="normal" font-weight="normal" text-decoration="none" x="400" y="390">UNREGISTERED</text><text fill="#eeeeee" stroke="none" font-family="Arial" font-size="24px" font-style="normal" font-weight="normal" text-decoration="none" x="600" y="0">UNREGISTERED</text><text fill="#eeeeee" stroke="none" font-family="Arial" font-size="24px" font-style="normal" font-weight="normal" text-decoration="none" x="600" y="30">UNREGISTERED</text><text fill="#eeeeee" stroke="none" font-family="Arial" font-size="24px" font-style="normal" font-weight="normal" text-decoration="none" x="600" y="60">UNREGISTERED</text><text fill="#eeeeee" stroke="none" font-family="Arial" font-size="24px" font-style="normal" font-weight="normal" text-decoration="none" x="600" y="90">UNREGISTERED</text><text fill="#eeeeee" stroke="none" font-family="Arial" font-size="24px" font-style="normal" font-weight="normal" text-decoration="none" x="600" y="120">UNREGISTERED</text><text fill="#eeeeee" stroke="none" font-family="Arial" font-size="24px" font-style="normal" font-weight="normal" text-decoration="none" x="600" y="150">UNREGISTERED</text><text fill="#eeeeee" stroke="none" font-family="Arial" font-size="24px" font-style="normal" font-weight="normal" text-decoration="none" x="600" y="180">UNREGISTERED</text><text fill="#eeeeee" stroke="none" font-family="Arial" font-size="24px" font-style="normal" font-weight="normal" text-decoration="none" x="600" y="210">UNREGISTERED</text><text fill="#eeeeee" stroke="none" font-family="Arial" font-size="24px" font-style="normal" font-weight="normal" text-decoration="none" x="600" y="240">UNREGISTERED</text><text fill="#eeeeee" stroke="none" font-family="Arial" font-size="24px" font-style="normal" font-weight="normal" text-decoration="none" x="600" y="270">UNREGISTERED</text><text fill="#eeeeee" stroke="none" font-family="Arial" font-size="24px" font-style="normal" font-weight="normal" text-decoration="none" x="600" y="300">UNREGISTERED</text><text fill="#eeeeee" stroke="none" font-family="Arial" font-size="24px" font-style="normal" font-weight="normal" text-decoration="none" x="600" y="330">UNREGISTERED</text><text fill="#eeeeee" stroke="none" font-family="Arial" font-size="24px" font-style="normal" font-weight="normal" text-decoration="none" x="600" y="360">UNREGISTERED</text><text fill="#eeeeee" stroke="none" font-family="Arial" font-size="24px" font-style="normal" font-weight="normal" text-decoration="none" x="600" y="390">UNREGISTERED</text><g transform="translate(-150,-22) scale(1,1)"><path fill="none" stroke="#000000" d="M 160 32 L 904 32 L 904 432 L 160 432 L 160 32" stroke-miterlimit="10"/></g><g transform="translate(-150,-22) scale(1,1)"><path fill="#ffffff" stroke="none" d="M 160 32 L 160 54 L 339.2998046875 54 L 350.2998046875 43 L 350.2998046875 32 L 160 32"/></g><g transform="translate(-150,-22) scale(1,1)"><path fill="none" stroke="#000000" d="M 160 32 L 160 54 L 339.2998046875 54 L 350.2998046875 43 L 350.2998046875 32 L 160 32 L 160 32" stroke-miterlimit="10"/></g><g transform="translate(-150,-22) scale(1,1)"><g><path fill="none" stroke="none"/><text fill="#000000" stroke="none" font-family="Arial" font-size="13px" font-style="normal" font-weight="normal" text-decoration="none" x="184.72998046875" y="48">showProductsByCategory</text></g></g><g transform="translate(-150,-22) scale(1,1)"><g><path fill="none" stroke="none"/><text fill="#000000" stroke="none" font-family="Arial" font-size="13px" font-style="normal" font-weight="bold" text-decoration="none" x="164.279541015625" y="48">sd</text></g></g><g transform="translate(-150,-22) scale(1,1)"><rect fill="#C0C0C0" stroke="none" x="447" y="47" width="76.052734375" height="39" opacity="0.2"/></g><g transform="translate(-150,-22) scale(1,1)"><rect fill="#ffffff" stroke="none" x="440" y="40" width="76.052734375" height="39"/></g><g transform="translate(-150,-22) scale(1,1)"><path fill="none" stroke="#000000" d="M 440 40 L 516.052734375 40 L 516.052734375 79 L 440 79 L 440 40 Z Z" stroke-miterlimit="10"/></g><g transform="translate(-150,-22) scale(1,1)"><g><path fill="none" stroke="none"/><text fill="#000000" stroke="none" font-family="Arial" font-size="13px" font-style="normal" font-weight="bold" text-decoration="none" x="449.5" y="58">: Product</text></g></g><g transform="translate(-150,-22) scale(1,1)"><path fill="none" stroke="#000000" d="M 479.5 80 L 479.5 416" stroke-miterlimit="10" stroke-dasharray="3"/></g><g transform="translate(-150,-22) scale(1,1)"><rect fill="#C0C0C0" stroke="none" x="775" y="47" width="83.2890625" height="39" opacity="0.2"/></g><g transform="translate(-150,-22) scale(1,1)"><rect fill="#ffffff" stroke="none" x="768" y="40" width="83.2890625" height="39"/></g><g transform="translate(-150,-22) scale(1,1)"><path fill="none" stroke="#000000" d="M 768 40 L 851.2890625 40 L 851.2890625 79 L 768 79 L 768 40 Z Z" stroke-miterlimit="10"/></g><g transform="translate(-150,-22) scale(1,1)"><g><path fill="none" stroke="none"/><text fill="#000000" stroke="none" font-family="Arial" font-size="13px" font-style="normal" font-weight="bold" text-decoration="none" x="777.5" y="58">: Category</text></g></g><g transform="translate(-150,-22) scale(1,1)"><path fill="none" stroke="#000000" d="M 810.5 80 L 810.5 408" stroke-miterlimit="10" stroke-dasharray="3"/></g><g transform="translate(-150,-22) scale(1,1)"><path fill="#000000" stroke="none" d="M 232 119.5 C 232 115.6340064 235.1340064 112.5 239 112.5 C 242.8659936 112.5 246 115.6340064 246 119.5 C 246 123.3659936 242.8659936 126.5 239 126.5 C 235.1340064 126.5 232 123.3659936 232 119.5 Z"/></g><g transform="translate(-150,-22) scale(1,1)"><path fill="none" stroke="#000000" d="M 246 120 L 472 120" stroke-miterlimit="10"/></g><g transform="translate(-150,-22) scale(1,1)"><path fill="#000000" stroke="none" d="M 461.83732514237585 124.20951775601598 L 472 120 L 461.83732514237585 115.79048224398402"/></g><g transform="translate(-150,-22) scale(1,1)"><path fill="none" stroke="#000000" d="M 461.83732514237585 124.20951775601598 L 472 120 L 461.83732514237585 115.79048224398402 L 461.83732514237585 124.20951775601598" stroke-miterlimit="10"/></g><g transform="translate(-150,-22) scale(1,1)"><g><path fill="none" stroke="none"/><text fill="#000000" stroke="none" font-family="Arial" font-size="13px" font-style="normal" font-weight="normal" text-decoration="none" x="176.53271484375" y="114">showProductsByCategory(id, sortType, page)</text></g></g><g transform="translate(-150,-22) scale(1,1)"><rect fill="#ffffff" stroke="none" x="472" y="120" width="13" height="280"/></g><g transform="translate(-150,-22) scale(1,1)"><path fill="none" stroke="#000000" d="M 472 120 L 485 120 L 485 400 L 472 400 L 472 120 Z Z" stroke-miterlimit="10"/></g><g transform="translate(-150,-22) scale(1,1)"><path fill="none" stroke="#000000" d="M 485 152 L 515 152 L 515 172 L 492 172" stroke-miterlimit="10"/></g><g transform="translate(-150,-22) scale(1,1)"><path fill="#000000" stroke="none" d="M 502.16267485762415 167.790482243984 L 492 172 L 502.16267485762415 176.209517756016"/></g><g transform="translate(-150,-22) scale(1,1)"><path fill="none" stroke="#000000" d="M 502.16267485762415 167.790482243984 L 492 172 L 502.16267485762415 176.209517756016 L 502.16267485762415 167.790482243984" stroke-miterlimit="10"/></g><g transform="translate(-150,-22) scale(1,1)"><g><path fill="none" stroke="none"/><text fill="#000000" stroke="none" font-family="Arial" font-size="13px" font-style="normal" font-weight="normal" text-decoration="none" x="519.53271484375" y="166">getAll(pageable)</text></g></g><g transform="translate(-150,-22) scale(1,1)"><rect fill="#ffffff" stroke="none" x="479" y="172" width="13" height="28"/></g><g transform="translate(-150,-22) scale(1,1)"><path fill="none" stroke="#000000" d="M 479 172 L 492 172 L 492 200 L 479 200 L 479 172 Z Z" stroke-miterlimit="10"/></g><g transform="translate(-150,-22) scale(1,1)"><path fill="none" stroke="#000000" d="M 485 248 L 515 248 L 515 268 L 492 268" stroke-miterlimit="10"/></g><g transform="translate(-150,-22) scale(1,1)"><path fill="#000000" stroke="none" d="M 502.16267485762415 263.790482243984 L 492 268 L 502.16267485762415 272.209517756016"/></g><g transform="translate(-150,-22) scale(1,1)"><path fill="none" stroke="#000000" d="M 502.16267485762415 263.790482243984 L 492 268 L 502.16267485762415 272.209517756016 L 502.16267485762415 263.790482243984" stroke-miterlimit="10"/></g><g transform="translate(-150,-22) scale(1,1)"><g><path fill="none" stroke="none"/><text fill="#000000" stroke="none" font-family="Arial" font-size="13px" font-style="normal" font-weight="normal" text-decoration="none" x="527.53271484375" y="262">getProductByCategory(categoryId)</text></g></g><g transform="translate(-150,-22) scale(1,1)"><rect fill="#ffffff" stroke="none" x="479" y="268" width="13" height="28"/></g><g transform="translate(-150,-22) scale(1,1)"><path fill="none" stroke="#000000" d="M 479 268 L 492 268 L 492 296 L 479 296 L 479 268 Z Z" stroke-miterlimit="10"/></g><g transform="translate(-150,-22) scale(1,1)"><path fill="none" stroke="#000000" d="M 485 315 L 803 315" stroke-miterlimit="10"/></g><g transform="translate(-150,-22) scale(1,1)"><path fill="#000000" stroke="none" d="M 792.8373251423759 319.209517756016 L 803 315 L 792.8373251423758 310.790482243984"/></g><g transform="translate(-150,-22) scale(1,1)"><path fill="none" stroke="#000000" d="M 792.8373251423759 319.209517756016 L 803 315 L 792.8373251423758 310.790482243984 L 792.8373251423759 319.209517756016" stroke-miterlimit="10"/></g><g transform="translate(-150,-22) scale(1,1)"><g><path fill="none" stroke="none"/><text fill="#000000" stroke="none" font-family="Arial" font-size="13px" font-style="normal" font-weight="normal" text-decoration="none" x="560.53271484375" y="310">getCategoryById(categoryId)</text></g></g><g transform="translate(-150,-22) scale(1,1)"><rect fill="#ffffff" stroke="none" x="803" y="315" width="13" height="28"/></g><g transform="translate(-150,-22) scale(1,1)"><path fill="none" stroke="#000000" d="M 803 315 L 816 315 L 816 343 L 803 343 L 803 315 Z Z" stroke-miterlimit="10"/></g><g transform="translate(-150,-22) scale(1,1)"><path fill="none" stroke="#000000" d="M 803 328 L 485 328" stroke-miterlimit="10" stroke-dasharray="3"/></g><g transform="translate(-150,-22) scale(1,1)"><path fill="none" stroke="#000000" d="M 495.16267485762415 323.790482243984 L 485 328 L 495.16267485762415 332.209517756016" stroke-miterlimit="10"/></g><g transform="translate(-150,-22) scale(1,1)"><g><path fill="none" stroke="none"/><text fill="#000000" stroke="none" font-family="Arial" font-size="13px" font-style="normal" font-weight="normal" text-decoration="none" x="616.53271484375" y="343">Category</text></g></g><g transform="translate(-150,-22) scale(1,1)"><path fill="none" stroke="#000000" d="M 248 136 L 887 136 L 887 216 L 248 216 L 248 136" stroke-miterlimit="10"/></g><g transform="translate(-150,-22) scale(1,1)"><path fill="#ffffff" stroke="none" d="M 248 136 L 248 158 L 329.2412109375 158 L 340.2412109375 147 L 340.2412109375 136 L 248 136"/></g><g transform="translate(-150,-22) scale(1,1)"><path fill="none" stroke="#000000" d="M 248 136 L 248 158 L 329.2412109375 158 L 340.2412109375 147 L 340.2412109375 136 L 248 136 L 248 136" stroke-miterlimit="10"/></g><g transform="translate(-150,-22) scale(1,1)"><g><path fill="none" stroke="none"/><text fill="#000000" stroke="none" font-family="Arial" font-size="13px" font-style="normal" font-weight="normal" text-decoration="none" x="277.07177734375" y="152">id = "all"</text></g></g><g transform="translate(-150,-22) scale(1,1)"><g><path fill="none" stroke="none"/><text fill="#000000" stroke="none" font-family="Arial" font-size="13px" font-style="normal" font-weight="bold" text-decoration="none" x="251.930419921875" y="151.5">opt</text></g></g><g transform="translate(-150,-22) scale(1,1)"><path fill="none" stroke="#000000" d="M 248 224 L 887 224 L 887 383 L 248 383 L 248 224" stroke-miterlimit="10"/></g><g transform="translate(-150,-22) scale(1,1)"><path fill="#ffffff" stroke="none" d="M 248 224 L 248 246 L 332.85302734375 246 L 343.85302734375 235 L 343.85302734375 224 L 248 224"/></g><g transform="translate(-150,-22) scale(1,1)"><path fill="none" stroke="#000000" d="M 248 224 L 248 246 L 332.85302734375 246 L 343.85302734375 235 L 343.85302734375 224 L 248 224 L 248 224" stroke-miterlimit="10"/></g><g transform="translate(-150,-22) scale(1,1)"><g><path fill="none" stroke="none"/><text fill="#000000" stroke="none" font-family="Arial" font-size="13px" font-style="normal" font-weight="normal" text-decoration="none" x="277.07177734375" y="240">id != "all"</text></g></g><g transform="translate(-150,-22) scale(1,1)"><g><path fill="none" stroke="none"/><text fill="#000000" stroke="none" font-family="Arial" font-size="13px" font-style="normal" font-weight="bold" text-decoration="none" x="251.930419921875" y="239.5">opt</text></g></g></g></svg>