<svg version="1.1" xmlns="http://www.w3.org/2000/svg" xmlns:xlink="http://www.w3.org/1999/xlink" width="572" height="268"><defs/><g><text fill="#eeeeee" stroke="none" font-family="Arial" font-size="24px" font-style="normal" font-weight="normal" text-decoration="none" x="0" y="0">UNREGISTERED</text><text fill="#eeeeee" stroke="none" font-family="Arial" font-size="24px" font-style="normal" font-weight="normal" text-decoration="none" x="0" y="30">UNREGISTERED</text><text fill="#eeeeee" stroke="none" font-family="Arial" font-size="24px" font-style="normal" font-weight="normal" text-decoration="none" x="0" y="60">UNREGISTERED</text><text fill="#eeeeee" stroke="none" font-family="Arial" font-size="24px" font-style="normal" font-weight="normal" text-decoration="none" x="0" y="90">UNREGISTERED</text><text fill="#eeeeee" stroke="none" font-family="Arial" font-size="24px" font-style="normal" font-weight="normal" text-decoration="none" x="0" y="120">UNREGISTERED</text><text fill="#eeeeee" stroke="none" font-family="Arial" font-size="24px" font-style="normal" font-weight="normal" text-decoration="none" x="0" y="150">UNREGISTERED</text><text fill="#eeeeee" stroke="none" font-family="Arial" font-size="24px" font-style="normal" font-weight="normal" text-decoration="none" x="0" y="180">UNREGISTERED</text><text fill="#eeeeee" stroke="none" font-family="Arial" font-size="24px" font-style="normal" font-weight="normal" text-decoration="none" x="0" y="210">UNREGISTERED</text><text fill="#eeeeee" stroke="none" font-family="Arial" font-size="24px" font-style="normal" font-weight="normal" text-decoration="none" x="0" y="240">UNREGISTERED</text><text fill="#eeeeee" stroke="none" font-family="Arial" font-size="24px" font-style="normal" font-weight="normal" text-decoration="none" x="200" y="0">UNREGISTERED</text><text fill="#eeeeee" stroke="none" font-family="Arial" font-size="24px" font-style="normal" font-weight="normal" text-decoration="none" x="200" y="30">UNREGISTERED</text><text fill="#eeeeee" stroke="none" font-family="Arial" font-size="24px" font-style="normal" font-weight="normal" text-decoration="none" x="200" y="60">UNREGISTERED</text><text fill="#eeeeee" stroke="none" font-family="Arial" font-size="24px" font-style="normal" font-weight="normal" text-decoration="none" x="200" y="90">UNREGISTERED</text><text fill="#eeeeee" stroke="none" font-family="Arial" font-size="24px" font-style="normal" font-weight="normal" text-decoration="none" x="200" y="120">UNREGISTERED</text><text fill="#eeeeee" stroke="none" font-family="Arial" font-size="24px" font-style="normal" font-weight="normal" text-decoration="none" x="200" y="150">UNREGISTERED</text><text fill="#eeeeee" stroke="none" font-family="Arial" font-size="24px" font-style="normal" font-weight="normal" text-decoration="none" x="200" y="180">UNREGISTERED</text><text fill="#eeeeee" stroke="none" font-family="Arial" font-size="24px" font-style="normal" font-weight="normal" text-decoration="none" x="200" y="210">UNREGISTERED</text><text fill="#eeeeee" stroke="none" font-family="Arial" font-size="24px" font-style="normal" font-weight="normal" text-decoration="none" x="200" y="240">UNREGISTERED</text><text fill="#eeeeee" stroke="none" font-family="Arial" font-size="24px" font-style="normal" font-weight="normal" text-decoration="none" x="400" y="0">UNREGISTERED</text><text fill="#eeeeee" stroke="none" font-family="Arial" font-size="24px" font-style="normal" font-weight="normal" text-decoration="none" x="400" y="30">UNREGISTERED</text><text fill="#eeeeee" stroke="none" font-family="Arial" font-size="24px" font-style="normal" font-weight="normal" text-decoration="none" x="400" y="60">UNREGISTERED</text><text fill="#eeeeee" stroke="none" font-family="Arial" font-size="24px" font-style="normal" font-weight="normal" text-decoration="none" x="400" y="90">UNREGISTERED</text><text fill="#eeeeee" stroke="none" font-family="Arial" font-size="24px" font-style="normal" font-weight="normal" text-decoration="none" x="400" y="120">UNREGISTERED</text><text fill="#eeeeee" stroke="none" font-family="Arial" font-size="24px" font-style="normal" font-weight="normal" text-decoration="none" x="400" y="150">UNREGISTERED</text><text fill="#eeeeee" stroke="none" font-family="Arial" font-size="24px" font-style="normal" font-weight="normal" text-decoration="none" x="400" y="180">UNREGISTERED</text><text fill="#eeeeee" stroke="none" font-family="Arial" font-size="24px" font-style="normal" font-weight="normal" text-decoration="none" x="400" y="210">UNREGISTERED</text><text fill="#eeeeee" stroke="none" font-family="Arial" font-size="24px" font-style="normal" font-weight="normal" text-decoration="none" x="400" y="240">UNREGISTERED</text><g transform="translate(-166,-14) scale(1,1)"><path fill="none" stroke="#000000" d="M 176 24 L 728 24 L 728 272 L 176 272 L 176 24" stroke-miterlimit="10"/></g><g transform="translate(-166,-14) scale(1,1)"><path fill="#ffffff" stroke="none" d="M 176 24 L 176 46 L 288.09716796875 46 L 299.09716796875 35 L 299.09716796875 24 L 176 24"/></g><g transform="translate(-166,-14) scale(1,1)"><path fill="none" stroke="#000000" d="M 176 24 L 176 46 L 288.09716796875 46 L 299.09716796875 35 L 299.09716796875 24 L 176 24 L 176 24" stroke-miterlimit="10"/></g><g transform="translate(-166,-14) scale(1,1)"><g><path fill="none" stroke="none"/><text fill="#000000" stroke="none" font-family="Arial" font-size="13px" font-style="normal" font-weight="normal" text-decoration="none" x="200.72998046875" y="40">processProfile</text></g></g><g transform="translate(-166,-14) scale(1,1)"><g><path fill="none" stroke="none"/><text fill="#000000" stroke="none" font-family="Arial" font-size="13px" font-style="normal" font-weight="bold" text-decoration="none" x="180.279541015625" y="40">sd</text></g></g><g transform="translate(-166,-14) scale(1,1)"><rect fill="#C0C0C0" stroke="none" x="431" y="47" width="71.736328125" height="39" opacity="0.2"/></g><g transform="translate(-166,-14) scale(1,1)"><rect fill="#ffffff" stroke="none" x="424" y="40" width="71.736328125" height="39"/></g><g transform="translate(-166,-14) scale(1,1)"><path fill="none" stroke="#000000" d="M 424 40 L 495.736328125 40 L 495.736328125 79 L 424 79 L 424 40 Z Z" stroke-miterlimit="10"/></g><g transform="translate(-166,-14) scale(1,1)"><g><path fill="none" stroke="none"/><text fill="#000000" stroke="none" font-family="Arial" font-size="13px" font-style="normal" font-weight="bold" text-decoration="none" x="441.444091796875" y="58">: User</text></g></g><g transform="translate(-166,-14) scale(1,1)"><path fill="none" stroke="#000000" d="M 460.5 80 L 460.5 239" stroke-miterlimit="10" stroke-dasharray="3"/></g><g transform="translate(-166,-14) scale(1,1)"><path fill="#000000" stroke="none" d="M 288 111.5 C 288 107.6340064 291.1340064 104.5 295 104.5 C 298.8659936 104.5 302 107.6340064 302 111.5 C 302 115.3659936 298.8659936 118.5 295 118.5 C 291.1340064 118.5 288 115.3659936 288 111.5 Z"/></g><g transform="translate(-166,-14) scale(1,1)"><path fill="none" stroke="#000000" d="M 302 112 L 453 112" stroke-miterlimit="10"/></g><g transform="translate(-166,-14) scale(1,1)"><path fill="#000000" stroke="none" d="M 442.83732514237585 116.20951775601598 L 453 112 L 442.83732514237585 107.79048224398402"/></g><g transform="translate(-166,-14) scale(1,1)"><path fill="none" stroke="#000000" d="M 442.83732514237585 116.20951775601598 L 453 112 L 442.83732514237585 107.79048224398402 L 442.83732514237585 116.20951775601598" stroke-miterlimit="10"/></g><g transform="translate(-166,-14) scale(1,1)"><g><path fill="none" stroke="none"/><text fill="#000000" stroke="none" font-family="Arial" font-size="13px" font-style="normal" font-weight="normal" text-decoration="none" x="264.53271484375" y="106">processProfile(updatedUser)</text></g></g><g transform="translate(-166,-14) scale(1,1)"><rect fill="#ffffff" stroke="none" x="453" y="112" width="13" height="72"/></g><g transform="translate(-166,-14) scale(1,1)"><path fill="none" stroke="#000000" d="M 453 112 L 466 112 L 466 184 L 453 184 L 453 112 Z Z" stroke-miterlimit="10"/></g><g transform="translate(-166,-14) scale(1,1)"><path fill="none" stroke="#000000" d="M 466 128 L 496 128 L 496 148 L 473 148" stroke-miterlimit="10"/></g><g transform="translate(-166,-14) scale(1,1)"><path fill="#000000" stroke="none" d="M 483.16267485762415 143.790482243984 L 473 148 L 483.16267485762415 152.209517756016"/></g><g transform="translate(-166,-14) scale(1,1)"><path fill="none" stroke="#000000" d="M 483.16267485762415 143.790482243984 L 473 148 L 483.16267485762415 152.209517756016 L 483.16267485762415 143.790482243984" stroke-miterlimit="10"/></g><g transform="translate(-166,-14) scale(1,1)"><g><path fill="none" stroke="none"/><text fill="#000000" stroke="none" font-family="Arial" font-size="13px" font-style="normal" font-weight="normal" text-decoration="none" x="502.53271484375" y="147">updateUser(updatedUser)</text></g></g><g transform="translate(-166,-14) scale(1,1)"><rect fill="#ffffff" stroke="none" x="460" y="148" width="13" height="28"/></g><g transform="translate(-166,-14) scale(1,1)"><path fill="none" stroke="#000000" d="M 460 148 L 473 148 L 473 176 L 460 176 L 460 148 Z Z" stroke-miterlimit="10"/></g></g></svg>