<svg version="1.1" xmlns="http://www.w3.org/2000/svg" xmlns:xlink="http://www.w3.org/1999/xlink" width="719" height="220"><defs/><g><text fill="#eeeeee" stroke="none" font-family="Arial" font-size="24px" font-style="normal" font-weight="normal" text-decoration="none" x="0" y="0">UNREGISTERED</text><text fill="#eeeeee" stroke="none" font-family="Arial" font-size="24px" font-style="normal" font-weight="normal" text-decoration="none" x="0" y="30">UNREGISTERED</text><text fill="#eeeeee" stroke="none" font-family="Arial" font-size="24px" font-style="normal" font-weight="normal" text-decoration="none" x="0" y="60">UNREGISTERED</text><text fill="#eeeeee" stroke="none" font-family="Arial" font-size="24px" font-style="normal" font-weight="normal" text-decoration="none" x="0" y="90">UNREGISTERED</text><text fill="#eeeeee" stroke="none" font-family="Arial" font-size="24px" font-style="normal" font-weight="normal" text-decoration="none" x="0" y="120">UNREGISTERED</text><text fill="#eeeeee" stroke="none" font-family="Arial" font-size="24px" font-style="normal" font-weight="normal" text-decoration="none" x="0" y="150">UNREGISTERED</text><text fill="#eeeeee" stroke="none" font-family="Arial" font-size="24px" font-style="normal" font-weight="normal" text-decoration="none" x="0" y="180">UNREGISTERED</text><text fill="#eeeeee" stroke="none" font-family="Arial" font-size="24px" font-style="normal" font-weight="normal" text-decoration="none" x="0" y="210">UNREGISTERED</text><text fill="#eeeeee" stroke="none" font-family="Arial" font-size="24px" font-style="normal" font-weight="normal" text-decoration="none" x="200" y="0">UNREGISTERED</text><text fill="#eeeeee" stroke="none" font-family="Arial" font-size="24px" font-style="normal" font-weight="normal" text-decoration="none" x="200" y="30">UNREGISTERED</text><text fill="#eeeeee" stroke="none" font-family="Arial" font-size="24px" font-style="normal" font-weight="normal" text-decoration="none" x="200" y="60">UNREGISTERED</text><text fill="#eeeeee" stroke="none" font-family="Arial" font-size="24px" font-style="normal" font-weight="normal" text-decoration="none" x="200" y="90">UNREGISTERED</text><text fill="#eeeeee" stroke="none" font-family="Arial" font-size="24px" font-style="normal" font-weight="normal" text-decoration="none" x="200" y="120">UNREGISTERED</text><text fill="#eeeeee" stroke="none" font-family="Arial" font-size="24px" font-style="normal" font-weight="normal" text-decoration="none" x="200" y="150">UNREGISTERED</text><text fill="#eeeeee" stroke="none" font-family="Arial" font-size="24px" font-style="normal" font-weight="normal" text-decoration="none" x="200" y="180">UNREGISTERED</text><text fill="#eeeeee" stroke="none" font-family="Arial" font-size="24px" font-style="normal" font-weight="normal" text-decoration="none" x="200" y="210">UNREGISTERED</text><text fill="#eeeeee" stroke="none" font-family="Arial" font-size="24px" font-style="normal" font-weight="normal" text-decoration="none" x="400" y="0">UNREGISTERED</text><text fill="#eeeeee" stroke="none" font-family="Arial" font-size="24px" font-style="normal" font-weight="normal" text-decoration="none" x="400" y="30">UNREGISTERED</text><text fill="#eeeeee" stroke="none" font-family="Arial" font-size="24px" font-style="normal" font-weight="normal" text-decoration="none" x="400" y="60">UNREGISTERED</text><text fill="#eeeeee" stroke="none" font-family="Arial" font-size="24px" font-style="normal" font-weight="normal" text-decoration="none" x="400" y="90">UNREGISTERED</text><text fill="#eeeeee" stroke="none" font-family="Arial" font-size="24px" font-style="normal" font-weight="normal" text-decoration="none" x="400" y="120">UNREGISTERED</text><text fill="#eeeeee" stroke="none" font-family="Arial" font-size="24px" font-style="normal" font-weight="normal" text-decoration="none" x="400" y="150">UNREGISTERED</text><text fill="#eeeeee" stroke="none" font-family="Arial" font-size="24px" font-style="normal" font-weight="normal" text-decoration="none" x="400" y="180">UNREGISTERED</text><text fill="#eeeeee" stroke="none" font-family="Arial" font-size="24px" font-style="normal" font-weight="normal" text-decoration="none" x="400" y="210">UNREGISTERED</text><text fill="#eeeeee" stroke="none" font-family="Arial" font-size="24px" font-style="normal" font-weight="normal" text-decoration="none" x="600" y="0">UNREGISTERED</text><text fill="#eeeeee" stroke="none" font-family="Arial" font-size="24px" font-style="normal" font-weight="normal" text-decoration="none" x="600" y="30">UNREGISTERED</text><text fill="#eeeeee" stroke="none" font-family="Arial" font-size="24px" font-style="normal" font-weight="normal" text-decoration="none" x="600" y="60">UNREGISTERED</text><text fill="#eeeeee" stroke="none" font-family="Arial" font-size="24px" font-style="normal" font-weight="normal" text-decoration="none" x="600" y="90">UNREGISTERED</text><text fill="#eeeeee" stroke="none" font-family="Arial" font-size="24px" font-style="normal" font-weight="normal" text-decoration="none" x="600" y="120">UNREGISTERED</text><text fill="#eeeeee" stroke="none" font-family="Arial" font-size="24px" font-style="normal" font-weight="normal" text-decoration="none" x="600" y="150">UNREGISTERED</text><text fill="#eeeeee" stroke="none" font-family="Arial" font-size="24px" font-style="normal" font-weight="normal" text-decoration="none" x="600" y="180">UNREGISTERED</text><text fill="#eeeeee" stroke="none" font-family="Arial" font-size="24px" font-style="normal" font-weight="normal" text-decoration="none" x="600" y="210">UNREGISTERED</text><g transform="translate(-6,-62) scale(1,1)"><path fill="none" stroke="#000000" d="M 16 72 L 715 72 L 715 272 L 16 272 L 16 72" stroke-miterlimit="10"/></g><g transform="translate(-6,-62) scale(1,1)"><path fill="#ffffff" stroke="none" d="M 16 72 L 16 94 L 195.2998046875 94 L 206.2998046875 83 L 206.2998046875 72 L 16 72"/></g><g transform="translate(-6,-62) scale(1,1)"><path fill="none" stroke="#000000" d="M 16 72 L 16 94 L 195.2998046875 94 L 206.2998046875 83 L 206.2998046875 72 L 16 72 L 16 72" stroke-miterlimit="10"/></g><g transform="translate(-6,-62) scale(1,1)"><g><path fill="none" stroke="none"/><text fill="#000000" stroke="none" font-family="Arial" font-size="13px" font-style="normal" font-weight="normal" text-decoration="none" x="40.72998046875" y="88">showProductsByCategory</text></g></g><g transform="translate(-6,-62) scale(1,1)"><g><path fill="none" stroke="none"/><text fill="#000000" stroke="none" font-family="Arial" font-size="13px" font-style="normal" font-weight="bold" text-decoration="none" x="20.279541015625" y="88">sd</text></g></g><g transform="translate(-6,-62) scale(1,1)"><rect fill="#C0C0C0" stroke="none" x="287" y="215" width="99" height="29" opacity="0.2"/></g><g transform="translate(-6,-62) scale(1,1)"><rect fill="#ffffff" stroke="none" x="280" y="208" width="99" height="29"/></g><g transform="translate(-6,-62) scale(1,1)"><path fill="none" stroke="#000000" d="M 280 208 L 379 208 L 379 237 L 280 237 L 280 208 Z Z" stroke-miterlimit="10"/></g><g transform="translate(-6,-62) scale(1,1)"><rect fill="#ffffff" stroke="none" x="280" y="208" width="99" height="29"/></g><g transform="translate(-6,-62) scale(1,1)"><path fill="none" stroke="#000000" d="M 280 208 L 379 208 L 379 237 L 280 237 L 280 208 Z Z" stroke-miterlimit="10"/></g><g transform="translate(-6,-62) scale(1,1)"><g><path fill="none" stroke="none"/><text fill="#000000" stroke="none" font-family="Arial" font-size="13px" font-style="normal" font-weight="bold" text-decoration="none" x="300.9736328125" y="226">: Product</text></g></g><g transform="translate(-6,-62) scale(1,1)"><rect fill="#C0C0C0" stroke="none" x="599" y="215" width="99" height="29" opacity="0.2"/></g><g transform="translate(-6,-62) scale(1,1)"><rect fill="#ffffff" stroke="none" x="592" y="208" width="99" height="29"/></g><g transform="translate(-6,-62) scale(1,1)"><path fill="none" stroke="#000000" d="M 592 208 L 691 208 L 691 237 L 592 237 L 592 208 Z Z" stroke-miterlimit="10"/></g><g transform="translate(-6,-62) scale(1,1)"><rect fill="#ffffff" stroke="none" x="592" y="208" width="99" height="29"/></g><g transform="translate(-6,-62) scale(1,1)"><path fill="none" stroke="#000000" d="M 592 208 L 691 208 L 691 237 L 592 237 L 592 208 Z Z" stroke-miterlimit="10"/></g><g transform="translate(-6,-62) scale(1,1)"><g><path fill="none" stroke="none"/><text fill="#000000" stroke="none" font-family="Arial" font-size="13px" font-style="normal" font-weight="bold" text-decoration="none" x="609.35546875" y="226">: Category</text></g></g><g transform="translate(-6,-62) scale(1,1)"><path fill="none" stroke="#000000" d="M 380 222 L 591 222" stroke-miterlimit="10"/></g><g transform="translate(-6,-62) scale(1,1)"><path fill="none" stroke="#000000" d="M 215 206 L 175 206" stroke-miterlimit="10"/></g><g transform="translate(-6,-62) scale(1,1)"><path fill="#000000" stroke="none" d="M 203 210 L 215 206 L 203 201"/></g><g transform="translate(-6,-62) scale(1,1)"><g><path fill="none" stroke="none"/><text fill="#000000" stroke="none" font-family="Arial" font-size="13px" font-style="normal" font-weight="normal" text-decoration="none" x="24.466064453125" y="198">showProductByCategory(id, sortType, page)</text></g></g><g transform="translate(-6,-62) scale(1,1)"><path fill="none" stroke="#000000" d="M 136 216 L 283 218" stroke-miterlimit="10"/></g><g transform="translate(-6,-62) scale(1,1)"><path fill="none" stroke="#000000" d="M 329 208 L 329 187 L 408 187 L 408 222 L 379 222" stroke-miterlimit="10"/></g><g transform="translate(-6,-62) scale(1,1)"><path fill="none" stroke="#000000" d="M 359 182 L 359 142" stroke-miterlimit="10"/></g><g transform="translate(-6,-62) scale(1,1)"><path fill="#000000" stroke="none" d="M 354 170 L 359 182 L 363 170"/></g><g transform="translate(-6,-62) scale(1,1)"><g><path fill="none" stroke="none"/><text fill="#000000" stroke="none" font-family="Arial" font-size="13px" font-style="normal" font-weight="normal" text-decoration="none" x="364.627197265625" y="156">1 [id = "all"]:  getAll(pageable)</text></g></g><g transform="translate(-6,-62) scale(1,1)"><path fill="none" stroke="#000000" d="M 329 208 L 329 187 L 408 187 L 408 222 L 379 222" stroke-miterlimit="10"/></g><g transform="translate(-6,-62) scale(1,1)"><path fill="none" stroke="#000000" d="M 367 134 L 367 94" stroke-miterlimit="10"/></g><g transform="translate(-6,-62) scale(1,1)"><path fill="#000000" stroke="none" d="M 362 122 L 367 134 L 371 122"/></g><g transform="translate(-6,-62) scale(1,1)"><g><path fill="none" stroke="none"/><text fill="#000000" stroke="none" font-family="Arial" font-size="13px" font-style="normal" font-weight="normal" text-decoration="none" x="381.693603515625" y="106">2 [id != "all"] getProductByCategory(categoryId)</text></g></g><g transform="translate(-6,-62) scale(1,1)"><path fill="none" stroke="#000000" d="M 380 222 L 591 222" stroke-miterlimit="10"/></g><g transform="translate(-6,-62) scale(1,1)"><path fill="none" stroke="#000000" d="M 495 231 L 455 231" stroke-miterlimit="10"/></g><g transform="translate(-6,-62) scale(1,1)"><path fill="#000000" stroke="none" d="M 483 235 L 495 231 L 483 226"/></g><g transform="translate(-6,-62) scale(1,1)"><g><path fill="none" stroke="none"/><text fill="#000000" stroke="none" font-family="Arial" font-size="13px" font-style="normal" font-weight="normal" text-decoration="none" x="380.673583984375" y="250">3 [id != "all"] getCategoryById(categoryId)</text></g></g></g></svg>