<svg version="1.1" xmlns="http://www.w3.org/2000/svg" xmlns:xlink="http://www.w3.org/1999/xlink" width="772" height="492"><defs/><g><text fill="#eeeeee" stroke="none" font-family="Arial" font-size="24px" font-style="normal" font-weight="normal" text-decoration="none" x="0" y="0">UNREGISTERED</text><text fill="#eeeeee" stroke="none" font-family="Arial" font-size="24px" font-style="normal" font-weight="normal" text-decoration="none" x="0" y="30">UNREGISTERED</text><text fill="#eeeeee" stroke="none" font-family="Arial" font-size="24px" font-style="normal" font-weight="normal" text-decoration="none" x="0" y="60">UNREGISTERED</text><text fill="#eeeeee" stroke="none" font-family="Arial" font-size="24px" font-style="normal" font-weight="normal" text-decoration="none" x="0" y="90">UNREGISTERED</text><text fill="#eeeeee" stroke="none" font-family="Arial" font-size="24px" font-style="normal" font-weight="normal" text-decoration="none" x="0" y="120">UNREGISTERED</text><text fill="#eeeeee" stroke="none" font-family="Arial" font-size="24px" font-style="normal" font-weight="normal" text-decoration="none" x="0" y="150">UNREGISTERED</text><text fill="#eeeeee" stroke="none" font-family="Arial" font-size="24px" font-style="normal" font-weight="normal" text-decoration="none" x="0" y="180">UNREGISTERED</text><text fill="#eeeeee" stroke="none" font-family="Arial" font-size="24px" font-style="normal" font-weight="normal" text-decoration="none" x="0" y="210">UNREGISTERED</text><text fill="#eeeeee" stroke="none" font-family="Arial" font-size="24px" font-style="normal" font-weight="normal" text-decoration="none" x="0" y="240">UNREGISTERED</text><text fill="#eeeeee" stroke="none" font-family="Arial" font-size="24px" font-style="normal" font-weight="normal" text-decoration="none" x="0" y="270">UNREGISTERED</text><text fill="#eeeeee" stroke="none" font-family="Arial" font-size="24px" font-style="normal" font-weight="normal" text-decoration="none" x="0" y="300">UNREGISTERED</text><text fill="#eeeeee" stroke="none" font-family="Arial" font-size="24px" font-style="normal" font-weight="normal" text-decoration="none" x="0" y="330">UNREGISTERED</text><text fill="#eeeeee" stroke="none" font-family="Arial" font-size="24px" font-style="normal" font-weight="normal" text-decoration="none" x="0" y="360">UNREGISTERED</text><text fill="#eeeeee" stroke="none" font-family="Arial" font-size="24px" font-style="normal" font-weight="normal" text-decoration="none" x="0" y="390">UNREGISTERED</text><text fill="#eeeeee" stroke="none" font-family="Arial" font-size="24px" font-style="normal" font-weight="normal" text-decoration="none" x="0" y="420">UNREGISTERED</text><text fill="#eeeeee" stroke="none" font-family="Arial" font-size="24px" font-style="normal" font-weight="normal" text-decoration="none" x="0" y="450">UNREGISTERED</text><text fill="#eeeeee" stroke="none" font-family="Arial" font-size="24px" font-style="normal" font-weight="normal" text-decoration="none" x="0" y="480">UNREGISTERED</text><text fill="#eeeeee" stroke="none" font-family="Arial" font-size="24px" font-style="normal" font-weight="normal" text-decoration="none" x="200" y="0">UNREGISTERED</text><text fill="#eeeeee" stroke="none" font-family="Arial" font-size="24px" font-style="normal" font-weight="normal" text-decoration="none" x="200" y="30">UNREGISTERED</text><text fill="#eeeeee" stroke="none" font-family="Arial" font-size="24px" font-style="normal" font-weight="normal" text-decoration="none" x="200" y="60">UNREGISTERED</text><text fill="#eeeeee" stroke="none" font-family="Arial" font-size="24px" font-style="normal" font-weight="normal" text-decoration="none" x="200" y="90">UNREGISTERED</text><text fill="#eeeeee" stroke="none" font-family="Arial" font-size="24px" font-style="normal" font-weight="normal" text-decoration="none" x="200" y="120">UNREGISTERED</text><text fill="#eeeeee" stroke="none" font-family="Arial" font-size="24px" font-style="normal" font-weight="normal" text-decoration="none" x="200" y="150">UNREGISTERED</text><text fill="#eeeeee" stroke="none" font-family="Arial" font-size="24px" font-style="normal" font-weight="normal" text-decoration="none" x="200" y="180">UNREGISTERED</text><text fill="#eeeeee" stroke="none" font-family="Arial" font-size="24px" font-style="normal" font-weight="normal" text-decoration="none" x="200" y="210">UNREGISTERED</text><text fill="#eeeeee" stroke="none" font-family="Arial" font-size="24px" font-style="normal" font-weight="normal" text-decoration="none" x="200" y="240">UNREGISTERED</text><text fill="#eeeeee" stroke="none" font-family="Arial" font-size="24px" font-style="normal" font-weight="normal" text-decoration="none" x="200" y="270">UNREGISTERED</text><text fill="#eeeeee" stroke="none" font-family="Arial" font-size="24px" font-style="normal" font-weight="normal" text-decoration="none" x="200" y="300">UNREGISTERED</text><text fill="#eeeeee" stroke="none" font-family="Arial" font-size="24px" font-style="normal" font-weight="normal" text-decoration="none" x="200" y="330">UNREGISTERED</text><text fill="#eeeeee" stroke="none" font-family="Arial" font-size="24px" font-style="normal" font-weight="normal" text-decoration="none" x="200" y="360">UNREGISTERED</text><text fill="#eeeeee" stroke="none" font-family="Arial" font-size="24px" font-style="normal" font-weight="normal" text-decoration="none" x="200" y="390">UNREGISTERED</text><text fill="#eeeeee" stroke="none" font-family="Arial" font-size="24px" font-style="normal" font-weight="normal" text-decoration="none" x="200" y="420">UNREGISTERED</text><text fill="#eeeeee" stroke="none" font-family="Arial" font-size="24px" font-style="normal" font-weight="normal" text-decoration="none" x="200" y="450">UNREGISTERED</text><text fill="#eeeeee" stroke="none" font-family="Arial" font-size="24px" font-style="normal" font-weight="normal" text-decoration="none" x="200" y="480">UNREGISTERED</text><text fill="#eeeeee" stroke="none" font-family="Arial" font-size="24px" font-style="normal" font-weight="normal" text-decoration="none" x="400" y="0">UNREGISTERED</text><text fill="#eeeeee" stroke="none" font-family="Arial" font-size="24px" font-style="normal" font-weight="normal" text-decoration="none" x="400" y="30">UNREGISTERED</text><text fill="#eeeeee" stroke="none" font-family="Arial" font-size="24px" font-style="normal" font-weight="normal" text-decoration="none" x="400" y="60">UNREGISTERED</text><text fill="#eeeeee" stroke="none" font-family="Arial" font-size="24px" font-style="normal" font-weight="normal" text-decoration="none" x="400" y="90">UNREGISTERED</text><text fill="#eeeeee" stroke="none" font-family="Arial" font-size="24px" font-style="normal" font-weight="normal" text-decoration="none" x="400" y="120">UNREGISTERED</text><text fill="#eeeeee" stroke="none" font-family="Arial" font-size="24px" font-style="normal" font-weight="normal" text-decoration="none" x="400" y="150">UNREGISTERED</text><text fill="#eeeeee" stroke="none" font-family="Arial" font-size="24px" font-style="normal" font-weight="normal" text-decoration="none" x="400" y="180">UNREGISTERED</text><text fill="#eeeeee" stroke="none" font-family="Arial" font-size="24px" font-style="normal" font-weight="normal" text-decoration="none" x="400" y="210">UNREGISTERED</text><text fill="#eeeeee" stroke="none" font-family="Arial" font-size="24px" font-style="normal" font-weight="normal" text-decoration="none" x="400" y="240">UNREGISTERED</text><text fill="#eeeeee" stroke="none" font-family="Arial" font-size="24px" font-style="normal" font-weight="normal" text-decoration="none" x="400" y="270">UNREGISTERED</text><text fill="#eeeeee" stroke="none" font-family="Arial" font-size="24px" font-style="normal" font-weight="normal" text-decoration="none" x="400" y="300">UNREGISTERED</text><text fill="#eeeeee" stroke="none" font-family="Arial" font-size="24px" font-style="normal" font-weight="normal" text-decoration="none" x="400" y="330">UNREGISTERED</text><text fill="#eeeeee" stroke="none" font-family="Arial" font-size="24px" font-style="normal" font-weight="normal" text-decoration="none" x="400" y="360">UNREGISTERED</text><text fill="#eeeeee" stroke="none" font-family="Arial" font-size="24px" font-style="normal" font-weight="normal" text-decoration="none" x="400" y="390">UNREGISTERED</text><text fill="#eeeeee" stroke="none" font-family="Arial" font-size="24px" font-style="normal" font-weight="normal" text-decoration="none" x="400" y="420">UNREGISTERED</text><text fill="#eeeeee" stroke="none" font-family="Arial" font-size="24px" font-style="normal" font-weight="normal" text-decoration="none" x="400" y="450">UNREGISTERED</text><text fill="#eeeeee" stroke="none" font-family="Arial" font-size="24px" font-style="normal" font-weight="normal" text-decoration="none" x="400" y="480">UNREGISTERED</text><text fill="#eeeeee" stroke="none" font-family="Arial" font-size="24px" font-style="normal" font-weight="normal" text-decoration="none" x="600" y="0">UNREGISTERED</text><text fill="#eeeeee" stroke="none" font-family="Arial" font-size="24px" font-style="normal" font-weight="normal" text-decoration="none" x="600" y="30">UNREGISTERED</text><text fill="#eeeeee" stroke="none" font-family="Arial" font-size="24px" font-style="normal" font-weight="normal" text-decoration="none" x="600" y="60">UNREGISTERED</text><text fill="#eeeeee" stroke="none" font-family="Arial" font-size="24px" font-style="normal" font-weight="normal" text-decoration="none" x="600" y="90">UNREGISTERED</text><text fill="#eeeeee" stroke="none" font-family="Arial" font-size="24px" font-style="normal" font-weight="normal" text-decoration="none" x="600" y="120">UNREGISTERED</text><text fill="#eeeeee" stroke="none" font-family="Arial" font-size="24px" font-style="normal" font-weight="normal" text-decoration="none" x="600" y="150">UNREGISTERED</text><text fill="#eeeeee" stroke="none" font-family="Arial" font-size="24px" font-style="normal" font-weight="normal" text-decoration="none" x="600" y="180">UNREGISTERED</text><text fill="#eeeeee" stroke="none" font-family="Arial" font-size="24px" font-style="normal" font-weight="normal" text-decoration="none" x="600" y="210">UNREGISTERED</text><text fill="#eeeeee" stroke="none" font-family="Arial" font-size="24px" font-style="normal" font-weight="normal" text-decoration="none" x="600" y="240">UNREGISTERED</text><text fill="#eeeeee" stroke="none" font-family="Arial" font-size="24px" font-style="normal" font-weight="normal" text-decoration="none" x="600" y="270">UNREGISTERED</text><text fill="#eeeeee" stroke="none" font-family="Arial" font-size="24px" font-style="normal" font-weight="normal" text-decoration="none" x="600" y="300">UNREGISTERED</text><text fill="#eeeeee" stroke="none" font-family="Arial" font-size="24px" font-style="normal" font-weight="normal" text-decoration="none" x="600" y="330">UNREGISTERED</text><text fill="#eeeeee" stroke="none" font-family="Arial" font-size="24px" font-style="normal" font-weight="normal" text-decoration="none" x="600" y="360">UNREGISTERED</text><text fill="#eeeeee" stroke="none" font-family="Arial" font-size="24px" font-style="normal" font-weight="normal" text-decoration="none" x="600" y="390">UNREGISTERED</text><text fill="#eeeeee" stroke="none" font-family="Arial" font-size="24px" font-style="normal" font-weight="normal" text-decoration="none" x="600" y="420">UNREGISTERED</text><text fill="#eeeeee" stroke="none" font-family="Arial" font-size="24px" font-style="normal" font-weight="normal" text-decoration="none" x="600" y="450">UNREGISTERED</text><text fill="#eeeeee" stroke="none" font-family="Arial" font-size="24px" font-style="normal" font-weight="normal" text-decoration="none" x="600" y="480">UNREGISTERED</text><g transform="translate(-46,-22) scale(1,1)"><path fill="none" stroke="#000000" d="M 56 32 L 808 32 L 808 504 L 56 504 L 56 32" stroke-miterlimit="10"/></g><g transform="translate(-46,-22) scale(1,1)"><path fill="#ffffff" stroke="none" d="M 56 32 L 56 54 L 116.078125 54 L 127.078125 43 L 127.078125 32 L 56 32"/></g><g transform="translate(-46,-22) scale(1,1)"><path fill="none" stroke="#000000" d="M 56 32 L 56 54 L 116.078125 54 L 127.078125 43 L 127.078125 32 L 56 32 L 56 32" stroke-miterlimit="10"/></g><g transform="translate(-46,-22) scale(1,1)"><g><path fill="none" stroke="none"/><text fill="#000000" stroke="none" font-family="Arial" font-size="13px" font-style="normal" font-weight="normal" text-decoration="none" x="80.72998046875" y="48">show</text></g></g><g transform="translate(-46,-22) scale(1,1)"><g><path fill="none" stroke="none"/><text fill="#000000" stroke="none" font-family="Arial" font-size="13px" font-style="normal" font-weight="bold" text-decoration="none" x="60.279541015625" y="48">sd</text></g></g><g transform="translate(-46,-22) scale(1,1)"><rect fill="#C0C0C0" stroke="none" x="223" y="47" width="71.736328125" height="39" opacity="0.2"/></g><g transform="translate(-46,-22) scale(1,1)"><rect fill="#ffffff" stroke="none" x="216" y="40" width="71.736328125" height="39"/></g><g transform="translate(-46,-22) scale(1,1)"><path fill="none" stroke="#000000" d="M 216 40 L 287.736328125 40 L 287.736328125 79 L 216 79 L 216 40 Z Z" stroke-miterlimit="10"/></g><g transform="translate(-46,-22) scale(1,1)"><g><path fill="none" stroke="none"/><text fill="#000000" stroke="none" font-family="Arial" font-size="13px" font-style="normal" font-weight="bold" text-decoration="none" x="230.197265625" y="58">: Order</text></g></g><g transform="translate(-46,-22) scale(1,1)"><path fill="none" stroke="#000000" d="M 252.5 80 L 252.5 488" stroke-miterlimit="10" stroke-dasharray="3"/></g><g transform="translate(-46,-22) scale(1,1)"><rect fill="#C0C0C0" stroke="none" x="471" y="47" width="71.736328125" height="39" opacity="0.2"/></g><g transform="translate(-46,-22) scale(1,1)"><rect fill="#ffffff" stroke="none" x="464" y="40" width="71.736328125" height="39"/></g><g transform="translate(-46,-22) scale(1,1)"><path fill="none" stroke="#000000" d="M 464 40 L 535.736328125 40 L 535.736328125 79 L 464 79 L 464 40 Z Z" stroke-miterlimit="10"/></g><g transform="translate(-46,-22) scale(1,1)"><g><path fill="none" stroke="none"/><text fill="#000000" stroke="none" font-family="Arial" font-size="13px" font-style="normal" font-weight="bold" text-decoration="none" x="481.444091796875" y="58">: User</text></g></g><g transform="translate(-46,-22) scale(1,1)"><path fill="none" stroke="#000000" d="M 500.5 80 L 500.5 488" stroke-miterlimit="10" stroke-dasharray="3"/></g><g transform="translate(-46,-22) scale(1,1)"><rect fill="#C0C0C0" stroke="none" x="719" y="47" width="71.736328125" height="39" opacity="0.2"/></g><g transform="translate(-46,-22) scale(1,1)"><rect fill="#ffffff" stroke="none" x="712" y="40" width="71.736328125" height="39"/></g><g transform="translate(-46,-22) scale(1,1)"><path fill="none" stroke="#000000" d="M 712 40 L 783.736328125 40 L 783.736328125 79 L 712 79 L 712 40 Z Z" stroke-miterlimit="10"/></g><g transform="translate(-46,-22) scale(1,1)"><g><path fill="none" stroke="none"/><text fill="#000000" stroke="none" font-family="Arial" font-size="13px" font-style="normal" font-weight="bold" text-decoration="none" x="730.89453125" y="58">: Cart</text></g></g><g transform="translate(-46,-22) scale(1,1)"><path fill="none" stroke="#000000" d="M 748.5 80 L 748.5 488" stroke-miterlimit="10" stroke-dasharray="3"/></g><g transform="translate(-46,-22) scale(1,1)"><path fill="#000000" stroke="none" d="M 72 119.5 C 72 115.6340064 75.1340064 112.5 79 112.5 C 82.8659936 112.5 86 115.6340064 86 119.5 C 86 123.3659936 82.8659936 126.5 79 126.5 C 75.1340064 126.5 72 123.3659936 72 119.5 Z"/></g><g transform="translate(-46,-22) scale(1,1)"><path fill="none" stroke="#000000" d="M 86 120 L 245 120" stroke-miterlimit="10"/></g><g transform="translate(-46,-22) scale(1,1)"><path fill="#000000" stroke="none" d="M 234.83732514237585 124.20951775601598 L 245 120 L 234.83732514237585 115.79048224398402"/></g><g transform="translate(-46,-22) scale(1,1)"><path fill="none" stroke="#000000" d="M 234.83732514237585 124.20951775601598 L 245 120 L 234.83732514237585 115.79048224398402 L 234.83732514237585 124.20951775601598" stroke-miterlimit="10"/></g><g transform="translate(-46,-22) scale(1,1)"><g><path fill="none" stroke="none"/><text fill="#000000" stroke="none" font-family="Arial" font-size="13px" font-style="normal" font-weight="normal" text-decoration="none" x="145.01904296875" y="115">show()</text></g></g><g transform="translate(-46,-22) scale(1,1)"><rect fill="#ffffff" stroke="none" x="245" y="120" width="13" height="328"/></g><g transform="translate(-46,-22) scale(1,1)"><path fill="none" stroke="#000000" d="M 245 120 L 258 120 L 258 448 L 245 448 L 245 120 Z Z" stroke-miterlimit="10"/></g><g transform="translate(-46,-22) scale(1,1)"><path fill="none" stroke="#000000" d="M 258 144 L 493 144" stroke-miterlimit="10"/></g><g transform="translate(-46,-22) scale(1,1)"><path fill="#000000" stroke="none" d="M 482.83732514237585 148.209517756016 L 493 144 L 482.83732514237585 139.790482243984"/></g><g transform="translate(-46,-22) scale(1,1)"><path fill="none" stroke="#000000" d="M 482.83732514237585 148.209517756016 L 493 144 L 482.83732514237585 139.790482243984 L 482.83732514237585 148.209517756016" stroke-miterlimit="10"/></g><g transform="translate(-46,-22) scale(1,1)"><g><path fill="none" stroke="none"/><text fill="#000000" stroke="none" font-family="Arial" font-size="13px" font-style="normal" font-weight="normal" text-decoration="none" x="271.53271484375" y="139">getUserFromAttribute(attributeUser)</text></g></g><g transform="translate(-46,-22) scale(1,1)"><rect fill="#ffffff" stroke="none" x="493" y="144" width="13" height="28"/></g><g transform="translate(-46,-22) scale(1,1)"><path fill="none" stroke="#000000" d="M 493 144 L 506 144 L 506 172 L 493 172 L 493 144 Z Z" stroke-miterlimit="10"/></g><g transform="translate(-46,-22) scale(1,1)"><path fill="none" stroke="#000000" d="M 493 161 L 258 161" stroke-miterlimit="10" stroke-dasharray="3"/></g><g transform="translate(-46,-22) scale(1,1)"><path fill="none" stroke="#000000" d="M 268.16267485762415 156.790482243984 L 258 161 L 268.16267485762415 165.209517756016" stroke-miterlimit="10"/></g><g transform="translate(-46,-22) scale(1,1)"><g><path fill="none" stroke="none"/><text fill="#000000" stroke="none" font-family="Arial" font-size="13px" font-style="normal" font-weight="normal" text-decoration="none" x="361.53271484375" y="174.5">user</text></g></g><g transform="translate(-46,-22) scale(1,1)"><path fill="none" stroke="#000000" d="M 258 234 L 741 234" stroke-miterlimit="10"/></g><g transform="translate(-46,-22) scale(1,1)"><path fill="#000000" stroke="none" d="M 730.8373251423759 238.209517756016 L 741 234 L 730.8373251423758 229.790482243984"/></g><g transform="translate(-46,-22) scale(1,1)"><path fill="none" stroke="#000000" d="M 730.8373251423759 238.209517756016 L 741 234 L 730.8373251423758 229.790482243984 L 730.8373251423759 238.209517756016" stroke-miterlimit="10"/></g><g transform="translate(-46,-22) scale(1,1)"><g><path fill="none" stroke="none"/><text fill="#000000" stroke="none" font-family="Arial" font-size="13px" font-style="normal" font-weight="normal" text-decoration="none" x="406.53271484375" y="229">getCurrentCartByUserId(userId)</text></g></g><g transform="translate(-46,-22) scale(1,1)"><rect fill="#ffffff" stroke="none" x="741" y="234" width="13" height="28"/></g><g transform="translate(-46,-22) scale(1,1)"><path fill="none" stroke="#000000" d="M 741 234 L 754 234 L 754 262 L 741 262 L 741 234 Z Z" stroke-miterlimit="10"/></g><g transform="translate(-46,-22) scale(1,1)"><path fill="none" stroke="#000000" d="M 741 256 L 258 256" stroke-miterlimit="10" stroke-dasharray="3"/></g><g transform="translate(-46,-22) scale(1,1)"><path fill="none" stroke="#000000" d="M 268.16267485762415 251.790482243984 L 258 256 L 268.16267485762415 260.209517756016" stroke-miterlimit="10"/></g><g transform="translate(-46,-22) scale(1,1)"><g><path fill="none" stroke="none"/><text fill="#000000" stroke="none" font-family="Arial" font-size="13px" font-style="normal" font-weight="normal" text-decoration="none" x="487.53271484375" y="270.5">cart</text></g></g><g transform="translate(-46,-22) scale(1,1)"><path fill="none" stroke="#000000" d="M 258 320 L 741 320" stroke-miterlimit="10"/></g><g transform="translate(-46,-22) scale(1,1)"><path fill="#000000" stroke="none" d="M 730.8373251423759 324.209517756016 L 741 320 L 730.8373251423758 315.790482243984"/></g><g transform="translate(-46,-22) scale(1,1)"><path fill="none" stroke="#000000" d="M 730.8373251423759 324.209517756016 L 741 320 L 730.8373251423758 315.790482243984 L 730.8373251423759 324.209517756016" stroke-miterlimit="10"/></g><g transform="translate(-46,-22) scale(1,1)"><g><path fill="none" stroke="none"/><text fill="#000000" stroke="none" font-family="Arial" font-size="13px" font-style="normal" font-weight="normal" text-decoration="none" x="450.53271484375" y="315">getCartItemList()</text></g></g><g transform="translate(-46,-22) scale(1,1)"><rect fill="#ffffff" stroke="none" x="741" y="320" width="13" height="28"/></g><g transform="translate(-46,-22) scale(1,1)"><path fill="none" stroke="#000000" d="M 741 320 L 754 320 L 754 348 L 741 348 L 741 320 Z Z" stroke-miterlimit="10"/></g><g transform="translate(-46,-22) scale(1,1)"><path fill="none" stroke="#000000" d="M 741 344 L 258 344" stroke-miterlimit="10" stroke-dasharray="3"/></g><g transform="translate(-46,-22) scale(1,1)"><path fill="none" stroke="#000000" d="M 268.16267485762415 339.790482243984 L 258 344 L 268.16267485762415 348.209517756016" stroke-miterlimit="10"/></g><g transform="translate(-46,-22) scale(1,1)"><g><path fill="none" stroke="none"/><text fill="#000000" stroke="none" font-family="Arial" font-size="13px" font-style="normal" font-weight="normal" text-decoration="none" x="464.53271484375" y="359">cartItemList</text></g></g><g transform="translate(-46,-22) scale(1,1)"><path fill="none" stroke="#000000" d="M 88 288 L 775 288 L 775 415 L 88 415 L 88 288" stroke-miterlimit="10"/></g><g transform="translate(-46,-22) scale(1,1)"><path fill="#ffffff" stroke="none" d="M 88 288 L 88 310 L 182.40625 310 L 193.40625 299 L 193.40625 288 L 88 288"/></g><g transform="translate(-46,-22) scale(1,1)"><path fill="none" stroke="#000000" d="M 88 288 L 88 310 L 182.40625 310 L 193.40625 299 L 193.40625 288 L 88 288 L 88 288" stroke-miterlimit="10"/></g><g transform="translate(-46,-22) scale(1,1)"><g><path fill="none" stroke="none"/><text fill="#000000" stroke="none" font-family="Arial" font-size="13px" font-style="normal" font-weight="normal" text-decoration="none" x="117.07177734375" y="304">cart != null</text></g></g><g transform="translate(-46,-22) scale(1,1)"><g><path fill="none" stroke="none"/><text fill="#000000" stroke="none" font-family="Arial" font-size="13px" font-style="normal" font-weight="bold" text-decoration="none" x="91.930419921875" y="303.5">opt</text></g></g></g></svg>