<svg version="1.1" xmlns="http://www.w3.org/2000/svg" xmlns:xlink="http://www.w3.org/1999/xlink" width="796" height="468"><defs/><g><text fill="#eeeeee" stroke="none" font-family="Arial" font-size="24px" font-style="normal" font-weight="normal" text-decoration="none" x="0" y="0">UNREGISTERED</text><text fill="#eeeeee" stroke="none" font-family="Arial" font-size="24px" font-style="normal" font-weight="normal" text-decoration="none" x="0" y="30">UNREGISTERED</text><text fill="#eeeeee" stroke="none" font-family="Arial" font-size="24px" font-style="normal" font-weight="normal" text-decoration="none" x="0" y="60">UNREGISTERED</text><text fill="#eeeeee" stroke="none" font-family="Arial" font-size="24px" font-style="normal" font-weight="normal" text-decoration="none" x="0" y="90">UNREGISTERED</text><text fill="#eeeeee" stroke="none" font-family="Arial" font-size="24px" font-style="normal" font-weight="normal" text-decoration="none" x="0" y="120">UNREGISTERED</text><text fill="#eeeeee" stroke="none" font-family="Arial" font-size="24px" font-style="normal" font-weight="normal" text-decoration="none" x="0" y="150">UNREGISTERED</text><text fill="#eeeeee" stroke="none" font-family="Arial" font-size="24px" font-style="normal" font-weight="normal" text-decoration="none" x="0" y="180">UNREGISTERED</text><text fill="#eeeeee" stroke="none" font-family="Arial" font-size="24px" font-style="normal" font-weight="normal" text-decoration="none" x="0" y="210">UNREGISTERED</text><text fill="#eeeeee" stroke="none" font-family="Arial" font-size="24px" font-style="normal" font-weight="normal" text-decoration="none" x="0" y="240">UNREGISTERED</text><text fill="#eeeeee" stroke="none" font-family="Arial" font-size="24px" font-style="normal" font-weight="normal" text-decoration="none" x="0" y="270">UNREGISTERED</text><text fill="#eeeeee" stroke="none" font-family="Arial" font-size="24px" font-style="normal" font-weight="normal" text-decoration="none" x="0" y="300">UNREGISTERED</text><text fill="#eeeeee" stroke="none" font-family="Arial" font-size="24px" font-style="normal" font-weight="normal" text-decoration="none" x="0" y="330">UNREGISTERED</text><text fill="#eeeeee" stroke="none" font-family="Arial" font-size="24px" font-style="normal" font-weight="normal" text-decoration="none" x="0" y="360">UNREGISTERED</text><text fill="#eeeeee" stroke="none" font-family="Arial" font-size="24px" font-style="normal" font-weight="normal" text-decoration="none" x="0" y="390">UNREGISTERED</text><text fill="#eeeeee" stroke="none" font-family="Arial" font-size="24px" font-style="normal" font-weight="normal" text-decoration="none" x="0" y="420">UNREGISTERED</text><text fill="#eeeeee" stroke="none" font-family="Arial" font-size="24px" font-style="normal" font-weight="normal" text-decoration="none" x="0" y="450">UNREGISTERED</text><text fill="#eeeeee" stroke="none" font-family="Arial" font-size="24px" font-style="normal" font-weight="normal" text-decoration="none" x="200" y="0">UNREGISTERED</text><text fill="#eeeeee" stroke="none" font-family="Arial" font-size="24px" font-style="normal" font-weight="normal" text-decoration="none" x="200" y="30">UNREGISTERED</text><text fill="#eeeeee" stroke="none" font-family="Arial" font-size="24px" font-style="normal" font-weight="normal" text-decoration="none" x="200" y="60">UNREGISTERED</text><text fill="#eeeeee" stroke="none" font-family="Arial" font-size="24px" font-style="normal" font-weight="normal" text-decoration="none" x="200" y="90">UNREGISTERED</text><text fill="#eeeeee" stroke="none" font-family="Arial" font-size="24px" font-style="normal" font-weight="normal" text-decoration="none" x="200" y="120">UNREGISTERED</text><text fill="#eeeeee" stroke="none" font-family="Arial" font-size="24px" font-style="normal" font-weight="normal" text-decoration="none" x="200" y="150">UNREGISTERED</text><text fill="#eeeeee" stroke="none" font-family="Arial" font-size="24px" font-style="normal" font-weight="normal" text-decoration="none" x="200" y="180">UNREGISTERED</text><text fill="#eeeeee" stroke="none" font-family="Arial" font-size="24px" font-style="normal" font-weight="normal" text-decoration="none" x="200" y="210">UNREGISTERED</text><text fill="#eeeeee" stroke="none" font-family="Arial" font-size="24px" font-style="normal" font-weight="normal" text-decoration="none" x="200" y="240">UNREGISTERED</text><text fill="#eeeeee" stroke="none" font-family="Arial" font-size="24px" font-style="normal" font-weight="normal" text-decoration="none" x="200" y="270">UNREGISTERED</text><text fill="#eeeeee" stroke="none" font-family="Arial" font-size="24px" font-style="normal" font-weight="normal" text-decoration="none" x="200" y="300">UNREGISTERED</text><text fill="#eeeeee" stroke="none" font-family="Arial" font-size="24px" font-style="normal" font-weight="normal" text-decoration="none" x="200" y="330">UNREGISTERED</text><text fill="#eeeeee" stroke="none" font-family="Arial" font-size="24px" font-style="normal" font-weight="normal" text-decoration="none" x="200" y="360">UNREGISTERED</text><text fill="#eeeeee" stroke="none" font-family="Arial" font-size="24px" font-style="normal" font-weight="normal" text-decoration="none" x="200" y="390">UNREGISTERED</text><text fill="#eeeeee" stroke="none" font-family="Arial" font-size="24px" font-style="normal" font-weight="normal" text-decoration="none" x="200" y="420">UNREGISTERED</text><text fill="#eeeeee" stroke="none" font-family="Arial" font-size="24px" font-style="normal" font-weight="normal" text-decoration="none" x="200" y="450">UNREGISTERED</text><text fill="#eeeeee" stroke="none" font-family="Arial" font-size="24px" font-style="normal" font-weight="normal" text-decoration="none" x="400" y="0">UNREGISTERED</text><text fill="#eeeeee" stroke="none" font-family="Arial" font-size="24px" font-style="normal" font-weight="normal" text-decoration="none" x="400" y="30">UNREGISTERED</text><text fill="#eeeeee" stroke="none" font-family="Arial" font-size="24px" font-style="normal" font-weight="normal" text-decoration="none" x="400" y="60">UNREGISTERED</text><text fill="#eeeeee" stroke="none" font-family="Arial" font-size="24px" font-style="normal" font-weight="normal" text-decoration="none" x="400" y="90">UNREGISTERED</text><text fill="#eeeeee" stroke="none" font-family="Arial" font-size="24px" font-style="normal" font-weight="normal" text-decoration="none" x="400" y="120">UNREGISTERED</text><text fill="#eeeeee" stroke="none" font-family="Arial" font-size="24px" font-style="normal" font-weight="normal" text-decoration="none" x="400" y="150">UNREGISTERED</text><text fill="#eeeeee" stroke="none" font-family="Arial" font-size="24px" font-style="normal" font-weight="normal" text-decoration="none" x="400" y="180">UNREGISTERED</text><text fill="#eeeeee" stroke="none" font-family="Arial" font-size="24px" font-style="normal" font-weight="normal" text-decoration="none" x="400" y="210">UNREGISTERED</text><text fill="#eeeeee" stroke="none" font-family="Arial" font-size="24px" font-style="normal" font-weight="normal" text-decoration="none" x="400" y="240">UNREGISTERED</text><text fill="#eeeeee" stroke="none" font-family="Arial" font-size="24px" font-style="normal" font-weight="normal" text-decoration="none" x="400" y="270">UNREGISTERED</text><text fill="#eeeeee" stroke="none" font-family="Arial" font-size="24px" font-style="normal" font-weight="normal" text-decoration="none" x="400" y="300">UNREGISTERED</text><text fill="#eeeeee" stroke="none" font-family="Arial" font-size="24px" font-style="normal" font-weight="normal" text-decoration="none" x="400" y="330">UNREGISTERED</text><text fill="#eeeeee" stroke="none" font-family="Arial" font-size="24px" font-style="normal" font-weight="normal" text-decoration="none" x="400" y="360">UNREGISTERED</text><text fill="#eeeeee" stroke="none" font-family="Arial" font-size="24px" font-style="normal" font-weight="normal" text-decoration="none" x="400" y="390">UNREGISTERED</text><text fill="#eeeeee" stroke="none" font-family="Arial" font-size="24px" font-style="normal" font-weight="normal" text-decoration="none" x="400" y="420">UNREGISTERED</text><text fill="#eeeeee" stroke="none" font-family="Arial" font-size="24px" font-style="normal" font-weight="normal" text-decoration="none" x="400" y="450">UNREGISTERED</text><text fill="#eeeeee" stroke="none" font-family="Arial" font-size="24px" font-style="normal" font-weight="normal" text-decoration="none" x="600" y="0">UNREGISTERED</text><text fill="#eeeeee" stroke="none" font-family="Arial" font-size="24px" font-style="normal" font-weight="normal" text-decoration="none" x="600" y="30">UNREGISTERED</text><text fill="#eeeeee" stroke="none" font-family="Arial" font-size="24px" font-style="normal" font-weight="normal" text-decoration="none" x="600" y="60">UNREGISTERED</text><text fill="#eeeeee" stroke="none" font-family="Arial" font-size="24px" font-style="normal" font-weight="normal" text-decoration="none" x="600" y="90">UNREGISTERED</text><text fill="#eeeeee" stroke="none" font-family="Arial" font-size="24px" font-style="normal" font-weight="normal" text-decoration="none" x="600" y="120">UNREGISTERED</text><text fill="#eeeeee" stroke="none" font-family="Arial" font-size="24px" font-style="normal" font-weight="normal" text-decoration="none" x="600" y="150">UNREGISTERED</text><text fill="#eeeeee" stroke="none" font-family="Arial" font-size="24px" font-style="normal" font-weight="normal" text-decoration="none" x="600" y="180">UNREGISTERED</text><text fill="#eeeeee" stroke="none" font-family="Arial" font-size="24px" font-style="normal" font-weight="normal" text-decoration="none" x="600" y="210">UNREGISTERED</text><text fill="#eeeeee" stroke="none" font-family="Arial" font-size="24px" font-style="normal" font-weight="normal" text-decoration="none" x="600" y="240">UNREGISTERED</text><text fill="#eeeeee" stroke="none" font-family="Arial" font-size="24px" font-style="normal" font-weight="normal" text-decoration="none" x="600" y="270">UNREGISTERED</text><text fill="#eeeeee" stroke="none" font-family="Arial" font-size="24px" font-style="normal" font-weight="normal" text-decoration="none" x="600" y="300">UNREGISTERED</text><text fill="#eeeeee" stroke="none" font-family="Arial" font-size="24px" font-style="normal" font-weight="normal" text-decoration="none" x="600" y="330">UNREGISTERED</text><text fill="#eeeeee" stroke="none" font-family="Arial" font-size="24px" font-style="normal" font-weight="normal" text-decoration="none" x="600" y="360">UNREGISTERED</text><text fill="#eeeeee" stroke="none" font-family="Arial" font-size="24px" font-style="normal" font-weight="normal" text-decoration="none" x="600" y="390">UNREGISTERED</text><text fill="#eeeeee" stroke="none" font-family="Arial" font-size="24px" font-style="normal" font-weight="normal" text-decoration="none" x="600" y="420">UNREGISTERED</text><text fill="#eeeeee" stroke="none" font-family="Arial" font-size="24px" font-style="normal" font-weight="normal" text-decoration="none" x="600" y="450">UNREGISTERED</text><g transform="translate(-86,-6) scale(1,1)"><path fill="none" stroke="#000000" d="M 96 16 L 872 16 L 872 464 L 96 464 L 96 16" stroke-miterlimit="10"/></g><g transform="translate(-86,-6) scale(1,1)"><path fill="#ffffff" stroke="none" d="M 96 16 L 96 38 L 156.078125 38 L 167.078125 27 L 167.078125 16 L 96 16"/></g><g transform="translate(-86,-6) scale(1,1)"><path fill="none" stroke="#000000" d="M 96 16 L 96 38 L 156.078125 38 L 167.078125 27 L 167.078125 16 L 96 16 L 96 16" stroke-miterlimit="10"/></g><g transform="translate(-86,-6) scale(1,1)"><g><path fill="none" stroke="none"/><text fill="#000000" stroke="none" font-family="Arial" font-size="13px" font-style="normal" font-weight="normal" text-decoration="none" x="120.72998046875" y="32">show</text></g></g><g transform="translate(-86,-6) scale(1,1)"><g><path fill="none" stroke="none"/><text fill="#000000" stroke="none" font-family="Arial" font-size="13px" font-style="normal" font-weight="bold" text-decoration="none" x="100.279541015625" y="32">sd</text></g></g><g transform="translate(-86,-6) scale(1,1)"><rect fill="#C0C0C0" stroke="none" x="311" y="47" width="78.94091796875" height="39" opacity="0.2"/></g><g transform="translate(-86,-6) scale(1,1)"><rect fill="#ffffff" stroke="none" x="304" y="40" width="78.94091796875" height="39"/></g><g transform="translate(-86,-6) scale(1,1)"><path fill="none" stroke="#000000" d="M 304 40 L 382.94091796875 40 L 382.94091796875 79 L 304 79 L 304 40 Z Z" stroke-miterlimit="10"/></g><g transform="translate(-86,-6) scale(1,1)"><g><path fill="none" stroke="none"/><text fill="#000000" stroke="none" font-family="Arial" font-size="13px" font-style="normal" font-weight="bold" text-decoration="none" x="313.5" y="58">: Account</text></g></g><g transform="translate(-86,-6) scale(1,1)"><path fill="none" stroke="#000000" d="M 344.5 80 L 344.5 440" stroke-miterlimit="10" stroke-dasharray="3"/></g><g transform="translate(-86,-6) scale(1,1)"><rect fill="#C0C0C0" stroke="none" x="583" y="47" width="83.2890625" height="39" opacity="0.2"/></g><g transform="translate(-86,-6) scale(1,1)"><rect fill="#ffffff" stroke="none" x="576" y="40" width="83.2890625" height="39"/></g><g transform="translate(-86,-6) scale(1,1)"><path fill="none" stroke="#000000" d="M 576 40 L 659.2890625 40 L 659.2890625 79 L 576 79 L 576 40 Z Z" stroke-miterlimit="10"/></g><g transform="translate(-86,-6) scale(1,1)"><g><path fill="none" stroke="none"/><text fill="#000000" stroke="none" font-family="Arial" font-size="13px" font-style="normal" font-weight="bold" text-decoration="none" x="585.5" y="58">: Category</text></g></g><g transform="translate(-86,-6) scale(1,1)"><path fill="none" stroke="#000000" d="M 618.5 80 L 618.5 432" stroke-miterlimit="10" stroke-dasharray="3"/></g><g transform="translate(-86,-6) scale(1,1)"><rect fill="#C0C0C0" stroke="none" x="783" y="47" width="71.736328125" height="39" opacity="0.2"/></g><g transform="translate(-86,-6) scale(1,1)"><rect fill="#ffffff" stroke="none" x="776" y="40" width="71.736328125" height="39"/></g><g transform="translate(-86,-6) scale(1,1)"><path fill="none" stroke="#000000" d="M 776 40 L 847.736328125 40 L 847.736328125 79 L 776 79 L 776 40 Z Z" stroke-miterlimit="10"/></g><g transform="translate(-86,-6) scale(1,1)"><g><path fill="none" stroke="none"/><text fill="#000000" stroke="none" font-family="Arial" font-size="13px" font-style="normal" font-weight="bold" text-decoration="none" x="788.391357421875" y="58">: Flavor</text></g></g><g transform="translate(-86,-6) scale(1,1)"><path fill="none" stroke="#000000" d="M 812.5 80 L 812.5 432" stroke-miterlimit="10" stroke-dasharray="3"/></g><g transform="translate(-86,-6) scale(1,1)"><path fill="#000000" stroke="none" d="M 128 128.5 C 128 124.6340064 131.1340064 121.5 135 121.5 C 138.8659936 121.5 142 124.6340064 142 128.5 C 142 132.3659936 138.8659936 135.5 135 135.5 C 131.1340064 135.5 128 132.3659936 128 128.5 Z"/></g><g transform="translate(-86,-6) scale(1,1)"><path fill="none" stroke="#000000" d="M 142 129 L 337 129" stroke-miterlimit="10"/></g><g transform="translate(-86,-6) scale(1,1)"><path fill="#000000" stroke="none" d="M 326.83732514237585 133.209517756016 L 337 129 L 326.83732514237585 124.79048224398402"/></g><g transform="translate(-86,-6) scale(1,1)"><path fill="none" stroke="#000000" d="M 326.83732514237585 133.209517756016 L 337 129 L 326.83732514237585 124.79048224398402 L 326.83732514237585 133.209517756016" stroke-miterlimit="10"/></g><g transform="translate(-86,-6) scale(1,1)"><g><path fill="none" stroke="none"/><text fill="#000000" stroke="none" font-family="Arial" font-size="13px" font-style="normal" font-weight="normal" text-decoration="none" x="176.53271484375" y="124">show(sortType, page)</text></g></g><g transform="translate(-86,-6) scale(1,1)"><rect fill="#ffffff" stroke="none" x="337" y="129" width="13" height="287"/></g><g transform="translate(-86,-6) scale(1,1)"><path fill="none" stroke="#000000" d="M 337 129 L 350 129 L 350 416 L 337 416 L 337 129 Z Z" stroke-miterlimit="10"/></g><g transform="translate(-86,-6) scale(1,1)"><path fill="none" stroke="#000000" d="M 350 152 L 380 152 L 380 172 L 357 172" stroke-miterlimit="10"/></g><g transform="translate(-86,-6) scale(1,1)"><path fill="#000000" stroke="none" d="M 367.16267485762415 167.790482243984 L 357 172 L 367.16267485762415 176.209517756016"/></g><g transform="translate(-86,-6) scale(1,1)"><path fill="none" stroke="#000000" d="M 367.16267485762415 167.790482243984 L 357 172 L 367.16267485762415 176.209517756016 L 367.16267485762415 167.790482243984" stroke-miterlimit="10"/></g><g transform="translate(-86,-6) scale(1,1)"><g><path fill="none" stroke="none"/><text fill="#000000" stroke="none" font-family="Arial" font-size="13px" font-style="normal" font-weight="normal" text-decoration="none" x="382.5" y="163">getAdminFromAttribute(attributeAdmin)</text></g></g><g transform="translate(-86,-6) scale(1,1)"><rect fill="#ffffff" stroke="none" x="344" y="172" width="13" height="28"/></g><g transform="translate(-86,-6) scale(1,1)"><path fill="none" stroke="#000000" d="M 344 172 L 357 172 L 357 200 L 344 200 L 344 172 Z Z" stroke-miterlimit="10"/></g><g transform="translate(-86,-6) scale(1,1)"><path fill="none" stroke="#000000" d="M 350 224 L 611 224" stroke-miterlimit="10"/></g><g transform="translate(-86,-6) scale(1,1)"><path fill="#000000" stroke="none" d="M 600.8373251423759 228.209517756016 L 611 224 L 600.8373251423758 219.790482243984"/></g><g transform="translate(-86,-6) scale(1,1)"><path fill="none" stroke="#000000" d="M 600.8373251423759 228.209517756016 L 611 224 L 600.8373251423758 219.790482243984 L 600.8373251423759 228.209517756016" stroke-miterlimit="10"/></g><g transform="translate(-86,-6) scale(1,1)"><g><path fill="none" stroke="none"/><text fill="#000000" stroke="none" font-family="Arial" font-size="13px" font-style="normal" font-weight="normal" text-decoration="none" x="458.93359375" y="219">getAll()</text></g></g><g transform="translate(-86,-6) scale(1,1)"><rect fill="#ffffff" stroke="none" x="611" y="224" width="13" height="28"/></g><g transform="translate(-86,-6) scale(1,1)"><path fill="none" stroke="#000000" d="M 611 224 L 624 224 L 624 252 L 611 252 L 611 224 Z Z" stroke-miterlimit="10"/></g><g transform="translate(-86,-6) scale(1,1)"><path fill="none" stroke="#000000" d="M 611 241 L 350 241" stroke-miterlimit="10" stroke-dasharray="3"/></g><g transform="translate(-86,-6) scale(1,1)"><path fill="none" stroke="#000000" d="M 360.16267485762415 236.790482243984 L 350 241 L 360.16267485762415 245.209517756016" stroke-miterlimit="10"/></g><g transform="translate(-86,-6) scale(1,1)"><g><path fill="none" stroke="none"/><text fill="#000000" stroke="none" font-family="Arial" font-size="13px" font-style="normal" font-weight="normal" text-decoration="none" x="448.53271484375" y="256">categories</text></g></g><g transform="translate(-86,-6) scale(1,1)"><path fill="none" stroke="#000000" d="M 350 288 L 805 288" stroke-miterlimit="10"/></g><g transform="translate(-86,-6) scale(1,1)"><path fill="#000000" stroke="none" d="M 794.8373251423759 292.209517756016 L 805 288 L 794.8373251423758 283.790482243984"/></g><g transform="translate(-86,-6) scale(1,1)"><path fill="none" stroke="#000000" d="M 794.8373251423759 292.209517756016 L 805 288 L 794.8373251423758 283.790482243984 L 794.8373251423759 292.209517756016" stroke-miterlimit="10"/></g><g transform="translate(-86,-6) scale(1,1)"><g><path fill="none" stroke="none"/><text fill="#000000" stroke="none" font-family="Arial" font-size="13px" font-style="normal" font-weight="normal" text-decoration="none" x="555.93359375" y="283">getAll()</text></g></g><g transform="translate(-86,-6) scale(1,1)"><rect fill="#ffffff" stroke="none" x="805" y="288" width="13" height="28"/></g><g transform="translate(-86,-6) scale(1,1)"><path fill="none" stroke="#000000" d="M 805 288 L 818 288 L 818 316 L 805 316 L 805 288 Z Z" stroke-miterlimit="10"/></g><g transform="translate(-86,-6) scale(1,1)"><path fill="none" stroke="#000000" d="M 805 304 L 350 304" stroke-miterlimit="10" stroke-dasharray="3"/></g><g transform="translate(-86,-6) scale(1,1)"><path fill="none" stroke="#000000" d="M 360.16267485762415 299.790482243984 L 350 304 L 360.16267485762415 308.209517756016" stroke-miterlimit="10"/></g><g transform="translate(-86,-6) scale(1,1)"><g><path fill="none" stroke="none"/><text fill="#000000" stroke="none" font-family="Arial" font-size="13px" font-style="normal" font-weight="normal" text-decoration="none" x="556.53271484375" y="319">flavors</text></g></g><g transform="translate(-86,-6) scale(1,1)"><path fill="none" stroke="#000000" d="M 350 344 L 380 344 L 380 364 L 357 364" stroke-miterlimit="10"/></g><g transform="translate(-86,-6) scale(1,1)"><path fill="#000000" stroke="none" d="M 367.16267485762415 359.790482243984 L 357 364 L 367.16267485762415 368.209517756016"/></g><g transform="translate(-86,-6) scale(1,1)"><path fill="none" stroke="#000000" d="M 367.16267485762415 359.790482243984 L 357 364 L 367.16267485762415 368.209517756016 L 367.16267485762415 359.790482243984" stroke-miterlimit="10"/></g><g transform="translate(-86,-6) scale(1,1)"><g><path fill="none" stroke="none"/><text fill="#000000" stroke="none" font-family="Arial" font-size="13px" font-style="normal" font-weight="normal" text-decoration="none" x="391.53271484375" y="358">getAll(pageable)</text></g></g><g transform="translate(-86,-6) scale(1,1)"><rect fill="#ffffff" stroke="none" x="344" y="364" width="13" height="28"/></g><g transform="translate(-86,-6) scale(1,1)"><path fill="none" stroke="#000000" d="M 344 364 L 357 364 L 357 392 L 344 392 L 344 364 Z Z" stroke-miterlimit="10"/></g></g></svg>