<svg version="1.1" xmlns="http://www.w3.org/2000/svg" xmlns:xlink="http://www.w3.org/1999/xlink" width="568.5673828125" height="260"><defs/><g><text fill="#eeeeee" stroke="none" font-family="Arial" font-size="24px" font-style="normal" font-weight="normal" text-decoration="none" x="0" y="0">UNREGISTERED</text><text fill="#eeeeee" stroke="none" font-family="Arial" font-size="24px" font-style="normal" font-weight="normal" text-decoration="none" x="0" y="30">UNREGISTERED</text><text fill="#eeeeee" stroke="none" font-family="Arial" font-size="24px" font-style="normal" font-weight="normal" text-decoration="none" x="0" y="60">UNREGISTERED</text><text fill="#eeeeee" stroke="none" font-family="Arial" font-size="24px" font-style="normal" font-weight="normal" text-decoration="none" x="0" y="90">UNREGISTERED</text><text fill="#eeeeee" stroke="none" font-family="Arial" font-size="24px" font-style="normal" font-weight="normal" text-decoration="none" x="0" y="120">UNREGISTERED</text><text fill="#eeeeee" stroke="none" font-family="Arial" font-size="24px" font-style="normal" font-weight="normal" text-decoration="none" x="0" y="150">UNREGISTERED</text><text fill="#eeeeee" stroke="none" font-family="Arial" font-size="24px" font-style="normal" font-weight="normal" text-decoration="none" x="0" y="180">UNREGISTERED</text><text fill="#eeeeee" stroke="none" font-family="Arial" font-size="24px" font-style="normal" font-weight="normal" text-decoration="none" x="0" y="210">UNREGISTERED</text><text fill="#eeeeee" stroke="none" font-family="Arial" font-size="24px" font-style="normal" font-weight="normal" text-decoration="none" x="0" y="240">UNREGISTERED</text><text fill="#eeeeee" stroke="none" font-family="Arial" font-size="24px" font-style="normal" font-weight="normal" text-decoration="none" x="200" y="0">UNREGISTERED</text><text fill="#eeeeee" stroke="none" font-family="Arial" font-size="24px" font-style="normal" font-weight="normal" text-decoration="none" x="200" y="30">UNREGISTERED</text><text fill="#eeeeee" stroke="none" font-family="Arial" font-size="24px" font-style="normal" font-weight="normal" text-decoration="none" x="200" y="60">UNREGISTERED</text><text fill="#eeeeee" stroke="none" font-family="Arial" font-size="24px" font-style="normal" font-weight="normal" text-decoration="none" x="200" y="90">UNREGISTERED</text><text fill="#eeeeee" stroke="none" font-family="Arial" font-size="24px" font-style="normal" font-weight="normal" text-decoration="none" x="200" y="120">UNREGISTERED</text><text fill="#eeeeee" stroke="none" font-family="Arial" font-size="24px" font-style="normal" font-weight="normal" text-decoration="none" x="200" y="150">UNREGISTERED</text><text fill="#eeeeee" stroke="none" font-family="Arial" font-size="24px" font-style="normal" font-weight="normal" text-decoration="none" x="200" y="180">UNREGISTERED</text><text fill="#eeeeee" stroke="none" font-family="Arial" font-size="24px" font-style="normal" font-weight="normal" text-decoration="none" x="200" y="210">UNREGISTERED</text><text fill="#eeeeee" stroke="none" font-family="Arial" font-size="24px" font-style="normal" font-weight="normal" text-decoration="none" x="200" y="240">UNREGISTERED</text><text fill="#eeeeee" stroke="none" font-family="Arial" font-size="24px" font-style="normal" font-weight="normal" text-decoration="none" x="400" y="0">UNREGISTERED</text><text fill="#eeeeee" stroke="none" font-family="Arial" font-size="24px" font-style="normal" font-weight="normal" text-decoration="none" x="400" y="30">UNREGISTERED</text><text fill="#eeeeee" stroke="none" font-family="Arial" font-size="24px" font-style="normal" font-weight="normal" text-decoration="none" x="400" y="60">UNREGISTERED</text><text fill="#eeeeee" stroke="none" font-family="Arial" font-size="24px" font-style="normal" font-weight="normal" text-decoration="none" x="400" y="90">UNREGISTERED</text><text fill="#eeeeee" stroke="none" font-family="Arial" font-size="24px" font-style="normal" font-weight="normal" text-decoration="none" x="400" y="120">UNREGISTERED</text><text fill="#eeeeee" stroke="none" font-family="Arial" font-size="24px" font-style="normal" font-weight="normal" text-decoration="none" x="400" y="150">UNREGISTERED</text><text fill="#eeeeee" stroke="none" font-family="Arial" font-size="24px" font-style="normal" font-weight="normal" text-decoration="none" x="400" y="180">UNREGISTERED</text><text fill="#eeeeee" stroke="none" font-family="Arial" font-size="24px" font-style="normal" font-weight="normal" text-decoration="none" x="400" y="210">UNREGISTERED</text><text fill="#eeeeee" stroke="none" font-family="Arial" font-size="24px" font-style="normal" font-weight="normal" text-decoration="none" x="400" y="240">UNREGISTERED</text><g transform="translate(-190,-14) scale(1,1)"><path fill="none" stroke="#000000" d="M 200 24 L 584 24 L 584 264 L 200 264 L 200 24" stroke-miterlimit="10"/></g><g transform="translate(-190,-14) scale(1,1)"><path fill="#ffffff" stroke="none" d="M 200 24 L 200 46 L 269.49169921875 46 L 280.49169921875 35 L 280.49169921875 24 L 200 24"/></g><g transform="translate(-190,-14) scale(1,1)"><path fill="none" stroke="#000000" d="M 200 24 L 200 46 L 269.49169921875 46 L 280.49169921875 35 L 280.49169921875 24 L 200 24 L 200 24" stroke-miterlimit="10"/></g><g transform="translate(-190,-14) scale(1,1)"><g><path fill="none" stroke="none"/><text fill="#000000" stroke="none" font-family="Arial" font-size="13px" font-style="normal" font-weight="normal" text-decoration="none" x="224.72998046875" y="40">update</text></g></g><g transform="translate(-190,-14) scale(1,1)"><g><path fill="none" stroke="none"/><text fill="#000000" stroke="none" font-family="Arial" font-size="13px" font-style="normal" font-weight="bold" text-decoration="none" x="204.279541015625" y="40">sd</text></g></g><g transform="translate(-190,-14) scale(1,1)"><rect fill="#C0C0C0" stroke="none" x="359" y="47" width="83.2890625" height="39" opacity="0.2"/></g><g transform="translate(-190,-14) scale(1,1)"><rect fill="#ffffff" stroke="none" x="352" y="40" width="83.2890625" height="39"/></g><g transform="translate(-190,-14) scale(1,1)"><path fill="none" stroke="#000000" d="M 352 40 L 435.2890625 40 L 435.2890625 79 L 352 79 L 352 40 Z Z" stroke-miterlimit="10"/></g><g transform="translate(-190,-14) scale(1,1)"><g><path fill="none" stroke="none"/><text fill="#000000" stroke="none" font-family="Arial" font-size="13px" font-style="normal" font-weight="bold" text-decoration="none" x="375.22998046875" y="58">: Staff</text></g></g><g transform="translate(-190,-14) scale(1,1)"><path fill="none" stroke="#000000" d="M 394.5 80 L 394.5 240" stroke-miterlimit="10" stroke-dasharray="3"/></g><g transform="translate(-190,-14) scale(1,1)"><path fill="#000000" stroke="none" d="M 232 111.5 C 232 107.6340064 235.1340064 104.5 239 104.5 C 242.8659936 104.5 246 107.6340064 246 111.5 C 246 115.3659936 242.8659936 118.5 239 118.5 C 235.1340064 118.5 232 115.3659936 232 111.5 Z"/></g><g transform="translate(-190,-14) scale(1,1)"><path fill="none" stroke="#000000" d="M 246 112 L 387 112" stroke-miterlimit="10"/></g><g transform="translate(-190,-14) scale(1,1)"><path fill="#000000" stroke="none" d="M 376.83732514237585 116.20951775601598 L 387 112 L 376.83732514237585 107.79048224398402"/></g><g transform="translate(-190,-14) scale(1,1)"><path fill="none" stroke="#000000" d="M 376.83732514237585 116.20951775601598 L 387 112 L 376.83732514237585 107.79048224398402 L 376.83732514237585 116.20951775601598" stroke-miterlimit="10"/></g><g transform="translate(-190,-14) scale(1,1)"><g><path fill="none" stroke="none"/><text fill="#000000" stroke="none" font-family="Arial" font-size="13px" font-style="normal" font-weight="normal" text-decoration="none" x="279.65966796875" y="107">update(staff)</text></g></g><g transform="translate(-190,-14) scale(1,1)"><rect fill="#ffffff" stroke="none" x="387" y="112" width="13" height="104"/></g><g transform="translate(-190,-14) scale(1,1)"><path fill="none" stroke="#000000" d="M 387 112 L 400 112 L 400 216 L 387 216 L 387 112 Z Z" stroke-miterlimit="10"/></g><g transform="translate(-190,-14) scale(1,1)"><path fill="none" stroke="#000000" d="M 400 136 L 430 136 L 430 156 L 407 156" stroke-miterlimit="10"/></g><g transform="translate(-190,-14) scale(1,1)"><path fill="#000000" stroke="none" d="M 417.16267485762415 151.790482243984 L 407 156 L 417.16267485762415 160.209517756016"/></g><g transform="translate(-190,-14) scale(1,1)"><path fill="none" stroke="#000000" d="M 417.16267485762415 151.790482243984 L 407 156 L 417.16267485762415 160.209517756016 L 417.16267485762415 151.790482243984" stroke-miterlimit="10"/></g><g transform="translate(-190,-14) scale(1,1)"><g><path fill="none" stroke="none"/><text fill="#000000" stroke="none" font-family="Arial" font-size="13px" font-style="normal" font-weight="normal" text-decoration="none" x="450.908447265625" y="147">update(staff)</text></g></g><g transform="translate(-190,-14) scale(1,1)"><rect fill="#ffffff" stroke="none" x="394" y="156" width="13" height="28"/></g><g transform="translate(-190,-14) scale(1,1)"><path fill="none" stroke="#000000" d="M 394 156 L 407 156 L 407 184 L 394 184 L 394 156 Z Z" stroke-miterlimit="10"/></g></g></svg>