<svg version="1.1" xmlns="http://www.w3.org/2000/svg" xmlns:xlink="http://www.w3.org/1999/xlink" width="711" height="300"><defs/><g><text fill="#eeeeee" stroke="none" font-family="Arial" font-size="24px" font-style="normal" font-weight="normal" text-decoration="none" x="0" y="0">UNREGISTERED</text><text fill="#eeeeee" stroke="none" font-family="Arial" font-size="24px" font-style="normal" font-weight="normal" text-decoration="none" x="0" y="30">UNREGISTERED</text><text fill="#eeeeee" stroke="none" font-family="Arial" font-size="24px" font-style="normal" font-weight="normal" text-decoration="none" x="0" y="60">UNREGISTERED</text><text fill="#eeeeee" stroke="none" font-family="Arial" font-size="24px" font-style="normal" font-weight="normal" text-decoration="none" x="0" y="90">UNREGISTERED</text><text fill="#eeeeee" stroke="none" font-family="Arial" font-size="24px" font-style="normal" font-weight="normal" text-decoration="none" x="0" y="120">UNREGISTERED</text><text fill="#eeeeee" stroke="none" font-family="Arial" font-size="24px" font-style="normal" font-weight="normal" text-decoration="none" x="0" y="150">UNREGISTERED</text><text fill="#eeeeee" stroke="none" font-family="Arial" font-size="24px" font-style="normal" font-weight="normal" text-decoration="none" x="0" y="180">UNREGISTERED</text><text fill="#eeeeee" stroke="none" font-family="Arial" font-size="24px" font-style="normal" font-weight="normal" text-decoration="none" x="0" y="210">UNREGISTERED</text><text fill="#eeeeee" stroke="none" font-family="Arial" font-size="24px" font-style="normal" font-weight="normal" text-decoration="none" x="0" y="240">UNREGISTERED</text><text fill="#eeeeee" stroke="none" font-family="Arial" font-size="24px" font-style="normal" font-weight="normal" text-decoration="none" x="0" y="270">UNREGISTERED</text><text fill="#eeeeee" stroke="none" font-family="Arial" font-size="24px" font-style="normal" font-weight="normal" text-decoration="none" x="200" y="0">UNREGISTERED</text><text fill="#eeeeee" stroke="none" font-family="Arial" font-size="24px" font-style="normal" font-weight="normal" text-decoration="none" x="200" y="30">UNREGISTERED</text><text fill="#eeeeee" stroke="none" font-family="Arial" font-size="24px" font-style="normal" font-weight="normal" text-decoration="none" x="200" y="60">UNREGISTERED</text><text fill="#eeeeee" stroke="none" font-family="Arial" font-size="24px" font-style="normal" font-weight="normal" text-decoration="none" x="200" y="90">UNREGISTERED</text><text fill="#eeeeee" stroke="none" font-family="Arial" font-size="24px" font-style="normal" font-weight="normal" text-decoration="none" x="200" y="120">UNREGISTERED</text><text fill="#eeeeee" stroke="none" font-family="Arial" font-size="24px" font-style="normal" font-weight="normal" text-decoration="none" x="200" y="150">UNREGISTERED</text><text fill="#eeeeee" stroke="none" font-family="Arial" font-size="24px" font-style="normal" font-weight="normal" text-decoration="none" x="200" y="180">UNREGISTERED</text><text fill="#eeeeee" stroke="none" font-family="Arial" font-size="24px" font-style="normal" font-weight="normal" text-decoration="none" x="200" y="210">UNREGISTERED</text><text fill="#eeeeee" stroke="none" font-family="Arial" font-size="24px" font-style="normal" font-weight="normal" text-decoration="none" x="200" y="240">UNREGISTERED</text><text fill="#eeeeee" stroke="none" font-family="Arial" font-size="24px" font-style="normal" font-weight="normal" text-decoration="none" x="200" y="270">UNREGISTERED</text><text fill="#eeeeee" stroke="none" font-family="Arial" font-size="24px" font-style="normal" font-weight="normal" text-decoration="none" x="400" y="0">UNREGISTERED</text><text fill="#eeeeee" stroke="none" font-family="Arial" font-size="24px" font-style="normal" font-weight="normal" text-decoration="none" x="400" y="30">UNREGISTERED</text><text fill="#eeeeee" stroke="none" font-family="Arial" font-size="24px" font-style="normal" font-weight="normal" text-decoration="none" x="400" y="60">UNREGISTERED</text><text fill="#eeeeee" stroke="none" font-family="Arial" font-size="24px" font-style="normal" font-weight="normal" text-decoration="none" x="400" y="90">UNREGISTERED</text><text fill="#eeeeee" stroke="none" font-family="Arial" font-size="24px" font-style="normal" font-weight="normal" text-decoration="none" x="400" y="120">UNREGISTERED</text><text fill="#eeeeee" stroke="none" font-family="Arial" font-size="24px" font-style="normal" font-weight="normal" text-decoration="none" x="400" y="150">UNREGISTERED</text><text fill="#eeeeee" stroke="none" font-family="Arial" font-size="24px" font-style="normal" font-weight="normal" text-decoration="none" x="400" y="180">UNREGISTERED</text><text fill="#eeeeee" stroke="none" font-family="Arial" font-size="24px" font-style="normal" font-weight="normal" text-decoration="none" x="400" y="210">UNREGISTERED</text><text fill="#eeeeee" stroke="none" font-family="Arial" font-size="24px" font-style="normal" font-weight="normal" text-decoration="none" x="400" y="240">UNREGISTERED</text><text fill="#eeeeee" stroke="none" font-family="Arial" font-size="24px" font-style="normal" font-weight="normal" text-decoration="none" x="400" y="270">UNREGISTERED</text><text fill="#eeeeee" stroke="none" font-family="Arial" font-size="24px" font-style="normal" font-weight="normal" text-decoration="none" x="600" y="0">UNREGISTERED</text><text fill="#eeeeee" stroke="none" font-family="Arial" font-size="24px" font-style="normal" font-weight="normal" text-decoration="none" x="600" y="30">UNREGISTERED</text><text fill="#eeeeee" stroke="none" font-family="Arial" font-size="24px" font-style="normal" font-weight="normal" text-decoration="none" x="600" y="60">UNREGISTERED</text><text fill="#eeeeee" stroke="none" font-family="Arial" font-size="24px" font-style="normal" font-weight="normal" text-decoration="none" x="600" y="90">UNREGISTERED</text><text fill="#eeeeee" stroke="none" font-family="Arial" font-size="24px" font-style="normal" font-weight="normal" text-decoration="none" x="600" y="120">UNREGISTERED</text><text fill="#eeeeee" stroke="none" font-family="Arial" font-size="24px" font-style="normal" font-weight="normal" text-decoration="none" x="600" y="150">UNREGISTERED</text><text fill="#eeeeee" stroke="none" font-family="Arial" font-size="24px" font-style="normal" font-weight="normal" text-decoration="none" x="600" y="180">UNREGISTERED</text><text fill="#eeeeee" stroke="none" font-family="Arial" font-size="24px" font-style="normal" font-weight="normal" text-decoration="none" x="600" y="210">UNREGISTERED</text><text fill="#eeeeee" stroke="none" font-family="Arial" font-size="24px" font-style="normal" font-weight="normal" text-decoration="none" x="600" y="240">UNREGISTERED</text><text fill="#eeeeee" stroke="none" font-family="Arial" font-size="24px" font-style="normal" font-weight="normal" text-decoration="none" x="600" y="270">UNREGISTERED</text><g transform="translate(-62,-158) scale(1,1)"><path fill="none" stroke="#000000" d="M 72 168 L 763 168 L 763 448 L 72 448 L 72 168" stroke-miterlimit="10"/></g><g transform="translate(-62,-158) scale(1,1)"><path fill="#ffffff" stroke="none" d="M 72 168 L 72 190 L 132.078125 190 L 143.078125 179 L 143.078125 168 L 72 168"/></g><g transform="translate(-62,-158) scale(1,1)"><path fill="none" stroke="#000000" d="M 72 168 L 72 190 L 132.078125 190 L 143.078125 179 L 143.078125 168 L 72 168 L 72 168" stroke-miterlimit="10"/></g><g transform="translate(-62,-158) scale(1,1)"><g><path fill="none" stroke="none"/><text fill="#000000" stroke="none" font-family="Arial" font-size="13px" font-style="normal" font-weight="normal" text-decoration="none" x="96.72998046875" y="184">show</text></g></g><g transform="translate(-62,-158) scale(1,1)"><g><path fill="none" stroke="none"/><text fill="#000000" stroke="none" font-family="Arial" font-size="13px" font-style="normal" font-weight="bold" text-decoration="none" x="76.279541015625" y="184">sd</text></g></g><g transform="translate(-62,-158) scale(1,1)"><rect fill="#C0C0C0" stroke="none" x="239" y="215" width="99" height="29" opacity="0.2"/></g><g transform="translate(-62,-158) scale(1,1)"><rect fill="#ffffff" stroke="none" x="232" y="208" width="99" height="29"/></g><g transform="translate(-62,-158) scale(1,1)"><path fill="none" stroke="#000000" d="M 232 208 L 331 208 L 331 237 L 232 237 L 232 208 Z Z" stroke-miterlimit="10"/></g><g transform="translate(-62,-158) scale(1,1)"><rect fill="#ffffff" stroke="none" x="232" y="208" width="99" height="29"/></g><g transform="translate(-62,-158) scale(1,1)"><path fill="none" stroke="#000000" d="M 232 208 L 331 208 L 331 237 L 232 237 L 232 208 Z Z" stroke-miterlimit="10"/></g><g transform="translate(-62,-158) scale(1,1)"><g><path fill="none" stroke="none"/><text fill="#000000" stroke="none" font-family="Arial" font-size="13px" font-style="normal" font-weight="bold" text-decoration="none" x="259.8291015625" y="226">: Order</text></g></g><g transform="translate(-62,-158) scale(1,1)"><rect fill="#C0C0C0" stroke="none" x="591" y="215" width="99" height="29" opacity="0.2"/></g><g transform="translate(-62,-158) scale(1,1)"><rect fill="#ffffff" stroke="none" x="584" y="208" width="99" height="29"/></g><g transform="translate(-62,-158) scale(1,1)"><path fill="none" stroke="#000000" d="M 584 208 L 683 208 L 683 237 L 584 237 L 584 208 Z Z" stroke-miterlimit="10"/></g><g transform="translate(-62,-158) scale(1,1)"><rect fill="#ffffff" stroke="none" x="584" y="208" width="99" height="29"/></g><g transform="translate(-62,-158) scale(1,1)"><path fill="none" stroke="#000000" d="M 584 208 L 683 208 L 683 237 L 584 237 L 584 208 Z Z" stroke-miterlimit="10"/></g><g transform="translate(-62,-158) scale(1,1)"><g><path fill="none" stroke="none"/><text fill="#000000" stroke="none" font-family="Arial" font-size="13px" font-style="normal" font-weight="bold" text-decoration="none" x="615.075927734375" y="226">: User</text></g></g><g transform="translate(-62,-158) scale(1,1)"><rect fill="#C0C0C0" stroke="none" x="239" y="415" width="99" height="29" opacity="0.2"/></g><g transform="translate(-62,-158) scale(1,1)"><rect fill="#ffffff" stroke="none" x="232" y="408" width="99" height="29"/></g><g transform="translate(-62,-158) scale(1,1)"><path fill="none" stroke="#000000" d="M 232 408 L 331 408 L 331 437 L 232 437 L 232 408 Z Z" stroke-miterlimit="10"/></g><g transform="translate(-62,-158) scale(1,1)"><rect fill="#ffffff" stroke="none" x="232" y="408" width="99" height="29"/></g><g transform="translate(-62,-158) scale(1,1)"><path fill="none" stroke="#000000" d="M 232 408 L 331 408 L 331 437 L 232 437 L 232 408 Z Z" stroke-miterlimit="10"/></g><g transform="translate(-62,-158) scale(1,1)"><g><path fill="none" stroke="none"/><text fill="#000000" stroke="none" font-family="Arial" font-size="13px" font-style="normal" font-weight="bold" text-decoration="none" x="264.5263671875" y="426">: Cart</text></g></g><g transform="translate(-62,-158) scale(1,1)"><path fill="none" stroke="#000000" d="M 332 222 L 583 222" stroke-miterlimit="10"/></g><g transform="translate(-62,-158) scale(1,1)"><path fill="none" stroke="#000000" d="M 477 212 L 437 212" stroke-miterlimit="10"/></g><g transform="translate(-62,-158) scale(1,1)"><path fill="#000000" stroke="none" d="M 465 216 L 477 212 L 465 207"/></g><g transform="translate(-62,-158) scale(1,1)"><g><path fill="none" stroke="none"/><text fill="#000000" stroke="none" font-family="Arial" font-size="13px" font-style="normal" font-weight="normal" text-decoration="none" x="345.103271484375" y="206">1. getUserFromAttribute(attributeUser)</text></g></g><g transform="translate(-62,-158) scale(1,1)"><path fill="none" stroke="#000000" d="M 88 224 L 231 223" stroke-miterlimit="10"/></g><g transform="translate(-62,-158) scale(1,1)"><path fill="none" stroke="#000000" d="M 332 222 L 583 222" stroke-miterlimit="10"/></g><g transform="translate(-62,-158) scale(1,1)"><path fill="none" stroke="#000000" d="M 167 214 L 127 214" stroke-miterlimit="10"/></g><g transform="translate(-62,-158) scale(1,1)"><path fill="#000000" stroke="none" d="M 155 218 L 167 214 L 155 209"/></g><g transform="translate(-62,-158) scale(1,1)"><g><path fill="none" stroke="none"/><text fill="#000000" stroke="none" font-family="Arial" font-size="13px" font-style="normal" font-weight="normal" text-decoration="none" x="126.496826171875" y="208">show()</text></g></g><g transform="translate(-62,-158) scale(1,1)"><path fill="none" stroke="#000000" d="M 281 238 L 281 407" stroke-miterlimit="10"/></g><g transform="translate(-62,-158) scale(1,1)"><path fill="none" stroke="#000000" d="M 289 303 L 289 263" stroke-miterlimit="10"/></g><g transform="translate(-62,-158) scale(1,1)"><path fill="#000000" stroke="none" d="M 284 291 L 289 303 L 293 291"/></g><g transform="translate(-62,-158) scale(1,1)"><g><path fill="none" stroke="none"/><text fill="#000000" stroke="none" font-family="Arial" font-size="13px" font-style="normal" font-weight="normal" text-decoration="none" x="302.080078125" y="277">2: getCurrentCartFromUserId(userId)</text></g></g><g transform="translate(-62,-158) scale(1,1)"><path fill="none" stroke="#000000" d="M 281 238 L 281 407" stroke-miterlimit="10"/></g><g transform="translate(-62,-158) scale(1,1)"><path fill="none" stroke="#000000" d="M 303 374 L 303 334" stroke-miterlimit="10"/></g><g transform="translate(-62,-158) scale(1,1)"><path fill="#000000" stroke="none" d="M 298 362 L 303 374 L 307 362"/></g><g transform="translate(-62,-158) scale(1,1)"><g><path fill="none" stroke="none"/><text fill="#000000" stroke="none" font-family="Arial" font-size="13px" font-style="normal" font-weight="normal" text-decoration="none" x="307.59326171875" y="339">3 [cart != null] getCartItemList()</text></g></g></g></svg>