<svg version="1.1" xmlns="http://www.w3.org/2000/svg" xmlns:xlink="http://www.w3.org/1999/xlink" width="724" height="348"><defs/><g><text fill="#eeeeee" stroke="none" font-family="Arial" font-size="24px" font-style="normal" font-weight="normal" text-decoration="none" x="0" y="0">UNREGISTERED</text><text fill="#eeeeee" stroke="none" font-family="Arial" font-size="24px" font-style="normal" font-weight="normal" text-decoration="none" x="0" y="30">UNREGISTERED</text><text fill="#eeeeee" stroke="none" font-family="Arial" font-size="24px" font-style="normal" font-weight="normal" text-decoration="none" x="0" y="60">UNREGISTERED</text><text fill="#eeeeee" stroke="none" font-family="Arial" font-size="24px" font-style="normal" font-weight="normal" text-decoration="none" x="0" y="90">UNREGISTERED</text><text fill="#eeeeee" stroke="none" font-family="Arial" font-size="24px" font-style="normal" font-weight="normal" text-decoration="none" x="0" y="120">UNREGISTERED</text><text fill="#eeeeee" stroke="none" font-family="Arial" font-size="24px" font-style="normal" font-weight="normal" text-decoration="none" x="0" y="150">UNREGISTERED</text><text fill="#eeeeee" stroke="none" font-family="Arial" font-size="24px" font-style="normal" font-weight="normal" text-decoration="none" x="0" y="180">UNREGISTERED</text><text fill="#eeeeee" stroke="none" font-family="Arial" font-size="24px" font-style="normal" font-weight="normal" text-decoration="none" x="0" y="210">UNREGISTERED</text><text fill="#eeeeee" stroke="none" font-family="Arial" font-size="24px" font-style="normal" font-weight="normal" text-decoration="none" x="0" y="240">UNREGISTERED</text><text fill="#eeeeee" stroke="none" font-family="Arial" font-size="24px" font-style="normal" font-weight="normal" text-decoration="none" x="0" y="270">UNREGISTERED</text><text fill="#eeeeee" stroke="none" font-family="Arial" font-size="24px" font-style="normal" font-weight="normal" text-decoration="none" x="0" y="300">UNREGISTERED</text><text fill="#eeeeee" stroke="none" font-family="Arial" font-size="24px" font-style="normal" font-weight="normal" text-decoration="none" x="0" y="330">UNREGISTERED</text><text fill="#eeeeee" stroke="none" font-family="Arial" font-size="24px" font-style="normal" font-weight="normal" text-decoration="none" x="200" y="0">UNREGISTERED</text><text fill="#eeeeee" stroke="none" font-family="Arial" font-size="24px" font-style="normal" font-weight="normal" text-decoration="none" x="200" y="30">UNREGISTERED</text><text fill="#eeeeee" stroke="none" font-family="Arial" font-size="24px" font-style="normal" font-weight="normal" text-decoration="none" x="200" y="60">UNREGISTERED</text><text fill="#eeeeee" stroke="none" font-family="Arial" font-size="24px" font-style="normal" font-weight="normal" text-decoration="none" x="200" y="90">UNREGISTERED</text><text fill="#eeeeee" stroke="none" font-family="Arial" font-size="24px" font-style="normal" font-weight="normal" text-decoration="none" x="200" y="120">UNREGISTERED</text><text fill="#eeeeee" stroke="none" font-family="Arial" font-size="24px" font-style="normal" font-weight="normal" text-decoration="none" x="200" y="150">UNREGISTERED</text><text fill="#eeeeee" stroke="none" font-family="Arial" font-size="24px" font-style="normal" font-weight="normal" text-decoration="none" x="200" y="180">UNREGISTERED</text><text fill="#eeeeee" stroke="none" font-family="Arial" font-size="24px" font-style="normal" font-weight="normal" text-decoration="none" x="200" y="210">UNREGISTERED</text><text fill="#eeeeee" stroke="none" font-family="Arial" font-size="24px" font-style="normal" font-weight="normal" text-decoration="none" x="200" y="240">UNREGISTERED</text><text fill="#eeeeee" stroke="none" font-family="Arial" font-size="24px" font-style="normal" font-weight="normal" text-decoration="none" x="200" y="270">UNREGISTERED</text><text fill="#eeeeee" stroke="none" font-family="Arial" font-size="24px" font-style="normal" font-weight="normal" text-decoration="none" x="200" y="300">UNREGISTERED</text><text fill="#eeeeee" stroke="none" font-family="Arial" font-size="24px" font-style="normal" font-weight="normal" text-decoration="none" x="200" y="330">UNREGISTERED</text><text fill="#eeeeee" stroke="none" font-family="Arial" font-size="24px" font-style="normal" font-weight="normal" text-decoration="none" x="400" y="0">UNREGISTERED</text><text fill="#eeeeee" stroke="none" font-family="Arial" font-size="24px" font-style="normal" font-weight="normal" text-decoration="none" x="400" y="30">UNREGISTERED</text><text fill="#eeeeee" stroke="none" font-family="Arial" font-size="24px" font-style="normal" font-weight="normal" text-decoration="none" x="400" y="60">UNREGISTERED</text><text fill="#eeeeee" stroke="none" font-family="Arial" font-size="24px" font-style="normal" font-weight="normal" text-decoration="none" x="400" y="90">UNREGISTERED</text><text fill="#eeeeee" stroke="none" font-family="Arial" font-size="24px" font-style="normal" font-weight="normal" text-decoration="none" x="400" y="120">UNREGISTERED</text><text fill="#eeeeee" stroke="none" font-family="Arial" font-size="24px" font-style="normal" font-weight="normal" text-decoration="none" x="400" y="150">UNREGISTERED</text><text fill="#eeeeee" stroke="none" font-family="Arial" font-size="24px" font-style="normal" font-weight="normal" text-decoration="none" x="400" y="180">UNREGISTERED</text><text fill="#eeeeee" stroke="none" font-family="Arial" font-size="24px" font-style="normal" font-weight="normal" text-decoration="none" x="400" y="210">UNREGISTERED</text><text fill="#eeeeee" stroke="none" font-family="Arial" font-size="24px" font-style="normal" font-weight="normal" text-decoration="none" x="400" y="240">UNREGISTERED</text><text fill="#eeeeee" stroke="none" font-family="Arial" font-size="24px" font-style="normal" font-weight="normal" text-decoration="none" x="400" y="270">UNREGISTERED</text><text fill="#eeeeee" stroke="none" font-family="Arial" font-size="24px" font-style="normal" font-weight="normal" text-decoration="none" x="400" y="300">UNREGISTERED</text><text fill="#eeeeee" stroke="none" font-family="Arial" font-size="24px" font-style="normal" font-weight="normal" text-decoration="none" x="400" y="330">UNREGISTERED</text><text fill="#eeeeee" stroke="none" font-family="Arial" font-size="24px" font-style="normal" font-weight="normal" text-decoration="none" x="600" y="0">UNREGISTERED</text><text fill="#eeeeee" stroke="none" font-family="Arial" font-size="24px" font-style="normal" font-weight="normal" text-decoration="none" x="600" y="30">UNREGISTERED</text><text fill="#eeeeee" stroke="none" font-family="Arial" font-size="24px" font-style="normal" font-weight="normal" text-decoration="none" x="600" y="60">UNREGISTERED</text><text fill="#eeeeee" stroke="none" font-family="Arial" font-size="24px" font-style="normal" font-weight="normal" text-decoration="none" x="600" y="90">UNREGISTERED</text><text fill="#eeeeee" stroke="none" font-family="Arial" font-size="24px" font-style="normal" font-weight="normal" text-decoration="none" x="600" y="120">UNREGISTERED</text><text fill="#eeeeee" stroke="none" font-family="Arial" font-size="24px" font-style="normal" font-weight="normal" text-decoration="none" x="600" y="150">UNREGISTERED</text><text fill="#eeeeee" stroke="none" font-family="Arial" font-size="24px" font-style="normal" font-weight="normal" text-decoration="none" x="600" y="180">UNREGISTERED</text><text fill="#eeeeee" stroke="none" font-family="Arial" font-size="24px" font-style="normal" font-weight="normal" text-decoration="none" x="600" y="210">UNREGISTERED</text><text fill="#eeeeee" stroke="none" font-family="Arial" font-size="24px" font-style="normal" font-weight="normal" text-decoration="none" x="600" y="240">UNREGISTERED</text><text fill="#eeeeee" stroke="none" font-family="Arial" font-size="24px" font-style="normal" font-weight="normal" text-decoration="none" x="600" y="270">UNREGISTERED</text><text fill="#eeeeee" stroke="none" font-family="Arial" font-size="24px" font-style="normal" font-weight="normal" text-decoration="none" x="600" y="300">UNREGISTERED</text><text fill="#eeeeee" stroke="none" font-family="Arial" font-size="24px" font-style="normal" font-weight="normal" text-decoration="none" x="600" y="330">UNREGISTERED</text><g transform="translate(-94,-14) scale(1,1)"><path fill="none" stroke="#000000" d="M 104 24 L 808 24 L 808 352 L 104 352 L 104 24" stroke-miterlimit="10"/></g><g transform="translate(-94,-14) scale(1,1)"><path fill="#ffffff" stroke="none" d="M 104 24 L 104 46 L 197.8095703125 46 L 208.8095703125 35 L 208.8095703125 24 L 104 24"/></g><g transform="translate(-94,-14) scale(1,1)"><path fill="none" stroke="#000000" d="M 104 24 L 104 46 L 197.8095703125 46 L 208.8095703125 35 L 208.8095703125 24 L 104 24 L 104 24" stroke-miterlimit="10"/></g><g transform="translate(-94,-14) scale(1,1)"><g><path fill="none" stroke="none"/><text fill="#000000" stroke="none" font-family="Arial" font-size="13px" font-style="normal" font-weight="normal" text-decoration="none" x="128.72998046875" y="40">DeleteStaff</text></g></g><g transform="translate(-94,-14) scale(1,1)"><g><path fill="none" stroke="none"/><text fill="#000000" stroke="none" font-family="Arial" font-size="13px" font-style="normal" font-weight="bold" text-decoration="none" x="108.279541015625" y="40">sd</text></g></g><g transform="translate(-94,-14) scale(1,1)"><rect fill="#ffffff" stroke="none" x="112" y="216" width="679" height="112"/></g><g transform="translate(-94,-14) scale(1,1)"><path fill="none" stroke="#000000" d="M 112 216 L 791 216 L 791 328 L 112 328 L 112 216 Z Z" stroke-miterlimit="10"/></g><g transform="translate(-94,-14) scale(1,1)"><rect fill="#ffffff" stroke="none" x="112" y="120" width="679" height="104"/></g><g transform="translate(-94,-14) scale(1,1)"><path fill="none" stroke="#000000" d="M 112 120 L 791 120 L 791 224 L 112 224 L 112 120 Z Z" stroke-miterlimit="10"/></g><g transform="translate(-94,-14) scale(1,1)"><path fill="#ffffff" stroke="none" d="M 408.9981551846591 47.3 C 408.9981551846591 43.82060576 411.8765569068409 41 415.42724609375 41 C 418.9779352806591 41 421.856337002841 43.82060576 421.856337002841 47.3 C 421.856337002841 50.779394239999995 418.9779352806591 53.6 415.42724609375 53.6 C 411.8765569068409 53.6 408.9981551846591 50.779394239999995 408.9981551846591 47.3 Z"/></g><g transform="translate(-94,-14) scale(1,1)"><path fill="none" stroke="#000000" d="M 408.9981551846591 47.3 C 408.9981551846591 43.82060576 411.8765569068409 41 415.42724609375 41 C 418.9779352806591 41 421.856337002841 43.82060576 421.856337002841 47.3 C 421.856337002841 50.779394239999995 418.9779352806591 53.6 415.42724609375 53.6 C 411.8765569068409 53.6 408.9981551846591 50.779394239999995 408.9981551846591 47.3 Z" stroke-miterlimit="10"/></g><g transform="translate(-94,-14) scale(1,1)"><path fill="none" stroke="#000000" d="M 415.42724609375 53.6 L 415.42724609375 66.4" stroke-miterlimit="10"/></g><g transform="translate(-94,-14) scale(1,1)"><path fill="none" stroke="#000000" d="M 408.61997336647727 58.4 L 422.2345188210228 58.4" stroke-miterlimit="10"/></g><g transform="translate(-94,-14) scale(1,1)"><path fill="none" stroke="#000000" d="M 415.42724609375 66.4 L 405.97270063920456 79" stroke-miterlimit="10"/></g><g transform="translate(-94,-14) scale(1,1)"><path fill="none" stroke="#000000" d="M 415.42724609375 66.4 L 424.8817915482955 79" stroke-miterlimit="10"/></g><g transform="translate(-94,-14) scale(1,1)"><g><path fill="none" stroke="none"/><text fill="#000000" stroke="none" font-family="Arial" font-size="13px" font-style="normal" font-weight="bold" text-decoration="none" x="391.236328125" y="98">: Admin</text></g></g><g transform="translate(-94,-14) scale(1,1)"><path fill="none" stroke="#000000" d="M 416.5 105 L 416.5 336" stroke-miterlimit="10" stroke-dasharray="3"/></g><g transform="translate(-94,-14) scale(1,1)"><rect fill="#C0C0C0" stroke="none" x="679" y="47" width="73.18994140625" height="39" opacity="0.2"/></g><g transform="translate(-94,-14) scale(1,1)"><rect fill="#ffffff" stroke="none" x="672" y="40" width="73.18994140625" height="39"/></g><g transform="translate(-94,-14) scale(1,1)"><path fill="none" stroke="#000000" d="M 672 40 L 745.18994140625 40 L 745.18994140625 79 L 672 79 L 672 40 Z Z" stroke-miterlimit="10"/></g><g transform="translate(-94,-14) scale(1,1)"><g><path fill="none" stroke="none"/><text fill="#000000" stroke="none" font-family="Arial" font-size="13px" font-style="normal" font-weight="bold" text-decoration="none" x="681.5" y="58">: System</text></g></g><g transform="translate(-94,-14) scale(1,1)"><path fill="none" stroke="#000000" d="M 709.5 80 L 709.5 336" stroke-miterlimit="10" stroke-dasharray="3"/></g><g transform="translate(-94,-14) scale(1,1)"><g><path fill="none" stroke="none"/><text fill="#000000" stroke="none" font-family="Arial" font-size="13px" font-style="normal" font-weight="normal" text-decoration="none" x="141" y="143">1. Trong danh sách nhân viên, người</text><text fill="#000000" stroke="none" font-family="Arial" font-size="13px" font-style="normal" font-weight="normal" text-decoration="none" x="141" y="157">dùng nhấn biểu tượng "Delete" của</text><text fill="#000000" stroke="none" font-family="Arial" font-size="13px" font-style="normal" font-weight="normal" text-decoration="none" x="141" y="170">nhân viên mong muốn</text></g></g><g transform="translate(-94,-14) scale(1,1)"><g><path fill="none" stroke="none"/><text fill="#000000" stroke="none" font-family="Arial" font-size="13px" font-style="normal" font-weight="normal" text-decoration="none" x="141" y="280">4. Hệ thống hiển thị danh sách nhân</text><text fill="#000000" stroke="none" font-family="Arial" font-size="13px" font-style="normal" font-weight="normal" text-decoration="none" x="141" y="292">viên</text></g></g><g transform="translate(-94,-14) scale(1,1)"><g><path fill="none" stroke="none"/><text fill="#000000" stroke="none" font-family="Arial" font-size="13px" font-style="normal" font-weight="normal" text-decoration="none" x="141" y="192">2. Hệ thống hiển thị thông báo "Are you</text><text fill="#000000" stroke="none" font-family="Arial" font-size="13px" font-style="normal" font-weight="normal" text-decoration="none" x="141" y="204">sure you want to delete these</text><text fill="#000000" stroke="none" font-family="Arial" font-size="13px" font-style="normal" font-weight="normal" text-decoration="none" x="141" y="217">Records?" </text></g></g><g transform="translate(-94,-14) scale(1,1)"><g><path fill="none" stroke="none"/><text fill="#000000" stroke="none" font-family="Arial" font-size="13px" font-style="normal" font-weight="normal" text-decoration="none" x="141" y="248">3. Người dùng nhấn "Delete"</text></g></g><g transform="translate(-94,-14) scale(1,1)"><g><path fill="none" stroke="none"/><text fill="#000000" stroke="none" font-family="Arial" font-size="13px" font-style="normal" font-weight="normal" text-decoration="none" x="141" y="312">5. Kết thúc việc xoá nhân viên</text></g></g><g transform="translate(-94,-14) scale(1,1)"><path fill="none" stroke="#000000" d="M 709 161 L 416 161" stroke-miterlimit="10" stroke-dasharray="3"/></g><g transform="translate(-94,-14) scale(1,1)"><path fill="none" stroke="#000000" d="M 426.16267485762415 156.790482243984 L 416 161 L 426.16267485762415 165.209517756016" stroke-miterlimit="10"/></g><g transform="translate(-94,-14) scale(1,1)"><g><path fill="none" stroke="none"/><text fill="#000000" stroke="none" font-family="Arial" font-size="13px" font-style="normal" font-weight="normal" text-decoration="none" x="516.9345703125" y="176">Announcement</text></g></g><g transform="translate(-94,-14) scale(1,1)"><path fill="none" stroke="#000000" d="M 416 248 L 709 248" stroke-miterlimit="10"/></g><g transform="translate(-94,-14) scale(1,1)"><path fill="none" stroke="#000000" d="M 698.8373251423759 252.209517756016 L 709 248 L 698.8373251423758 243.790482243984" stroke-miterlimit="10"/></g><g transform="translate(-94,-14) scale(1,1)"><g><path fill="none" stroke="none"/><text fill="#000000" stroke="none" font-family="Arial" font-size="13px" font-style="normal" font-weight="normal" text-decoration="none" x="535.233154296875" y="243">delete(id)</text></g></g><g transform="translate(-94,-14) scale(1,1)"><path fill="none" stroke="#000000" d="M 709 288 L 416 288" stroke-miterlimit="10" stroke-dasharray="3"/></g><g transform="translate(-94,-14) scale(1,1)"><path fill="none" stroke="#000000" d="M 426.16267485762415 283.790482243984 L 416 288 L 426.16267485762415 292.209517756016" stroke-miterlimit="10"/></g><g transform="translate(-94,-14) scale(1,1)"><g><path fill="none" stroke="none"/><text fill="#000000" stroke="none" font-family="Arial" font-size="13px" font-style="normal" font-weight="normal" text-decoration="none" x="530.931884765625" y="303">ListOfStaff</text></g></g></g></svg>